<svg width="16" height="16" viewBox="0 0 16 16" fill="none" xmlns="http://www.w3.org/2000/svg">
<path d="M3.5 2.125H12.5C13.3203 2.125 14 2.83705 14 3.69643V5.26786C14 6.15179 13.3203 6.83929 12.5 6.83929H3.5C2.65625 6.83929 2 6.15179 2 5.26786V3.69643C2 2.83705 2.65625 2.125 3.5 2.125ZM10.0625 3.89286C9.73438 3.89286 9.5 4.16295 9.5 4.48214C9.5 4.82589 9.73438 5.07143 10.0625 5.07143C10.3672 5.07143 10.625 4.82589 10.625 4.48214C10.625 4.16295 10.3672 3.89286 10.0625 3.89286ZM11.1875 4.48214C11.1875 4.82589 11.4219 5.07143 11.75 5.07143C12.0547 5.07143 12.3125 4.82589 12.3125 4.48214C12.3125 4.16295 12.0547 3.89286 11.75 3.89286C11.4219 3.89286 11.1875 4.16295 11.1875 4.48214ZM3.5 8.41071H12.5C13.3203 8.41071 14 9.12277 14 9.98214V11.5536C14 12.4375 13.3203 13.125 12.5 13.125H3.5C2.65625 13.125 2 12.4375 2 11.5536V9.98214C2 9.12277 2.65625 8.41071 3.5 8.41071ZM10.0625 10.1786C9.73438 10.1786 9.5 10.4487 9.5 10.7679C9.5 11.1116 9.73438 11.3571 10.0625 11.3571C10.3672 11.3571 10.625 11.1116 10.625 10.7679C10.625 10.4487 10.3672 10.1786 10.0625 10.1786ZM11.375 10.7679C11.375 11.1116 11.6094 11.3571 11.9375 11.3571C12.2422 11.3571 12.5 11.1116 12.5 10.7679C12.5 10.4487 12.2422 10.1786 11.9375 10.1786C11.6094 10.1786 11.375 10.4487 11.375 10.7679Z" fill="#001E24"/>
</svg>
