<svg width="16" height="16" viewBox="0 0 16 16" fill="none" xmlns="http://www.w3.org/2000/svg">
<path d="M2 3.69643C2 2.83705 2.65625 2.125 3.5 2.125H12.5C13.3203 2.125 14 2.83705 14 3.69643V11.5536C14 12.4375 13.3203 13.125 12.5 13.125H3.5C2.65625 13.125 2 12.4375 2 11.5536V3.69643ZM9.57031 6.32366C9.47656 6.15179 9.28906 6.05357 9.125 6.05357C8.9375 6.05357 8.75 6.15179 8.65625 6.32366L6.61719 9.46652L5.98438 8.6317C5.89062 8.50893 5.72656 8.41071 5.5625 8.41071C5.375 8.41071 5.21094 8.50893 5.11719 8.6317L3.61719 10.596C3.47656 10.7924 3.45312 11.0379 3.54688 11.2344C3.64062 11.4308 3.82812 11.5536 4.0625 11.5536H6.3125H7.0625H11.9375C12.125 11.5536 12.3359 11.4554 12.4297 11.2589C12.5234 11.0625 12.5 10.817 12.3828 10.6451L9.57031 6.32366ZM4.625 6.05357C5.02344 6.05357 5.375 5.83259 5.58594 5.46429C5.79688 5.12054 5.79688 4.65402 5.58594 4.28571C5.375 3.94196 5.02344 3.69643 4.625 3.69643C4.20312 3.69643 3.85156 3.94196 3.64062 4.28571C3.42969 4.65402 3.42969 5.12054 3.64062 5.46429C3.85156 5.83259 4.20312 6.05357 4.625 6.05357Z" fill="#116C7E"/>
</svg>
