<svg width="16" height="16" viewBox="0 0 16 16" fill="none" xmlns="http://www.w3.org/2000/svg">
<path d="M14.0104 7.25C14.0104 9.94531 11.3151 12.125 8.01042 12.125C7.11979 12.125 6.29948 11.9844 5.54948 11.7266C5.29167 11.9141 4.82292 12.1953 4.28385 12.4297C3.72135 12.6875 3.04167 12.875 2.38542 12.875C2.22135 12.875 2.08073 12.8047 2.03385 12.6641C1.96354 12.5234 2.01042 12.3594 2.10417 12.2422C2.1276 12.2422 2.1276 12.2188 2.15104 12.1953C2.17448 12.1719 2.22135 12.125 2.26823 12.0781C2.36198 11.9609 2.47917 11.7734 2.61979 11.5625C2.85417 11.1875 3.0651 10.6719 3.11198 10.0859C2.40885 9.28906 2.01042 8.32812 2.01042 7.25C2.01042 4.57812 4.68229 2.375 8.01042 2.375C11.3151 2.375 14.0104 4.57812 14.0104 7.25Z" fill="#116C7E"/>
</svg>
