<svg width="16" height="16" viewBox="0 0 16 16" fill="none" xmlns="http://www.w3.org/2000/svg">
<path d="M4.66667 1.125H8.83333V4.375C8.83333 4.83203 9.19792 5.1875 9.66667 5.1875H13V12.5C13 13.4141 12.2448 14.125 11.3333 14.125H4.66667C3.72917 14.125 3 13.4141 3 12.5V2.75C3 1.86133 3.72917 1.125 4.66667 1.125ZM9.66667 1.125L13 4.375H9.66667V1.125ZM4.66667 7.625C4.66667 8.08203 5.03125 8.4375 5.5 8.4375C5.94271 8.4375 6.33333 8.08203 6.33333 7.625C6.33333 7.19336 5.94271 6.8125 5.5 6.8125C5.03125 6.8125 4.66667 7.19336 4.66667 7.625ZM8.625 8.4375V8.46289C8.46875 8.46289 8.33854 8.51367 8.26042 8.61523L7.01042 10.418L6.67188 9.85938C6.59375 9.73242 6.46354 9.65625 6.33333 9.65625C6.17708 9.65625 6.04688 9.73242 5.96875 9.85938L4.71875 11.8906C4.64063 12.0176 4.64063 12.1699 4.71875 12.2969C4.77083 12.4238 4.92708 12.5 5.08333 12.5H6.33333H7.58333H8.625H10.9167C11.0729 12.5 11.2031 12.4238 11.2813 12.2969C11.3333 12.1699 11.3333 11.9922 11.2552 11.8652L8.96354 8.61523C8.88542 8.51367 8.75521 8.4375 8.625 8.4375Z" fill="#A9A9A9"/>
</svg>
