<svg width="16" height="16" viewBox="0 0 16 16" xmlns="http://www.w3.org/2000/svg">
<path d="M8.2659 2.125C8.66434 2.125 9.0159 2.47656 9.0159 2.875V3.34375C10.7268 3.67188 12.0159 5.19531 12.0159 7V7.44531C12.0159 8.54688 12.4143 9.625 13.1409 10.4453L13.305 10.6328C13.5159 10.8672 13.5628 11.1719 13.4456 11.4531C13.3284 11.7109 13.0472 11.875 12.7659 11.875H3.7659C3.46122 11.875 3.17997 11.7109 3.06278 11.4531C2.94559 11.1719 2.99247 10.8672 3.2034 10.6328L3.36747 10.4453C4.09403 9.625 4.5159 8.54688 4.5159 7.44531V7C4.5159 5.19531 5.80497 3.67188 7.5159 3.34375V2.875C7.5159 2.47656 7.84403 2.125 8.2659 2.125ZM9.32059 13.7031C9.03934 13.9844 8.66434 14.125 8.2659 14.125C7.86747 14.125 7.46903 13.9844 7.18778 13.7031C6.90653 13.4219 6.7659 13.0234 6.7659 12.625H8.2659H9.7659C9.7659 13.0234 9.60184 13.4219 9.32059 13.7031Z" />
</svg>
