<svg width="16" height="16" viewBox="0 0 16 16" fill="none" xmlns="http://www.w3.org/2000/svg">
<path d="M7.05208 13.1014C6.42014 12.8747 5.30208 12.5572 4.5 12.5572C3.55208 12.5572 2.33681 12.852 1.58333 13.0787C1.29167 13.1694 1 12.9654 1 12.716V4.30403C1 4.03195 1.14583 3.78254 1.4375 3.69184C2.11806 3.44243 3.26042 3.125 4.5 3.125C5.90972 3.125 7.00347 3.57847 7.48958 3.94125C7.5625 4.00927 7.61111 4.09997 7.61111 4.19066V12.7386C7.61111 13.0107 7.31944 13.1921 7.05208 13.1014ZM8.92361 13.1014C8.65625 13.1921 8.38889 13.0107 8.38889 12.7386V4.19066C8.38889 4.09997 8.41319 4.00927 8.51042 3.94125C8.97222 3.57847 10.066 3.125 11.5 3.125C12.7153 3.125 13.8576 3.44243 14.5382 3.69184C14.8299 3.78254 15 4.03195 15 4.30403V12.716C15 12.9654 14.684 13.1694 14.3924 13.0787C13.6389 12.852 12.4236 12.5572 11.5 12.5572C10.6736 12.5572 9.57986 12.8747 8.92361 13.1014Z" fill="#A9A9A9"/>
</svg>
