<svg width="63" height="104" viewBox="0 0 63 104" fill="none" xmlns="http://www.w3.org/2000/svg">
<g clip-path="url(#clip0_24_2672)">
<g filter="url(#filter0_d_24_2672)">
<path d="M26.5998 99.69C31.3851 99.69 35.8212 99.147 39.8997 98.0781C43.9782 97.0006 44.3359 95.3887 42.7351 94.1302C41.1429 92.8716 35.1145 90.7167 32.4494 88.7427C29.7928 86.7687 29.7928 80.6658 29.614 75.6403C29.4352 70.6149 29.9716 58.047 31.5639 53.3835C33.1561 48.7201 37.0643 47.6426 39.8997 43.1516C42.7351 38.6606 41.1429 35.7902 41.1429 35.7902C41.1429 35.7902 45.9281 33.2731 49.4787 29.3252C53.0293 25.3772 53.1996 19.4553 53.1996 19.4553H0C0 19.4553 0.178808 25.3772 3.72091 29.3252C7.26301 33.2731 12.0568 35.7902 12.0568 35.7902C12.0568 35.7902 10.456 38.6606 13.2999 43.1516C16.1353 47.6426 20.035 48.7115 21.6358 53.3835C23.228 58.0556 23.7644 70.6149 23.5856 75.6403C23.4068 80.6658 23.4068 86.7687 20.7502 88.7427C18.0937 90.7167 12.0653 92.8716 10.4645 94.1302C8.87228 95.3887 9.22138 97.0006 13.2999 98.0781C17.3784 99.1556 21.8061 99.69 26.5998 99.69Z" fill="white"/>
<path d="M4.61493 24.8083C4.99809 25.6186 5.48342 26.4203 6.11351 27.1185C9.20433 30.5578 13.5042 32.8594 13.5468 32.8766L17.0804 34.3075L14.9262 37.3159C14.824 37.6693 14.5686 39.083 16.0246 41.3759C17.0208 42.9534 18.2214 44.0481 19.49 45.2032C21.3718 46.9186 23.5175 48.8667 24.684 52.2974C25.7143 55.3144 27.4768 55.3144 28.5071 52.2974C29.6821 48.858 31.8193 46.9186 33.7095 45.2032C34.9782 44.0481 36.1788 42.9534 37.175 41.3759C38.6225 39.083 38.3671 37.6693 38.2734 37.3159L36.3235 34.6265L39.6528 32.8766C39.6953 32.8508 43.9612 30.5923 47.0861 27.1185C47.3841 26.7909 47.648 26.4289 47.8865 26.0668C39.7464 28.4718 13.9725 23.9722 4.62344 24.8083H4.61493Z" fill="#F42200"/>
<path d="M26.3188 2.54291C28.3198 6.5943 33.9395 11.8352 39.5251 14.4988C49.7342 19.3605 58.7427 17.9468 58.7427 17.9468L46.9414 2.54291H26.3274H26.3188Z" fill="#008B99"/>
<path d="M42.8104 9.03261L29.5012 39.1819L30.4185 39.597L43.7277 9.44762L42.8104 9.03261Z" fill="#F9CA58"/>
<path d="M39.176 3.9566L42.2242 8.68035L44.4806 9.61993H50.1854L49.7427 8.77517L44.685 9.03377L48.0738 7.38735L46.9924 6.79258L43.9442 8.62863L45.4683 5.54268L44.2933 4.99962L43.1097 8.28383L41.0492 3.9566H39.176Z" fill="#F9CA58"/>
<path d="M48.159 3.15495C47.7928 3.87903 46.9243 4.16349 46.2091 3.79283C45.4939 3.42217 45.2129 2.54294 45.579 1.81886L46.0899 0.801701C46.456 0.0776232 47.3245 -0.206836 48.0397 0.163823C48.755 0.534482 49.036 1.41372 48.6698 2.1378L48.159 3.15495Z" fill="#F9CA58"/>
<path d="M56.7929 15.3867L46.9414 2.54291H26.3274C26.3274 2.54291 26.3615 2.60325 26.3785 2.63773C31.93 2.78427 46.2432 2.98253 56.7929 15.3953V15.3867Z" fill="#04ABC9"/>
</g>
</g>
<defs>
<filter id="filter0_d_24_2672" x="0" y="0.00128174" width="63.7427" height="104.689" filterUnits="userSpaceOnUse" color-interpolation-filters="sRGB">
<feFlood flood-opacity="0" result="BackgroundImageFix"/>
<feColorMatrix in="SourceAlpha" type="matrix" values="0 0 0 0 0 0 0 0 0 0 0 0 0 0 0 0 0 0 127 0" result="hardAlpha"/>
<feOffset dx="5" dy="5"/>
<feColorMatrix type="matrix" values="0 0 0 0 0 0 0 0 0 0 0 0 0 0 0 0 0 0 0.1 0"/>
<feBlend mode="normal" in2="BackgroundImageFix" result="effect1_dropShadow_24_2672"/>
<feBlend mode="normal" in="SourceGraphic" in2="effect1_dropShadow_24_2672" result="shape"/>
</filter>
<clipPath id="clip0_24_2672">
<rect width="63" height="104" fill="white"/>
</clipPath>
</defs>
</svg>
