<?xml version="1.0" encoding="UTF-8"?>
<svg xmlns="http://www.w3.org/2000/svg" version="1.1" viewBox="0 0 819.4 173.2">
  <defs>
    <style>
      .cls-1 {
        fill: #2c4447;
      }

      .cls-2 {
        fill: #fff;
      }

      .cls-3 {
        fill: #92d5e3;
      }

      .cls-4 {
        fill: #116c7e;
      }

      .cls-5 {
        fill: #ed332b;
      }

      .cls-6 {
        fill: #bdcfd1;
      }

      .cls-7 {
        fill: #a5a5a5;
      }

      .cls-8 {
        fill: #1abdca;
      }
    </style>
  </defs>
  <!-- Generator: Adobe Illustrator 28.6.0, SVG Export Plug-In . SVG Version: 1.2.0 Build 709)  -->
  <g>
    <g id="Layer_1">
      <g>
        <g>
          <g>
            <rect class="cls-8" x="535.4" y="124" width="18.9" height="4.4"/>
            <rect class="cls-8" x="535.4" y="156.2" width="18.9" height="4.4"/>
            <rect class="cls-8" x="556.2" y="124" width="18.9" height="4.4"/>
            <rect class="cls-8" x="556.2" y="156.2" width="18.9" height="4.4"/>
            <rect class="cls-8" x="576.9" y="124" width="18.9" height="4.4"/>
            <rect class="cls-8" x="576.9" y="156.2" width="18.9" height="4.4"/>
            <rect class="cls-8" x="597.6" y="124" width="18.9" height="4.4"/>
            <rect class="cls-8" x="597.6" y="156.2" width="18.9" height="4.4"/>
            <rect class="cls-8" x="618.4" y="124" width="18.9" height="4.4"/>
            <rect class="cls-8" x="618.4" y="156.2" width="18.9" height="4.4"/>
            <rect class="cls-8" x="639.1" y="124" width="18.9" height="4.4"/>
            <rect class="cls-8" x="639.1" y="156.2" width="18.9" height="4.4"/>
            <rect class="cls-8" x="411" y="124" width="18.9" height="4.4"/>
            <rect class="cls-8" x="411" y="156.2" width="18.9" height="4.4"/>
            <rect class="cls-8" x="431.7" y="124" width="18.9" height="4.4"/>
            <rect class="cls-8" x="431.7" y="156.2" width="18.9" height="4.4"/>
            <rect class="cls-8" x="452.5" y="124" width="18.9" height="4.4"/>
            <rect class="cls-8" x="452.5" y="156.2" width="18.9" height="4.4"/>
            <rect class="cls-8" x="473.2" y="124" width="18.9" height="4.4"/>
            <rect class="cls-8" x="473.2" y="156.2" width="18.9" height="4.4"/>
            <rect class="cls-8" x="493.9" y="124" width="18.9" height="4.4"/>
            <rect class="cls-8" x="493.9" y="156.2" width="18.9" height="4.4"/>
            <rect class="cls-8" x="514.7" y="124" width="18.9" height="4.4"/>
            <rect class="cls-8" x="514.7" y="156.2" width="18.9" height="4.4"/>
            <rect class="cls-8" x="390.2" y="124" width="18.9" height="4.4"/>
            <rect class="cls-8" x="390.2" y="156.2" width="18.9" height="4.4"/>
            <rect class="cls-8" x="265.8" y="124" width="18.9" height="4.4"/>
            <rect class="cls-8" x="265.8" y="156.2" width="18.9" height="4.4"/>
            <rect class="cls-8" x="286.6" y="124" width="18.9" height="4.4"/>
            <rect class="cls-8" x="286.6" y="156.2" width="18.9" height="4.4"/>
            <rect class="cls-8" x="307.3" y="124" width="18.9" height="4.4"/>
            <rect class="cls-8" x="307.3" y="156.2" width="18.9" height="4.4"/>
            <rect class="cls-8" x="328" y="124" width="18.9" height="4.4"/>
            <rect class="cls-8" x="328" y="156.2" width="18.9" height="4.4"/>
            <rect class="cls-8" x="182.9" y="124" width="18.9" height="4.4"/>
            <rect class="cls-8" x="182.9" y="156.2" width="18.9" height="4.4"/>
            <rect class="cls-8" x="203.6" y="124" width="18.9" height="4.4"/>
            <rect class="cls-8" x="203.6" y="156.2" width="18.9" height="4.4"/>
            <rect class="cls-8" x="224.3" y="124" width="18.9" height="4.4"/>
            <rect class="cls-8" x="224.3" y="156.2" width="18.9" height="4.4"/>
            <rect class="cls-8" x="245.1" y="124" width="18.9" height="4.4"/>
            <rect class="cls-8" x="245.1" y="156.2" width="18.9" height="4.4"/>
            <rect class="cls-8" x="348.8" y="124" width="18.9" height="4.4"/>
            <rect class="cls-8" x="348.8" y="156.2" width="18.9" height="4.4"/>
            <rect class="cls-8" x="369.5" y="124" width="18.9" height="4.4"/>
            <rect class="cls-8" x="369.5" y="156.2" width="18.9" height="4.4"/>
            <g>
              <path class="cls-8" d="M670.1,132.7c2.2,2.3,3.6,5.3,3.8,8.6h4.4c-.2-4.5-2.1-8.6-5.1-11.7l-3.1,3.1h0Z"/>
              <path class="cls-8" d="M673.9,143.4c-.3,3.3-1.7,6.3-3.9,8.6l3.1,3.1c3-3.1,4.9-7.2,5.2-11.7h-4.4,0Z"/>
              <path class="cls-8" d="M668.5,153.3c-2.3,1.8-5.3,2.9-8.5,2.9v4.4c4.4,0,8.4-1.5,11.6-4.1l-3.1-3.1h0Z"/>
              <path class="cls-8" d="M671.7,128.2c-3.2-2.6-7.2-4.2-11.6-4.2v4.4c3.2,0,6.2,1.1,8.5,2.9l3.1-3.1Z"/>
            </g>
            <g>
              <path class="cls-4" d="M269.8,143.5v-2.6l-2.8-.4c0-.8-.3-1.5-.6-2.2l2.2-1.8c-.4-.8-.8-1.5-1.3-2.2l-2.6,1c-.5-.6-1-1.1-1.6-1.6l1-2.6c-.7-.5-1.4-.9-2.2-1.3l-1.8,2.2c-.7-.3-1.4-.5-2.2-.6l-.4-2.8h-2.6l-.4,2.8c-.8.1-1.5.3-2.2.6l-1.8-2.2c-.8.4-1.5.8-2.2,1.3l1,2.6c-.6.5-1.1,1-1.6,1.6l-2.6-1c-.5.7-.9,1.4-1.3,2.2l2.2,1.8c-.3.7-.5,1.4-.6,2.2l-2.8.4v2.6l2.8.4c0,.8.3,1.5.6,2.2l-2.2,1.8c.4.8.8,1.5,1.3,2.2l2.6-1c.5.6,1,1.1,1.6,1.6l-1,2.6c.7.5,1.4.9,2.2,1.3l1.8-2.2c.7.3,1.4.5,2.2.6l.4,2.8h2.6l.4-2.8c.8,0,1.5-.3,2.2-.6l1.8,2.2c.8-.4,1.5-.8,2.2-1.3l-1-2.6c.6-.5,1.1-1,1.6-1.6l2.6,1c.5-.7.9-1.4,1.3-2.2l-2.2-1.8c.3-.7.5-1.4.6-2.2l2.8-.4ZM256.3,149.6c-4.1,0-7.4-3.3-7.4-7.4s3.3-7.4,7.4-7.4,7.4,3.3,7.4,7.4-3.3,7.4-7.4,7.4Z"/>
              <circle class="cls-2" cx="256.3" cy="142.3" r="5.3"/>
            </g>
            <g>
              <path class="cls-4" d="M351.8,143.5v-2.6l-2.8-.4c0-.8-.3-1.5-.6-2.2l2.2-1.8c-.4-.8-.8-1.5-1.3-2.2l-2.6,1c-.5-.6-1-1.1-1.6-1.6l1-2.6c-.7-.5-1.4-.9-2.2-1.3l-1.8,2.2c-.7-.3-1.4-.5-2.2-.6l-.4-2.8h-2.6l-.4,2.8c-.8.1-1.5.3-2.2.6l-1.8-2.2c-.8.4-1.5.8-2.2,1.3l1,2.6c-.6.5-1.1,1-1.6,1.6l-2.6-1c-.5.7-.9,1.4-1.3,2.2l2.2,1.8c-.3.7-.5,1.4-.6,2.2l-2.8.4v2.6l2.8.4c0,.8.3,1.5.6,2.2l-2.2,1.8c.4.8.8,1.5,1.3,2.2l2.6-1c.5.6,1,1.1,1.6,1.6l-1,2.6c.7.5,1.4.9,2.2,1.3l1.8-2.2c.7.3,1.4.5,2.2.6l.4,2.8h2.6l.4-2.8c.8,0,1.5-.3,2.2-.6l1.8,2.2c.8-.4,1.5-.8,2.2-1.3l-1-2.6c.6-.5,1.1-1,1.6-1.6l2.6,1c.5-.7.9-1.4,1.3-2.2l-2.2-1.8c.3-.7.5-1.4.6-2.2l2.8-.4ZM338.4,149.6c-4.1,0-7.4-3.3-7.4-7.4s3.3-7.4,7.4-7.4,7.4,3.3,7.4,7.4-3.3,7.4-7.4,7.4Z"/>
              <circle class="cls-2" cx="338.4" cy="142.3" r="5.3"/>
            </g>
            <g>
              <path class="cls-8" d="M433.9,143.5v-2.6l-2.8-.4c0-.8-.3-1.5-.6-2.2l2.2-1.8c-.4-.8-.8-1.5-1.3-2.2l-2.6,1c-.5-.6-1-1.1-1.6-1.6l1-2.6c-.7-.5-1.4-.9-2.2-1.3l-1.8,2.2c-.7-.3-1.4-.5-2.2-.6l-.4-2.8h-2.6l-.4,2.8c-.8.1-1.5.3-2.2.6l-1.8-2.2c-.8.4-1.5.8-2.2,1.3l1,2.6c-.6.5-1.1,1-1.6,1.6l-2.6-1c-.5.7-.9,1.4-1.3,2.2l2.2,1.8c-.3.7-.5,1.4-.6,2.2l-2.8.4v2.6l2.8.4c0,.8.3,1.5.6,2.2l-2.2,1.8c.4.8.8,1.5,1.3,2.2l2.6-1c.5.6,1,1.1,1.6,1.6l-1,2.6c.7.5,1.4.9,2.2,1.3l1.8-2.2c.7.3,1.4.5,2.2.6l.4,2.8h2.6l.4-2.8c.8,0,1.5-.3,2.2-.6l1.8,2.2c.8-.4,1.5-.8,2.2-1.3l-1-2.6c.6-.5,1.1-1,1.6-1.6l2.6,1c.5-.7.9-1.4,1.3-2.2l-2.2-1.8c.3-.7.5-1.4.6-2.2l2.8-.4ZM420.4,149.6c-4.1,0-7.4-3.3-7.4-7.4s3.3-7.4,7.4-7.4,7.4,3.3,7.4,7.4-3.3,7.4-7.4,7.4Z"/>
              <circle class="cls-8" cx="420.4" cy="142.3" r="5.3"/>
            </g>
            <g>
              <path class="cls-4" d="M515.9,143.5v-2.6l-2.8-.4c0-.8-.3-1.5-.6-2.2l2.2-1.8c-.4-.8-.8-1.5-1.3-2.2l-2.6,1c-.5-.6-1-1.1-1.6-1.6l1-2.6c-.7-.5-1.4-.9-2.2-1.3l-1.8,2.2c-.7-.3-1.4-.5-2.2-.6l-.4-2.8h-2.6l-.4,2.8c-.8.1-1.5.3-2.2.6l-1.8-2.2c-.8.4-1.5.8-2.2,1.3l1,2.6c-.6.5-1.1,1-1.6,1.6l-2.6-1c-.5.7-.9,1.4-1.3,2.2l2.2,1.8c-.3.7-.5,1.4-.6,2.2l-2.8.4v2.6l2.8.4c0,.8.3,1.5.6,2.2l-2.2,1.8c.4.8.8,1.5,1.3,2.2l2.6-1c.5.6,1,1.1,1.6,1.6l-1,2.6c.7.5,1.4.9,2.2,1.3l1.8-2.2c.7.3,1.4.5,2.2.6l.4,2.8h2.6l.4-2.8c.8,0,1.5-.3,2.2-.6l1.8,2.2c.8-.4,1.5-.8,2.2-1.3l-1-2.6c.6-.5,1.1-1,1.6-1.6l2.6,1c.5-.7.9-1.4,1.3-2.2l-2.2-1.8c.3-.7.5-1.4.6-2.2l2.8-.4ZM502.5,149.6c-4.1,0-7.4-3.3-7.4-7.4s3.3-7.4,7.4-7.4,7.4,3.3,7.4,7.4-3.3,7.4-7.4,7.4Z"/>
              <circle class="cls-2" cx="502.5" cy="142.3" r="5.3"/>
            </g>
            <g>
              <path class="cls-4" d="M597.9,143.5v-2.6l-2.8-.4c0-.8-.3-1.5-.6-2.2l2.2-1.8c-.4-.8-.8-1.5-1.3-2.2l-2.6,1c-.5-.6-1-1.1-1.6-1.6l1-2.6c-.7-.5-1.4-.9-2.2-1.3l-1.8,2.2c-.7-.3-1.4-.5-2.2-.6l-.4-2.8h-2.6l-.4,2.8c-.8.1-1.5.3-2.2.6l-1.8-2.2c-.8.4-1.5.8-2.2,1.3l1,2.6c-.6.5-1.1,1-1.6,1.6l-2.6-1c-.5.7-.9,1.4-1.3,2.2l2.2,1.8c-.3.7-.5,1.4-.6,2.2l-2.8.4v2.6l2.8.4c0,.8.3,1.5.6,2.2l-2.2,1.8c.4.8.8,1.5,1.3,2.2l2.6-1c.5.6,1,1.1,1.6,1.6l-1,2.6c.7.5,1.4.9,2.2,1.3l1.8-2.2c.7.3,1.4.5,2.2.6l.4,2.8h2.6l.4-2.8c.8,0,1.5-.3,2.2-.6l1.8,2.2c.8-.4,1.5-.8,2.2-1.3l-1-2.6c.6-.5,1.1-1,1.6-1.6l2.6,1c.5-.7.9-1.4,1.3-2.2l-2.2-1.8c.3-.7.5-1.4.6-2.2l2.8-.4ZM584.5,149.6c-4.1,0-7.4-3.3-7.4-7.4s3.3-7.4,7.4-7.4,7.4,3.3,7.4,7.4-3.3,7.4-7.4,7.4Z"/>
              <circle class="cls-2" cx="584.5" cy="142.3" r="5.3"/>
            </g>
            <g>
              <path class="cls-4" d="M673.5,143.5v-2.6l-2.8-.4c0-.8-.3-1.5-.6-2.2l2.2-1.8c-.4-.8-.8-1.5-1.3-2.2l-2.6,1c-.5-.6-1-1.1-1.6-1.6l1-2.6c-.7-.5-1.4-.9-2.2-1.3l-1.8,2.2c-.7-.3-1.4-.5-2.2-.6l-.4-2.8h-2.6l-.4,2.8c-.8.1-1.5.3-2.2.6l-1.8-2.2c-.8.4-1.5.8-2.2,1.3l1,2.6c-.6.5-1.1,1-1.6,1.6l-2.6-1c-.5.7-.9,1.4-1.3,2.2l2.2,1.8c-.3.7-.5,1.4-.6,2.2l-2.8.4v2.6l2.8.4c0,.8.3,1.5.6,2.2l-2.2,1.8c.4.8.8,1.5,1.3,2.2l2.6-1c.5.6,1,1.1,1.6,1.6l-1,2.6c.7.5,1.4.9,2.2,1.3l1.8-2.2c.7.3,1.4.5,2.2.6l.4,2.8h2.6l.4-2.8c.8,0,1.5-.3,2.2-.6l1.8,2.2c.8-.4,1.5-.8,2.2-1.3l-1-2.6c.6-.5,1.1-1,1.6-1.6l2.6,1c.5-.7.9-1.4,1.3-2.2l-2.2-1.8c.3-.7.5-1.4.6-2.2l2.8-.4ZM660.1,149.6c-4.1,0-7.4-3.3-7.4-7.4s3.3-7.4,7.4-7.4,7.4,3.3,7.4,7.4-3.3,7.4-7.4,7.4Z"/>
              <circle class="cls-2" cx="660.1" cy="142.3" r="5.3"/>
            </g>
            <rect class="cls-8" x="162.1" y="156.2" width="18.9" height="4.4"/>
            <rect class="cls-8" x="162.1" y="124" width="18.9" height="4.4"/>
            <g>
              <path class="cls-8" d="M150,151.9c-2.2-2.3-3.6-5.3-3.8-8.6h-4.4c.2,4.5,2.1,8.6,5.1,11.7l3.1-3.1h0Z"/>
              <path class="cls-8" d="M146.2,141.2c.3-3.3,1.7-6.3,3.9-8.6l-3.1-3.1c-3,3.1-4.9,7.2-5.2,11.7h4.4Z"/>
              <path class="cls-8" d="M151.6,131.2c2.3-1.8,5.3-2.9,8.5-2.9v-4.4c-4.4,0-8.4,1.5-11.6,4.1l3.1,3.1h0Z"/>
              <path class="cls-8" d="M148.4,156.4c3.2,2.6,7.2,4.2,11.6,4.2v-4.4c-3.2,0-6.2-1.1-8.5-2.9l-3.1,3.1h0Z"/>
            </g>
            <g>
              <path class="cls-4" d="M146.6,141v2.6l2.8.4c.1.8.3,1.5.6,2.2l-2.2,1.8c.4.8.8,1.5,1.3,2.2l2.6-1c.5.6,1,1.1,1.6,1.6l-1,2.6c.7.5,1.4.9,2.2,1.3l1.8-2.2c.7.3,1.4.5,2.2.6l.4,2.8h2.6l.4-2.8c.8,0,1.5-.3,2.2-.6l1.8,2.2c.8-.4,1.5-.8,2.2-1.3l-1-2.6c.6-.5,1.1-1,1.6-1.6l2.6,1c.5-.7.9-1.4,1.3-2.2l-2.2-1.8c.3-.7.5-1.4.6-2.2l2.8-.4v-2.6l-2.8-.4c0-.8-.3-1.5-.6-2.2l2.2-1.8c-.4-.8-.8-1.5-1.3-2.2l-2.6,1c-.5-.6-1-1.1-1.6-1.6l1-2.6c-.7-.5-1.4-.9-2.2-1.3l-1.8,2.2c-.7-.3-1.4-.5-2.2-.6l-.4-2.8h-2.6l-.4,2.8c-.8.1-1.5.3-2.2.6l-1.8-2.2c-.8.4-1.5.8-2.2,1.3l1,2.6c-.6.5-1.1,1-1.6,1.6l-2.6-1c-.5.7-.9,1.4-1.3,2.2l2.2,1.8c-.3.7-.5,1.4-.6,2.2l-2.8.4h0ZM160.1,134.9c4.1,0,7.4,3.3,7.4,7.4s-3.3,7.4-7.4,7.4-7.4-3.3-7.4-7.4,3.3-7.4,7.4-7.4Z"/>
              <circle class="cls-2" cx="160.1" cy="142.3" r="5.3"/>
            </g>
          </g>
          <path class="cls-7" d="M211.8,100.1h-21.7c-.9,0-1.6.7-1.6,1.6v16.7c0,.9.7,1.6,1.6,1.6h21.7c.9,0,1.6-.7,1.6-1.6v-16.7c0-.9-.7-1.6-1.6-1.6ZM211.8,101.7v11.8l-3.1-2.9c-.5-.4-1.2-.4-1.6,0l-3.1,3.2-6.2-7.7c-.5-.6-1.3-.6-1.8,0l-5.8,7v-11.5h21.7-.1ZM205.1,106c0-1.2,1-2.2,2.2-2.2s2.2,1,2.2,2.2-1,2.2-2.2,2.2-2.2-1-2.2-2.2Z"/>
          <path class="cls-7" d="M285.4,100.1h-21.7c-.9,0-1.6.7-1.6,1.6v16.7c0,.9.7,1.6,1.6,1.6h21.7c.9,0,1.6-.7,1.6-1.6v-16.7c0-.9-.7-1.6-1.6-1.6ZM285.4,101.7v11.8l-3.1-2.9c-.5-.4-1.2-.4-1.6,0l-3.1,3.2-6.2-7.7c-.5-.6-1.3-.6-1.8,0l-5.8,7v-11.5h21.7-.1ZM278.7,106c0-1.2,1-2.2,2.2-2.2s2.2,1,2.2,2.2-1,2.2-2.2,2.2-2.2-1-2.2-2.2Z"/>
          <path class="cls-7" d="M322.1,100.1h-21.7c-.9,0-1.6.7-1.6,1.6v16.7c0,.9.7,1.6,1.6,1.6h21.7c.9,0,1.6-.7,1.6-1.6v-16.7c0-.9-.7-1.6-1.6-1.6ZM322.1,101.7v11.8l-3.1-2.9c-.5-.4-1.2-.4-1.6,0l-3.1,3.2-6.2-7.7c-.5-.6-1.3-.6-1.8,0l-5.8,7v-11.5h21.7-.1ZM315.4,106c0-1.2,1-2.2,2.2-2.2s2.2,1,2.2,2.2-1,2.2-2.2,2.2-2.2-1-2.2-2.2Z"/>
          <g>
            <path class="cls-7" d="M249.6,120.4h-24c-.2,0-.4-.3-.5-.5v-19.3c0-.3.3-.3.6-.4h23.9c.4,0,.5.3.7.6v19s0,.2,0,.2c-.2.2-.3.3-.6.4ZM228.7,101.7c-.2.1-.3.2-.4.5v.7c0,.2.3.3.4.3h.4c.2-.2.4-.3.4-.6s0-.5-.2-.6c0-.2-.3-.2-.5-.2h-.3.2ZM234.6,101.7c-.2.1-.4.3-.5.5v.6c0,.2.3.4.5.4h.3c.2,0,.4-.2.5-.4v-.7c0-.2-.2-.4-.4-.4h-.4,0ZM240.5,101.7c-.2.1-.4.3-.4.6s0,.4,0,.6c0,.2.3.3.5.3h.3c.2-.1.4-.3.4-.5v-.5c0-.2-.2-.3-.5-.4h-.4,0ZM246.2,101.7c-.2.1-.3.3-.4.5v.6c0,.2.3.4.4.4h.4c.2-.1.4-.3.4-.5v-.7c0-.2-.2-.3-.4-.3h-.4ZM227.9,104.4c-.2.1-.5.3-.5.6,0,.5,0,1.1,0,1.6v8.7c0,0,0,.3,0,.4,0,.2.3.4.6.4h19.6c.3-.2.5-.3.6-.7,0-.4,0-.9,0-1.3v-8.8c0-.1,0-.3-.2-.4,0-.2-.3-.4-.6-.4h-19.7,0ZM228.8,117.2c-.2.1-.4.2-.5.5v.6c0,.2.3.4.5.5h.3c.2-.1.4-.3.5-.5v-.7c0-.2-.2-.3-.4-.3h-.4ZM234.6,117.3c-.2.1-.3.3-.4.5v.6c0,.2.2.2.4.3h.4c.2-.2.4-.3.4-.6s0-.4-.2-.6c0-.1-.3-.3-.5-.3h-.3.2ZM240.5,117.3c-.2.1-.4.2-.5.5v.6c0,.2.2.3.4.4h.4c.2-.1.4-.2.4-.5v-.7c0-.1-.3-.3-.4-.3h-.3ZM246.3,117.3c-.2,0-.4.2-.5.4v.6c0,.2.3.4.4.4h.4c.2-.1.4-.3.5-.5,0-.2,0-.5,0-.7,0-.1-.3-.3-.4-.3h-.3Z"/>
            <path class="cls-7" d="M238.5,112.5l-2.4,1.5c-.4.2-.8.5-1.1.7h-.4c-.2,0-.4-.2-.5-.4,0,0,0-.2,0-.3v-7.9c0-.3.3-.4.5-.5h.3c0,0,.2,0,.3.1.3.2.7.5,1,.7l2.9,1.9,1.7,1.1c.2.2.5.3.7.5,0,.2.2.4,0,.6,0,0,0,.2-.2.3-.2.2-.5.3-.8.5l-2,1.2Z"/>
          </g>
          <g>
            <path class="cls-7" d="M359.9,120.4h-24c-.2,0-.4-.3-.5-.5v-19.3c0-.3.3-.3.6-.4h23.9c.4,0,.5.3.7.6v19s0,.2,0,.2c-.2.2-.3.3-.6.4ZM339,101.7c-.2.1-.3.2-.4.5v.7c0,.2.3.3.4.3h.4c.2-.2.4-.3.4-.6s0-.5-.2-.6c0-.2-.3-.2-.5-.2h-.3.2ZM344.8,101.7c-.2.1-.4.3-.5.5v.6c0,.2.3.4.5.4h.3c.2,0,.4-.2.5-.4v-.7c0-.2-.2-.4-.4-.4h-.4,0ZM350.7,101.7c-.2.1-.4.3-.4.6s0,.4,0,.6c0,.2.3.3.5.3h.3c.2-.1.4-.3.4-.5v-.5c0-.2-.2-.3-.5-.4h-.4,0ZM356.5,101.7c-.2.1-.3.3-.4.5v.6c0,.2.3.4.4.4h.4c.2-.1.4-.3.4-.5v-.7c0-.2-.2-.3-.4-.3h-.4ZM338.2,104.4c-.2.1-.5.3-.5.6,0,.5,0,1.1,0,1.6v8.7c0,0,0,.3,0,.4,0,.2.3.4.6.4h19.6c.3-.2.5-.3.6-.7,0-.4,0-.9,0-1.3v-8.8c0-.1,0-.3-.2-.4,0-.2-.3-.4-.6-.4h-19.7,0ZM339,117.2c-.2.1-.4.2-.5.5v.6c0,.2.3.4.5.5h.3c.2-.1.4-.3.5-.5v-.7c0-.2-.2-.3-.4-.3h-.4ZM344.9,117.3c-.2.1-.3.3-.4.5v.6c0,.2.2.2.4.3h.4c.2-.2.4-.3.4-.6s0-.4-.2-.6c0-.1-.3-.3-.5-.3h-.3.2ZM350.8,117.3c-.2.1-.4.2-.5.5v.6c0,.2.2.3.4.4h.4c.2-.1.4-.2.4-.5v-.7c0-.1-.3-.3-.4-.3h-.3ZM356.6,117.3c-.2,0-.4.2-.5.4v.6c0,.2.3.4.4.4h.4c.2-.1.4-.3.5-.5,0-.2,0-.5,0-.7,0-.1-.3-.3-.4-.3h-.3Z"/>
            <path class="cls-7" d="M348.8,112.5l-2.4,1.5c-.4.2-.8.5-1.1.7h-.4c-.2,0-.4-.2-.5-.4,0,0,0-.2,0-.3v-7.9c0-.3.3-.4.5-.5h.3c0,0,.2,0,.3.1.3.2.7.5,1,.7l2.9,1.9,1.7,1.1c.2.2.5.3.7.5,0,.2.2.4,0,.6,0,0,0,.2-.2.3-.2.2-.5.3-.8.5l-2,1.2Z"/>
          </g>
          <path class="cls-8" d="M491.5,100.1h-21.7c-.9,0-1.6.7-1.6,1.6v16.7c0,.9.7,1.6,1.6,1.6h21.7c.9,0,1.6-.7,1.6-1.6v-16.7c0-.9-.7-1.6-1.6-1.6ZM491.5,101.7v11.8l-3.1-2.9c-.5-.4-1.2-.4-1.6,0l-3.1,3.2-6.2-7.7c-.5-.6-1.3-.6-1.8,0l-5.8,7v-11.5h21.7-.1ZM484.8,106c0-1.2,1-2.2,2.2-2.2s2.2,1,2.2,2.2-1,2.2-2.2,2.2-2.2-1-2.2-2.2Z"/>
          <path class="cls-8" d="M565.1,100.1h-21.7c-.9,0-1.6.7-1.6,1.6v16.7c0,.9.7,1.6,1.6,1.6h21.7c.9,0,1.6-.7,1.6-1.6v-16.7c0-.9-.7-1.6-1.6-1.6ZM565.1,101.7v11.8l-3.1-2.9c-.5-.4-1.2-.4-1.6,0l-3.1,3.2-6.2-7.7c-.5-.6-1.3-.6-1.8,0l-5.8,7v-11.5h21.7-.1ZM558.4,106c0-1.2,1-2.2,2.2-2.2s2.2,1,2.2,2.2-1,2.2-2.2,2.2-2.2-1-2.2-2.2Z"/>
          <path class="cls-8" d="M601.8,100.1h-21.7c-.9,0-1.6.7-1.6,1.6v16.7c0,.9.7,1.6,1.6,1.6h21.7c.9,0,1.6-.7,1.6-1.6v-16.7c0-.9-.7-1.6-1.6-1.6ZM601.8,101.7v11.8l-3.1-2.9c-.5-.4-1.2-.4-1.6,0l-3.1,3.2-6.2-7.7c-.5-.6-1.3-.6-1.8,0l-5.8,7v-11.5h21.7-.1ZM595.1,106c0-1.2,1-2.2,2.2-2.2s2.2,1,2.2,2.2-1,2.2-2.2,2.2-2.2-1-2.2-2.2Z"/>
          <g>
            <path class="cls-8" d="M529.3,120.4h-24c-.2,0-.4-.3-.5-.5v-19.3c0-.3.3-.3.6-.4h23.9c.4,0,.5.3.7.6v19s0,.2,0,.2c-.2.2-.3.3-.6.4ZM508.4,101.7c-.2.1-.3.2-.4.5v.7c0,.2.3.3.4.3h.4c.2-.2.4-.3.4-.6s0-.5-.2-.6c0-.2-.3-.2-.5-.2h-.3.2ZM514.2,101.7c-.2.1-.4.3-.5.5v.6c0,.2.3.4.5.4h.3c.2,0,.4-.2.5-.4v-.7c0-.2-.2-.4-.4-.4h-.4,0ZM520.1,101.7c-.2.1-.4.3-.4.6s0,.4,0,.6c0,.2.3.3.5.3h.3c.2-.1.4-.3.4-.5v-.5c0-.2-.2-.3-.5-.4h-.4,0ZM525.9,101.7c-.2.1-.3.3-.4.5v.6c0,.2.3.4.4.4h.4c.2-.1.4-.3.4-.5v-.7c0-.2-.2-.3-.4-.3h-.4ZM507.6,104.4c-.2.1-.5.3-.5.6,0,.5,0,1.1,0,1.6v8.7c0,0,0,.3,0,.4,0,.2.3.4.6.4h19.6c.3-.2.5-.3.6-.7,0-.4,0-.9,0-1.3v-8.8c0-.1,0-.3-.2-.4,0-.2-.3-.4-.6-.4h-19.7,0ZM508.4,117.2c-.2.1-.4.2-.5.5v.6c0,.2.3.4.5.5h.3c.2-.1.4-.3.5-.5v-.7c0-.2-.2-.3-.4-.3h-.4ZM514.3,117.3c-.2.1-.3.3-.4.5v.6c0,.2.2.2.4.3h.4c.2-.2.4-.3.4-.6s0-.4-.2-.6c0-.1-.3-.3-.5-.3h-.3.2ZM520.2,117.3c-.2.1-.4.2-.5.5v.6c0,.2.2.3.4.4h.4c.2-.1.4-.2.4-.5v-.7c0-.1-.3-.3-.4-.3h-.3ZM526,117.3c-.2,0-.4.2-.5.4v.6c0,.2.3.4.4.4h.4c.2-.1.4-.3.5-.5,0-.2,0-.5,0-.7,0-.1-.3-.3-.4-.3h-.3Z"/>
            <path class="cls-8" d="M518.2,112.5l-2.4,1.5c-.4.2-.8.5-1.1.7h-.4c-.2,0-.4-.2-.5-.4,0,0,0-.2,0-.3v-7.9c0-.3.3-.4.5-.5h.3c0,0,.2,0,.3.1.3.2.7.5,1,.7l2.9,1.9,1.7,1.1c.2.2.5.3.7.5,0,.2.2.4,0,.6,0,0,0,.2-.2.3-.2.2-.5.3-.8.5l-2,1.2Z"/>
          </g>
          <g>
            <path class="cls-8" d="M639.6,120.4h-24c-.2,0-.4-.3-.5-.5v-19.3c0-.3.3-.3.6-.4h23.9c.4,0,.5.3.7.6v19s0,.2,0,.2c-.2.2-.3.3-.6.4ZM618.7,101.7c-.2.1-.3.2-.4.5v.7c0,.2.3.3.4.3h.4c.2-.2.4-.3.4-.6s0-.5-.2-.6c0-.2-.3-.2-.5-.2h-.3.2ZM624.5,101.7c-.2.1-.4.3-.5.5v.6c0,.2.3.4.5.4h.3c.2,0,.4-.2.5-.4v-.7c0-.2-.2-.4-.4-.4h-.4,0ZM630.4,101.7c-.2.1-.4.3-.4.6s0,.4,0,.6c0,.2.3.3.5.3h.3c.2-.1.4-.3.4-.5v-.5c0-.2-.2-.3-.5-.4h-.4,0ZM636.2,101.7c-.2.1-.3.3-.4.5v.6c0,.2.3.4.4.4h.4c.2-.1.4-.3.4-.5v-.7c0-.2-.2-.3-.4-.3h-.4ZM617.9,104.4c-.2.1-.5.3-.5.6,0,.5,0,1.1,0,1.6v8.7c0,0,0,.3,0,.4,0,.2.3.4.6.4h19.6c.3-.2.5-.3.6-.7,0-.4,0-.9,0-1.3v-8.8c0-.1,0-.3-.2-.4,0-.2-.3-.4-.6-.4h-19.7,0ZM618.7,117.2c-.2.1-.4.2-.5.5v.6c0,.2.3.4.5.5h.3c.2-.1.4-.3.5-.5v-.7c0-.2-.2-.3-.4-.3h-.4ZM624.6,117.3c-.2.1-.3.3-.4.5v.6c0,.2.2.2.4.3h.4c.2-.2.4-.3.4-.6s0-.4-.2-.6c0-.1-.3-.3-.5-.3h-.3.2ZM630.5,117.3c-.2.1-.4.2-.5.5v.6c0,.2.2.3.4.4h.4c.2-.1.4-.2.4-.5v-.7c0-.1-.3-.3-.4-.3h-.3ZM636.3,117.3c-.2,0-.4.2-.5.4v.6c0,.2.3.4.4.4h.4c.2-.1.4-.3.5-.5,0-.2,0-.5,0-.7,0-.1-.3-.3-.4-.3h-.3Z"/>
            <path class="cls-8" d="M628.5,112.5l-2.4,1.5c-.4.2-.8.5-1.1.7h-.4c-.2,0-.4-.2-.5-.4,0,0,0-.2,0-.3v-7.9c0-.3.3-.4.5-.5h.3c0,0,.2,0,.3.1.3.2.7.5,1,.7l2.9,1.9,1.7,1.1c.2.2.5.3.7.5,0,.2.2.4,0,.6,0,0,0,.2-.2.3-.2.2-.5.3-.8.5l-2,1.2Z"/>
          </g>
          <path class="cls-8" d="M379.2,53.5h67.8c6,0,10.9,4.9,10.9,10.9v108.8h-89.6v-108.8c0-6,4.9-10.9,10.9-10.9h0Z"/>
          <path class="cls-3" d="M385,60.3h56.7c4,0,7.3,3.3,7.3,7.3v101.9h-71.3v-101.8c0-4,3.3-7.3,7.3-7.3h0Z"/>
          <path class="cls-4" d="M438.2,60.3h5c4,0,7.3,3.3,7.3,7.3v101.9h-19.6v-101.8c0-4,3.3-7.3,7.3-7.3h0Z"/>
          <rect class="cls-4" x="385.9" y="69.5" width="38.3" height="23"/>
          <path class="cls-6" d="M388.2,86.1l-.6-.8,7.5-5c.2-.1.5-.1.7,0l3,3.5,5.7-4.6c.2-.2.5-.1.7,0l3.2,3,3.6-6.6c0-.2.2-.3.4-.3.2,0,.3,0,.4.2l2.1,3,1.3-.7c.2,0,.4,0,.6,0l4.4,4.2-.7.7-4.1-4-1.4.7c-.2.1-.5,0-.6-.2l-1.9-2.7-3.5,6.5c0,.1-.2.2-.4.3-.2,0-.3,0-.4-.1l-3.4-3.1-5.8,4.6c-.2.2-.5.1-.7,0l-3-3.6-7.1,4.8Z"/>
          <circle class="cls-2" cx="410.3" cy="100.6" r="1.9"/>
          <circle class="cls-5" cx="416.4" cy="100.6" r="1.9"/>
          <circle class="cls-5" cx="422.4" cy="100.6" r="1.9"/>
          <rect class="cls-4" x="407.5" y="51.8" width="15.9" height="1.8"/>
          <path class="cls-5" d="M415.5,38.6h0c3.3,0,6,2.7,6,6v7.2h-12v-7.2c0-3.3,2.7-6,6-6Z"/>
          <rect class="cls-5" x="402.3" y="44.1" width="5.2" height="1"/>
          <rect class="cls-5" x="407.6" y="34.4" width="1" height="5.2" transform="translate(93.3 299.4) rotate(-45)"/>
          <rect class="cls-5" x="415" y="31.4" width="1" height="5.2"/>
          <rect class="cls-5" x="420.3" y="36.5" width="5.3" height="1" transform="translate(94 305.4) rotate(-44.2)"/>
          <rect class="cls-5" x="423.5" y="44.1" width="5.2" height="1"/>
          <g>
            <path class="cls-2" d="M394.4,127.1h21.2c.6,0,1,.5,1,1v3h-23.2v-3c0-.6.5-1,1-1Z"/>
            <g>
              <polygon class="cls-2" points="409 111.4 401.1 112.8 401.1 110.8 409 109.4 409 111.4"/>
              <polygon class="cls-2" points="409 114.4 401.1 115.9 401.1 113.9 409 112.4 409 114.4"/>
              <polygon class="cls-2" points="409 117.5 401.1 118.9 401.1 116.9 409 115.5 409 117.5"/>
              <polygon class="cls-2" points="409 120.5 401.1 122 401.1 119.9 409 118.5 409 120.5"/>
              <polygon class="cls-2" points="409 123.6 401.1 125 401.1 123 409 121.5 409 123.6"/>
              <polygon class="cls-2" points="409 126 401.1 126 409 124.6 409 126"/>
              <polygon class="cls-2" points="401.1 108.6 409 108.6 401.1 110.1 401.1 108.6"/>
            </g>
          </g>
          <g>
            <path class="cls-2" d="M415.7,148.1h-21.2c-.6,0-1-.5-1-1v-3h23.2v3c0,.6-.5,1-1,1Z"/>
            <g>
              <polygon class="cls-2" points="401.1 163.8 409 162.3 409 164.3 401.1 165.8 401.1 163.8"/>
              <polygon class="cls-2" points="401.1 160.7 409 159.3 409 161.3 401.1 162.7 401.1 160.7"/>
              <polygon class="cls-2" points="401.1 157.7 409 156.2 409 158.3 401.1 159.7 401.1 157.7"/>
              <polygon class="cls-2" points="401.1 154.6 409 153.2 409 155.2 401.1 156.7 401.1 154.6"/>
              <polygon class="cls-2" points="401.1 151.6 409 150.1 409 152.2 401.1 153.6 401.1 151.6"/>
              <polygon class="cls-2" points="401.1 149.1 409 149.1 401.1 150.6 401.1 149.1"/>
              <polygon class="cls-2" points="409 166.5 401.1 166.5 409 165.1 409 166.5"/>
            </g>
          </g>
          <rect class="cls-8" x="385.9" y="97.3" width="17.7" height="6.5"/>
          <g>
            <g>
              <polygon class="cls-8" points="674.1 85.4 672.7 81.6 677.3 77.7 677.3 73.8 673.9 73.8 668.6 82.1 671.1 85.4 674.1 85.4"/>
              <path class="cls-8" d="M688.9,85.4h-22.3c-.9,0-1.6.7-1.6,1.7v17.1c0,.9.7,1.7,1.6,1.7h22.3c.9,0,1.6-.7,1.6-1.7v-17.2c0-.9-.7-1.7-1.6-1.7h0ZM688.9,87.1v12.2l-3.2-3c-.5-.5-1.2-.4-1.7,0l-3.2,3.3-6.4-7.9c-.5-.6-1.4-.6-1.9,0l-6,7.1v-11.8h22.4ZM682,91.5c0-1.3,1-2.3,2.2-2.3s2.2,1,2.2,2.3-1,2.3-2.2,2.3-2.2-1-2.2-2.3Z"/>
              <rect class="cls-1" x="675.8" width="3.9" height="5.9"/>
              <rect class="cls-1" x="675.8" y="7.2" width="3.9" height="5.9"/>
              <rect class="cls-1" x="675.8" y="14.5" width="3.9" height="5.9"/>
              <rect class="cls-1" x="675.8" y="21.7" width="3.9" height="5.9"/>
              <rect class="cls-1" x="675.8" y="28.9" width="3.9" height="5.9"/>
              <rect class="cls-1" x="675.8" y="36.2" width="3.9" height="5.9"/>
              <rect class="cls-1" x="675.8" y="43.4" width="3.9" height="5.9"/>
              <rect class="cls-1" x="675.8" y="50.6" width="3.9" height="5.9"/>
              <rect class="cls-1" x="675.8" y="57.9" width="3.9" height="5.9"/>
              <rect class="cls-1" x="675.8" y="65.1" width="3.9" height="5.9"/>
              <polygon class="cls-8" points="681.6 73.8 686.9 82.1 681.6 89.1 680.3 88.2 682.8 81.6 678.2 77.7 678.2 73.8 681.6 73.8"/>
              <circle class="cls-4" cx="677.8" cy="73.6" r="4.8"/>
            </g>
            <path class="cls-8" d="M694.1,89.1h-.7c0,0,.2-4-2.5-6.6l.5-.5c3,2.8,2.7,6.9,2.7,7.1Z"/>
            <path class="cls-8" d="M695.3,85.1s-.3-2.1-1.1-2.9l.5-.5c1,1,1.3,3.2,1.3,3.3h-.7Z"/>
          </g>
          <g>
            <g>
              <polygon class="cls-8" points="135.6 86.4 134.2 82.6 138.8 78.6 138.8 74.8 135.4 74.8 130 83.1 132.5 86.4 135.6 86.4"/>
              <path class="cls-7" d="M150.4,86.4h-22.3c-.9,0-1.6.7-1.6,1.7v17.1c0,.9.7,1.7,1.6,1.7h22.3c.9,0,1.6-.7,1.6-1.7v-17.2c0-.9-.7-1.7-1.6-1.7h0ZM150.4,88v12.2l-3.2-3c-.5-.5-1.2-.4-1.7,0l-3.2,3.3-6.4-7.9c-.5-.6-1.4-.6-1.9,0l-6,7.1v-11.8h22.4ZM143.5,92.4c0-1.3,1-2.3,2.2-2.3s2.2,1,2.2,2.3-1,2.3-2.2,2.3-2.2-1-2.2-2.3Z"/>
              <rect class="cls-1" x="137.3" y="1" width="3.9" height="5.9"/>
              <rect class="cls-1" x="137.3" y="8.2" width="3.9" height="5.9"/>
              <rect class="cls-1" x="137.3" y="15.4" width="3.9" height="5.9"/>
              <rect class="cls-1" x="137.3" y="22.7" width="3.9" height="5.9"/>
              <rect class="cls-1" x="137.3" y="29.9" width="3.9" height="5.9"/>
              <rect class="cls-1" x="137.3" y="37.1" width="3.9" height="5.9"/>
              <rect class="cls-1" x="137.3" y="44.4" width="3.9" height="5.9"/>
              <rect class="cls-1" x="137.3" y="51.6" width="3.9" height="5.9"/>
              <rect class="cls-1" x="137.3" y="58.8" width="3.9" height="5.9"/>
              <rect class="cls-1" x="137.3" y="66.1" width="3.9" height="5.9"/>
              <polygon class="cls-8" points="143.1 74.8 148.4 83.1 143.1 90 141.8 89.2 144.3 82.6 139.7 78.6 139.7 74.8 143.1 74.8"/>
              <circle class="cls-4" cx="139.2" cy="74.6" r="4.8"/>
            </g>
            <path class="cls-8" d="M155.6,90.1h-.7c0,0,.2-4-2.5-6.6l.5-.5c3,2.8,2.7,6.9,2.7,7.1Z"/>
            <path class="cls-8" d="M156.8,86s-.3-2.1-1.1-2.9l.5-.5c1,1,1.3,3.2,1.3,3.3h-.7Z"/>
          </g>
          <path class="cls-4" d="M411,132.2h-12c-.5,0-.9.4-.9.9v9.2c0,.5.4.9.9.9h12c.5,0,.9-.4.9-.9v-9.2c0-.5-.4-.9-.9-.9ZM411,133.1v6.5l-1.7-1.6c-.3-.2-.7-.2-.9,0l-1.7,1.8-3.4-4.2c-.3-.3-.7-.3-1,0l-3.2,3.8v-6.4h12,0ZM407.3,135.5c0-.7.5-1.2,1.2-1.2s1.2.6,1.2,1.2-.5,1.2-1.2,1.2-1.2-.6-1.2-1.2Z"/>
        </g>
        <g>
          <rect class="cls-7" y="40.4" width="99.8" height="78.1" rx="4.5" ry="4.5"/>
          <rect class="cls-2" x="20.5" y="44.9" width="75.2" height="5.5" rx="2.7" ry="2.7"/>
          <rect class="cls-2" x="4.2" y="44.9" width="5.5" height="5.5" rx="2.7" ry="2.7"/>
          <rect class="cls-2" x="12.1" y="44.9" width="5.5" height="5.5" rx="2.7" ry="2.7"/>
          <rect class="cls-2" x="4.7" y="56.2" width="28.7" height="3.7"/>
          <rect class="cls-2" x="4.7" y="79.4" width="13.6" height="3.7"/>
          <rect class="cls-2" x="46.4" y="56.2" width="48.8" height="24"/>
          <rect class="cls-2" x="4.7" y="62.8" width="36.1" height="1.3"/>
          <rect class="cls-2" x="4.7" y="65.5" width="36.1" height="1.3"/>
          <rect class="cls-2" x="4.7" y="68.2" width="36.1" height="1.3"/>
          <rect class="cls-2" x="4.7" y="70.8" width="36.1" height="1.3"/>
          <rect class="cls-2" x="4.7" y="73.5" width="36.1" height="1.3"/>
          <rect class="cls-2" x="4.7" y="76.2" width="20.8" height="1.3"/>
          <rect class="cls-2" x="58.1" y="87.7" width="28.7" height="3.7"/>
          <rect class="cls-2" x="58.1" y="111" width="13.6" height="3.7"/>
          <rect class="cls-2" x="58.1" y="94.4" width="36.1" height="1.3"/>
          <rect class="cls-2" x="58.1" y="97.1" width="36.1" height="1.3"/>
          <rect class="cls-2" x="58.1" y="99.7" width="36.1" height="1.3"/>
          <rect class="cls-2" x="58.1" y="102.4" width="36.1" height="1.3"/>
          <rect class="cls-2" x="58.1" y="105.1" width="36.1" height="1.3"/>
          <rect class="cls-2" x="58.1" y="107.7" width="20.8" height="1.3"/>
          <path class="cls-7" d="M77.4,62.8h-13.1c-.5,0-1,.4-1,1v10.1c0,.5.4,1,1,1h13.1c.5,0,1-.4,1-1v-10.1c0-.5-.4-1-1-1ZM77.4,63.8v7.2l-1.9-1.8c-.3-.3-.7-.3-1,0l-1.9,2-3.8-4.6c-.3-.4-.8-.4-1.1,0l-3.5,4.2v-7h13.2ZM73.3,66.4c0-.7.6-1.4,1.3-1.4s1.3.6,1.3,1.4-.6,1.4-1.3,1.4-1.3-.6-1.3-1.4Z"/>
          <rect class="cls-2" x="4.7" y="88.4" width="48.8" height="24"/>
          <g>
            <path class="cls-7" d="M36.3,106.5h-14.7c-.1,0-.2-.2-.3-.3v-11.7c0-.2.2-.2.4-.3h14.5c.2,0,.3.2.4.4v11.7h0c0,.2-.2.3-.4.3h0ZM23.6,95.1c-.1,0-.2.1-.2.3v.4c0,.1.2.2.3.2h.2c.1,0,.2-.2.3-.4,0-.1,0-.3-.1-.4,0,0-.2-.1-.3-.1h-.2,0ZM27.1,95.1c-.1,0-.2.2-.3.3v.3c0,.1.2.2.3.2h.2c.1,0,.2-.1.3-.2v-.4c0-.1-.1-.2-.3-.3h-.2ZM30.7,95.1c-.1,0-.2.2-.3.4v.4s.2.2.3.2h.2c.1,0,.2-.2.3-.3v-.3c0-.1-.1-.2-.3-.2h-.2v-.2ZM34.3,95.1c-.1,0-.2.2-.3.3v.4s.2.2.3.2h.2c.1,0,.2-.2.3-.3v-.4s-.1-.2-.2-.2h-.3ZM23.1,96.8c-.1,0-.3.2-.3.3v6.4c0,.1.2.2.4.3h12c.2,0,.3-.2.4-.4v-6.3c0-.1-.2-.2-.3-.3h-12.2ZM23.6,104.6c-.1,0-.2.1-.3.3v.4c0,.1.2.3.3.3h.2c.1,0,.3-.2.3-.3v-.4s-.1-.2-.3-.2h-.2ZM27.2,104.6c-.1,0-.2.2-.2.3v.4s.1.2.2.2h.3c.1,0,.3-.2.3-.4s0-.3-.1-.4c0,0-.2-.2-.3-.2h-.2,0ZM30.8,104.6c-.1,0-.2.1-.3.3v.4c0,.1.2.2.3.2h.2c.1,0,.2-.1.3-.3v-.4s-.2-.2-.3-.2h-.2ZM34.3,104.6c-.1,0-.2.1-.3.3v.4c0,.1.2.2.3.3h.2c.1,0,.3-.2.3-.3v-.4s-.2-.2-.3-.2h-.2Z"/>
            <path class="cls-7" d="M29.6,101.7l-1.5.9c-.2.1-.5.3-.7.4h-.2c-.1,0-.3-.1-.3-.2v-5.1c0-.2.2-.2.3-.3h.4c.2.1.4.3.6.4l1.8,1.1,1,.7c.1,0,.3.2.4.3v.4s0,.1-.1.2-.3.2-.5.3l-1.2.8h0Z"/>
          </g>
        </g>
        <g>
          <rect class="cls-8" x="719.6" y="40.4" width="99.8" height="78.1" rx="4.5" ry="4.5"/>
          <rect class="cls-2" x="740.1" y="44.9" width="75.2" height="5.5" rx="2.7" ry="2.7"/>
          <rect class="cls-2" x="723.9" y="44.9" width="5.5" height="5.5" rx="2.7" ry="2.7"/>
          <rect class="cls-2" x="731.7" y="44.9" width="5.5" height="5.5" rx="2.7" ry="2.7"/>
          <rect class="cls-2" x="724.3" y="56.2" width="28.7" height="3.7"/>
          <rect class="cls-2" x="724.3" y="79.4" width="13.6" height="3.7"/>
          <rect class="cls-2" x="766.1" y="56.2" width="48.8" height="24"/>
          <rect class="cls-2" x="724.3" y="62.8" width="36.1" height="1.3"/>
          <rect class="cls-2" x="724.3" y="65.5" width="36.1" height="1.3"/>
          <rect class="cls-2" x="724.3" y="68.2" width="36.1" height="1.3"/>
          <rect class="cls-2" x="724.3" y="70.8" width="36.1" height="1.3"/>
          <rect class="cls-2" x="724.3" y="73.5" width="36.1" height="1.3"/>
          <rect class="cls-2" x="724.3" y="76.2" width="20.8" height="1.3"/>
          <rect class="cls-2" x="777.8" y="87.7" width="28.7" height="3.7"/>
          <rect class="cls-2" x="777.8" y="111" width="13.6" height="3.7"/>
          <rect class="cls-2" x="777.8" y="94.4" width="36.1" height="1.3"/>
          <rect class="cls-2" x="777.8" y="97.1" width="36.1" height="1.3"/>
          <rect class="cls-2" x="777.8" y="99.7" width="36.1" height="1.3"/>
          <rect class="cls-2" x="777.8" y="102.4" width="36.1" height="1.3"/>
          <rect class="cls-2" x="777.8" y="105.1" width="36.1" height="1.3"/>
          <rect class="cls-2" x="777.8" y="107.7" width="20.8" height="1.3"/>
          <path class="cls-8" d="M797,62.8h-13.1c-.5,0-1,.4-1,1v10.1c0,.5.4,1,1,1h13.1c.5,0,1-.4,1-1v-10.1c0-.5-.4-1-1-1ZM797,63.8v7.2l-1.9-1.8c-.3-.3-.7-.3-1,0l-1.9,2-3.8-4.6c-.3-.4-.8-.4-1.1,0l-3.5,4.2v-7h13.2ZM792.9,66.4c0-.7.6-1.4,1.3-1.4s1.3.6,1.3,1.4-.6,1.4-1.3,1.4-1.3-.6-1.3-1.4Z"/>
          <rect class="cls-2" x="724.3" y="88.4" width="48.8" height="24"/>
          <g>
            <path class="cls-8" d="M756,106.5h-14.7c0,0-.2-.2-.3-.3v-11.7c0-.2.2-.2.4-.3h14.5c.2,0,.3.2.4.4v11.7h0c0,.2-.2.3-.4.3h.1ZM743.2,95.1c0,0-.2.1-.2.3v.4c0,.1.2.2.3.2h.2c0,0,.2-.2.3-.4,0-.1,0-.3,0-.4,0,0-.2-.1-.3-.1h-.2ZM746.8,95.1c0,0-.2.2-.3.3v.3c0,.1.2.2.3.2h.2c0,0,.2-.1.3-.2v-.4c0-.1,0-.2-.3-.3h-.2ZM750.4,95.1c0,0-.2.2-.3.4v.4s.2.2.3.2h.2c0,0,.2-.2.3-.3v-.3c0-.1,0-.2-.3-.2h-.2v-.2ZM753.9,95.1c0,0-.2.2-.3.3v.4s.2.2.3.2h.2c0,0,.2-.2.3-.3v-.4s0-.2-.2-.2h-.3ZM742.7,96.8c0,0-.3.2-.3.3v6.4c0,.1.2.2.4.3h12c.2,0,.3-.2.4-.4v-6.3c0-.1-.2-.2-.3-.3h-12.2ZM743.2,104.6c0,0-.2.1-.3.3v.4c0,.1.2.3.3.3h.2c0,0,.3-.2.3-.3v-.4s0-.2-.3-.2h-.2ZM746.8,104.6c0,0-.2.2-.2.3v.4s0,.2.2.2h.3c0,0,.3-.2.3-.4s0-.3,0-.4c0,0-.2-.2-.3-.2h-.2ZM750.4,104.6c0,0-.2.1-.3.3v.4c0,.1.2.2.3.2h.2c0,0,.2-.1.3-.3v-.4s-.2-.2-.3-.2h-.2ZM753.9,104.6c0,0-.2.1-.3.3v.4c0,.1.2.2.3.3h.2c0,0,.3-.2.3-.3v-.4s-.2-.2-.3-.2h-.2Z"/>
            <path class="cls-8" d="M749.2,101.7l-1.5.9c-.2.1-.5.3-.7.4h-.2c0,0-.3-.1-.3-.2v-5.1c0-.2.2-.2.3-.3h.4c.2.1.4.3.6.4l1.8,1.1,1,.7c0,0,.3.2.4.3v.4s0,.1,0,.2-.3.2-.5.3l-1.2.8h0Z"/>
          </g>
        </g>
      </g>
    </g>
  </g>
</svg>