<svg width="312" height="74" viewBox="0 0 312 74" fill="none" xmlns="http://www.w3.org/2000/svg">
<path fill-rule="evenodd" clip-rule="evenodd" d="M137.354 29.0823C133.019 29.0776 129.43 32.6559 129.422 36.9954C129.414 41.3289 132.97 44.9131 137.284 44.9208C141.637 44.9284 145.252 41.3564 145.256 37.0444C145.258 32.7203 141.655 29.0884 137.354 29.0823ZM137.306 49.3324C130.44 49.3247 125.004 43.8716 125.012 36.9986C125.019 30.1224 130.496 24.66 137.374 24.6692C144.185 24.6785 149.673 30.2035 149.665 37.0414C149.654 43.8808 144.168 49.3385 137.306 49.3324Z" fill="#1ABDCA"/>
<path fill-rule="evenodd" clip-rule="evenodd" d="M157.502 32.5089C157.502 33.5121 157.512 34.5154 157.495 35.5203C157.491 35.8618 157.623 35.9875 157.951 35.9813C158.431 35.9722 158.912 35.9921 159.392 35.9813C160.803 35.9553 162.216 36.0779 163.621 35.9185C165.286 35.7301 166.657 34.0253 166.58 32.2974C166.502 30.5957 164.974 29.1022 163.265 29.0869C161.504 29.073 159.744 29.0976 157.983 29.0746C157.575 29.0685 157.494 29.2354 157.498 29.5847C157.507 30.559 157.502 31.5331 157.502 32.5089ZM153.066 36.9832C153.066 33.3145 153.066 29.646 153.066 25.9758C153.066 25.1823 153.244 25.0047 154.045 25.0047C157.264 25.0047 160.482 24.9801 163.702 25.0154C167.084 25.0506 169.998 27.4142 170.79 30.6982C171.519 33.7235 170.185 36.8085 167.401 38.5165C167.053 38.7294 166.699 38.9392 166.325 39.0955C165.993 39.2348 165.936 39.3758 166.114 39.699C166.853 41.0347 167.57 42.3842 168.295 43.7306C169.031 45.1001 169.776 46.4695 170.507 47.8434C170.891 48.5665 170.632 48.9815 169.805 48.9846C168.769 48.9861 167.737 48.9692 166.702 48.9922C166.23 49.0029 165.955 48.8161 165.747 48.3994C164.37 45.6223 162.97 42.8575 161.595 40.082C161.41 39.7067 161.198 39.5459 160.766 39.5612C159.835 39.5963 158.902 39.5903 157.97 39.5673C157.585 39.5566 157.473 39.6806 157.475 40.0636C157.489 42.7135 157.482 45.3634 157.479 48.0134C157.479 48.8146 157.31 48.9846 156.51 48.9861C155.652 48.9877 154.79 48.9876 153.932 48.9846C153.278 48.9815 153.069 48.7763 153.069 48.1207C153.065 44.4077 153.066 40.6946 153.066 36.9832Z" fill="#1ABDCA"/>
<path fill-rule="evenodd" clip-rule="evenodd" d="M121.608 36.9556C121.608 40.6395 121.61 44.3219 121.608 48.0058C121.608 48.8008 121.424 48.9846 120.633 48.9846C119.76 48.9862 118.885 48.9876 118.013 48.9831C117.415 48.9785 117.204 48.7671 117.202 48.1621C117.199 45.2946 117.201 42.4271 117.199 39.558C117.199 38.8672 117.193 38.8642 116.517 38.8642C113.182 38.8627 109.848 38.8718 106.512 38.8535C106.076 38.852 105.943 38.9622 105.946 39.4065C105.965 42.274 105.955 45.1413 105.952 48.0088C105.952 48.8115 105.781 48.9815 104.979 48.9831C104.09 48.9831 103.203 48.9862 102.313 48.9801C101.721 48.9769 101.497 48.7517 101.497 48.1559C101.494 40.7161 101.494 33.2778 101.497 25.8395C101.497 25.2267 101.726 25.0062 102.346 25.0032C103.264 24.9985 104.181 24.9985 105.099 25.0032C105.747 25.0062 105.949 25.21 105.949 25.8778C105.954 28.615 105.951 31.3508 105.954 34.0881C105.954 34.7437 105.958 34.7483 106.624 34.7483C109.929 34.7499 113.236 34.7499 116.54 34.7483C117.193 34.7467 117.198 34.7422 117.199 34.1034C117.201 31.3953 117.199 28.6886 117.202 25.9805C117.202 25.141 117.342 25.0062 118.201 25.0032C119.017 25.0001 119.832 25.0001 120.647 25.0032C121.42 25.0047 121.61 25.1916 121.61 25.9498C121.61 29.62 121.608 33.2885 121.608 36.9556Z" fill="#1ABDCA"/>
<path fill-rule="evenodd" clip-rule="evenodd" d="M228.356 32.806C228.896 31.9328 229.41 31.1072 229.918 30.2801C230.847 28.7683 231.78 27.2579 232.695 25.7384C232.924 25.3585 233.209 25.1946 233.655 25.2023C234.82 25.2222 235.984 25.2084 237.149 25.2084C237.464 25.2069 237.778 25.213 237.95 25.5332C238.112 25.8364 237.949 26.0923 237.788 26.3435C235.649 29.672 233.519 33.0066 231.363 36.3245C231.095 36.7365 231.085 37.0244 231.352 37.4443C233.568 40.9305 235.76 44.4321 237.957 47.9307C238.041 48.0655 238.134 48.2003 238.193 48.3474C238.36 48.764 238.147 49.1561 237.704 49.1637C236.407 49.1867 235.112 49.1791 233.816 49.1669C233.507 49.1637 233.346 48.9188 233.195 48.6767C231.795 46.4296 230.388 44.1839 228.988 41.9384C228.347 40.909 228.351 40.9076 227.726 41.9247C226.353 44.1549 224.972 46.379 223.611 48.6154C223.363 49.0229 223.059 49.199 222.582 49.1883C221.504 49.1637 220.425 49.1776 219.348 49.1821C219.032 49.1837 218.721 49.1744 218.547 48.859C218.368 48.5358 218.557 48.2738 218.721 48.0119C220.944 44.4781 223.159 40.9381 225.396 37.4151C225.643 37.0276 225.646 36.7625 225.396 36.3751C223.249 33.051 221.127 29.7118 218.996 26.3772C218.83 26.1167 218.645 25.8518 218.816 25.5316C218.999 25.1916 219.337 25.2099 219.663 25.2099C220.811 25.2099 221.962 25.2237 223.113 25.2039C223.563 25.1946 223.844 25.3708 224.069 25.7476C225.301 27.8079 226.544 29.8605 227.785 31.9145C227.957 32.1949 228.139 32.4705 228.356 32.806Z" fill="#ED332B"/>
<path fill-rule="evenodd" clip-rule="evenodd" d="M240.712 37.1824C240.712 33.4999 240.711 29.8145 240.712 26.1306C240.712 25.3831 240.889 25.2084 241.64 25.2084C246.083 25.2069 250.525 25.2069 254.969 25.2084C255.751 25.2084 255.914 25.3692 255.915 26.152C255.918 26.8658 255.918 27.5795 255.915 28.2919C255.914 29.1404 255.788 29.263 254.92 29.263C251.846 29.2645 248.772 29.263 245.7 29.2661C245.13 29.2661 245.124 29.2722 245.122 29.8344C245.12 31.3477 245.12 32.8627 245.122 34.376C245.124 34.9521 245.128 34.9551 245.728 34.9551C248.262 34.9581 250.796 34.9551 253.332 34.9581C254.051 34.9597 254.239 35.1466 254.243 35.8588C254.247 36.66 254.248 37.4596 254.242 38.2606C254.238 38.8443 254.039 39.0435 253.45 39.0449C250.872 39.048 248.292 39.0465 245.715 39.048C245.13 39.048 245.124 39.0526 245.122 39.6439C245.12 41.2752 245.12 42.9065 245.121 44.5364C245.122 45.1046 245.125 45.1108 245.684 45.1108C248.774 45.1138 251.861 45.1123 254.95 45.1138C255.758 45.1138 255.915 45.2732 255.917 46.0819C255.918 46.8678 255.923 47.6535 255.914 48.4393C255.907 48.9694 255.701 49.1746 255.166 49.1746C250.605 49.1792 246.048 49.1792 241.487 49.1746C240.923 49.1746 240.715 48.9555 240.713 48.3643C240.711 44.6375 240.712 40.9106 240.712 37.1824Z" fill="#ED332B"/>
<path fill-rule="evenodd" clip-rule="evenodd" d="M197.185 32.8612C197.185 32.8612 197.189 32.8612 197.192 32.8612C197.192 33.8797 197.192 34.8968 197.192 35.9125C197.192 36.1514 197.23 36.3291 197.544 36.3291C198.938 36.3261 200.34 36.4302 201.729 36.2755C203.445 36.084 204.799 34.4818 204.778 32.731C204.759 31.0505 203.444 29.6123 201.713 29.4239C200.366 29.2784 199.011 29.3902 197.66 29.3656C197.302 29.3595 197.179 29.505 197.184 29.8496C197.193 30.856 197.185 31.8578 197.185 32.8612ZM192.784 37.1332C192.784 33.48 192.783 29.8268 192.784 26.1734C192.784 25.3724 192.952 25.2084 193.763 25.2084C196.354 25.2069 198.946 25.1946 201.539 25.21C205.958 25.236 209.418 28.9598 209.126 33.3575C208.864 37.3247 205.506 40.4266 201.433 40.4617C200.268 40.471 199.104 40.4557 197.939 40.4664C197.144 40.474 197.201 40.3562 197.197 41.2276C197.192 43.5423 197.195 45.8567 197.193 48.1696C197.193 49.0275 197.041 49.176 196.169 49.1776C195.325 49.1791 194.48 49.1791 193.634 49.176C192.976 49.173 192.786 48.9831 192.786 48.3106C192.783 44.5854 192.784 40.86 192.784 37.1332Z" fill="#ED332B"/>
<path fill-rule="evenodd" clip-rule="evenodd" d="M90.281 24.6616C92.6089 24.6922 94.8632 25.4458 96.9014 26.8627C97.4194 27.2242 97.4991 27.6546 97.1604 28.1739C96.771 28.7713 96.3772 29.3672 95.9757 29.9539C95.5542 30.5697 95.1467 30.6447 94.4953 30.2511C93.3092 29.5342 92.0924 28.8724 90.7147 28.6059C89.881 28.4451 89.0627 28.5201 88.2964 28.9261C86.8222 29.7072 86.4912 31.4197 87.5762 32.6911C88.2735 33.5091 89.1868 34.0191 90.1492 34.4481C91.5576 35.0745 93.0057 35.6137 94.3237 36.4302C95.8408 37.3722 97.122 38.5302 97.7626 40.2505C98.961 43.4687 97.4408 46.978 94.2241 48.4822C92.5092 49.2833 90.704 49.4609 88.8527 49.2496C86.6996 49.0045 84.7273 48.2846 83.0278 46.9013C82.3213 46.327 82.2937 46.1738 82.7596 45.3697C83.0876 44.8029 83.411 44.233 83.7434 43.6694C84.0806 43.098 84.502 42.9969 85.0568 43.3645C86.0529 44.0263 87.0797 44.6298 88.2122 45.0357C89.2144 45.3941 90.2274 45.5979 91.2833 45.2624C93.3919 44.5931 93.9773 42.3198 92.448 40.7192C91.6771 39.9149 90.7178 39.3942 89.7124 38.9607C88.2429 38.3266 86.7548 37.7322 85.4583 36.7625C83.6346 35.3994 82.5067 33.6577 82.4991 31.3064C82.4929 28.5569 84.1082 26.2317 86.6996 25.2604C87.803 24.8454 88.9462 24.6815 90.281 24.6616Z" fill="#1ABDCA"/>
<path fill-rule="evenodd" clip-rule="evenodd" d="M178.122 38.8672C178.122 35.796 178.122 32.7248 178.12 29.6521C178.12 29.0869 178.115 29.0838 177.541 29.0838C176.055 29.0807 174.572 29.0838 173.085 29.0792C172.405 29.0776 172.207 28.874 172.205 28.1892C172.203 27.3881 172.2 26.5886 172.207 25.7874C172.212 25.2436 172.437 25.0047 172.974 25.0047C177.88 25.0016 182.788 25.0016 187.696 25.0047C188.236 25.0047 188.459 25.2299 188.466 25.7828C188.478 26.6268 188.478 27.4708 188.466 28.3164C188.459 28.8601 188.229 29.0746 187.68 29.0776C186.179 29.0838 184.68 29.0746 183.18 29.0838C182.49 29.0883 182.565 29.0118 182.565 29.6873C182.558 35.698 182.56 41.7117 182.56 47.7225C182.56 48.908 182.486 48.9831 181.302 48.9815C180.516 48.9815 179.729 48.9861 178.944 48.9801C178.348 48.9754 178.126 48.7594 178.126 48.1651C178.122 45.0648 178.124 41.9645 178.124 38.8641H178.122V38.8672Z" fill="#1ABDCA"/>
<path fill-rule="evenodd" clip-rule="evenodd" d="M259.788 37.1777C259.788 33.5091 259.786 29.8389 259.788 26.1704C259.788 25.3907 259.963 25.21 260.73 25.2084C261.575 25.2053 262.421 25.2053 263.266 25.2084C264.008 25.2114 264.202 25.4014 264.202 26.1383C264.203 32.224 264.199 38.3113 264.207 44.3986C264.21 45.1828 264.043 45.1078 264.932 45.1092C267.511 45.1199 270.088 45.1138 272.667 45.1154C273.42 45.1154 273.605 45.293 273.608 46.0329C273.612 46.8049 273.615 47.577 273.607 48.349C273.6 48.9801 273.397 49.1776 272.758 49.1776C268.722 49.1792 264.686 49.1792 260.651 49.1776C259.994 49.1776 259.788 48.9724 259.788 48.3183C259.788 44.6038 259.788 40.8907 259.788 37.1777Z" fill="#ED332B"/>
<path fill-rule="evenodd" clip-rule="evenodd" d="M216.073 37.2129C216.075 40.88 216.075 44.5471 216.073 48.2142C216.073 49.0106 215.903 49.1761 215.094 49.1791C214.249 49.1807 213.404 49.1807 212.561 49.1776C211.824 49.1761 211.629 48.9801 211.629 48.2479C211.629 41.3656 211.629 34.4818 211.629 27.5995C211.629 27.0757 211.626 26.5517 211.63 26.0279C211.638 25.4458 211.87 25.2146 212.46 25.21C213.364 25.2039 214.266 25.2053 215.169 25.2084C215.876 25.2115 216.071 25.4061 216.073 26.1229C216.075 29.8206 216.073 33.5153 216.073 37.2129Z" fill="#ED332B"/>
<path d="M50.3438 61.9833C57.4837 61.9833 63.2717 59.0866 63.2717 55.5132C63.2717 51.9398 57.4837 49.043 50.3438 49.043C43.2039 49.043 37.4159 51.9398 37.4159 55.5132C37.4159 59.0866 43.2039 61.9833 50.3438 61.9833Z" fill="#1ABDCA"/>
<path d="M62.4087 51.074C62.4087 51.0602 62.4103 51.0449 62.4103 51.0312C62.4103 47.695 57.0068 44.9899 50.342 44.9899C43.6774 44.9899 38.2738 47.695 38.2738 51.0312C38.2738 51.0449 38.2753 51.0602 38.2753 51.074C38.2753 51.0879 38.2738 51.1032 38.2738 51.1169C38.2738 51.1307 38.2753 51.146 38.2753 51.1599C38.2753 51.1736 38.2738 51.189 38.2738 51.2027C38.2738 51.2166 38.2753 51.2318 38.2753 51.2456C38.2753 51.2594 38.2738 51.2747 38.2738 51.2885C38.2738 51.3023 38.2753 51.3177 38.2753 51.3314C38.2753 51.3452 38.2738 51.3605 38.2738 51.3742C38.2738 51.3881 38.2753 51.4034 38.2753 51.4172C38.2753 51.4309 38.2738 51.4462 38.2738 51.4601C38.2738 51.4739 38.2753 51.4892 38.2753 51.5029C38.2753 51.5168 38.2738 51.532 38.2738 51.5459C38.2738 51.5596 38.2753 51.5749 38.2753 51.5887C38.2753 51.6026 38.2738 51.6179 38.2738 51.6316C38.2738 51.6454 38.2753 51.6607 38.2753 51.6744C38.2753 51.6883 38.2738 51.7037 38.2738 51.7174C38.2738 51.7311 38.2753 51.7465 38.2753 51.7603C38.2753 51.7741 38.2738 51.7894 38.2738 51.8032C38.2738 51.817 38.2753 51.8322 38.2753 51.8461C38.2753 51.8598 38.2738 51.8752 38.2738 51.8889C38.2738 51.9028 38.2753 51.9181 38.2753 51.9319C38.2753 51.9456 38.2738 51.9609 38.2738 51.9747C38.2738 51.9886 38.2753 52.0039 38.2753 52.0176C38.2753 52.0314 38.2738 52.0467 38.2738 52.0606C38.2738 52.0743 38.2753 52.0896 38.2753 52.1034C38.2753 52.1171 38.2738 52.1325 38.2738 52.1463C38.2738 52.1601 38.2753 52.1754 38.2753 52.1891C38.2753 52.203 38.2738 52.2183 38.2738 52.2321C38.2738 52.2458 38.2753 52.2612 38.2753 52.2749C38.2753 52.2888 38.2738 52.3041 38.2738 52.3179C38.2738 52.3316 38.2753 52.3469 38.2753 52.3608C38.2753 52.3745 38.2738 52.3899 38.2738 52.4036C38.2738 52.4174 38.2753 52.4327 38.2753 52.4466C38.2753 52.4603 38.2738 52.4756 38.2738 52.4894C38.2738 52.5032 38.2753 52.5186 38.2753 52.5323C38.2753 52.5461 38.2738 52.5614 38.2738 52.5751C38.2738 52.589 38.2753 52.6043 38.2753 52.6181C38.2753 52.6318 38.2738 52.6472 38.2738 52.661C38.2738 52.6748 38.2753 52.6901 38.2753 52.7038C38.2753 52.7176 38.2738 52.7329 38.2738 52.7468C38.2738 52.7605 38.2753 52.7759 38.2753 52.7896C38.2753 52.8035 38.2738 52.8188 38.2738 52.8325C38.2738 52.8463 38.2753 52.8616 38.2753 52.8754C38.2753 52.8892 38.2738 52.9046 38.2738 52.9183C38.2738 52.9321 38.2753 52.9474 38.2753 52.9613C38.2753 52.975 38.2738 52.9903 38.2738 53.0041C38.2738 53.0178 38.2753 53.0331 38.2753 53.047C38.2753 53.0608 38.2738 53.0761 38.2738 53.0898C38.2738 53.1037 38.2753 53.119 38.2753 53.1328C38.2753 53.1465 38.2738 53.1618 38.2738 53.1756C38.2738 53.1895 38.2753 53.2048 38.2753 53.2185C38.2753 53.2323 38.2738 53.2476 38.2738 53.2615C38.2738 53.2752 38.2753 53.2906 38.2753 53.3043C38.2753 53.318 38.2738 53.3334 38.2738 53.3472C38.2738 53.361 38.2753 53.3763 38.2753 53.3901C38.2753 53.4039 38.2738 53.4193 38.2738 53.433C38.2738 53.4467 38.2753 53.4621 38.2753 53.4758C38.2753 53.4897 38.2738 53.505 38.2738 53.5188C38.2738 53.5325 38.2753 53.5478 38.2753 53.5617C38.2753 53.5755 38.2738 53.5908 38.2738 53.6045C38.2738 53.6183 38.2753 53.6336 38.2753 53.6475C38.2753 53.6612 38.2738 53.6765 38.2738 53.6903C38.2738 53.7042 38.2753 53.7195 38.2753 53.7332C38.2753 53.747 38.2738 53.7623 38.2738 53.776C38.2738 53.7899 38.2753 53.8053 38.2753 53.819C38.2753 53.8327 38.2738 53.8481 38.2738 53.8619C38.2738 53.8757 38.2753 53.891 38.2753 53.9048C38.2753 53.9185 38.2738 53.9338 38.2738 53.9477C38.2738 53.9614 38.2753 53.9768 38.2753 53.9905C38.2753 54.0044 38.2738 54.0197 38.2738 54.0335C38.2738 54.0472 38.2753 54.0625 38.2753 54.0763C38.2753 54.0902 38.2738 54.1055 38.2738 54.1192C38.2738 54.133 38.2753 54.1483 38.2753 54.1622C38.2753 54.1759 38.2738 54.1912 38.2738 54.205C38.2738 54.2187 38.2753 54.2341 38.2753 54.2479C38.2753 54.2617 38.2738 54.277 38.2738 54.2907C38.2738 54.3046 38.2753 54.3198 38.2753 54.3337C38.2753 54.3474 38.2738 54.3628 38.2738 54.3765C38.2738 54.3904 38.2753 54.4057 38.2753 54.4195C38.2753 54.4332 38.2738 54.4485 38.2738 54.4624C38.2738 54.4761 38.2753 54.4915 38.2753 54.5052C38.2753 54.519 38.2738 54.5343 38.2738 54.5482C38.2738 57.8844 43.6774 60.5895 50.342 60.5895C57.0068 60.5895 62.4103 57.8844 62.4103 54.5482C62.4103 54.5343 62.4087 54.519 62.4087 54.5052C62.4087 54.4915 62.4103 54.4761 62.4103 54.4624C62.4103 54.4485 62.4087 54.4332 62.4087 54.4195C62.4087 54.4057 62.4103 54.3904 62.4103 54.3765C62.4103 54.3628 62.4087 54.3474 62.4087 54.3337C62.4087 54.3198 62.4103 54.3046 62.4103 54.2907C62.4103 54.277 62.4087 54.2617 62.4087 54.2479C62.4087 54.2341 62.4103 54.2187 62.4103 54.205C62.4103 54.1912 62.4087 54.1759 62.4087 54.1622C62.4087 54.1483 62.4103 54.133 62.4103 54.1192C62.4103 54.1055 62.4087 54.0902 62.4087 54.0763C62.4087 54.0625 62.4103 54.0472 62.4103 54.0335C62.4103 54.0197 62.4087 54.0044 62.4087 53.9905C62.4087 53.9768 62.4103 53.9614 62.4103 53.9477C62.4103 53.9338 62.4087 53.9185 62.4087 53.9048C62.4087 53.891 62.4103 53.8757 62.4103 53.8619C62.4103 53.8481 62.4087 53.8327 62.4087 53.819C62.4087 53.8053 62.4103 53.7899 62.4103 53.776C62.4103 53.7623 62.4087 53.747 62.4087 53.7332C62.4087 53.7195 62.4103 53.7042 62.4103 53.6903C62.4103 53.6765 62.4087 53.6612 62.4087 53.6475C62.4087 53.6336 62.4103 53.6183 62.4103 53.6045C62.4103 53.5908 62.4087 53.5755 62.4087 53.5617C62.4087 53.5478 62.4103 53.5325 62.4103 53.5188C62.4103 53.505 62.4087 53.4897 62.4087 53.4758C62.4087 53.4621 62.4103 53.4467 62.4103 53.433C62.4103 53.4193 62.4087 53.4039 62.4087 53.3901C62.4087 53.3763 62.4103 53.361 62.4103 53.3472C62.4103 53.3334 62.4087 53.318 62.4087 53.3043C62.4087 53.2906 62.4103 53.2752 62.4103 53.2615C62.4103 53.2476 62.4087 53.2323 62.4087 53.2185C62.4087 53.2048 62.4103 53.1895 62.4103 53.1756C62.4103 53.1618 62.4087 53.1465 62.4087 53.1328C62.4087 53.119 62.4103 53.1037 62.4103 53.0898C62.4103 53.0761 62.4087 53.0608 62.4087 53.047C62.4087 53.0331 62.4103 53.0178 62.4103 53.0041C62.4103 52.9903 62.4087 52.975 62.4087 52.9613C62.4087 52.9474 62.4103 52.9321 62.4103 52.9183C62.4103 52.9046 62.4087 52.8892 62.4087 52.8754C62.4087 52.8616 62.4103 52.8463 62.4103 52.8325C62.4103 52.8188 62.4087 52.8035 62.4087 52.7896C62.4087 52.7759 62.4103 52.7605 62.4103 52.7468C62.4103 52.7329 62.4087 52.7176 62.4087 52.7038C62.4087 52.6901 62.4103 52.6748 62.4103 52.661C62.4103 52.6472 62.4087 52.6318 62.4087 52.6181C62.4087 52.6043 62.4103 52.589 62.4103 52.5751C62.4103 52.5614 62.4087 52.5461 62.4087 52.5323C62.4087 52.5186 62.4103 52.5032 62.4103 52.4894C62.4103 52.4756 62.4087 52.4603 62.4087 52.4466C62.4087 52.4327 62.4103 52.4174 62.4103 52.4036C62.4103 52.3899 62.4087 52.3745 62.4087 52.3608C62.4087 52.3469 62.4103 52.3316 62.4103 52.3179C62.4103 52.3041 62.4087 52.2888 62.4087 52.2749C62.4087 52.2612 62.4103 52.2458 62.4103 52.2321C62.4103 52.2183 62.4087 52.203 62.4087 52.1891C62.4087 52.1754 62.4103 52.1601 62.4103 52.1463C62.4103 52.1325 62.4087 52.1171 62.4087 52.1034C62.4087 52.0896 62.4103 52.0743 62.4103 52.0606C62.4103 52.0467 62.4087 52.0314 62.4087 52.0176C62.4087 52.0039 62.4103 51.9886 62.4103 51.9747C62.4103 51.9609 62.4087 51.9456 62.4087 51.9319C62.4087 51.9181 62.4103 51.9028 62.4103 51.8889C62.4103 51.8752 62.4087 51.8598 62.4087 51.8461C62.4087 51.8322 62.4103 51.817 62.4103 51.8032C62.4103 51.7894 62.4087 51.7741 62.4087 51.7603C62.4087 51.7465 62.4103 51.7311 62.4103 51.7174C62.4103 51.7037 62.4087 51.6883 62.4087 51.6744C62.4087 51.6607 62.4103 51.6454 62.4103 51.6316C62.4103 51.6179 62.4087 51.6026 62.4087 51.5887C62.4087 51.5749 62.4103 51.5596 62.4103 51.5459C62.4103 51.532 62.4087 51.5168 62.4087 51.5029C62.4087 51.4892 62.4103 51.4739 62.4103 51.4601C62.4103 51.4462 62.4087 51.4309 62.4087 51.4172C62.4087 51.4034 62.4103 51.3881 62.4103 51.3742C62.4103 51.3605 62.4087 51.3452 62.4087 51.3314C62.4087 51.3177 62.4103 51.3023 62.4103 51.2885C62.4103 51.2747 62.4087 51.2594 62.4087 51.2456C62.4087 51.2318 62.4103 51.2166 62.4103 51.2027C62.4103 51.189 62.4087 51.1736 62.4087 51.1599C62.4087 51.146 62.4103 51.1307 62.4103 51.1169C62.4103 51.1032 62.4103 51.0893 62.4087 51.074Z" fill="#C22828"/>
<path d="M50.344 57.0725C57.0091 57.0725 62.4123 54.3677 62.4123 51.0312C62.4123 47.6947 57.0091 44.9899 50.344 44.9899C43.6788 44.9899 38.2756 47.6947 38.2756 51.0312C38.2756 54.3677 43.6788 57.0725 50.344 57.0725Z" fill="#ED332B"/>
<path d="M50.344 44.9899C43.6792 44.9899 38.2756 47.695 38.2756 51.0312C38.2756 51.7648 38.5378 52.468 39.0158 53.119L61.6781 48.9526C59.9848 46.6411 55.5497 44.9899 50.344 44.9899Z" fill="#D7292A"/>
<path d="M53.6002 46.5155C53.7857 44.515 46.5846 44.4859 47.0842 46.7131C47.0781 47.0088 47.0781 47.3059 47.0842 47.603C47.0735 48.5741 47.0888 49.5468 47.0781 50.5179C47.0458 52.4587 53.9527 52.4894 53.6048 50.3204C53.5941 50.0079 53.6109 49.6939 53.5988 49.3814C53.6064 48.4256 53.6064 47.4698 53.6002 46.5155Z" fill="#D9D9D9"/>
<path d="M53.6066 48.5405C53.6066 48.5236 53.605 48.5069 53.6036 48.4915C53.605 48.4746 53.6066 48.4593 53.6066 48.4425C53.6066 48.4256 53.605 48.4088 53.6036 48.3935C53.605 48.3766 53.6066 48.3612 53.6066 48.3444C53.6066 48.3275 53.605 48.3108 53.6036 48.2954C53.605 48.2786 53.6066 48.2633 53.6066 48.2464C53.6066 48.2296 53.605 48.2127 53.6036 48.1974C53.605 48.1806 53.6066 48.1653 53.6066 48.1483C53.6066 48.1316 53.605 48.1147 53.6036 48.0993C53.605 48.0825 53.6066 48.0672 53.6066 48.0503C53.6066 48.0335 53.605 48.0166 53.6036 48.0013C53.605 47.9845 53.6066 47.9692 53.6066 47.9522C53.6066 47.9355 53.605 47.9186 53.6036 47.9034C53.605 47.8864 53.6066 47.8711 53.6066 47.8543C53.6066 47.8374 53.605 47.8206 53.6036 47.8053C53.605 47.7884 53.6066 47.7731 53.6066 47.7563C53.6066 47.7394 53.605 47.7226 53.6036 47.7073C53.605 47.6903 53.6066 47.675 53.6066 47.6582C53.6066 47.6413 53.605 47.6245 53.6036 47.6092C53.605 47.5923 53.6066 47.577 53.6066 47.5602C53.6066 47.5433 53.605 47.5265 53.6036 47.5112C53.605 47.4944 53.6066 47.479 53.6066 47.4621C53.6066 47.4453 53.605 47.4284 53.6036 47.4131C53.605 47.3963 53.6066 47.381 53.6066 47.3641C53.6066 47.3473 53.605 47.3304 53.6036 47.3151C53.605 47.2983 53.6066 47.2829 53.6066 47.266C53.6066 47.2493 53.605 47.2323 53.6036 47.217C53.605 47.2002 53.6066 47.1849 53.6066 47.168C53.6066 47.1512 53.605 47.1343 53.6036 47.1191C53.605 47.1022 53.6066 47.0868 53.6066 47.0701C53.6066 47.0531 53.605 47.0364 53.6036 47.021C53.605 47.0041 53.6066 46.9888 53.6066 46.972C53.6066 46.9551 53.605 46.9383 53.6036 46.923C53.605 46.9061 53.6066 46.8907 53.6066 46.874C53.6066 46.857 53.605 46.8403 53.6036 46.8249C53.605 46.808 53.6066 46.7927 53.6066 46.7759C53.6066 46.759 53.605 46.7422 53.6036 46.7269C53.605 46.7101 53.6066 46.6948 53.6066 46.6779C53.6066 46.6611 53.605 46.6442 53.6036 46.6288C53.605 46.6121 53.6066 46.5967 53.6066 46.5798C53.6066 46.563 53.605 46.5461 53.6036 46.5308C53.605 46.514 53.6066 46.4987 53.6066 46.4818C53.6066 45.6668 52.1461 45.0067 50.3439 45.0067C48.5417 45.0067 47.0813 45.6668 47.0813 46.4818C47.0813 46.4987 47.0829 46.5155 47.0843 46.5308C47.0829 46.5477 47.0813 46.563 47.0813 46.5798C47.0813 46.5967 47.0829 46.6135 47.0843 46.6288C47.0829 46.6458 47.0813 46.6611 47.0813 46.6779C47.0813 46.6948 47.0829 46.7116 47.0843 46.7269C47.0829 46.7438 47.0813 46.759 47.0813 46.7759C47.0813 46.7927 47.0829 46.8096 47.0843 46.8249C47.0829 46.8417 47.0813 46.857 47.0813 46.874C47.0813 46.8907 47.0829 46.9077 47.0843 46.923C47.0829 46.9398 47.0813 46.9551 47.0813 46.972C47.0813 46.9888 47.0829 47.0057 47.0843 47.021C47.0829 47.0378 47.0813 47.0531 47.0813 47.0701C47.0813 47.0868 47.0829 47.1038 47.0843 47.1191C47.0829 47.1359 47.0813 47.1512 47.0813 47.168C47.0813 47.1849 47.0829 47.2017 47.0843 47.217C47.0829 47.2339 47.0813 47.2493 47.0813 47.266C47.0813 47.2829 47.0829 47.2997 47.0843 47.3151C47.0829 47.332 47.0813 47.3473 47.0813 47.3641C47.0813 47.381 47.0829 47.3978 47.0843 47.4131C47.0829 47.43 47.0813 47.4453 47.0813 47.4621C47.0813 47.479 47.0829 47.4958 47.0843 47.5112C47.0829 47.5281 47.0813 47.5433 47.0813 47.5602C47.0813 47.577 47.0829 47.5939 47.0843 47.6092C47.0829 47.626 47.0813 47.6413 47.0813 47.6582C47.0813 47.675 47.0829 47.6919 47.0843 47.7073C47.0829 47.724 47.0813 47.7394 47.0813 47.7563C47.0813 47.7731 47.0829 47.79 47.0843 47.8053C47.0829 47.8221 47.0813 47.8374 47.0813 47.8543C47.0813 47.8711 47.0829 47.888 47.0843 47.9034C47.0829 47.9201 47.0813 47.9355 47.0813 47.9522C47.0813 47.9692 47.0829 47.9859 47.0843 48.0013C47.0829 48.0182 47.0813 48.0335 47.0813 48.0503C47.0813 48.0672 47.0829 48.084 47.0843 48.0993C47.0829 48.1162 47.0813 48.1316 47.0813 48.1483C47.0813 48.1653 47.0829 48.182 47.0843 48.1974C47.0829 48.2143 47.0813 48.2296 47.0813 48.2464C47.0813 48.2633 47.0829 48.2801 47.0843 48.2954C47.0829 48.3123 47.0813 48.3275 47.0813 48.3444C47.0813 48.3612 47.0829 48.3781 47.0843 48.3935C47.0829 48.4103 47.0813 48.4256 47.0813 48.4425C47.0813 48.4593 47.0829 48.4762 47.0843 48.4915C47.0829 48.5083 47.0813 48.5236 47.0813 48.5405C47.0813 48.5573 47.0829 48.5742 47.0843 48.5896C47.0829 48.6064 47.0813 48.6217 47.0813 48.6386C47.0813 48.6554 47.0829 48.6723 47.0843 48.6876C47.0829 48.7044 47.0813 48.7197 47.0813 48.7365C47.0813 48.7534 47.0829 48.7702 47.0843 48.7855C47.0829 48.8025 47.0813 48.8178 47.0813 48.8346C47.0813 48.8515 47.0829 48.8683 47.0843 48.8836C47.0829 48.9005 47.0813 48.9158 47.0813 48.9326C47.0813 48.9495 47.0829 48.9663 47.0843 48.9816C47.0829 48.9986 47.0813 49.0139 47.0813 49.0307C47.0813 49.0476 47.0829 49.0644 47.0843 49.0797C47.0829 49.0966 47.0813 49.1118 47.0813 49.1287C47.0813 49.1456 47.0829 49.1624 47.0843 49.1777C47.0829 49.1945 47.0813 49.2099 47.0813 49.2268C47.0813 49.2435 47.0829 49.2605 47.0843 49.2758C47.0829 49.2926 47.0813 49.3079 47.0813 49.3248C47.0813 49.3416 47.0829 49.3585 47.0843 49.3738C47.0829 49.3906 47.0813 49.406 47.0813 49.4229C47.0813 49.4396 47.0829 49.4566 47.0843 49.4719C47.0829 49.4887 47.0813 49.504 47.0813 49.5208C47.0813 49.5377 47.0829 49.5545 47.0843 49.5698C47.0829 49.5867 47.0813 49.6021 47.0813 49.6188C47.0813 49.6357 47.0829 49.6525 47.0843 49.6679C47.0829 49.6848 47.0813 49.7001 47.0813 49.7169C47.0813 49.7338 47.0829 49.7506 47.0843 49.7659C47.0829 49.7828 47.0813 49.7982 47.0813 49.8149C47.0813 49.8318 47.0829 49.8486 47.0843 49.864C47.0829 49.8809 47.0813 49.8961 47.0813 49.913C47.0813 49.9299 47.0829 49.9467 47.0843 49.962C47.0829 49.9788 47.0813 49.9941 47.0813 50.011C47.0813 50.0278 47.0829 50.0447 47.0843 50.0601C47.0829 50.0768 47.0813 50.0922 47.0813 50.1091C47.0813 50.1259 47.0829 50.1428 47.0843 50.1581C47.0829 50.1749 47.0813 50.1902 47.0813 50.2071C47.0813 50.2239 47.0829 50.2408 47.0843 50.2562C47.0829 50.2729 47.0813 50.2883 47.0813 50.305C47.0813 50.322 47.0829 50.3389 47.0843 50.3541C47.0829 50.371 47.0813 50.3863 47.0813 50.4031C47.0813 50.42 47.0829 50.4368 47.0843 50.4521C47.0829 50.469 47.0813 50.4844 47.0813 50.5011C47.0813 50.8627 47.3694 51.1936 47.8476 51.4494C47.8476 51.4402 47.8613 50.826 48.4667 50.1596C49.0765 49.4871 50.4435 48.6233 53.608 48.6233C53.608 48.6064 53.6066 48.5896 53.605 48.5742C53.605 48.5742 53.6066 48.5573 53.6066 48.5405Z" fill="#D9D9D9"/>
<path d="M55.2001 12.7935V13.0937C55.2001 13.345 55.3886 13.5579 55.6383 13.5885L62.1452 14.3958C62.4379 14.4325 62.6969 14.2089 62.7062 13.9148L62.7292 13.0815C62.7367 12.8088 62.5237 12.5806 62.251 12.5699L55.7196 12.2972C55.4361 12.2834 55.2001 12.5101 55.2001 12.7935Z" fill="#ED332B"/>
<path d="M49.6249 12.9559L41.2039 12.2559C40.9204 12.2329 40.6752 12.4489 40.6645 12.7322L40.6124 14.0036C40.6001 14.2885 40.8284 14.5245 41.1135 14.5229L49.5574 14.4892C49.821 14.4876 50.0386 14.2824 50.054 14.0189L50.0847 13.4828C50.0984 13.2117 49.8947 12.9773 49.6249 12.9559Z" fill="#ED332B"/>
<path d="M66.0624 48.199H38.2587C36.0535 48.199 34.2651 46.4113 34.2651 44.2072V20.0848C34.2651 17.8805 36.0535 16.093 38.2587 16.093H66.0624C68.2676 16.093 70.056 17.8805 70.056 20.0848V44.2072C70.056 46.4113 68.2676 48.199 66.0624 48.199Z" fill="#92D5E3"/>
<path d="M63.7959 17.8131C64.3751 17.6416 65.0157 17.663 65.6165 17.8361C66.2202 18.0092 66.7857 18.3369 67.2485 18.7796C67.3589 18.8946 67.4677 19.0125 67.5749 19.1305C67.673 19.256 67.7665 19.3863 67.8569 19.518C67.9336 19.6589 68.0178 19.7953 68.0838 19.9392C68.1435 20.0878 68.2047 20.2349 68.2508 20.385C68.427 20.9931 68.4454 21.6487 68.2155 22.2292H68.0913C68.0239 22.0883 67.9688 21.955 67.9197 21.8233C67.8615 21.6931 67.8018 21.5674 67.7527 21.4419C67.693 21.3194 67.6301 21.2014 67.578 21.0819C67.5152 20.967 67.4493 20.8537 67.3926 20.7404C67.3634 20.6837 67.3236 20.6316 67.2915 20.578L67.1948 20.4156L66.9819 20.1046C66.9084 20.0035 66.8271 19.9087 66.755 19.806C66.6738 19.711 66.588 19.6191 66.5069 19.5225C66.1619 19.1581 65.762 18.8409 65.3115 18.5774C65.195 18.5193 65.0832 18.4503 64.9636 18.3906L64.5959 18.2221C64.4685 18.1777 64.3399 18.1241 64.2081 18.0736C64.0747 18.0337 63.9384 17.9877 63.7989 17.9372V17.8131H63.7959Z" fill="white"/>
<path d="M36.8412 47.9385L28.6992 46.1111C27.8562 45.9227 27.2587 45.1753 27.2587 44.3113V22.9017C27.2587 22.2431 27.6095 21.635 28.1796 21.3055L36.2281 16.649L36.8412 47.9385Z" fill="#116C7E"/>
<path d="M52.1611 48.199H38.2601C36.0548 48.199 34.2664 46.4113 34.2664 44.2072V20.0848C34.2664 17.8805 36.0548 16.093 38.2601 16.093H52.1611V48.199Z" fill="#1ABDCA"/>
<path d="M33.0746 32.7019C33.0746 36.0841 31.6877 38.826 29.9759 38.826C28.2627 38.826 26.8757 36.0841 26.8757 32.7019C26.8757 29.3183 28.2627 26.5764 29.9759 26.5764C31.6877 26.5764 33.0746 29.3183 33.0746 32.7019Z" fill="#1ABDCA"/>
<path d="M29.5154 27.4864C29.5047 27.4864 29.4954 27.4878 29.4847 27.4878C29.474 27.4878 29.4648 27.4864 29.4541 27.4864C29.4434 27.4864 29.4341 27.4878 29.4234 27.4878C29.4127 27.4878 29.4036 27.4864 29.3927 27.4864C29.382 27.4864 29.3729 27.4878 29.3622 27.4878C29.3513 27.4878 29.3422 27.4864 29.3315 27.4864C29.3208 27.4864 29.3116 27.4878 29.3008 27.4878C29.2901 27.4878 29.2809 27.4864 29.2702 27.4864C29.2595 27.4864 29.2502 27.4878 29.2395 27.4878C29.2288 27.4878 29.2197 27.4864 29.2088 27.4864C29.1981 27.4864 29.189 27.4878 29.1783 27.4878C29.1675 27.4878 29.1583 27.4864 29.1476 27.4864C29.1369 27.4864 29.1277 27.4878 29.1169 27.4878C29.1062 27.4878 29.097 27.4864 29.0863 27.4864C29.0756 27.4864 29.0663 27.4878 29.0556 27.4878C29.0449 27.4878 29.0358 27.4864 29.0249 27.4864C29.0142 27.4864 29.0051 27.4878 28.9944 27.4878C28.9836 27.4878 28.9744 27.4864 28.9637 27.4864C28.953 27.4864 28.9438 27.4878 28.9331 27.4878C28.9223 27.4878 28.9131 27.4864 28.9024 27.4864C28.8917 27.4864 28.8824 27.4878 28.8717 27.4878C28.861 27.4878 28.8519 27.4864 28.841 27.4864C28.8303 27.4864 28.8212 27.4878 28.8105 27.4878C28.7997 27.4878 28.7905 27.4864 28.7798 27.4864C28.7691 27.4864 28.7599 27.4878 28.7492 27.4878C28.7384 27.4878 28.7292 27.4864 28.7185 27.4864C28.7078 27.4864 28.6985 27.4878 28.6878 27.4878C28.6771 27.4878 28.668 27.4864 28.6571 27.4864C28.6464 27.4864 28.6373 27.4878 28.6266 27.4878C28.6158 27.4878 28.6066 27.4864 28.5959 27.4864C28.5852 27.4864 28.576 27.4878 28.5653 27.4878C28.5546 27.4878 28.5453 27.4864 28.5346 27.4864C28.5239 27.4864 28.5146 27.4878 28.5039 27.4878C28.4932 27.4878 28.484 27.4864 28.4732 27.4864C28.4625 27.4864 28.4534 27.4878 28.4427 27.4878C28.4319 27.4878 28.4227 27.4864 28.412 27.4864C28.4013 27.4864 28.3921 27.4878 28.3814 27.4878C28.3707 27.4878 28.3614 27.4864 28.3507 27.4864C28.34 27.4864 28.3307 27.4878 28.32 27.4878C28.3093 27.4878 28.3001 27.4864 28.2894 27.4864C28.2786 27.4864 28.2695 27.4878 28.2587 27.4878C28.248 27.4878 28.2389 27.4864 28.2281 27.4864C26.7691 27.4864 25.5892 29.8207 25.5892 32.7019C25.5892 35.5817 26.7707 37.9162 28.2281 37.9162C28.2389 37.9162 28.248 37.9146 28.2587 37.9146C28.2695 37.9146 28.2786 37.9162 28.2894 37.9162C28.3001 37.9162 28.3093 37.9146 28.32 37.9146C28.3307 37.9146 28.34 37.9162 28.3507 37.9162C28.3614 37.9162 28.3707 37.9146 28.3814 37.9146C28.3921 37.9146 28.4013 37.9162 28.412 37.9162C28.4227 37.9162 28.4319 37.9146 28.4427 37.9146C28.4534 37.9146 28.4625 37.9162 28.4732 37.9162C28.484 37.9162 28.4932 37.9146 28.5039 37.9146C28.5146 37.9146 28.5239 37.9162 28.5346 37.9162C28.5453 37.9162 28.5546 37.9146 28.5653 37.9146C28.576 37.9146 28.5852 37.9162 28.5959 37.9162C28.6066 37.9162 28.6158 37.9146 28.6266 37.9146C28.6373 37.9146 28.6464 37.9162 28.6571 37.9162C28.668 37.9162 28.6771 37.9146 28.6878 37.9146C28.6985 37.9146 28.7078 37.9162 28.7185 37.9162C28.7292 37.9162 28.7384 37.9146 28.7492 37.9146C28.7599 37.9146 28.7691 37.9162 28.7798 37.9162C28.7905 37.9162 28.7997 37.9146 28.8105 37.9146C28.8212 37.9146 28.8303 37.9162 28.841 37.9162C28.8519 37.9162 28.861 37.9146 28.8717 37.9146C28.8824 37.9146 28.8917 37.9162 28.9024 37.9162C28.9131 37.9162 28.9223 37.9146 28.9331 37.9146C28.9438 37.9146 28.953 37.9162 28.9637 37.9162C28.9744 37.9162 28.9836 37.9146 28.9944 37.9146C29.0051 37.9146 29.0142 37.9162 29.0249 37.9162C29.0358 37.9162 29.0449 37.9146 29.0556 37.9146C29.0663 37.9146 29.0756 37.9162 29.0863 37.9162C29.097 37.9162 29.1062 37.9146 29.1169 37.9146C29.1277 37.9146 29.1369 37.9162 29.1476 37.9162C29.1583 37.9162 29.1675 37.9146 29.1783 37.9146C29.189 37.9146 29.1981 37.9162 29.2088 37.9162C29.2197 37.9162 29.2288 37.9146 29.2395 37.9146C29.2502 37.9146 29.2595 37.9162 29.2702 37.9162C29.2809 37.9162 29.2901 37.9146 29.3008 37.9146C29.3116 37.9146 29.3208 37.9162 29.3315 37.9162C29.3422 37.9162 29.3513 37.9146 29.3622 37.9146C29.3729 37.9146 29.382 37.9162 29.3927 37.9162C29.4036 37.9162 29.4127 37.9146 29.4234 37.9146C29.4341 37.9146 29.4434 37.9162 29.4541 37.9162C29.4648 37.9162 29.474 37.9146 29.4847 37.9146C29.4954 37.9146 29.5047 37.9162 29.5154 37.9162C30.9728 37.9162 32.1543 35.5817 32.1543 32.7019C32.1543 29.8207 30.9728 27.4864 29.5154 27.4864Z" fill="#C22828"/>
<path d="M30.8735 32.7019C30.8735 35.5817 29.6935 37.9162 28.2345 37.9162C26.7756 37.9162 25.5956 35.5817 25.5956 32.7019C25.5956 29.8223 26.7772 27.4864 28.2345 27.4864C29.6935 27.4864 30.8735 29.8207 30.8735 32.7019Z" fill="#ED332B"/>
<path d="M28.9536 32.7019C28.9536 33.4862 28.6318 34.1203 28.2348 34.1203C27.8379 34.1203 27.5161 33.4847 27.5161 32.7019C27.5161 31.9177 27.8379 31.282 28.2348 31.282C28.6318 31.282 28.9536 31.9177 28.9536 32.7019Z" fill="#C22828"/>
<path d="M28.9492 32.7019C28.9492 33.4862 28.6273 34.1203 28.2304 34.1203C27.8335 34.1203 27.5117 33.4847 27.5117 32.7019C27.5117 31.9177 27.8335 31.282 28.2304 31.282C28.6273 31.282 28.9492 31.9177 28.9492 32.7019Z" fill="#C22828"/>
<path d="M28.9447 32.7019C28.9447 33.4862 28.6227 34.1203 28.2259 34.1203C27.829 34.1203 27.5071 33.4847 27.5071 32.7019C27.5071 31.9177 27.829 31.282 28.2259 31.282C28.6227 31.282 28.9447 31.9177 28.9447 32.7019Z" fill="#C22828"/>
<path d="M28.94 32.7019C28.94 33.4862 28.6182 34.1203 28.2214 34.1203C27.8243 34.1203 27.5026 33.4847 27.5026 32.7019C27.5026 31.9177 27.8243 31.282 28.2214 31.282C28.6182 31.282 28.94 31.9177 28.94 32.7019Z" fill="#C22828"/>
<path d="M28.9355 32.7019C28.9355 33.4862 28.6137 34.1203 28.2168 34.1203C27.8198 34.1203 27.498 33.4847 27.498 32.7019C27.498 31.9177 27.8198 31.282 28.2168 31.282C28.6137 31.282 28.9355 31.9177 28.9355 32.7019Z" fill="#C22828"/>
<path d="M28.9304 32.7019C28.9304 33.4862 28.6086 34.1203 28.2117 34.1203C27.8147 34.1203 27.4929 33.4847 27.4929 32.7019C27.4929 31.9177 27.8147 31.282 28.2117 31.282C28.6086 31.282 28.9304 31.9177 28.9304 32.7019Z" fill="#C22828"/>
<path d="M28.9259 32.7019C28.9259 33.4862 28.6041 34.1203 28.2071 34.1203C27.8102 34.1203 27.4884 33.4847 27.4884 32.7019C27.4884 31.9177 27.8102 31.282 28.2071 31.282C28.6041 31.282 28.9259 31.9177 28.9259 32.7019Z" fill="#C22828"/>
<path d="M28.9213 32.7019C28.9213 33.4862 28.5994 34.1203 28.2025 34.1203C27.8057 34.1203 27.4839 33.4847 27.4839 32.7019C27.4839 31.9177 27.8057 31.282 28.2025 31.282C28.5994 31.282 28.9213 31.9177 28.9213 32.7019Z" fill="#C22828"/>
<path d="M28.9168 32.7019C28.9168 33.4862 28.5949 34.1203 28.198 34.1203C27.8012 34.1203 27.4792 33.4847 27.4792 32.7019C27.4792 31.9177 27.8012 31.282 28.198 31.282C28.5949 31.282 28.9168 31.9177 28.9168 32.7019Z" fill="#C22828"/>
<path d="M28.9122 32.7019C28.9122 33.4862 28.5904 34.1203 28.1935 34.1203C27.7966 34.1203 27.4747 33.4847 27.4747 32.7019C27.4747 31.9177 27.7966 31.282 28.1935 31.282C28.5904 31.282 28.9122 31.9177 28.9122 32.7019Z" fill="#C22828"/>
<path d="M28.9058 32.7019C28.9058 33.4862 28.5839 34.1203 28.1871 34.1203C27.7902 34.1203 27.4683 33.4847 27.4683 32.7019C27.4683 31.9177 27.7902 31.282 28.1871 31.282C28.5855 31.282 28.9058 31.9177 28.9058 32.7019Z" fill="#C22828"/>
<path d="M28.9012 32.7019C28.9012 33.4862 28.5794 34.1203 28.1825 34.1203C27.7857 34.1203 27.4637 33.4847 27.4637 32.7019C27.4637 31.9177 27.7857 31.282 28.1825 31.282C28.581 31.282 28.9012 31.9177 28.9012 32.7019Z" fill="#C22828"/>
<path d="M28.8968 32.7019C28.8968 33.4862 28.575 34.1203 28.1781 34.1203C27.7811 34.1203 27.4594 33.4847 27.4594 32.7019C27.4594 31.9177 27.7811 31.282 28.1781 31.282C28.5765 31.282 28.8968 31.9177 28.8968 32.7019Z" fill="#C22828"/>
<path d="M28.8916 32.7019C28.8916 33.4862 28.5698 34.1203 28.1729 34.1203C27.7759 34.1203 27.4541 33.4847 27.4541 32.7019C27.4541 31.9177 27.7759 31.282 28.1729 31.282C28.5712 31.282 28.8916 31.9177 28.8916 32.7019Z" fill="#C22828"/>
<path d="M28.8872 32.7019C28.8872 33.4862 28.5654 34.1203 28.1684 34.1203C27.7715 34.1203 27.4497 33.4847 27.4497 32.7019C27.4497 31.9177 27.7715 31.282 28.1684 31.282C28.5668 31.282 28.8872 31.9177 28.8872 32.7019Z" fill="#C22828"/>
<path d="M28.8826 32.7019C28.8826 33.4862 28.5607 34.1203 28.1638 34.1203C27.767 34.1203 27.4452 33.4847 27.4452 32.7019C27.4452 31.9177 27.767 31.282 28.1638 31.282C28.5623 31.282 28.8826 31.9177 28.8826 32.7019Z" fill="#C22828"/>
<path d="M28.8781 32.7019C28.8781 33.4862 28.5562 34.1203 28.1593 34.1203C27.7625 34.1203 27.4406 33.4847 27.4406 32.7019C27.4406 31.9177 27.7625 31.282 28.1593 31.282C28.5562 31.282 28.8781 31.9177 28.8781 32.7019Z" fill="#C22828"/>
<path d="M28.8735 32.7019C28.8735 33.4862 28.5517 34.1203 28.1548 34.1203C27.758 34.1203 27.436 33.4847 27.436 32.7019C27.436 31.9177 27.758 31.282 28.1548 31.282C28.5517 31.282 28.8735 31.9177 28.8735 32.7019Z" fill="#C22828"/>
<path d="M28.869 32.7019C28.869 33.4862 28.5472 34.1203 28.1503 34.1203C27.7533 34.1203 27.4315 33.4847 27.4315 32.7019C27.4315 31.9177 27.7533 31.282 28.1503 31.282C28.5472 31.282 28.869 31.9177 28.869 32.7019Z" fill="#C22828"/>
<path d="M28.8645 32.7019C28.8645 33.4862 28.5427 34.1203 28.1458 34.1203C27.7488 34.1203 27.427 33.4847 27.427 32.7019C27.427 31.9177 27.7488 31.282 28.1458 31.282C28.5427 31.282 28.8645 31.9177 28.8645 32.7019Z" fill="#C22828"/>
<path d="M28.8601 32.7019C28.8601 33.4862 28.5383 34.1203 28.1413 34.1203C27.7444 34.1203 27.4226 33.4847 27.4226 32.7019C27.4226 31.9177 27.7444 31.282 28.1413 31.282C28.5383 31.282 28.8601 31.9177 28.8601 32.7019Z" fill="#C22828"/>
<path d="M28.8548 32.7019C28.8548 33.4862 28.533 34.1203 28.136 34.1203C27.7391 34.1203 27.4174 33.4847 27.4174 32.7019C27.4174 31.9177 27.7391 31.282 28.136 31.282C28.533 31.282 28.8548 31.9177 28.8548 32.7019Z" fill="#C22828"/>
<path d="M28.8503 32.7019C28.8503 33.4862 28.5284 34.1203 28.1315 34.1203C27.7346 34.1203 27.4128 33.4847 27.4128 32.7019C27.4128 31.9177 27.7346 31.282 28.1315 31.282C28.5284 31.282 28.8503 31.9177 28.8503 32.7019Z" fill="#C22828"/>
<path d="M28.8458 32.7019C28.8458 33.4862 28.524 34.1203 28.1271 34.1203C27.7302 34.1203 27.4083 33.4847 27.4083 32.7019C27.4083 31.9177 27.7302 31.282 28.1271 31.282C28.524 31.282 28.8458 31.9177 28.8458 32.7019Z" fill="#C22828"/>
<path d="M28.8413 32.7019C28.8413 33.4862 28.5195 34.1203 28.1226 34.1203C27.7256 34.1203 27.4038 33.4847 27.4038 32.7019C27.4038 31.9177 27.7256 31.282 28.1226 31.282C28.5195 31.282 28.8413 31.9177 28.8413 32.7019Z" fill="#C22828"/>
<path d="M28.8367 32.7019C28.8367 33.4862 28.515 34.1203 28.1181 34.1203C27.7211 34.1203 27.3993 33.4847 27.3993 32.7019C27.3993 31.9177 27.7211 31.282 28.1181 31.282C28.515 31.282 28.8367 31.9177 28.8367 32.7019Z" fill="#C22828"/>
<path d="M28.8322 32.7019C28.8322 33.4862 28.5104 34.1203 28.1134 34.1203C27.7166 34.1203 27.3948 33.4847 27.3948 32.7019C27.3948 31.9177 27.7166 31.282 28.1134 31.282C28.5104 31.282 28.8322 31.9177 28.8322 32.7019Z" fill="#C22828"/>
<path d="M28.8277 32.7019C28.8277 33.4862 28.5058 34.1203 28.1089 34.1203C27.712 34.1203 27.3903 33.4847 27.3903 32.7019C27.3903 31.9177 27.712 31.282 28.1089 31.282C28.5058 31.282 28.8277 31.9177 28.8277 32.7019Z" fill="#C22828"/>
<path d="M28.822 32.7019C28.822 33.4862 28.5002 34.1203 28.1032 34.1203C27.7063 34.1203 27.3845 33.4847 27.3845 32.7019C27.3845 31.9177 27.7063 31.282 28.1032 31.282C28.5016 31.282 28.822 31.9177 28.822 32.7019Z" fill="#C22828"/>
<path d="M28.8167 32.7019C28.8167 33.4862 28.4948 34.1203 28.0979 34.1203C27.7011 34.1203 27.3793 33.4847 27.3793 32.7019C27.3793 31.9177 27.7011 31.282 28.0979 31.282C28.4964 31.282 28.8167 31.9177 28.8167 32.7019Z" fill="#C22828"/>
<path d="M28.8122 32.7019C28.8122 33.4862 28.4903 34.1203 28.0934 34.1203C27.6966 34.1203 27.3746 33.4847 27.3746 32.7019C27.3746 31.9177 27.6966 31.282 28.0934 31.282C28.4919 31.282 28.8122 31.9177 28.8122 32.7019Z" fill="#C22828"/>
<path d="M28.8077 32.7019C28.8077 33.4862 28.4859 34.1203 28.089 34.1203C27.6922 34.1203 27.3702 33.4847 27.3702 32.7019C27.3702 31.9177 27.6922 31.282 28.089 31.282C28.4875 31.282 28.8077 31.9177 28.8077 32.7019Z" fill="#C22828"/>
<path d="M28.8032 32.7019C28.8032 33.4862 28.4814 34.1203 28.0845 34.1203C27.6875 34.1203 27.3657 33.4847 27.3657 32.7019C27.3657 31.9177 27.6875 31.282 28.0845 31.282C28.4828 31.282 28.8032 31.9177 28.8032 32.7019Z" fill="#C22828"/>
<path d="M28.7987 32.7019C28.7987 33.4862 28.4769 34.1203 28.0799 34.1203C27.683 34.1203 27.3612 33.4847 27.3612 32.7019C27.3612 31.9177 27.683 31.282 28.0799 31.282C28.4769 31.282 28.7987 31.9177 28.7987 32.7019Z" fill="#C22828"/>
<path d="M28.7941 32.7019C28.7941 33.4862 28.4724 34.1203 28.0753 34.1203C27.6785 34.1203 27.3567 33.4847 27.3567 32.7019C27.3567 31.9177 27.6785 31.282 28.0753 31.282C28.4724 31.282 28.7941 31.9177 28.7941 32.7019Z" fill="#C22828"/>
<path d="M28.7896 32.7019C28.7896 33.4862 28.4677 34.1203 28.0708 34.1203C27.674 34.1203 27.3522 33.4847 27.3522 32.7019C27.3522 31.9177 27.674 31.282 28.0708 31.282C28.4677 31.282 28.7896 31.9177 28.7896 32.7019Z" fill="#C22828"/>
<path d="M28.7851 32.7019C28.7851 33.4862 28.4633 34.1203 28.0664 34.1203C27.6696 34.1203 27.3477 33.4847 27.3477 32.7019C27.3477 31.9177 27.6696 31.282 28.0664 31.282C28.4633 31.282 28.7851 31.9177 28.7851 32.7019Z" fill="#C22828"/>
<path d="M28.7799 32.7019C28.7799 33.4862 28.4581 34.1203 28.0612 34.1203C27.6643 34.1203 27.3424 33.4847 27.3424 32.7019C27.3424 31.9177 27.6643 31.282 28.0612 31.282C28.4581 31.282 28.7799 31.9177 28.7799 32.7019Z" fill="#C22828"/>
<path d="M28.7753 32.7019C28.7753 33.4862 28.4536 34.1203 28.0567 34.1203C27.6597 34.1203 27.3379 33.4847 27.3379 32.7019C27.3379 31.9177 27.6597 31.282 28.0567 31.282C28.4536 31.282 28.7753 31.9177 28.7753 32.7019Z" fill="#C22828"/>
<path d="M28.7689 32.7019C28.7689 33.4862 28.4471 34.1203 28.0502 34.1203C27.6533 34.1203 27.3314 33.4847 27.3314 32.7019C27.3314 31.9177 27.6533 31.282 28.0502 31.282C28.4471 31.282 28.7689 31.9177 28.7689 32.7019Z" fill="#C22828"/>
<path d="M28.7657 32.7019C28.7657 33.4862 28.4439 34.1203 28.0469 34.1203C27.65 34.1203 27.3282 33.4847 27.3282 32.7019C27.3282 31.9177 27.65 31.282 28.0469 31.282C28.4439 31.282 28.7657 31.9177 28.7657 32.7019Z" fill="#C22828"/>
<path d="M28.7619 32.7019C28.7619 33.4862 28.44 34.1203 28.0431 34.1203C27.6462 34.1203 27.3245 33.4847 27.3245 32.7019C27.3245 31.9177 27.6462 31.282 28.0431 31.282C28.44 31.282 28.7619 31.9177 28.7619 32.7019Z" fill="#C22828"/>
<path d="M27.8517 31.282C27.841 31.282 27.8318 31.2836 27.8211 31.2851C27.8103 31.2836 27.8011 31.282 27.7904 31.282C27.7797 31.282 27.7704 31.2836 27.7597 31.2851C27.749 31.2836 27.7398 31.282 27.729 31.282C27.7183 31.282 27.7092 31.2836 27.6985 31.2851C27.6877 31.2836 27.6785 31.282 27.6678 31.282C27.6571 31.282 27.6479 31.2836 27.6372 31.2851C27.6265 31.2836 27.6172 31.282 27.6065 31.282C27.5958 31.282 27.5865 31.2836 27.5758 31.2851C27.5651 31.2836 27.5559 31.282 27.5451 31.282C27.5344 31.282 27.5253 31.2836 27.5145 31.2851C27.5038 31.2836 27.4946 31.282 27.4839 31.282C27.4732 31.282 27.464 31.2836 27.4533 31.2851C27.4426 31.2836 27.4333 31.282 27.4226 31.282C27.4119 31.282 27.4026 31.2836 27.3919 31.2851C27.3812 31.2836 27.372 31.282 27.3613 31.282C27.3505 31.282 27.3414 31.2836 27.3306 31.2851C27.3199 31.2836 27.3107 31.282 27.3 31.282C27.2893 31.282 27.2801 31.2836 27.2694 31.2851C27.2587 31.2836 27.2494 31.282 27.2387 31.282C27.228 31.282 27.2187 31.2836 27.208 31.2851C27.1973 31.2836 27.1881 31.282 27.1774 31.282C27.1666 31.282 27.1575 31.2836 27.1467 31.2851C27.136 31.2836 27.1269 31.282 27.1161 31.282C27.1053 31.282 27.0962 31.2836 27.0855 31.2851C27.0748 31.2836 27.0655 31.282 27.0548 31.282C27.0441 31.282 27.0348 31.2836 27.0241 31.2851C27.0134 31.2836 27.0042 31.282 26.9935 31.282C26.9828 31.282 26.9736 31.2836 26.9628 31.2851C26.9521 31.2836 26.943 31.282 26.9323 31.282C26.9214 31.282 26.9123 31.2836 26.9016 31.2851C26.8909 31.2836 26.8816 31.282 26.8709 31.282C26.8602 31.282 26.8509 31.2836 26.8402 31.2851C26.8295 31.2836 26.8203 31.282 26.8096 31.282C26.7989 31.282 26.7897 31.2836 26.7789 31.2851C26.7682 31.2836 26.7591 31.282 26.7484 31.282C26.7375 31.282 26.7284 31.2836 26.7177 31.2851C26.707 31.2836 26.6977 31.282 26.687 31.282C26.6763 31.282 26.6671 31.2836 26.6563 31.2851C26.6456 31.2836 26.6364 31.282 26.6257 31.282C26.615 31.282 26.6058 31.2836 26.595 31.2851C26.5843 31.2836 26.5752 31.282 26.5645 31.282C26.5536 31.282 26.5445 31.2836 26.5338 31.2851C26.5231 31.2836 26.5138 31.282 26.5031 31.282C26.4924 31.282 26.4832 31.2836 26.4724 31.2851C26.4617 31.2836 26.4525 31.282 26.4418 31.282C26.4311 31.282 26.4219 31.2836 26.4111 31.2851C26.4004 31.2836 26.3913 31.282 26.3806 31.282C26.3697 31.282 26.3606 31.2836 26.3499 31.2851C26.3392 31.2836 26.3299 31.282 26.3192 31.282C26.3085 31.282 26.2993 31.2836 26.2886 31.2851C26.2778 31.2836 26.2686 31.282 26.2579 31.282C26.2472 31.282 26.2381 31.2836 26.2272 31.2851C26.2165 31.2836 26.2074 31.282 26.1967 31.282C26.1858 31.282 26.1767 31.2836 26.166 31.2851C26.1553 31.2836 26.146 31.282 26.1353 31.282C26.1246 31.282 26.1154 31.2836 26.1047 31.2851C26.094 31.2836 26.0847 31.282 26.074 31.282C26.0633 31.282 26.0542 31.2836 26.0433 31.2851C26.0326 31.2836 26.0235 31.282 26.0128 31.282C26.0019 31.282 25.9928 31.2836 25.9821 31.2851C25.9714 31.2836 25.9621 31.282 25.9514 31.282C25.9407 31.282 25.9315 31.2836 25.9208 31.2851C25.9101 31.2836 25.9008 31.282 25.8901 31.282C25.8794 31.282 25.8703 31.2836 25.8594 31.2851C25.8487 31.2836 25.8396 31.282 25.8289 31.282C25.818 31.282 25.8089 31.2836 25.7982 31.2851C25.7875 31.2836 25.7782 31.282 25.7675 31.282C25.7568 31.282 25.7476 31.2836 25.7369 31.2851C25.7262 31.2836 25.7169 31.282 25.7062 31.282C25.6955 31.282 25.6862 31.2836 25.6755 31.2851C25.6648 31.2836 25.6557 31.282 25.645 31.282C25.6341 31.282 25.625 31.2836 25.6143 31.2851C25.6036 31.2836 25.5944 31.282 25.5836 31.282C25.5729 31.282 25.5637 31.2836 25.553 31.2851C25.5423 31.2836 25.533 31.282 25.5223 31.282C25.5116 31.282 25.5023 31.2836 25.4916 31.2851C25.4809 31.2836 25.4718 31.282 25.461 31.282C25.4503 31.282 25.4411 31.2836 25.4304 31.2851C25.4197 31.2836 25.4105 31.282 25.3998 31.282C25.389 31.282 25.3798 31.2836 25.3691 31.2851C25.3584 31.2836 25.3491 31.282 25.3384 31.282C24.9415 31.282 24.6198 31.9177 24.6198 32.7019C24.6198 33.4862 24.9415 34.1203 25.3384 34.1203C25.3491 34.1203 25.3584 34.1189 25.3691 34.1173C25.3798 34.1189 25.389 34.1203 25.3998 34.1203C25.4105 34.1203 25.4197 34.1189 25.4304 34.1173C25.4411 34.1189 25.4503 34.1203 25.461 34.1203C25.4718 34.1203 25.4809 34.1189 25.4916 34.1173C25.5023 34.1189 25.5116 34.1203 25.5223 34.1203C25.533 34.1203 25.5423 34.1189 25.553 34.1173C25.5637 34.1189 25.5729 34.1203 25.5836 34.1203C25.5944 34.1203 25.6036 34.1189 25.6143 34.1173C25.625 34.1189 25.6341 34.1203 25.645 34.1203C25.6557 34.1203 25.6648 34.1189 25.6755 34.1173C25.6862 34.1189 25.6955 34.1203 25.7062 34.1203C25.7169 34.1203 25.7262 34.1189 25.7369 34.1173C25.7476 34.1189 25.7568 34.1203 25.7675 34.1203C25.7782 34.1203 25.7875 34.1189 25.7982 34.1173C25.8089 34.1189 25.818 34.1203 25.8289 34.1203C25.8396 34.1203 25.8487 34.1189 25.8594 34.1173C25.8703 34.1189 25.8794 34.1203 25.8901 34.1203C25.9008 34.1203 25.9101 34.1189 25.9208 34.1173C25.9315 34.1189 25.9407 34.1203 25.9514 34.1203C25.9621 34.1203 25.9714 34.1189 25.9821 34.1173C25.9928 34.1189 26.0019 34.1203 26.0128 34.1203C26.0235 34.1203 26.0326 34.1189 26.0433 34.1173C26.0542 34.1189 26.0633 34.1203 26.074 34.1203C26.0847 34.1203 26.094 34.1189 26.1047 34.1173C26.1154 34.1189 26.1246 34.1203 26.1353 34.1203C26.146 34.1203 26.1553 34.1189 26.166 34.1173C26.1767 34.1189 26.1858 34.1203 26.1967 34.1203C26.2074 34.1203 26.2165 34.1189 26.2272 34.1173C26.2381 34.1189 26.2472 34.1203 26.2579 34.1203C26.2686 34.1203 26.2778 34.1189 26.2886 34.1173C26.2993 34.1189 26.3085 34.1203 26.3192 34.1203C26.3299 34.1203 26.3392 34.1189 26.3499 34.1173C26.3606 34.1189 26.3697 34.1203 26.3806 34.1203C26.3913 34.1203 26.4004 34.1189 26.4111 34.1173C26.4219 34.1189 26.4311 34.1203 26.4418 34.1203C26.4525 34.1203 26.4617 34.1189 26.4724 34.1173C26.4832 34.1189 26.4924 34.1203 26.5031 34.1203C26.5138 34.1203 26.5231 34.1189 26.5338 34.1173C26.5445 34.1189 26.5536 34.1203 26.5645 34.1203C26.5752 34.1203 26.5843 34.1189 26.595 34.1173C26.6058 34.1189 26.615 34.1203 26.6257 34.1203C26.6364 34.1203 26.6456 34.1189 26.6563 34.1173C26.6671 34.1189 26.6763 34.1203 26.687 34.1203C26.6977 34.1203 26.707 34.1189 26.7177 34.1173C26.7284 34.1189 26.7375 34.1203 26.7484 34.1203C26.7591 34.1203 26.7682 34.1189 26.7789 34.1173C26.7897 34.1189 26.7989 34.1203 26.8096 34.1203C26.8203 34.1203 26.8295 34.1189 26.8402 34.1173C26.8509 34.1189 26.8602 34.1203 26.8709 34.1203C26.8816 34.1203 26.8909 34.1189 26.9016 34.1173C26.9123 34.1189 26.9214 34.1203 26.9323 34.1203C26.943 34.1203 26.9521 34.1189 26.9628 34.1173C26.9736 34.1189 26.9828 34.1203 26.9935 34.1203C27.0042 34.1203 27.0134 34.1189 27.0241 34.1173C27.0348 34.1189 27.0441 34.1203 27.0548 34.1203C27.0655 34.1203 27.0748 34.1189 27.0855 34.1173C27.0962 34.1189 27.1053 34.1203 27.1161 34.1203C27.1269 34.1203 27.136 34.1189 27.1467 34.1173C27.1575 34.1189 27.1666 34.1203 27.1774 34.1203C27.1881 34.1203 27.1973 34.1189 27.208 34.1173C27.2187 34.1189 27.228 34.1203 27.2387 34.1203C27.2494 34.1203 27.2587 34.1189 27.2694 34.1173C27.2801 34.1189 27.2893 34.1203 27.3 34.1203C27.3107 34.1203 27.3199 34.1189 27.3306 34.1173C27.3414 34.1189 27.3505 34.1203 27.3613 34.1203C27.372 34.1203 27.3812 34.1189 27.3919 34.1173C27.4026 34.1189 27.4119 34.1203 27.4226 34.1203C27.4333 34.1203 27.4426 34.1189 27.4533 34.1173C27.464 34.1189 27.4732 34.1203 27.4839 34.1203C27.4946 34.1203 27.5038 34.1189 27.5145 34.1173C27.5253 34.1189 27.5344 34.1203 27.5451 34.1203C27.5559 34.1203 27.5651 34.1189 27.5758 34.1173C27.5865 34.1189 27.5958 34.1203 27.6065 34.1203C27.6172 34.1203 27.6265 34.1189 27.6372 34.1173C27.6479 34.1189 27.6571 34.1203 27.6678 34.1203C27.6785 34.1203 27.6877 34.1189 27.6985 34.1173C27.7092 34.1189 27.7183 34.1203 27.729 34.1203C27.7398 34.1203 27.749 34.1189 27.7597 34.1173C27.7704 34.1189 27.7797 34.1203 27.7904 34.1203C27.8011 34.1203 27.8103 34.1189 27.8211 34.1173C27.8318 34.1189 27.841 34.1203 27.8517 34.1203C28.2486 34.1203 28.5704 33.4847 28.5704 32.7019C28.5689 31.9177 28.2486 31.282 27.8517 31.282Z" fill="#92D5E3"/>
<path d="M60.1668 39.0604C60.17 39.0497 60.1745 39.039 60.1776 39.0283C60.1807 39.0176 60.1853 39.0067 60.1883 38.996C60.1914 38.9853 60.196 38.9746 60.1991 38.9639C60.2021 38.9532 60.2067 38.9425 60.2098 38.9317C60.2128 38.921 60.2174 38.9103 60.2205 38.8995C60.2235 38.8888 60.2281 38.8781 60.2312 38.8674C60.2342 38.8566 60.2388 38.8459 60.2419 38.8352C60.2451 38.8245 60.2496 38.8138 60.2527 38.8031C60.2558 38.7924 60.2604 38.7815 60.2634 38.7708C60.2665 38.7601 60.2711 38.7494 60.2741 38.7387C60.2772 38.728 60.2818 38.7173 60.2849 38.7065C60.2879 38.6958 60.2925 38.6851 60.2956 38.6744C60.2986 38.6637 60.3032 38.653 60.3063 38.6423C60.3093 38.6314 60.3139 38.6207 60.317 38.61C60.3202 38.5993 60.3246 38.5886 60.3278 38.5779C60.3309 38.5672 60.3355 38.5564 60.3385 38.5457C60.3416 38.535 60.3462 38.5243 60.3492 38.5136C60.3523 38.5029 60.3569 38.4922 60.3599 38.4813C60.363 38.4706 60.3676 38.4599 60.3707 38.4492C60.3737 38.4385 60.3783 38.4278 60.3814 38.4171C60.3845 38.4063 60.389 38.3956 60.3921 38.3849C60.3952 38.3741 60.3997 38.3634 60.4029 38.3527C60.406 38.342 60.4106 38.3312 60.4136 38.3205C60.4167 38.3098 60.4213 38.2991 60.4243 38.2884C60.4274 38.2777 60.432 38.267 60.435 38.2561C60.4381 38.2454 60.4427 38.2347 60.4457 38.224C60.4488 38.2133 60.4534 38.2026 60.4565 38.1919C60.4596 38.1811 60.4641 38.1704 60.4672 38.1597C60.6542 37.6343 60.6082 37.0782 60.2021 36.51C60.13 36.395 60.0489 36.2802 59.9508 36.1623C59.7792 36.003 59.6137 35.8805 59.4512 35.7871C58.9241 35.4546 58.4245 35.4899 57.9386 35.7027C57.1294 36.0413 56.3817 36.8714 55.5618 37.3264C53.0409 38.7617 49.6739 38.2317 47.6664 36.1531C46.419 34.9215 44.744 35.7901 44.3394 37.0538C44.3364 37.0629 44.3333 37.0721 44.3303 37.0814C44.3257 37.0921 44.3226 37.1028 44.3194 37.1135C44.315 37.1242 44.3119 37.1349 44.3087 37.1456C44.3042 37.1565 44.3011 37.1672 44.298 37.1779C44.2934 37.1886 44.2904 37.1993 44.2873 37.21C44.2827 37.2207 44.2797 37.2315 44.2766 37.2422C44.272 37.2529 44.2689 37.2636 44.2659 37.2743C44.2613 37.285 44.2582 37.2957 44.2552 37.3066C44.2506 37.3173 44.2475 37.328 44.2444 37.3387C44.2399 37.3494 44.2368 37.3601 44.2336 37.3708C44.2292 37.3816 44.226 37.3923 44.2229 37.403C44.2183 37.4137 44.2153 37.4244 44.2122 37.4351C44.2076 37.4458 44.2046 37.4567 44.2015 37.4674C44.1969 37.4781 44.1939 37.4888 44.1908 37.4995C44.1862 37.5102 44.1831 37.5209 44.1801 37.5317C44.1755 37.5424 44.1724 37.5531 44.1693 37.5638C44.1648 37.5746 44.1617 37.5853 44.1586 37.596C44.1541 37.6068 44.1509 37.6175 44.1478 37.6282C44.1432 37.6389 44.1402 37.6496 44.1371 37.6603C44.1325 37.671 44.1295 37.6819 44.1264 37.6926C44.1218 37.7033 44.1188 37.714 44.1157 37.7247C44.1111 37.7354 44.1081 37.7461 44.105 37.7569C44.1004 37.7676 44.0973 37.7783 44.0942 37.789C44.0897 37.7997 44.0866 37.8104 44.0835 37.8211C44.079 37.832 44.0758 37.8427 44.0728 37.8534C44.0681 37.8641 44.0651 37.8748 44.062 37.8855C44.0574 37.8962 44.0544 37.907 44.0513 37.9177C44.0498 37.9222 44.0483 37.9268 44.0453 37.9331C43.7954 38.5749 43.8721 39.3361 44.5156 39.981C45.9853 41.4377 47.8626 42.4777 49.8916 42.902C51.9313 43.3279 54.0845 43.1364 56.0184 42.3583C56.9134 41.9569 58.2406 41.2907 59.1585 40.4435C59.6305 40.0208 60.0014 39.5537 60.1668 39.0604Z" fill="#116C7E"/>
<path d="M45.8233 22.9093C45.8186 22.9093 45.8124 22.9093 45.8079 22.9093C45.8033 22.9093 45.7971 22.9093 45.7926 22.9093C45.788 22.9093 45.7819 22.9093 45.7772 22.9093C45.7726 22.9093 45.7665 22.9093 45.7619 22.9093C45.7573 22.9093 45.7512 22.9093 45.7466 22.9093C45.7419 22.9093 45.7359 22.9093 45.7312 22.9093C45.7266 22.9093 45.7205 22.9093 45.7159 22.9093C45.7113 22.9093 45.7052 22.9093 45.7006 22.9093C45.6959 22.9093 45.6899 22.9093 45.6852 22.9093C45.6806 22.9093 45.6745 22.9093 45.6699 22.9093C45.6654 22.9093 45.6592 22.9093 45.6546 22.9093C45.6501 22.9093 45.6439 22.9093 45.6392 22.9093C45.6347 22.9093 45.6285 22.9093 45.624 22.9093C45.6194 22.9093 45.6132 22.9093 45.6087 22.9093C45.6041 22.9093 45.598 22.9093 45.5934 22.9093C45.5887 22.9093 45.5826 22.9093 45.578 22.9093C45.5734 22.9093 45.5673 22.9093 45.5627 22.9093C45.5581 22.9093 45.552 22.9093 45.5473 22.9093C45.5427 22.9093 45.5366 22.9093 45.532 22.9093C45.5274 22.9093 45.5213 22.9093 45.5167 22.9093C45.512 22.9093 45.506 22.9093 45.5013 22.9093C45.4967 22.9093 45.4906 22.9093 45.486 22.9093C45.4815 22.9093 45.4753 22.9093 45.4707 22.9093C45.4662 22.9093 45.46 22.9093 45.4553 22.9093C45.4508 22.9093 45.4446 22.9093 45.4401 22.9093C45.4355 22.9093 45.4293 22.9093 45.4248 22.9093C45.4202 22.9093 45.414 22.9093 45.4095 22.9093C45.4048 22.9093 45.3988 22.9093 45.3941 22.9093C45.3895 22.9093 45.3834 22.9093 45.3788 22.9093C45.3742 22.9093 45.3681 22.9093 45.3635 22.9093C45.3588 22.9093 45.3527 22.9093 45.3481 22.9093C45.3435 22.9093 45.3374 22.9093 45.3328 22.9093C45.3282 22.9093 45.3221 22.9093 45.3174 22.9093C45.3128 22.9093 45.3067 22.9093 45.3021 22.9093C45.2976 22.9093 45.2914 22.9093 45.2868 22.9093C45.2823 22.9093 45.2761 22.9093 45.2714 22.9093C45.2669 22.9093 45.2607 22.9093 45.2562 22.9093C45.2516 22.9093 45.2454 22.9093 45.2409 22.9093C45.2363 22.9093 45.2301 22.9093 45.2256 22.9093C45.2209 22.9093 45.2149 22.9093 45.2102 22.9093C45.2056 22.9093 45.1995 22.9093 45.1949 22.9093C45.1903 22.9093 45.1842 22.9093 45.1796 22.9093C45.1749 22.9093 45.1688 22.9093 45.1642 22.9093C45.1596 22.9093 45.1535 22.9093 45.1489 22.9093C45.1443 22.9093 45.1382 22.9093 45.1335 22.9093C45.1289 22.9093 45.1228 22.9093 45.1182 22.9093C45.1137 22.9093 45.1075 22.9093 45.1029 22.9093C45.0984 22.9093 45.0922 22.9093 45.0875 22.9093C45.083 22.9093 45.0768 22.9093 45.0723 22.9093C45.0677 22.9093 45.0615 22.9093 45.057 22.9093C45.0524 22.9093 45.0462 22.9093 45.0417 22.9093C45.037 22.9093 45.031 22.9093 45.0263 22.9093C45.0217 22.9093 45.0156 22.9093 45.011 22.9093C45.0064 22.9093 45.0003 22.9093 44.9957 22.9093C44.991 22.9093 44.985 22.9093 44.9803 22.9093C44.9757 22.9093 44.9696 22.9093 44.965 22.9093C44.9604 22.9093 44.9543 22.9093 44.9497 22.9093C44.945 22.9093 44.9389 22.9093 44.9343 22.9093C44.9297 22.9093 44.9236 22.9093 44.919 22.9093C44.9145 22.9093 44.9083 22.9093 44.9036 22.9093C44.8992 22.9093 44.8929 22.9093 44.8884 22.9093C44.8838 22.9093 44.8776 22.9093 44.8731 22.9093C42.3505 22.9093 40.3079 24.9528 40.3079 27.4709C40.3079 29.9892 42.3521 32.0326 44.8731 32.0326C44.8776 32.0326 44.8838 32.0326 44.8884 32.0326C44.8929 32.0326 44.8992 32.0326 44.9036 32.0326C44.9083 32.0326 44.9145 32.0326 44.919 32.0326C44.9236 32.0326 44.9297 32.0326 44.9343 32.0326C44.9389 32.0326 44.945 32.0326 44.9497 32.0326C44.9543 32.0326 44.9604 32.0326 44.965 32.0326C44.9696 32.0326 44.9757 32.0326 44.9803 32.0326C44.985 32.0326 44.991 32.0326 44.9957 32.0326C45.0003 32.0326 45.0064 32.0326 45.011 32.0326C45.0156 32.0326 45.0217 32.0326 45.0263 32.0326C45.031 32.0326 45.037 32.0326 45.0417 32.0326C45.0462 32.0326 45.0524 32.0326 45.057 32.0326C45.0615 32.0326 45.0677 32.0326 45.0723 32.0326C45.0768 32.0326 45.083 32.0326 45.0875 32.0326C45.0922 32.0326 45.0984 32.0326 45.1029 32.0326C45.1075 32.0326 45.1137 32.0326 45.1182 32.0326C45.1228 32.0326 45.1289 32.0326 45.1335 32.0326C45.1382 32.0326 45.1443 32.0326 45.1489 32.0326C45.1535 32.0326 45.1596 32.0326 45.1642 32.0326C45.1688 32.0326 45.1749 32.0326 45.1796 32.0326C45.1842 32.0326 45.1903 32.0326 45.1949 32.0326C45.1995 32.0326 45.2056 32.0326 45.2102 32.0326C45.2149 32.0326 45.2209 32.0326 45.2256 32.0326C45.2301 32.0326 45.2363 32.0326 45.2409 32.0326C45.2454 32.0326 45.2516 32.0326 45.2562 32.0326C45.2607 32.0326 45.2669 32.0326 45.2714 32.0326C45.2761 32.0326 45.2823 32.0326 45.2868 32.0326C45.2914 32.0326 45.2976 32.0326 45.3021 32.0326C45.3067 32.0326 45.3128 32.0326 45.3174 32.0326C45.3221 32.0326 45.3282 32.0326 45.3328 32.0326C45.3374 32.0326 45.3435 32.0326 45.3481 32.0326C45.3527 32.0326 45.3588 32.0326 45.3635 32.0326C45.3681 32.0326 45.3742 32.0326 45.3788 32.0326C45.3834 32.0326 45.3895 32.0326 45.3941 32.0326C45.3988 32.0326 45.4048 32.0326 45.4095 32.0326C45.414 32.0326 45.4202 32.0326 45.4248 32.0326C45.4293 32.0326 45.4355 32.0326 45.4401 32.0326C45.4446 32.0326 45.4508 32.0326 45.4553 32.0326C45.46 32.0326 45.4662 32.0326 45.4707 32.0326C45.4753 32.0326 45.4815 32.0326 45.486 32.0326C45.4906 32.0326 45.4967 32.0326 45.5013 32.0326C45.506 32.0326 45.512 32.0326 45.5167 32.0326C45.5213 32.0326 45.5274 32.0326 45.532 32.0326C45.5366 32.0326 45.5427 32.0326 45.5473 32.0326C45.552 32.0326 45.5581 32.0326 45.5627 32.0326C45.5673 32.0326 45.5734 32.0326 45.578 32.0326C45.5826 32.0326 45.5887 32.0326 45.5934 32.0326C45.598 32.0326 45.6041 32.0326 45.6087 32.0326C45.6132 32.0326 45.6194 32.0326 45.624 32.0326C45.6285 32.0326 45.6347 32.0326 45.6392 32.0326C45.6439 32.0326 45.6501 32.0326 45.6546 32.0326C45.6592 32.0326 45.6654 32.0326 45.6699 32.0326C45.6745 32.0326 45.6806 32.0326 45.6852 32.0326C45.6899 32.0326 45.6959 32.0326 45.7006 32.0326C45.7052 32.0326 45.7113 32.0326 45.7159 32.0326C45.7205 32.0326 45.7266 32.0326 45.7312 32.0326C45.7359 32.0326 45.7419 32.0326 45.7466 32.0326C45.7512 32.0326 45.7573 32.0326 45.7619 32.0326C45.7665 32.0326 45.7726 32.0326 45.7772 32.0326C45.7819 32.0326 45.788 32.0326 45.7926 32.0326C45.7971 32.0326 45.8033 32.0326 45.8079 32.0326C45.8124 32.0326 45.8186 32.0326 45.8233 32.0326C48.3441 32.0326 50.3869 29.9892 50.3869 27.4709C50.3869 24.9528 48.3441 22.9093 45.8233 22.9093Z" fill="#C22828"/>
<path d="M50.3883 27.4709C50.3883 29.9907 48.344 32.0326 45.8246 32.0326C43.3022 32.0326 41.2594 29.9892 41.2594 27.4709C41.2594 24.9528 43.3037 22.9093 45.8246 22.9093C48.344 22.9093 50.3883 24.9512 50.3883 27.4709Z" fill="#ED332B"/>
<path d="M49.2133 27.3851C49.2133 29.2095 47.7344 30.6877 45.9092 30.6877C44.0842 30.6877 42.6053 29.2095 42.6053 27.3851C42.6053 25.5609 44.0842 24.0828 45.9092 24.0828C47.7344 24.0828 49.2133 25.5624 49.2133 27.3851Z" fill="#92D5E3"/>
<path d="M47.6177 27.4144C47.6177 28.3748 46.8392 29.1514 45.8799 29.1514C44.9205 29.1514 44.1436 28.3748 44.1436 27.4144C44.1436 26.4554 44.9205 25.6788 45.8799 25.6788C46.8392 25.6788 47.6177 26.4554 47.6177 27.4144Z" fill="white"/>
<path d="M59.4451 22.9093C59.4405 22.9093 59.4342 22.9093 59.4297 22.9093C59.4251 22.9093 59.419 22.9093 59.4144 22.9093C59.4098 22.9093 59.4037 22.9093 59.3991 22.9093C59.3944 22.9093 59.3884 22.9093 59.3837 22.9093C59.3791 22.9093 59.373 22.9093 59.3684 22.9093C59.3638 22.9093 59.3577 22.9093 59.3531 22.9093C59.3484 22.9093 59.3424 22.9093 59.3377 22.9093C59.3331 22.9093 59.327 22.9093 59.3224 22.9093C59.3178 22.9093 59.3117 22.9093 59.3071 22.9093C59.3026 22.9093 59.2964 22.9093 59.2917 22.9093C59.2872 22.9093 59.281 22.9093 59.2764 22.9093C59.2719 22.9093 59.2657 22.9093 59.2612 22.9093C59.2566 22.9093 59.2503 22.9093 59.2459 22.9093C59.2412 22.9093 59.2351 22.9093 59.2305 22.9093C59.2259 22.9093 59.2198 22.9093 59.2152 22.9093C59.2106 22.9093 59.2045 22.9093 59.1998 22.9093C59.1952 22.9093 59.1891 22.9093 59.1845 22.9093C59.1799 22.9093 59.1738 22.9093 59.1692 22.9093C59.1645 22.9093 59.1585 22.9093 59.1538 22.9093C59.1492 22.9093 59.1431 22.9093 59.1385 22.9093C59.1339 22.9093 59.1278 22.9093 59.1232 22.9093C59.1187 22.9093 59.1125 22.9093 59.1078 22.9093C59.1033 22.9093 59.0971 22.9093 59.0925 22.9093C59.088 22.9093 59.0818 22.9093 59.0773 22.9093C59.0727 22.9093 59.0664 22.9093 59.062 22.9093C59.0573 22.9093 59.0511 22.9093 59.0466 22.9093C59.042 22.9093 59.0359 22.9093 59.0313 22.9093C59.0267 22.9093 59.0206 22.9093 59.016 22.9093C59.0113 22.9093 59.0052 22.9093 59.0006 22.9093C58.996 22.9093 58.9899 22.9093 58.9853 22.9093C58.9807 22.9093 58.9746 22.9093 58.9699 22.9093C58.9653 22.9093 58.9592 22.9093 58.9546 22.9093C58.95 22.9093 58.9439 22.9093 58.9393 22.9093C58.9348 22.9093 58.9286 22.9093 58.9239 22.9093C58.9194 22.9093 58.9132 22.9093 58.9086 22.9093C58.9041 22.9093 58.8979 22.9093 58.8934 22.9093C58.8888 22.9093 58.8826 22.9093 58.8781 22.9093C58.8734 22.9093 58.8672 22.9093 58.8627 22.9093C58.8581 22.9093 58.852 22.9093 58.8474 22.9093C58.8428 22.9093 58.8367 22.9093 58.8321 22.9093C58.8274 22.9093 58.8213 22.9093 58.8167 22.9093C58.8121 22.9093 58.806 22.9093 58.8014 22.9093C58.7968 22.9093 58.7907 22.9093 58.786 22.9093C58.7814 22.9093 58.7753 22.9093 58.7707 22.9093C58.7661 22.9093 58.76 22.9093 58.7554 22.9093C58.7509 22.9093 58.7447 22.9093 58.74 22.9093C58.7355 22.9093 58.7293 22.9093 58.7247 22.9093C58.7202 22.9093 58.714 22.9093 58.7095 22.9093C58.7049 22.9093 58.6987 22.9093 58.6942 22.9093C58.6895 22.9093 58.6833 22.9093 58.6788 22.9093C58.6742 22.9093 58.6681 22.9093 58.6635 22.9093C58.6589 22.9093 58.6528 22.9093 58.6482 22.9093C58.6435 22.9093 58.6374 22.9093 58.6328 22.9093C58.6282 22.9093 58.6221 22.9093 58.6175 22.9093C58.6129 22.9093 58.6068 22.9093 58.6022 22.9093C58.5975 22.9093 58.5914 22.9093 58.5868 22.9093C58.5822 22.9093 58.5761 22.9093 58.5715 22.9093C58.567 22.9093 58.5608 22.9093 58.5561 22.9093C58.5517 22.9093 58.5454 22.9093 58.5408 22.9093C58.5363 22.9093 58.5301 22.9093 58.5256 22.9093C58.521 22.9093 58.5148 22.9093 58.5103 22.9093C58.5056 22.9093 58.4994 22.9093 58.4949 22.9093C55.9725 22.9093 53.9297 24.9528 53.9297 27.4709C53.9297 29.9892 55.974 32.0326 58.4949 32.0326C58.4994 32.0326 58.5056 32.0326 58.5103 32.0326C58.5148 32.0326 58.521 32.0326 58.5256 32.0326C58.5301 32.0326 58.5363 32.0326 58.5408 32.0326C58.5454 32.0326 58.5517 32.0326 58.5561 32.0326C58.5608 32.0326 58.567 32.0326 58.5715 32.0326C58.5761 32.0326 58.5822 32.0326 58.5868 32.0326C58.5914 32.0326 58.5975 32.0326 58.6022 32.0326C58.6068 32.0326 58.6129 32.0326 58.6175 32.0326C58.6221 32.0326 58.6282 32.0326 58.6328 32.0326C58.6374 32.0326 58.6435 32.0326 58.6482 32.0326C58.6528 32.0326 58.6589 32.0326 58.6635 32.0326C58.6681 32.0326 58.6742 32.0326 58.6788 32.0326C58.6833 32.0326 58.6895 32.0326 58.6942 32.0326C58.6987 32.0326 58.7049 32.0326 58.7095 32.0326C58.714 32.0326 58.7202 32.0326 58.7247 32.0326C58.7293 32.0326 58.7355 32.0326 58.74 32.0326C58.7447 32.0326 58.7509 32.0326 58.7554 32.0326C58.76 32.0326 58.7661 32.0326 58.7707 32.0326C58.7753 32.0326 58.7814 32.0326 58.786 32.0326C58.7907 32.0326 58.7968 32.0326 58.8014 32.0326C58.806 32.0326 58.8121 32.0326 58.8167 32.0326C58.8213 32.0326 58.8274 32.0326 58.8321 32.0326C58.8367 32.0326 58.8428 32.0326 58.8474 32.0326C58.852 32.0326 58.8581 32.0326 58.8627 32.0326C58.8672 32.0326 58.8734 32.0326 58.8781 32.0326C58.8826 32.0326 58.8888 32.0326 58.8934 32.0326C58.8979 32.0326 58.9041 32.0326 58.9086 32.0326C58.9132 32.0326 58.9194 32.0326 58.9239 32.0326C58.9286 32.0326 58.9348 32.0326 58.9393 32.0326C58.9439 32.0326 58.95 32.0326 58.9546 32.0326C58.9592 32.0326 58.9653 32.0326 58.9699 32.0326C58.9746 32.0326 58.9807 32.0326 58.9853 32.0326C58.9899 32.0326 58.996 32.0326 59.0006 32.0326C59.0052 32.0326 59.0113 32.0326 59.016 32.0326C59.0206 32.0326 59.0267 32.0326 59.0313 32.0326C59.0359 32.0326 59.042 32.0326 59.0466 32.0326C59.0511 32.0326 59.0573 32.0326 59.062 32.0326C59.0664 32.0326 59.0727 32.0326 59.0773 32.0326C59.0818 32.0326 59.088 32.0326 59.0925 32.0326C59.0971 32.0326 59.1033 32.0326 59.1078 32.0326C59.1125 32.0326 59.1187 32.0326 59.1232 32.0326C59.1278 32.0326 59.1339 32.0326 59.1385 32.0326C59.1431 32.0326 59.1492 32.0326 59.1538 32.0326C59.1585 32.0326 59.1645 32.0326 59.1692 32.0326C59.1738 32.0326 59.1799 32.0326 59.1845 32.0326C59.1891 32.0326 59.1952 32.0326 59.1998 32.0326C59.2045 32.0326 59.2106 32.0326 59.2152 32.0326C59.2198 32.0326 59.2259 32.0326 59.2305 32.0326C59.2351 32.0326 59.2412 32.0326 59.2459 32.0326C59.2503 32.0326 59.2566 32.0326 59.2612 32.0326C59.2657 32.0326 59.2719 32.0326 59.2764 32.0326C59.281 32.0326 59.2872 32.0326 59.2917 32.0326C59.2964 32.0326 59.3026 32.0326 59.3071 32.0326C59.3117 32.0326 59.3178 32.0326 59.3224 32.0326C59.327 32.0326 59.3331 32.0326 59.3377 32.0326C59.3424 32.0326 59.3484 32.0326 59.3531 32.0326C59.3577 32.0326 59.3638 32.0326 59.3684 32.0326C59.373 32.0326 59.3791 32.0326 59.3837 32.0326C59.3884 32.0326 59.3944 32.0326 59.3991 32.0326C59.4037 32.0326 59.4098 32.0326 59.4144 32.0326C59.419 32.0326 59.4251 32.0326 59.4297 32.0326C59.4342 32.0326 59.4405 32.0326 59.4451 32.0326C61.9659 32.0326 64.0087 29.9892 64.0087 27.4709C64.0087 24.9528 61.9659 22.9093 59.4451 22.9093Z" fill="#C22828"/>
<path d="M64.0089 27.4709C64.0089 29.9907 61.9645 32.0326 59.4451 32.0326C56.9227 32.0326 54.8799 29.9892 54.8799 27.4709C54.8799 24.9528 56.9243 22.9093 59.4451 22.9093C61.9661 22.9093 64.0089 24.9512 64.0089 27.4709Z" fill="#ED332B"/>
<path d="M62.8351 27.3851C62.8351 29.2095 61.3563 30.6877 59.5312 30.6877C57.706 30.6877 56.2272 29.2095 56.2272 27.3851C56.2272 25.5609 57.706 24.0828 59.5312 24.0828C61.3563 24.0828 62.8351 25.5624 62.8351 27.3851Z" fill="#92D5E3"/>
<path d="M61.2396 27.4144C61.2396 28.3748 60.461 29.1514 59.5017 29.1514C58.5423 29.1514 57.7654 28.3748 57.7654 27.4144C57.7654 26.4554 58.5423 25.6788 59.5017 25.6788C60.461 25.6788 61.2396 26.4554 61.2396 27.4144Z" fill="white"/>
<path d="M59.9632 36.1622C58.2392 34.56 57.0193 36.5237 55.5742 37.3264C53.0532 38.7617 49.6864 38.2317 47.6789 36.1531C45.823 34.3225 43.0171 37.1349 44.8637 38.9837C46.3333 40.4405 48.2106 41.4806 50.2397 41.9049C52.2793 42.3308 54.4325 42.1393 56.3665 41.3611C58.2285 40.5262 61.9754 38.5442 59.9632 36.1622Z" fill="#ED332B"/>
<path d="M46.2934 38.2715C46.1648 38.1566 46.0344 38.0341 45.9104 37.9115L46.6137 37.2039C46.7256 37.3157 46.842 37.4244 46.9571 37.5271L46.2934 38.2715Z" fill="white"/>
<path d="M52.1319 40.6168C51.7764 40.6059 51.4178 40.5738 51.0654 40.5218L51.2124 39.5353C51.525 39.5812 51.8454 39.6104 52.1611 39.6195L52.1319 40.6168ZM52.6683 40.6168L52.6391 39.6195C52.9548 39.6104 53.2752 39.5812 53.5878 39.5353L53.735 40.5218C53.3824 40.5738 53.0238 40.6059 52.6683 40.6168ZM50.5381 40.4283C50.1903 40.3547 49.8424 40.2598 49.5052 40.1465L49.824 39.2014C50.1243 39.3025 50.434 39.3866 50.7435 39.4526L50.5381 40.4283ZM54.262 40.4267L54.0567 39.4495C54.3662 39.3852 54.6758 39.2994 54.9762 39.1983L55.295 40.1434C54.9562 40.2598 54.6099 40.3547 54.262 40.4267ZM49.0026 39.9611C48.6732 39.8279 48.3482 39.6747 48.0357 39.5031L48.5153 38.627C48.7942 38.7785 49.0838 38.9165 49.3765 39.0343L49.0026 39.9611ZM55.796 39.9596L55.4221 39.0343C55.7148 38.9165 56.0045 38.7785 56.2834 38.627L56.7631 39.5031C56.4504 39.6731 56.1256 39.8279 55.796 39.9596ZM57.2243 39.232L56.6956 38.3849C56.9638 38.218 57.2259 38.0326 57.4741 37.8334L58.0963 38.6147C57.8174 38.8383 57.5231 39.0451 57.2243 39.232ZM47.5743 39.232C47.2739 39.0451 46.9798 38.8368 46.7024 38.6147L47.3245 37.8334C47.5743 38.0311 47.8364 38.218 48.1045 38.3849L47.5743 39.232Z" fill="white"/>
<path d="M58.5061 38.2715L57.8409 37.5271C57.9574 37.423 58.0739 37.3142 58.1841 37.2039L58.8876 37.9115C58.765 38.0341 58.6363 38.1551 58.5061 38.2715Z" fill="white"/>
</svg>
