<?xml version="1.0" encoding="UTF-8"?>
<svg xmlns="http://www.w3.org/2000/svg" version="1.1" xmlns:xlink="http://www.w3.org/1999/xlink" viewBox="0 0 217.8 118.2">
  <defs>
    <style>
      .cls-1 {
        fill: #c22828;
      }

      .cls-2 {
        fill: #d7292a;
      }

      .cls-3 {
        fill: #fff;
      }

      .cls-4 {
        opacity: .2;
      }

      .cls-5 {
        fill: #e5e5e5;
      }

      .cls-6 {
        fill: #92d5e3;
      }

      .cls-7 {
        fill: #116c7e;
      }

      .cls-8 {
        fill: #f1f1f1;
      }

      .cls-9 {
        fill: #408284;
      }

      .cls-10 {
        fill-opacity: 0;
      }

      .cls-11 {
        fill: #ed332b;
      }

      .cls-12 {
        opacity: .3;
      }

      .cls-13 {
        fill: #d6d6d6;
      }

      .cls-14 {
        fill: #a5a5a5;
      }

      .cls-15 {
        fill: #1abdca;
      }

      .cls-16 {
        fill: #297984;
      }

      .cls-17 {
        fill: url(#linear-gradient);
      }

      .cls-18 {
        fill: #d9d9d9;
      }
    </style>
    <linearGradient id="linear-gradient" x1="74.9" y1="94.7" x2="145" y2="94.7" gradientTransform="translate(0 119.2) scale(1 -1)" gradientUnits="userSpaceOnUse">
      <stop offset="0" stop-color="#158a9c"/>
      <stop offset="1" stop-color="#0c4f5c"/>
    </linearGradient>
  </defs>
  <!-- Generator: Adobe Illustrator 28.6.0, SVG Export Plug-In . SVG Version: 1.2.0 Build 709)  -->
  <g>
    <g id="Layer_1">
      <g>
        <path class="cls-8" d="M195.7,75.2c-1.8,0-3.5.6-4.9,1.6-.3-6.6-5.8-11.8-12.4-11.8s-4.1.5-5.8,1.5c.8-2.1,1.2-4.3,1.2-6.6,0-10.1-8.2-18.2-18.2-18.2s-11.4,2.9-14.7,7.5l-3.5,3.4c-.7-.7-1.4-1.3-2.2-1.8l-4.1-1.8c-1-.2-2-.4-3-.4-2.3,0-4.4.6-6.3,1.6-.8-3.6-3.4-6.6-6.8-7.9l-2.1-.6c-.6,0-1.2-.1-1.8-.1h-1.1l-2.1.4c-.1,0-.3,0-.4.1-3.6-5.7-9.5-9.9-16.4-11.1l-3.4-.4h-2.3l-3.6.5c-9.8,2.1-17.5,10.1-19,20.2h-1.2c-8.2,0-15,5.9-16.5,13.7-2.5.4-4.6,1.9-5.9,4-2.3-1.6-5.2-2.6-8.4-2.6-7.3,0-13.3,5.1-13.3,11.5s6,11.5,13.3,11.5,2.1-.1,3.1-.3c7.5,5.1,40.5,9,80.2,9s66.1-3.1,77.2-7.5c1.3.8,2.9,1.3,4.5,1.3,4.6,0,8.4-3.8,8.4-8.4s-3.8-8.4-8.4-8.4h-.1ZM75.8,77.2s0-.1.1-.2c.1,0,.2.1.4.2h-.5Z"/>
        <path class="cls-5" d="M.2,104.3h216c1-1.5,1.6-3.2,1.6-5,0-7.2-9.2-13-20.5-13s-3.7.2-5.5.5c-1.3-7.1-7.4-12.5-14.8-12.5s-1.8,0-2.7.2c-3.3-7.1-10.9-12.1-19.8-12.1s-14.2,3.6-18.1,9c-1.9-1.3-4.2-2-6.6-2-4.8,0-9,2.8-10.8,6.9-5.9-6.2-14.7-10.2-24.6-10.2s-23,6.2-28.4,15.2c-2-1.3-4.4-2.1-7-2.1-3.9,0-7.4,1.8-9.8,4.6-4.6-4.6-12.1-7.5-20.6-7.5-14,0-25.3,8-25.3,18s.5,4.2,1.5,6.1c-2.2,1.1-3.9,2.5-4.8,3.9h.2Z"/>
        <g>
          <polygon class="cls-14" points="94.6 72.3 81.5 118.2 109.8 118.2 109.8 72.1 94.6 72.3"/>
          <polygon class="cls-13" points="93.9 74.7 109.8 74.2 109.8 75.2 93.9 74.7 93.9 74.7"/>
          <polygon class="cls-13" points="92.8 78.3 109.8 77.8 109.8 78.8 92.8 78.3 92.8 78.3"/>
          <polygon class="cls-13" points="91.9 81.8 109.8 81.3 109.8 82.3 91.9 81.8 91.9 81.8"/>
          <polygon class="cls-13" points="90.8 85.3 109.8 84.8 109.8 85.8 90.8 85.3 90.8 85.3"/>
          <polygon class="cls-13" points="89.8 88.9 109.8 88.4 109.8 89.4 89.8 88.9 89.8 88.9"/>
          <polygon class="cls-13" points="88.8 92.4 109.8 91.9 109.8 92.9 88.8 92.4 88.8 92.4"/>
          <polygon class="cls-13" points="87.8 96 109.8 95.5 109.8 96.5 87.8 96 87.8 96"/>
          <polygon class="cls-13" points="86.8 99.5 109.8 99 109.8 100 86.8 99.5 86.8 99.5"/>
          <polygon class="cls-13" points="85.8 103 109.8 102.5 109.8 103.5 85.8 103 85.8 103"/>
          <polygon class="cls-13" points="84.8 106.6 109.8 106.1 109.8 107.1 84.8 106.6 84.8 106.6"/>
          <polygon class="cls-13" points="83.8 110.1 109.8 109.6 109.8 110.6 83.8 110.1 83.8 110.1"/>
          <polygon class="cls-13" points="82.7 113.6 109.8 113.1 109.8 114.1 82.7 113.6 82.7 113.6"/>
          <polygon class="cls-13" points="81.8 117.2 109.8 116.7 109.8 117.7 81.8 117.2 81.8 117.2"/>
        </g>
        <g>
          <polygon class="cls-14" points="125.1 72.3 138.1 118.2 109.8 118.2 109.8 72.1 125.1 72.3"/>
          <polygon class="cls-13" points="125.8 74.7 109.8 75.2 109.8 74.2 125.8 74.7 125.8 74.7"/>
          <polygon class="cls-13" points="126.8 78.3 109.8 78.8 109.8 77.8 126.8 78.3 126.8 78.3"/>
          <polygon class="cls-13" points="127.8 81.8 109.8 82.3 109.8 81.3 127.8 81.8 127.8 81.8"/>
          <polygon class="cls-13" points="128.8 85.3 109.8 85.8 109.8 84.8 128.8 85.3 128.8 85.3"/>
          <polygon class="cls-13" points="129.8 88.9 109.8 89.4 109.8 88.4 129.8 88.9 129.8 88.9"/>
          <polygon class="cls-13" points="130.8 92.4 109.8 92.9 109.8 91.9 130.8 92.4 130.8 92.4"/>
          <polygon class="cls-13" points="131.8 96 109.8 96.5 109.8 95.5 131.8 96 131.8 96"/>
          <polygon class="cls-13" points="132.8 99.5 109.8 100 109.8 99 132.8 99.5 132.8 99.5"/>
          <polygon class="cls-13" points="133.8 103 109.8 103.5 109.8 102.5 133.8 103 133.8 103"/>
          <polygon class="cls-13" points="134.9 106.6 109.8 107.1 109.8 106.1 134.9 106.6 134.9 106.6"/>
          <polygon class="cls-13" points="135.8 110.1 109.8 110.6 109.8 109.6 135.8 110.1 135.8 110.1"/>
          <polygon class="cls-13" points="136.9 113.6 109.8 114.1 109.8 113.1 136.9 113.6 136.9 113.6"/>
          <polygon class="cls-13" points="137.8 117.2 109.8 117.7 109.8 116.7 137.8 117.2 137.8 117.2"/>
        </g>
        <g>
          <ellipse class="cls-7" cx="66.2" cy="88.2" rx="5.3" ry="1.8"/>
          <path class="cls-15" d="M79.6,65.2l-14.5,22.4c-.2.3,0,.8.4.8h.5c.7,0,1.3-.3,1.8-.8l16.9-18.7-5-3.7h0Z"/>
          <path class="cls-7" d="M84.7,68.9l-5-3.7-7.5,11.6h0c1.9-2.1,3.6-1.6,3.4,2.2l9.1-10.1Z"/>
        </g>
        <g>
          <ellipse class="cls-7" cx="153.7" cy="88.2" rx="5.3" ry="1.8"/>
          <path class="cls-15" d="M140.3,65.2l14.5,22.4c.2.3,0,.8-.4.8h-.5c-.7,0-1.3-.3-1.8-.8l-16.9-18.7,5-3.7h0Z"/>
          <path class="cls-7" d="M135.2,68.9l5-3.7,7.5,11.6h0c-1.9-2.1-3.6-1.6-3.4,2.2l-9.1-10.1Z"/>
        </g>
        <path class="cls-15" d="M143.7,31.7c.8,3,1.3,6.1,1.3,9.3,0,7.2-15.7,13.1-35,13.1s-35-5.8-35-13.1.4-6.4,1.3-9.3c-20.2,3.8-33.8,11-33.8,19.3,0,12.3,30.3,22.3,67.6,22.3s67.6-10,67.6-22.3-13.6-15.4-33.8-19.3h-.2Z"/>
        <path class="cls-15" d="M143.7,31.7c.8,3,1.3,6.1,1.3,9.3,0,7.2-15.7,13.1-35,13.1s-35-5.8-35-13.1.4-6.4,1.3-9.3c-20.2,3.8-33.8,11-33.8,19.3,0,12.3,30.3,22.3,67.6,22.3s67.6-10,67.6-22.3-13.6-15.4-33.8-19.3h-.2Z"/>
        <path class="cls-3" d="M143.7,29.1c.8,3,1.3,6.1,1.3,9.3,0,7.2-15.7,13.1-35,13.1s-35-5.8-35-13.1.4-6.4,1.3-9.3c-20.2,3.8-33.8,11-33.8,19.3,0,12.3,30.3,22.3,67.6,22.3s67.6-10,67.6-22.3-13.6-15.4-33.8-19.3h-.2Z"/>
        <path class="cls-7" d="M143.7,27.1c.8,3,1.3,6.1,1.3,9.3,0,7.2-15.7,13.1-35,13.1s-35-5.8-35-13.1.4-6.4,1.3-9.3c-20.2,3.8-33.8,11-33.8,19.3,0,12.3,30.3,22.3,67.6,22.3s67.6-10,67.6-22.3-13.6-15.4-33.8-19.3h-.2Z"/>
        <ellipse class="cls-15" cx="109.9" cy="45" rx="67.6" ry="22.3"/>
        <path class="cls-17" d="M109.9,0c-19.4,0-35,15.7-35,35s15.7,13.1,35,13.1,35-5.8,35-13.1C144.9,15.6,129.2,0,109.9,0Z"/>
        <ellipse class="cls-10" cx="109.9" cy="35" rx="35" ry="13.1"/>
        <polygon class="cls-9" points="126.5 38.1 132.8 45.9 133.4 45.2 127.1 37.8 126.5 38.1"/>
        <polygon class="cls-9" points="134 34.1 140.5 42.1 141.2 41.4 134.6 33.7 134 34.1"/>
        <circle class="cls-2" cx="126.5" cy="37.5" r="2"/>
        <circle class="cls-11" cx="126.1" cy="37.2" r="1"/>
        <g>
          <circle class="cls-2" cx="133.4" cy="33" r="2"/>
          <circle class="cls-11" cx="133" cy="32.6" r="1"/>
        </g>
        <path class="cls-16" d="M110.1,37.8c-7,2.6-13.2,4.9-13.9,5.5s-.6,3.8-.6,3.8l-.2,4,21.5.5,5.1-3v-9.6c0-1.1-5.4-2.7-6.4-2.7s-5.5,1.4-5.5,1.4h0Z"/>
        <g>
          <path class="cls-15" d="M108.6,44.5c4.2,0,7.6-1.7,7.6-3.8s-3.4-3.8-7.6-3.8-7.6,1.7-7.6,3.8,3.4,3.8,7.6,3.8Z"/>
          <path class="cls-1" d="M115.7,38h0c0-1.9-3.2-3.6-7.1-3.6s-7.1,1.6-7.1,3.6,0,0,0,0h0c0,1.9,3.2,3.6,7.1,3.6s7.1-1.6,7.1-3.6,0,0,0,0h0Z"/>
          <path class="cls-11" d="M108.6,41.6c3.9,0,7.1-1.6,7.1-3.6s-3.2-3.6-7.1-3.6-7.1,1.6-7.1,3.6,3.2,3.6,7.1,3.6Z"/>
          <path class="cls-2" d="M108.6,34.4c-3.9,0-7.1,1.6-7.1,3.6s.2.9.5,1.2l13.3-2.5c-1-1.3-3.6-2.3-6.7-2.3Z"/>
          <path class="cls-18" d="M110.5,35.4c0-1.2-4.1-1.2-3.8,0v2.3c0,1.2,4,1.2,3.8,0v-2.3Z"/>
          <path class="cls-18" d="M110.5,36.5h0c0-.5-.9-.9-1.9-.9s-1.9.4-1.9.9,0,0,0,0h0c0,.2.2.4.5.5,0,0,0-.4.4-.8s1.2-.9,3-.9h0v1.2h-.1Z"/>
          <path class="cls-11" d="M111.5,15.5v.2c0,.2,0,.3.2.3l3.8.5c.2,0,.3,0,.3-.3v-.5c0-.2,0-.3-.2-.3l-3.8-.2c-.2,0-.3.2-.3.3Z"/>
          <path class="cls-11" d="M108.1,15.6l-5-.4c-.2,0-.3,0-.3.3v.8c0,.2,0,.3.2.3h5c.2,0,.3-.2.3-.3v-.3c0-.2,0-.3-.2-.3h0Z"/>
          <path class="cls-6" d="M117.8,36.4h-16.3c-1.3,0-2.3-1.1-2.3-2.3v-14.2c0-1.3,1.1-2.3,2.3-2.3h16.3c1.3,0,2.3,1.1,2.3,2.3v14.2c0,1.3-1.1,2.3-2.3,2.3Z"/>
          <path class="cls-3" d="M116.5,18.5h1.1c.4,0,.7.3.9.5l.2.2s0,.2.2.2c0,0,0,.2.2.2v1.3h0v-.8h0c0-.2-.2-.4-.2-.4l-.2-.2-.2-.2c-.2-.2-.5-.4-.7-.5h-.4c0-.2-.2-.2-.2-.2h-.7Z"/>
          <path class="cls-7" d="M100.6,36.2l-4.8-1.1c-.5,0-.9-.5-.9-1.1v-12.6c0-.4.2-.8.5-.9l4.7-2.7.4,18.4h.1Z"/>
          <path class="cls-15" d="M109.7,36.4h-8.2c-1.3,0-2.3-1.1-2.3-2.3v-14.2c0-1.3,1.1-2.3,2.3-2.3h8.2v18.9h0Z"/>
          <path class="cls-15" d="M98.4,27.2c0,2-.8,3.6-1.8,3.6s-1.8-1.6-1.8-3.6.8-3.6,1.8-3.6,1.8,1.6,1.8,3.6Z"/>
          <path class="cls-1" d="M96.3,24.2h0c-.9,0-1.6,1.4-1.6,3s.7,3,1.6,3,0,0,0,0h0c.9,0,1.6-1.4,1.6-3s-.7-3-1.6-3Z"/>
          <path class="cls-11" d="M97.1,27.2c0,1.7-.7,3-1.6,3s-1.6-1.4-1.6-3,.7-3,1.6-3,1.6,1.4,1.6,3Z"/>
          <path class="cls-1" d="M96,27.2c0,.5-.2.9-.4.9s-.4-.4-.4-.9.2-.9.4-.9.4.4.4.9Z"/>
          <path class="cls-1" d="M96,27.2c0,.5-.2.9-.4.9s-.4-.4-.4-.9.2-.9.4-.9.4.4.4.9Z"/>
          <path class="cls-1" d="M96,27.2c0,.5-.2.9-.4.9s-.4-.4-.4-.9.2-.9.4-.9.4.4.4.9Z"/>
          <path class="cls-1" d="M96,27.2c0,.5-.2.9-.4.9s-.4-.4-.4-.9.2-.9.4-.9.4.4.4.9Z"/>
          <path class="cls-1" d="M96,27.2c0,.5-.2.9-.4.9s-.4-.4-.4-.9.2-.9.4-.9.4.4.4.9Z"/>
          <path class="cls-1" d="M96,27.2c0,.5-.2.9-.4.9s-.4-.4-.4-.9.2-.9.4-.9.4.4.4.9Z"/>
          <path class="cls-1" d="M96,27.2c0,.5-.2.9-.4.9s-.4-.4-.4-.9.2-.9.4-.9.4.4.4.9Z"/>
          <path class="cls-1" d="M96,27.2c0,.5-.2.9-.4.9s-.4-.4-.4-.9.2-.9.4-.9.4.4.4.9Z"/>
          <path class="cls-1" d="M96,27.2c0,.5-.2.9-.4.9s-.4-.4-.4-.9.2-.9.4-.9.4.4.4.9Z"/>
          <path class="cls-1" d="M96,27.2c0,.5-.2.9-.4.9s-.4-.4-.4-.9.2-.9.4-.9.4.4.4.9Z"/>
          <path class="cls-1" d="M96,27.2c0,.5-.2.9-.4.9s-.4-.4-.4-.9.2-.9.4-.9.4.4.4.9Z"/>
          <path class="cls-1" d="M96,27.2c0,.5-.2.9-.4.9s-.4-.4-.4-.9.2-.9.4-.9.4.4.4.9Z"/>
          <path class="cls-1" d="M96,27.2c0,.5-.2.9-.4.9s-.4-.4-.4-.9.2-.9.4-.9.4.4.4.9Z"/>
          <path class="cls-1" d="M96,27.2c0,.5-.2.9-.4.9s-.4-.4-.4-.9.2-.9.4-.9.4.4.4.9Z"/>
          <path class="cls-1" d="M96,27.2c0,.5-.2.9-.4.9s-.4-.4-.4-.9.2-.9.4-.9.4.4.4.9Z"/>
          <path class="cls-1" d="M96,27.2c0,.5-.2.9-.4.9s-.4-.4-.4-.9.2-.9.4-.9.4.4.4.9Z"/>
          <path class="cls-1" d="M96,27.2c0,.5-.2.9-.4.9s-.4-.4-.4-.9.2-.9.4-.9.4.4.4.9Z"/>
          <path class="cls-1" d="M96,27.2c0,.5-.2.9-.4.9s-.4-.4-.4-.9.2-.9.4-.9.4.4.4.9Z"/>
          <path class="cls-1" d="M95.9,27.2c0,.5-.2.9-.4.9s-.4-.4-.4-.9.2-.9.4-.9.4.4.4.9Z"/>
          <path class="cls-1" d="M95.9,27.2c0,.5-.2.9-.4.9s-.4-.4-.4-.9.2-.9.4-.9.4.4.4.9Z"/>
          <path class="cls-1" d="M95.9,27.2c0,.5-.2.9-.4.9s-.4-.4-.4-.9.2-.9.4-.9.4.4.4.9Z"/>
          <path class="cls-1" d="M95.9,27.2c0,.5-.2.9-.4.9s-.4-.4-.4-.9.2-.9.4-.9.4.4.4.9Z"/>
          <path class="cls-1" d="M95.9,27.2c0,.5-.2.9-.4.9s-.4-.4-.4-.9.2-.9.4-.9.4.4.4.9Z"/>
          <path class="cls-1" d="M95.9,27.2c0,.5-.2.9-.4.9s-.4-.4-.4-.9.2-.9.4-.9.4.4.4.9Z"/>
          <path class="cls-1" d="M95.9,27.2c0,.5-.2.9-.4.9s-.4-.4-.4-.9.2-.9.4-.9.4.4.4.9Z"/>
          <path class="cls-1" d="M95.9,27.2c0,.5-.2.9-.4.9s-.4-.4-.4-.9.2-.9.4-.9.4.4.4.9Z"/>
          <path class="cls-1" d="M95.9,27.2c0,.5-.2.9-.4.9s-.4-.4-.4-.9.2-.9.4-.9.4.4.4.9Z"/>
          <path class="cls-1" d="M95.9,27.2c0,.5-.2.9-.4.9s-.4-.4-.4-.9.2-.9.4-.9.4.4.4.9Z"/>
          <path class="cls-1" d="M95.9,27.2c0,.5-.2.9-.4.9s-.4-.4-.4-.9.2-.9.4-.9.4.4.4.9Z"/>
          <path class="cls-1" d="M95.9,27.2c0,.5-.2.9-.4.9s-.4-.4-.4-.9.2-.9.4-.9.4.4.4.9Z"/>
          <path class="cls-1" d="M95.9,27.2c0,.5-.2.9-.4.9s-.4-.4-.4-.9.2-.9.4-.9.4.4.4.9Z"/>
          <path class="cls-1" d="M95.9,27.2c0,.5-.2.9-.4.9s-.4-.4-.4-.9.2-.9.4-.9.4.4.4.9Z"/>
          <path class="cls-1" d="M95.9,27.2c0,.5-.2.9-.4.9s-.4-.4-.4-.9.2-.9.4-.9.4.4.4.9Z"/>
          <path class="cls-1" d="M95.9,27.2c0,.5-.2.9-.4.9s-.4-.4-.4-.9.2-.9.4-.9.4.4.4.9Z"/>
          <path class="cls-1" d="M95.9,27.2c0,.5-.2.9-.4.9s-.4-.4-.4-.9.2-.9.4-.9.4.4.4.9Z"/>
          <path class="cls-1" d="M95.9,27.2c0,.5-.2.9-.4.9s-.4-.4-.4-.9.2-.9.4-.9.4.4.4.9Z"/>
          <path class="cls-1" d="M95.9,27.2c0,.5-.2.9-.4.9s-.4-.4-.4-.9.2-.9.4-.9.4.4.4.9Z"/>
          <path class="cls-1" d="M95.9,27.2c0,.5-.2.9-.4.9s-.4-.4-.4-.9.2-.9.4-.9.4.4.4.9Z"/>
          <path class="cls-1" d="M95.9,27.2c0,.5-.2.9-.4.9s-.4-.4-.4-.9.2-.9.4-.9.4.4.4.9Z"/>
          <path class="cls-1" d="M95.9,27.2c0,.5-.2.9-.4.9s-.4-.4-.4-.9.2-.9.4-.9.4.4.4.9Z"/>
          <path class="cls-1" d="M95.9,27.2c0,.5-.2.9-.4.9s-.4-.4-.4-.9.2-.9.4-.9.4.4.4.9Z"/>
          <path class="cls-1" d="M95.9,27.2c0,.5-.2.9-.4.9s-.4-.4-.4-.9.2-.9.4-.9.4.4.4.9Z"/>
          <path class="cls-6" d="M95.4,26.4h0c-.2,0-.4.4-.4.9s.2.9.4.9,0,0,0,0h0c.2,0,.4-.4.4-.9s-.2-.9-.4-.9Z"/>
          <path class="cls-7" d="M114.3,30.9h0c0-.3,0-.6-.2-.9,0,0,0-.2-.2-.2,0,0-.2-.2-.3-.2-.3-.2-.6-.2-.9,0-.5.2-.9.7-1.4.9-1.5.9-3.5.5-4.7-.7s-1.7-.2-1.9.5h0c-.2.4,0,.9.3,1.2.9.9,1.9,1.5,3.2,1.7,1.2.2,2.5.2,3.6-.3.5-.2,1.3-.6,1.9-1.1.3-.2.5-.5.6-.8h0Z"/>
          <path class="cls-1" d="M105.9,21.4h-.5c-1.5,0-2.7,1.2-2.7,2.7s1.2,2.7,2.7,2.7h.5c1.5,0,2.7-1.2,2.7-2.7s-1.2-2.7-2.7-2.7Z"/>
          <path class="cls-11" d="M108.6,24.2c0,1.5-1.2,2.7-2.7,2.7s-2.7-1.2-2.7-2.7,1.2-2.7,2.7-2.7,2.7,1.2,2.7,2.7Z"/>
          <path class="cls-6" d="M107.9,24.1c0,1.1-.9,1.9-1.9,1.9s-1.9-.9-1.9-1.9.9-1.9,1.9-1.9,1.9.9,1.9,1.9Z"/>
          <path class="cls-3" d="M106.9,24.1c0,.5-.5,1-1,1s-1-.5-1-1,.5-1,1-1,1,.5,1,1Z"/>
          <path class="cls-1" d="M113.9,21.4h-.5c-1.5,0-2.7,1.2-2.7,2.7s1.2,2.7,2.7,2.7h.5c1.5,0,2.7-1.2,2.7-2.7s-1.2-2.7-2.7-2.7Z"/>
          <path class="cls-11" d="M116.6,24.2c0,1.5-1.2,2.7-2.7,2.7s-2.7-1.2-2.7-2.7,1.2-2.7,2.7-2.7,2.7,1.2,2.7,2.7Z"/>
          <path class="cls-6" d="M115.9,24.1c0,1.1-.9,1.9-1.9,1.9s-1.9-.9-1.9-1.9.9-1.9,1.9-1.9,1.9.9,1.9,1.9Z"/>
          <path class="cls-3" d="M115,24.1c0,.5-.5,1-1,1s-1-.5-1-1,.5-1,1-1,1,.5,1,1Z"/>
          <path class="cls-11" d="M114.3,29.3c-1-.9-1.7.2-2.6.7-1.5.9-3.5.5-4.7-.7s-2.7.5-1.6,1.6,1.9,1.5,3.2,1.7c1.2.2,2.5.2,3.6-.3s3.3-1.6,2.1-3Z"/>
          <path class="cls-3" d="M106.2,30.5l-.2-.2.4-.4.2.2-.4.5h0Z"/>
          <path class="cls-3" d="M109.6,31.9h-.6v-.5h.6v.6h0ZM109.9,31.9v-.6h.5v.5h-.5ZM108.7,31.8c-.2,0-.4,0-.6-.2l.2-.5c.2,0,.4,0,.5.2l-.2.5h.1ZM110.9,31.8l-.2-.5c.2,0,.4,0,.5-.2l.2.5c-.2,0-.4.2-.6.2h.1ZM107.8,31.5c-.2,0-.4-.2-.5-.2l.3-.5c.2,0,.3.2.5.2l-.2.5h-.1ZM111.8,31.5l-.2-.5c.2,0,.3-.2.5-.2l.3.5c-.2,0-.4.2-.5.2h-.1ZM112.6,31.1l-.3-.5c.2,0,.3-.2.5-.3l.4.5c-.2.2-.3.2-.5.4h0ZM106.9,31.1c-.2,0-.3-.2-.5-.4l.4-.5c.2,0,.3.2.5.3l-.3.5h0Z"/>
          <path class="cls-3" d="M113.4,30.5l-.4-.5.2-.2.4.4-.2.2h0Z"/>
        </g>
        <path class="cls-15" d="M121.9,38.8s-16.9,6.9-17,7.9-.2,4.9-.2,4.9l15.6.3,1.5-4.6v-8.5h0Z"/>
        <g class="cls-4">
          <path class="cls-3" d="M93,35c0-12.9,3.4-24.2,8.4-30.3-11.7,3.8-20.3,15.2-20.3,28.7s6.5,8.2,15.9,10c-2.5-2.3-4-5.2-4-8.4h0Z"/>
        </g>
        <g class="cls-12">
          <path class="cls-15" d="M145,35c0-3.2-.4-6.4-1.3-9.3-5.6-1.1-11.8-1.9-18.3-2.4,11.6,2.1,19.6,6.6,19.6,11.7Z"/>
          <path class="cls-15" d="M94.5,23.3c-6.5.5-12.7,1.3-18.3,2.4-.8,3-1.3,6.1-1.3,9.3,0-5.1,8-9.6,19.6-11.7Z"/>
        </g>
        <path class="cls-15" d="M143.7,25.7c.8,3,1.3,6.1,1.3,9.3,0,7.2-15.7,13.1-35,13.1s-35-5.8-35-13.1.4-6.4,1.3-9.3c-20.2,3.8-33.8,11-33.8,19.3,0,12.3,30.3,22.3,67.6,22.3s67.6-10,67.6-22.3-13.6-15.4-33.8-19.3h-.2Z"/>
        <path class="cls-10" d="M144.7,30.3c.2,1.5.3,3.1.3,4.7,0,7.2-15.7,13.1-35,13.1s-35-5.8-35-13.1.1-3.2.3-4.7c-1.4,1.5-2.2,3.1-2.2,4.7,0,7.6,16.5,13.8,36.9,13.8s36.9-6.2,36.9-13.8-.8-3.2-2.2-4.7Z"/>
        <g class="cls-4">
          <path d="M49.8,34.8c7.7-1.8,15.7-2.2,23.5-2-7.6.7-15.9,1.2-23.5,2h0Z"/>
          <path d="M42.5,43.1c10-3.1,20.4-5.4,30.8-6.3-10.1,2.3-20.6,4.6-30.8,6.3h0Z"/>
          <path d="M49.5,55c9.2-5.2,19-9.4,28.9-12.9-9.4,4.7-19.2,8.9-28.9,12.9h0Z"/>
          <path d="M67.5,62.3c6.7-5.9,13.8-11.3,21.5-15.9-6.9,5.6-14.1,11-21.5,15.9h0Z"/>
          <path d="M94.7,66.7c1.8-6.3,4.2-12.3,7.3-18.1-1.8,6.3-4.2,12.3-7.3,18.1h0Z"/>
          <path d="M64.4,28.5c4.3-.6,8.7-.3,13,.4-4.4.2-8.6,0-13-.4h0Z"/>
          <path d="M77.2,25.5c1.5,0,2.9.6,4.2,1.3-1.4-.4-2.8-.9-4.2-1.3h0Z"/>
        </g>
        <g class="cls-4">
          <path d="M170.1,34.8c-7.6-.9-15.9-1.3-23.5-2,7.9-.2,15.9.2,23.5,2h0Z"/>
          <path d="M177.4,43.1c-10.2-1.7-20.7-4.1-30.8-6.3,10.5.9,20.8,3.3,30.8,6.3h0Z"/>
          <path d="M170.4,55c-9.7-3.9-19.5-8.1-28.9-12.9,10,3.5,19.7,7.7,28.9,12.9h0Z"/>
          <path d="M152.4,62.3c-7.5-4.8-14.7-10.2-21.5-15.9,7.7,4.5,14.9,9.9,21.5,15.9h0Z"/>
          <path d="M125.2,66.7c-3.1-5.8-5.5-11.8-7.3-18.1,3.1,5.8,5.5,11.8,7.3,18.1h0Z"/>
          <path d="M155.5,28.5c-4.3.4-8.6.7-13,.4,4.3-.8,8.7-1,13-.4h0Z"/>
          <path d="M142.6,25.5c-1.4.4-2.8,1-4.2,1.3,1.3-.7,2.7-1.3,4.2-1.3h0Z"/>
        </g>
      </g>
    </g>
  </g>
</svg>