<svg width="394" height="206" viewBox="0 0 394 206" fill="none" xmlns="http://www.w3.org/2000/svg">
<path fill-rule="evenodd" clip-rule="evenodd" d="M12.4095 80C12.4086 80 12.4077 80 12.4069 80C12.4075 80.0447 12.408 80.0894 12.4082 80.1341C12.4084 80.0894 12.4088 80.0447 12.4095 80ZM23.4478 92.1932C17.3528 92.0875 12.4386 86.7891 12.4082 80.2562C12.3774 86.8553 7.3635 92.1948 1.18296 92.1948C1.12186 92.1948 1.06087 92.1942 1 92.1932C1.00002 92.1943 1.00003 92.1953 1.00005 92.1963C1.06093 92.1953 1.12194 92.1948 1.18305 92.1948C7.32068 92.1948 12.3078 97.4603 12.4069 103.996C12.4078 103.996 12.4086 103.996 12.4095 103.996C12.5076 97.5263 17.3955 92.3013 23.4477 92.1964C23.4478 92.1953 23.4478 92.1942 23.4478 92.1932Z" fill="#D7D7D7"/>
<g clip-path="url(#clip0_0_1)">
<path d="M336.986 132.16C333.816 132.16 330.886 133.173 328.491 134.906C327.94 123.595 318.566 114.601 307.089 114.601C303.453 114.601 300.024 115.511 297.026 117.107C298.404 113.571 299.18 109.744 299.18 105.727C299.18 88.4258 285.101 74.4027 267.732 74.4027C257.306 74.4027 248.07 79.4662 242.349 87.2415L236.318 93.043C235.181 91.8758 233.923 90.8288 232.561 89.9363L225.565 86.9154C223.911 86.5206 222.188 86.3146 220.413 86.3146C216.484 86.3146 212.796 87.3445 209.591 89.1295C208.23 82.899 203.732 77.8184 197.839 75.6042L194.272 74.6602C193.273 74.5057 192.256 74.4027 191.205 74.4027C190.55 74.4027 189.895 74.4542 189.258 74.5057L185.708 75.2266C185.467 75.2953 185.208 75.3639 184.967 75.4497C178.763 65.6147 168.562 58.5431 156.621 56.4662L150.71 55.8655C150.262 55.8655 149.831 55.8483 149.383 55.8483C148.539 55.8483 147.677 55.8827 146.85 55.9341L140.578 56.7752C123.604 60.3797 110.439 74.1796 107.837 91.4467C107.165 91.3952 106.493 91.3609 105.804 91.3609C91.6564 91.3609 79.887 101.453 77.3367 114.79C73.0804 115.511 69.4272 118.085 67.1354 121.724C63.1893 118.978 58.1748 117.33 52.7123 117.33C40.0469 117.33 29.7939 126.153 29.7939 137.035C29.7939 147.917 40.0641 156.739 52.7123 156.739C54.5217 156.739 56.2966 156.55 57.9853 156.207C70.8575 164.961 127.809 171.569 196.133 171.569C257.685 171.569 310.001 166.214 329.18 158.747C331.438 160.189 334.126 161.03 337.004 161.03C345.017 161.03 351.496 154.559 351.496 146.595C351.496 138.631 344.999 132.16 337.004 132.16H336.986ZM130.394 135.541C130.463 135.421 130.549 135.301 130.618 135.181C130.824 135.284 131.014 135.387 131.221 135.49C130.945 135.507 130.669 135.524 130.394 135.541Z" fill="#92D5E3"/>
<path d="M0 182.125H372.243C374.018 179.464 375 176.564 375 173.491C375 161.202 359.216 151.246 339.726 151.246C336.452 151.246 333.299 151.538 330.283 152.053C328.095 139.849 317.549 130.598 304.849 130.598C303.264 130.598 301.73 130.753 300.231 131.027C294.51 118.841 281.362 110.31 266.06 110.31C253.05 110.31 241.591 116.489 234.939 125.826C231.7 123.681 227.771 122.411 223.549 122.411C215.226 122.411 208.092 127.268 205.008 134.22C194.875 123.492 179.642 116.678 162.617 116.678C141.405 116.678 122.984 127.268 113.73 142.785C110.215 140.502 106.097 139.197 101.685 139.197C95.0165 139.197 88.9854 142.201 84.7463 147.024C76.8369 139.197 63.8958 134.082 49.2659 134.082C25.193 134.082 5.68652 147.882 5.68652 164.926C5.68652 168.634 6.61704 172.17 8.30576 175.465C4.49752 177.439 1.65426 179.687 0.0172319 182.142L0 182.125Z" fill="#DEF4F9"/>
<path d="M162.651 127.2L140.129 206H188.947V126.77L162.651 127.2Z" fill="#D7D7D7"/>
<path d="M161.479 131.319L188.947 130.461V132.177L161.479 131.319Z" fill="white"/>
<path d="M159.636 137.395L188.947 136.537V138.253L159.636 137.395Z" fill="white"/>
<path d="M157.999 143.471L188.947 142.613V144.329L157.999 143.471Z" fill="white"/>
<path d="M156.155 149.53L188.948 148.672V150.388L156.155 149.53Z" fill="white"/>
<path d="M154.535 155.606L188.947 154.748V156.464L154.535 155.606Z" fill="white"/>
<path d="M152.795 161.682L188.947 160.824V162.54L152.795 161.682Z" fill="white"/>
<path d="M151.054 167.758L188.947 166.9V168.617L151.054 167.758Z" fill="white"/>
<path d="M149.331 173.817L188.947 172.959V174.675L149.331 173.817Z" fill="white"/>
<path d="M147.591 179.893L188.947 179.035V180.752L147.591 179.893Z" fill="white"/>
<path d="M145.799 185.969L188.947 185.111V186.828L145.799 185.969Z" fill="white"/>
<path d="M144.127 192.046L188.947 191.187V192.904L144.127 192.046Z" fill="white"/>
<path d="M142.301 198.105L188.947 197.246V198.963L142.301 198.105Z" fill="white"/>
<path d="M140.646 204.181L188.947 203.322V205.039L140.646 204.181Z" fill="white"/>
<path d="M215.243 127.2L237.765 206H188.947V126.77L215.243 127.2Z" fill="#D7D7D7"/>
<path d="M216.415 131.319L188.947 132.177V130.461L216.415 131.319Z" fill="white"/>
<path d="M218.259 137.395L188.947 138.253V136.537L218.259 137.395Z" fill="white"/>
<path d="M219.896 143.471L188.947 144.329V142.613L219.896 143.471Z" fill="white"/>
<path d="M221.74 149.53L188.947 150.388V148.672L221.74 149.53Z" fill="white"/>
<path d="M223.359 155.606L188.947 156.464V154.748L223.359 155.606Z" fill="white"/>
<path d="M225.1 161.682L188.947 162.54V160.824L225.1 161.682Z" fill="white"/>
<path d="M226.84 167.758L188.947 168.617V166.9L226.84 167.758Z" fill="white"/>
<path d="M228.581 173.817L188.947 174.675V172.959L228.581 173.817Z" fill="white"/>
<path d="M230.304 179.893L188.947 180.752V179.035L230.304 179.893Z" fill="white"/>
<path d="M232.096 185.969L188.947 186.828V185.111L232.096 185.969Z" fill="white"/>
<path d="M233.785 192.046L188.947 192.904V191.187L233.785 192.046Z" fill="white"/>
<path d="M235.611 198.105L188.947 198.963V197.246L235.611 198.105Z" fill="white"/>
<path d="M237.248 204.181L188.947 205.039V203.322L237.248 204.181Z" fill="white"/>
<path d="M113.782 157.511C118.845 157.511 122.949 156.12 122.949 154.405C122.949 152.689 118.845 151.298 113.782 151.298C108.719 151.298 104.615 152.689 104.615 154.405C104.615 156.12 108.719 157.511 113.782 157.511Z" fill="#116C7E"/>
<path d="M136.925 114.91L111.887 153.409C111.508 153.976 111.921 154.748 112.61 154.748H113.438C114.627 154.748 115.747 154.25 116.557 153.375L145.609 121.278L136.925 114.927V114.91Z" fill="#1ABDCA"/>
<path d="M145.61 121.261L136.925 114.91L123.966 134.82C127.258 131.25 130.221 132.04 129.877 138.631L145.592 121.261H145.61Z" fill="#116C7E"/>
<path d="M264.578 157.511C269.641 157.511 273.745 156.12 273.745 154.405C273.745 152.689 269.641 151.298 264.578 151.298C259.515 151.298 255.411 152.689 255.411 154.405C255.411 156.12 259.515 157.511 264.578 157.511Z" fill="#116C7E"/>
<path d="M241.436 114.91L266.474 153.409C266.853 153.976 266.439 154.748 265.75 154.748H264.923C263.734 154.748 262.614 154.25 261.804 153.375L232.751 121.278L241.436 114.927V114.91Z" fill="#1ABDCA"/>
<path d="M232.751 121.261L241.436 114.91L254.394 134.82C251.103 131.25 248.139 132.04 248.484 138.631L232.768 121.261H232.751Z" fill="#116C7E"/>
<path d="M247.381 57.4274C248.794 62.5252 249.569 67.8975 249.569 73.4587C249.569 85.8512 222.532 95.8751 189.171 95.8751C155.81 95.8751 128.774 85.834 128.774 73.4587C128.774 67.9147 129.549 62.5423 130.962 57.4274C96.102 64.0356 72.6494 76.3766 72.6494 90.537C72.6494 111.649 124.81 128.761 189.171 128.761C253.532 128.761 305.693 111.649 305.693 90.537C305.693 76.3766 282.241 64.0356 247.381 57.4274Z" fill="#1ABDCA"/>
<path d="M247.381 57.4274C248.794 62.5252 249.569 67.8975 249.569 73.4587C249.569 85.8512 222.532 95.8751 189.171 95.8751C155.81 95.8751 128.774 85.834 128.774 73.4587C128.774 67.9147 129.549 62.5423 130.962 57.4274C96.102 64.0356 72.6494 76.3766 72.6494 90.537C72.6494 111.649 124.81 128.761 189.171 128.761C253.532 128.761 305.693 111.649 305.693 90.537C305.693 76.3766 282.241 64.0356 247.381 57.4274Z" fill="#1ABDCA"/>
<path d="M247.381 52.9304C248.794 58.0282 249.569 63.4005 249.569 68.9617C249.569 81.3542 222.532 91.378 189.171 91.378C155.81 91.378 128.774 81.337 128.774 68.9617C128.774 63.4177 129.549 58.0453 130.962 52.9304C96.102 59.5386 72.6494 71.8796 72.6494 86.04C72.6494 107.152 124.81 124.264 189.171 124.264C253.532 124.264 305.693 107.152 305.693 86.04C305.693 71.8796 282.241 59.5386 247.381 52.9304Z" fill="white"/>
<path d="M247.381 49.4976C248.794 54.5953 249.569 59.9677 249.569 65.5289C249.569 77.9214 222.532 87.9452 189.171 87.9452C155.81 87.9452 128.774 77.9042 128.774 65.5289C128.774 59.9849 129.549 54.6125 130.962 49.4976C96.102 56.1058 72.6494 68.4468 72.6494 82.6072C72.6494 103.719 124.81 120.832 189.171 120.832C253.532 120.832 305.693 103.719 305.693 82.6072C305.693 68.4468 282.241 56.1058 247.381 49.4976Z" fill="#116C7E"/>
<path d="M189.171 118.463C253.525 118.463 305.693 101.349 305.693 80.2385C305.693 59.1277 253.525 42.014 189.171 42.014C124.818 42.014 72.6494 59.1277 72.6494 80.2385C72.6494 101.349 124.818 118.463 189.171 118.463Z" fill="#1ABDCA"/>
<path d="M189.172 3C155.811 3 128.774 29.9305 128.774 63.1602C128.774 75.5527 155.811 85.5766 189.172 85.5766C222.533 85.5766 249.569 75.5356 249.569 63.1602C249.569 29.9305 222.533 3 189.172 3Z" fill="url(#paint0_linear_0_1)"/>
<path opacity="0.1" d="M189.172 85.5766C222.528 85.5766 249.569 75.5404 249.569 63.1602C249.569 50.78 222.528 40.7439 189.172 40.7439C155.815 40.7439 128.774 50.78 128.774 63.1602C128.774 75.5404 155.815 85.5766 189.172 85.5766Z" fill="black"/>
<path d="M217.759 68.4811L228.512 81.8005L229.632 80.599L218.793 67.8975L217.759 68.4811Z" fill="#408284"/>
<path d="M230.666 61.564L241.815 75.3639L242.987 74.1281L231.734 60.9632L230.666 61.564Z" fill="#408284"/>
<path d="M217.759 70.8669C219.634 70.8669 221.154 69.353 221.154 67.4856C221.154 65.6181 219.634 64.1042 217.759 64.1042C215.884 64.1042 214.364 65.6181 214.364 67.4856C214.364 69.353 215.884 70.8669 217.759 70.8669Z" fill="#D7292A"/>
<path d="M216.984 68.6528C217.973 68.6528 218.776 67.8535 218.776 66.8677C218.776 65.8818 217.973 65.0826 216.984 65.0826C215.994 65.0826 215.191 65.8818 215.191 66.8677C215.191 67.8535 215.994 68.6528 216.984 68.6528Z" fill="#ED332B"/>
<path d="M229.632 63.0401C231.507 63.0401 233.027 61.5262 233.027 59.6587C233.027 57.7913 231.507 56.2774 229.632 56.2774C227.757 56.2774 226.237 57.7913 226.237 59.6587C226.237 61.5262 227.757 63.0401 229.632 63.0401Z" fill="#D7292A"/>
<path d="M228.874 60.8259C229.863 60.8259 230.666 60.0267 230.666 59.0408C230.666 58.055 229.863 57.2558 228.874 57.2558C227.884 57.2558 227.082 58.055 227.082 59.0408C227.082 60.0267 227.884 60.8259 228.874 60.8259Z" fill="#ED332B"/>
<path d="M189.482 67.8975C177.333 72.3602 166.684 76.3766 165.478 77.2691C164.272 78.1617 164.478 83.7228 164.478 83.7228L164.134 90.6743L201.251 91.5668L210.074 86.5034V70.0774C210.074 68.1207 200.803 65.4945 198.994 65.4945C197.185 65.4945 189.482 67.8975 189.482 67.8975Z" fill="#297984"/>
<path d="M186.828 79.3975C194.065 79.3975 199.959 76.4624 199.959 72.858C199.959 69.2535 194.065 66.3185 186.828 66.3185C179.591 66.3185 173.697 69.2535 173.697 72.858C173.697 76.4624 179.591 79.3975 186.828 79.3975Z" fill="#1ABDCA"/>
<path d="M199.028 68.3095C199.028 64.9625 193.531 62.1647 186.828 62.1647C180.125 62.1647 174.628 64.8423 174.628 68.3095C174.628 71.6565 180.125 74.4542 186.828 74.4542C193.531 74.4542 199.028 71.7766 199.028 68.3095Z" fill="#C22828"/>
<path d="M186.828 74.4542C193.531 74.4542 199.028 71.7766 199.028 68.3095C199.028 64.8423 193.531 62.1647 186.828 62.1647C180.125 62.1647 174.628 64.8423 174.628 68.3095C174.628 71.7766 180.125 74.4542 186.828 74.4542Z" fill="#ED332B"/>
<path d="M186.828 62.1647C180.125 62.1647 174.628 64.8423 174.628 68.3095C174.628 71.7766 174.904 69.7856 175.438 70.4378L198.356 66.164C196.616 63.8983 192.187 62.1647 186.828 62.1647Z" fill="#D7292A"/>
<path d="M190.171 63.7781C190.309 61.7699 183.071 61.7699 183.605 63.9155V67.7945C183.605 69.8027 190.584 69.8027 190.171 67.6572V63.7781Z" fill="#D9D9D9"/>
<path d="M190.171 65.7692C190.171 64.9625 188.689 64.2931 186.81 64.2931C184.932 64.2931 183.45 64.9625 183.45 65.7692C183.45 66.164 183.726 66.4386 184.26 66.696C184.26 66.696 184.26 66.0267 184.932 65.3572C185.604 64.6878 186.948 63.761 190.153 63.761V65.7692H190.171Z" fill="#D9D9D9"/>
<path d="M191.791 29.7245V29.9992C191.791 30.2738 191.928 30.5312 192.187 30.5312L198.752 31.338C199.028 31.338 199.286 31.2006 199.286 30.8059V29.9992C199.286 29.7245 199.149 29.4671 198.89 29.4671L192.325 29.1924C192.049 29.1924 191.791 29.4671 191.791 29.7245Z" fill="#ED332B"/>
<path d="M186.018 29.8447L177.437 29.1753C177.161 29.1753 176.902 29.3126 176.902 29.7074V31.0462C176.902 31.3208 177.04 31.5783 177.299 31.5783H185.88C186.156 31.5783 186.414 31.3036 186.414 31.0462V30.5141C186.414 30.2395 186.276 29.982 186.018 29.982V29.8447Z" fill="#ED332B"/>
<path d="M202.785 65.5117H174.628C172.353 65.5117 170.613 63.6408 170.613 61.5125V37.0708C170.613 34.8051 172.491 33.0715 174.628 33.0715H202.785C205.059 33.0715 206.8 34.9424 206.8 37.0708V61.5125C206.8 63.7781 204.921 65.5117 202.785 65.5117Z" fill="#92D5E3"/>
<path d="M200.51 34.788C201.044 34.6506 201.716 34.6506 202.388 34.788C203.06 34.9253 203.594 35.32 203.991 35.7148C203.991 35.7148 204.266 35.9894 204.266 36.1096C204.266 36.1096 204.404 36.3842 204.542 36.5044C204.542 36.6417 204.68 36.779 204.818 36.8991C204.818 37.0365 204.818 37.1738 204.956 37.2939C205.093 37.9633 205.093 38.6327 204.956 39.1648C204.956 39.0275 204.956 38.8902 204.818 38.77C204.818 38.77 204.818 38.4954 204.68 38.3753C204.68 38.3753 204.68 38.1006 204.542 37.9805C204.542 37.9805 204.542 37.7059 204.404 37.5857V37.4484C204.404 37.3111 204.128 36.9163 204.128 36.9163C204.128 36.9163 203.991 36.779 203.853 36.6417C203.853 36.6417 203.715 36.5044 203.577 36.3671C203.181 35.9723 202.767 35.6976 202.371 35.4402C202.371 35.4402 202.095 35.4402 201.974 35.3029H201.578C201.578 35.0282 201.302 35.0282 201.182 35.0282C201.061 35.0282 200.906 35.0282 200.785 34.8909L200.51 34.7536V34.788Z" fill="white"/>
<path d="M173.146 65.2371L164.84 63.3662C164.03 63.2289 163.358 62.4394 163.358 61.4953V39.8685C163.358 39.1991 163.754 38.5297 164.288 38.2723L172.474 33.6036L173.146 65.2543V65.2371Z" fill="#116C7E"/>
<path d="M188.706 65.5117H174.628C172.353 65.5117 170.613 63.6408 170.613 61.5125V37.0708C170.613 34.8051 172.491 33.0715 174.628 33.0715H188.706V65.5289V65.5117Z" fill="#1ABDCA"/>
<path d="M169.269 49.7551C169.269 53.2222 167.925 55.8998 166.184 55.8998C164.444 55.8998 163.1 53.1021 163.1 49.7551C163.1 46.4081 164.444 43.6103 166.184 43.6103C167.925 43.6103 169.269 46.4081 169.269 49.7551Z" fill="#1ABDCA"/>
<path d="M165.65 44.5372C164.168 44.5372 162.962 46.9401 162.962 49.7379C162.962 52.5356 164.168 54.9386 165.65 54.9386C167.132 54.9386 168.338 52.5356 168.338 49.7379C168.338 46.9401 167.132 44.5372 165.65 44.5372Z" fill="#C22828"/>
<path d="M167.115 49.7551C167.115 52.6901 165.908 54.9558 164.426 54.9558C162.945 54.9558 161.738 52.5528 161.738 49.7551C161.738 46.9573 162.945 44.5544 164.426 44.5544C165.908 44.5544 167.115 46.9573 167.115 49.7551Z" fill="#ED332B"/>
<path d="M165.098 49.7551C165.098 50.5618 164.823 51.2312 164.426 51.2312C164.03 51.2312 163.754 50.5618 163.754 49.7551C163.754 48.9484 164.03 48.279 164.426 48.279C164.823 48.279 165.098 48.9484 165.098 49.7551Z" fill="#C22828"/>
<path d="M165.098 49.7551C165.098 50.5618 164.823 51.2312 164.426 51.2312C164.03 51.2312 163.754 50.5618 163.754 49.7551C163.754 48.9484 164.03 48.279 164.426 48.279C164.823 48.279 165.098 48.9484 165.098 49.7551Z" fill="#C22828"/>
<path d="M165.098 49.7551C165.098 50.5618 164.823 51.2312 164.426 51.2312C164.03 51.2312 163.754 50.5618 163.754 49.7551C163.754 48.9484 164.03 48.279 164.426 48.279C164.823 48.279 165.098 48.9484 165.098 49.7551Z" fill="#C22828"/>
<path d="M165.098 49.7551C165.098 50.5618 164.823 51.2312 164.426 51.2312C164.03 51.2312 163.754 50.5618 163.754 49.7551C163.754 48.9484 164.03 48.279 164.426 48.279C164.823 48.279 165.098 48.9484 165.098 49.7551Z" fill="#C22828"/>
<path d="M165.098 49.7551C165.098 50.5618 164.823 51.2312 164.426 51.2312C164.03 51.2312 163.754 50.5618 163.754 49.7551C163.754 48.9484 164.03 48.279 164.426 48.279C164.823 48.279 165.098 48.9484 165.098 49.7551Z" fill="#C22828"/>
<path d="M165.098 49.7551C165.098 50.5618 164.823 51.2312 164.426 51.2312C164.03 51.2312 163.754 50.5618 163.754 49.7551C163.754 48.9484 164.03 48.279 164.426 48.279C164.823 48.279 165.098 48.9484 165.098 49.7551Z" fill="#C22828"/>
<path d="M165.098 49.7551C165.098 50.5618 164.823 51.2312 164.426 51.2312C164.03 51.2312 163.754 50.5618 163.754 49.7551C163.754 48.9484 164.03 48.279 164.426 48.279C164.823 48.279 165.098 48.9484 165.098 49.7551Z" fill="#C22828"/>
<path d="M165.098 49.7551C165.098 50.5618 164.823 51.2312 164.426 51.2312C164.03 51.2312 163.754 50.5618 163.754 49.7551C163.754 48.9484 164.03 48.279 164.426 48.279C164.823 48.279 165.098 48.9484 165.098 49.7551Z" fill="#C22828"/>
<path d="M165.098 49.7551C165.098 50.5618 164.823 51.2312 164.426 51.2312C164.03 51.2312 163.754 50.5618 163.754 49.7551C163.754 48.9484 164.03 48.279 164.426 48.279C164.823 48.279 165.098 48.9484 165.098 49.7551Z" fill="#C22828"/>
<path d="M165.098 49.7551C165.098 50.5618 164.823 51.2312 164.426 51.2312C164.03 51.2312 163.754 50.5618 163.754 49.7551C163.754 48.9484 164.03 48.279 164.426 48.279C164.823 48.279 165.098 48.9484 165.098 49.7551Z" fill="#C22828"/>
<path d="M165.098 49.7551C165.098 50.5618 164.823 51.2312 164.426 51.2312C164.03 51.2312 163.754 50.5618 163.754 49.7551C163.754 48.9484 164.03 48.279 164.426 48.279C164.823 48.279 165.098 48.9484 165.098 49.7551Z" fill="#C22828"/>
<path d="M165.098 49.7551C165.098 50.5618 164.823 51.2312 164.426 51.2312C164.03 51.2312 163.754 50.5618 163.754 49.7551C163.754 48.9484 164.03 48.279 164.426 48.279C164.823 48.279 165.098 48.9484 165.098 49.7551Z" fill="#C22828"/>
<path d="M165.098 49.7551C165.098 50.5618 164.823 51.2312 164.426 51.2312C164.03 51.2312 163.754 50.5618 163.754 49.7551C163.754 48.9484 164.03 48.279 164.426 48.279C164.823 48.279 165.098 48.9484 165.098 49.7551Z" fill="#C22828"/>
<path d="M165.098 49.7551C165.098 50.5618 164.823 51.2312 164.426 51.2312C164.03 51.2312 163.754 50.5618 163.754 49.7551C163.754 48.9484 164.03 48.279 164.426 48.279C164.823 48.279 165.098 48.9484 165.098 49.7551Z" fill="#C22828"/>
<path d="M165.098 49.7551C165.098 50.5618 164.823 51.2312 164.426 51.2312C164.03 51.2312 163.754 50.5618 163.754 49.7551C163.754 48.9484 164.03 48.279 164.426 48.279C164.823 48.279 165.098 48.9484 165.098 49.7551Z" fill="#C22828"/>
<path d="M165.098 49.7551C165.098 50.5618 164.823 51.2312 164.426 51.2312C164.03 51.2312 163.754 50.5618 163.754 49.7551C163.754 48.9484 164.03 48.279 164.426 48.279C164.823 48.279 165.098 48.9484 165.098 49.7551Z" fill="#C22828"/>
<path d="M165.098 49.7551C165.098 50.5618 164.823 51.2312 164.426 51.2312C164.03 51.2312 163.754 50.5618 163.754 49.7551C163.754 48.9484 164.03 48.279 164.426 48.279C164.823 48.279 165.098 48.9484 165.098 49.7551Z" fill="#C22828"/>
<path d="M165.098 49.7551C165.098 50.5618 164.823 51.2312 164.426 51.2312C164.03 51.2312 163.754 50.5618 163.754 49.7551C163.754 48.9484 164.03 48.279 164.426 48.279C164.823 48.279 165.098 48.9484 165.098 49.7551Z" fill="#C22828"/>
<path d="M164.978 49.7551C164.978 50.5618 164.702 51.2312 164.306 51.2312C163.909 51.2312 163.634 50.5618 163.634 49.7551C163.634 48.9484 163.909 48.279 164.306 48.279C164.702 48.279 164.978 48.9484 164.978 49.7551Z" fill="#C22828"/>
<path d="M164.978 49.7551C164.978 50.5618 164.702 51.2312 164.306 51.2312C163.909 51.2312 163.634 50.5618 163.634 49.7551C163.634 48.9484 163.909 48.279 164.306 48.279C164.702 48.279 164.978 48.9484 164.978 49.7551Z" fill="#C22828"/>
<path d="M164.978 49.7551C164.978 50.5618 164.702 51.2312 164.306 51.2312C163.909 51.2312 163.634 50.5618 163.634 49.7551C163.634 48.9484 163.909 48.279 164.306 48.279C164.702 48.279 164.978 48.9484 164.978 49.7551Z" fill="#C22828"/>
<path d="M164.978 49.7551C164.978 50.5618 164.702 51.2312 164.306 51.2312C163.909 51.2312 163.634 50.5618 163.634 49.7551C163.634 48.9484 163.909 48.279 164.306 48.279C164.702 48.279 164.978 48.9484 164.978 49.7551Z" fill="#C22828"/>
<path d="M164.978 49.7551C164.978 50.5618 164.702 51.2312 164.306 51.2312C163.909 51.2312 163.634 50.5618 163.634 49.7551C163.634 48.9484 163.909 48.279 164.306 48.279C164.702 48.279 164.978 48.9484 164.978 49.7551Z" fill="#C22828"/>
<path d="M164.978 49.7551C164.978 50.5618 164.702 51.2312 164.306 51.2312C163.909 51.2312 163.634 50.5618 163.634 49.7551C163.634 48.9484 163.909 48.279 164.306 48.279C164.702 48.279 164.978 48.9484 164.978 49.7551Z" fill="#C22828"/>
<path d="M164.978 49.7551C164.978 50.5618 164.702 51.2312 164.306 51.2312C163.909 51.2312 163.634 50.5618 163.634 49.7551C163.634 48.9484 163.909 48.279 164.306 48.279C164.702 48.279 164.978 48.9484 164.978 49.7551Z" fill="#C22828"/>
<path d="M164.978 49.7551C164.978 50.5618 164.702 51.2312 164.306 51.2312C163.909 51.2312 163.634 50.5618 163.634 49.7551C163.634 48.9484 163.909 48.279 164.306 48.279C164.702 48.279 164.978 48.9484 164.978 49.7551Z" fill="#C22828"/>
<path d="M164.978 49.7551C164.978 50.5618 164.702 51.2312 164.306 51.2312C163.909 51.2312 163.634 50.5618 163.634 49.7551C163.634 48.9484 163.909 48.279 164.306 48.279C164.702 48.279 164.978 48.9484 164.978 49.7551Z" fill="#C22828"/>
<path d="M164.978 49.7551C164.978 50.5618 164.702 51.2312 164.306 51.2312C163.909 51.2312 163.634 50.5618 163.634 49.7551C163.634 48.9484 163.909 48.279 164.306 48.279C164.702 48.279 164.978 48.9484 164.978 49.7551Z" fill="#C22828"/>
<path d="M164.978 49.7551C164.978 50.5618 164.702 51.2312 164.306 51.2312C163.909 51.2312 163.634 50.5618 163.634 49.7551C163.634 48.9484 163.909 48.279 164.306 48.279C164.702 48.279 164.978 48.9484 164.978 49.7551Z" fill="#C22828"/>
<path d="M164.978 49.7551C164.978 50.5618 164.702 51.2312 164.306 51.2312C163.909 51.2312 163.634 50.5618 163.634 49.7551C163.634 48.9484 163.909 48.279 164.306 48.279C164.702 48.279 164.978 48.9484 164.978 49.7551Z" fill="#C22828"/>
<path d="M164.978 49.7551C164.978 50.5618 164.702 51.2312 164.306 51.2312C163.909 51.2312 163.634 50.5618 163.634 49.7551C163.634 48.9484 163.909 48.279 164.306 48.279C164.702 48.279 164.978 48.9484 164.978 49.7551Z" fill="#C22828"/>
<path d="M164.978 49.7551C164.978 50.5618 164.702 51.2312 164.306 51.2312C163.909 51.2312 163.634 50.5618 163.634 49.7551C163.634 48.9484 163.909 48.279 164.306 48.279C164.702 48.279 164.978 48.9484 164.978 49.7551Z" fill="#C22828"/>
<path d="M164.978 49.7551C164.978 50.5618 164.702 51.2312 164.306 51.2312C163.909 51.2312 163.634 50.5618 163.634 49.7551C163.634 48.9484 163.909 48.279 164.306 48.279C164.702 48.279 164.978 48.9484 164.978 49.7551Z" fill="#C22828"/>
<path d="M164.978 49.7551C164.978 50.5618 164.702 51.2312 164.306 51.2312C163.909 51.2312 163.634 50.5618 163.634 49.7551C163.634 48.9484 163.909 48.279 164.306 48.279C164.702 48.279 164.978 48.9484 164.978 49.7551Z" fill="#C22828"/>
<path d="M164.978 49.7551C164.978 50.5618 164.702 51.2312 164.306 51.2312C163.909 51.2312 163.634 50.5618 163.634 49.7551C163.634 48.9484 163.909 48.279 164.306 48.279C164.702 48.279 164.978 48.9484 164.978 49.7551Z" fill="#C22828"/>
<path d="M164.978 49.7551C164.978 50.5618 164.702 51.2312 164.306 51.2312C163.909 51.2312 163.634 50.5618 163.634 49.7551C163.634 48.9484 163.909 48.279 164.306 48.279C164.702 48.279 164.978 48.9484 164.978 49.7551Z" fill="#C22828"/>
<path d="M164.978 49.7551C164.978 50.5618 164.702 51.2312 164.306 51.2312C163.909 51.2312 163.634 50.5618 163.634 49.7551C163.634 48.9484 163.909 48.279 164.306 48.279C164.702 48.279 164.978 48.9484 164.978 49.7551Z" fill="#C22828"/>
<path d="M164.978 49.7551C164.978 50.5618 164.702 51.2312 164.306 51.2312C163.909 51.2312 163.634 50.5618 163.634 49.7551C163.634 48.9484 163.909 48.279 164.306 48.279C164.702 48.279 164.978 48.9484 164.978 49.7551Z" fill="#C22828"/>
<path d="M164.978 49.7551C164.978 50.5618 164.702 51.2312 164.306 51.2312C163.909 51.2312 163.634 50.5618 163.634 49.7551C163.634 48.9484 163.909 48.279 164.306 48.279C164.702 48.279 164.978 48.9484 164.978 49.7551Z" fill="#C22828"/>
<path d="M164.978 49.7551C164.978 50.5618 164.702 51.2312 164.306 51.2312C163.909 51.2312 163.634 50.5618 163.634 49.7551C163.634 48.9484 163.909 48.279 164.306 48.279C164.702 48.279 164.978 48.9484 164.978 49.7551Z" fill="#C22828"/>
<path d="M164.978 49.7551C164.978 50.5618 164.702 51.2312 164.306 51.2312C163.909 51.2312 163.634 50.5618 163.634 49.7551C163.634 48.9484 163.909 48.279 164.306 48.279C164.702 48.279 164.978 48.9484 164.978 49.7551Z" fill="#C22828"/>
<path d="M164.978 49.7551C164.978 50.5618 164.702 51.2312 164.306 51.2312C163.909 51.2312 163.634 50.5618 163.634 49.7551C163.634 48.9484 163.909 48.279 164.306 48.279C164.702 48.279 164.978 48.9484 164.978 49.7551Z" fill="#C22828"/>
<path d="M164.03 48.4163C163.634 48.4163 163.358 49.0857 163.358 49.8924C163.358 50.6991 163.634 51.3685 164.03 51.3685C164.426 51.3685 164.702 50.6991 164.702 49.8924C164.702 49.0857 164.426 48.4163 164.03 48.4163Z" fill="#92D5E3"/>
<path d="M196.754 56.1573C196.891 55.6252 196.891 55.0931 196.478 54.561C196.478 54.561 196.34 54.2864 196.202 54.1663C196.064 54.0289 195.806 53.8916 195.668 53.7715C195.134 53.3767 194.6 53.4969 194.186 53.7715C193.376 54.1663 192.584 54.973 191.774 55.3677C189.223 56.8439 185.742 56.2946 183.726 54.1663C182.52 52.9648 180.78 53.7715 180.366 55.0931C180.09 55.7625 180.228 56.5692 180.9 57.1013C182.382 58.5774 184.261 59.6416 186.397 60.0364C188.413 60.4312 190.688 60.311 192.566 59.5043C193.497 59.1095 194.841 58.4401 195.789 57.6334C196.323 57.2386 196.599 56.7065 196.857 56.2946L196.719 56.1573H196.754Z" fill="#116C7E"/>
<path d="M182.262 39.8685H181.331C178.781 39.8685 176.644 41.8767 176.644 44.5372C176.644 47.1976 178.66 49.2058 181.331 49.2058H182.262C184.812 49.2058 186.949 47.1976 186.949 44.5372C186.949 41.8767 184.933 39.8685 182.262 39.8685Z" fill="#C22828"/>
<path d="M186.828 44.5372C186.828 47.0775 184.812 49.2058 182.141 49.2058C179.47 49.2058 177.454 47.1976 177.454 44.5372C177.454 41.8767 179.47 39.8685 182.141 39.8685C184.812 39.8685 186.828 41.8767 186.828 44.5372Z" fill="#ED332B"/>
<path d="M185.622 44.417C185.622 46.2879 184.14 47.764 182.262 47.764C180.383 47.764 178.901 46.2879 178.901 44.417C178.901 42.5461 180.383 41.07 182.262 41.07C184.14 41.07 185.622 42.5461 185.622 44.417Z" fill="#92D5E3"/>
<path d="M184.019 44.417C184.019 45.3439 183.209 46.1506 182.279 46.1506C181.348 46.1506 180.538 45.3439 180.538 44.417C180.538 43.4902 181.348 42.6834 182.279 42.6834C183.209 42.6834 184.019 43.4902 184.019 44.417Z" fill="white"/>
<path d="M196.081 39.8685H195.151C192.601 39.8685 190.464 41.8767 190.464 44.5372C190.464 47.1976 192.48 49.2058 195.151 49.2058H196.081C198.632 49.2058 200.769 47.1976 200.769 44.5372C200.769 41.8767 198.752 39.8685 196.081 39.8685Z" fill="#C22828"/>
<path d="M200.63 44.5372C200.63 47.0775 198.614 49.2058 195.943 49.2058C193.272 49.2058 191.256 47.1976 191.256 44.5372C191.256 41.8767 193.272 39.8685 195.943 39.8685C198.614 39.8685 200.63 41.8767 200.63 44.5372Z" fill="#ED332B"/>
<path d="M199.425 44.417C199.425 46.2879 197.943 47.764 196.064 47.764C194.186 47.764 192.704 46.2879 192.704 44.417C192.704 42.5461 194.186 41.07 196.064 41.07C197.943 41.07 199.425 42.5461 199.425 44.417Z" fill="#92D5E3"/>
<path d="M197.822 44.417C197.822 45.3439 197.012 46.1506 196.081 46.1506C195.151 46.1506 194.341 45.3439 194.341 44.417C194.341 43.4902 195.151 42.6834 196.081 42.6834C197.012 42.6834 197.822 43.4902 197.822 44.417Z" fill="white"/>
<path d="M196.616 53.3595C194.875 51.7633 193.669 53.7543 192.187 54.561C189.637 56.0371 186.156 55.4879 184.14 53.3595C182.262 51.4886 179.453 54.2864 181.331 56.1573C182.813 57.6334 184.691 58.6976 186.828 59.0923C188.844 59.4871 191.119 59.367 192.997 58.5603C194.875 57.7535 198.632 55.7625 196.616 53.3595Z" fill="#ED332B"/>
<path d="M182.675 55.3677C182.675 55.3677 182.399 55.0931 182.279 54.973L182.951 54.3036C182.951 54.3036 183.227 54.5782 183.347 54.5782L182.675 55.3849V55.3677Z" fill="white"/>
<path d="M188.568 57.7707H187.5V56.8439H188.568V57.908V57.7707ZM189.102 57.7707V56.7066H190.033V57.6334H189.102V57.7707ZM186.966 57.6334C186.569 57.6334 186.294 57.4961 185.897 57.3588L186.173 56.4319C186.449 56.4319 186.845 56.5692 187.103 56.7066L186.828 57.6334H186.966ZM190.843 57.6334L190.567 56.7066C190.843 56.7066 191.239 56.5692 191.498 56.4319L191.773 57.3588C191.377 57.3588 191.101 57.6334 190.705 57.6334H190.843ZM185.484 57.1013C185.208 56.964 184.812 56.8267 184.553 56.7066L185.087 55.7797C185.363 55.917 185.621 56.0543 186.018 56.1745L185.621 57.1013H185.484ZM192.325 57.1013L191.928 56.1745C192.204 56.1745 192.463 55.8998 192.859 55.7797L193.393 56.7066C193.117 56.8439 192.721 56.9812 192.463 57.1013H192.325ZM193.789 56.4319L193.255 55.6252C193.531 55.4879 193.789 55.2304 194.065 55.0931L194.737 55.8998C194.461 56.1745 194.203 56.2946 193.807 56.5692V56.4319H193.789ZM184.019 56.4319C183.743 56.2946 183.485 56.0371 183.088 55.7625L183.76 54.9558C184.036 55.0931 184.295 55.3506 184.57 55.4879L184.036 56.2946V56.4319H184.019Z" fill="white"/>
<path d="M195.133 55.3677L194.461 54.561C194.461 54.561 194.737 54.2864 194.858 54.2864L195.53 54.9558C195.53 54.9558 195.254 55.2304 195.133 55.3506V55.3677Z" fill="white"/>
<path d="M209.781 69.5968C209.781 69.5968 180.642 81.44 180.521 83.1564C180.401 84.8728 180.263 91.5668 180.263 91.5668L207.162 92.1333L209.781 84.2206V69.5796V69.5968Z" fill="#1ABDCA"/>
<g opacity="0.2">
<path d="M159.998 63.1602C159.998 40.9842 165.822 21.6231 174.49 11.1873C154.242 17.6925 139.526 37.2939 139.526 60.4655C139.526 67.9833 150.675 74.4886 166.925 77.6468C162.6 73.7333 159.981 68.6871 159.981 63.1431L159.998 63.1602Z" fill="white"/>
</g>
<g opacity="0.29">
<path d="M249.569 63.1602C249.569 57.6162 248.794 52.2439 247.381 47.129C237.662 45.2924 227.047 43.8849 215.812 43.0267C235.801 46.6827 249.569 54.3207 249.569 63.1602Z" fill="#1ABDCA"/>
<path d="M162.548 43.0267C151.313 43.8849 140.698 45.2924 130.979 47.129C129.566 52.2267 128.791 57.5991 128.791 63.1602C128.791 54.3207 142.559 46.6827 162.548 43.0267Z" fill="#1ABDCA"/>
</g>
<path d="M247.381 47.1289C248.794 52.2267 249.569 57.599 249.569 63.1602C249.569 75.5527 222.532 85.5766 189.171 85.5766C155.81 85.5766 128.774 75.5356 128.774 63.1602C128.774 57.6162 129.549 52.2438 130.962 47.1289C96.102 53.7371 72.6494 66.0781 72.6494 80.2385C72.6494 101.35 124.81 118.463 189.171 118.463C253.532 118.463 305.693 101.35 305.693 80.2385C305.693 66.0781 282.241 53.7371 247.381 47.1289Z" fill="#1ABDCA"/>
<path opacity="0.1" d="M249.018 55.0588C249.38 57.7021 249.587 60.414 249.587 63.1602C249.587 75.5527 222.55 85.5766 189.189 85.5766C155.828 85.5766 128.791 75.5356 128.791 63.1602C128.791 60.414 128.998 57.7192 129.36 55.0588C126.878 57.5819 125.517 60.311 125.517 63.1602C125.517 76.2221 154.019 86.7952 189.189 86.7952C224.359 86.7952 252.861 76.205 252.861 63.1602C252.861 60.311 251.499 57.5819 249.018 55.0588Z" fill="black"/>
<g opacity="0.23">
<path d="M85.4873 62.7998C98.7214 59.6416 112.472 58.9722 126.034 59.3154C112.955 60.6028 98.5491 61.3236 85.4873 62.7998Z" fill="black"/>
<path d="M72.9424 77.0288C90.226 71.7766 108.009 67.7774 126.034 66.1639C108.681 70.0602 90.45 74.0938 72.9424 77.0288Z" fill="black"/>
<path d="M85.0737 97.437C100.927 88.546 117.728 81.3713 134.891 75.3811C118.71 83.5169 101.858 90.6915 85.0737 97.437Z" fill="black"/>
<path d="M116.091 110.001C127.567 99.8056 139.94 90.5541 153.208 82.796C141.336 92.4422 128.946 101.711 116.091 110.001Z" fill="black"/>
<path d="M162.962 117.485C166.046 106.706 170.234 96.287 175.524 86.4004C172.439 97.2138 168.252 107.547 162.962 117.485Z" fill="black"/>
<path d="M110.68 52.0035C118.124 50.9565 125.672 51.4371 133.064 52.7416C125.551 53.1192 118.159 52.6214 110.68 52.0035Z" fill="black"/>
<path d="M132.823 46.7856C135.408 46.9058 137.889 47.8155 140.13 49.0685C137.631 48.4162 135.27 47.5409 132.823 46.7856Z" fill="black"/>
</g>
<g opacity="0.23">
<path d="M292.873 62.7998C279.811 61.3237 265.405 60.6028 252.326 59.3155C265.888 58.9722 279.639 59.6244 292.873 62.7998Z" fill="black"/>
<path d="M305.418 77.0288C287.91 74.1109 269.679 70.0602 252.326 66.1639C270.351 67.7774 288.134 71.7766 305.418 77.0288Z" fill="black"/>
<path d="M293.269 97.437C276.468 90.6915 259.616 83.5169 243.452 75.3811C260.615 81.3713 277.416 88.546 293.269 97.437Z" fill="black"/>
<path d="M262.269 110.001C249.414 101.711 237.025 92.4422 225.152 82.796C238.42 90.5541 250.793 99.8228 262.269 110.001Z" fill="black"/>
<path d="M215.398 117.485C210.108 107.547 205.921 97.2138 202.836 86.4004C208.127 96.3041 212.314 106.706 215.398 117.485Z" fill="black"/>
<path d="M267.68 52.0035C260.201 52.6214 252.809 53.1192 245.296 52.7416C252.671 51.4371 260.236 50.9565 267.68 52.0035Z" fill="black"/>
<path d="M245.537 46.7856C243.09 47.558 240.729 48.4334 238.23 49.0685C240.453 47.8155 242.952 46.9058 245.537 46.7856Z" fill="black"/>
</g>
<circle cx="49.2829" cy="30.5075" r="7.5" transform="rotate(-18.6856 49.2829 30.5075)" fill="#D9D9D9"/>
<path d="M60.6503 26.663C60.7845 27.0596 60.7116 27.5753 60.3256 28.2199C59.941 28.8623 59.2788 29.5714 58.364 30.2986C56.5381 31.7503 53.7942 33.2043 50.5643 34.2967C47.3344 35.389 44.2713 35.8989 41.939 35.8536C40.7706 35.8309 39.814 35.6693 39.1184 35.3923C38.4204 35.1143 38.0495 34.7486 37.9153 34.352C37.7812 33.9554 37.8541 33.4397 38.24 32.7951C38.6247 32.1527 39.2868 31.4436 40.2016 30.7164C42.0276 29.2647 44.7714 27.8107 48.0013 26.7183C51.2312 25.626 54.2944 25.1161 56.6266 25.1614C57.795 25.1841 58.7517 25.3457 59.4472 25.6228C60.1452 25.9008 60.5162 26.2664 60.6503 26.663Z" stroke="#D7D7D7"/>
</g>
<path fill-rule="evenodd" clip-rule="evenodd" d="M326.236 20.7521C334.244 20.7521 340.736 13.8125 340.736 5.25209C340.736 5.1679 340.735 5.08387 340.734 5C340.735 5.00002 340.736 5.00004 340.738 5.00007C340.736 5.08392 340.736 5.16794 340.736 5.25212C340.736 13.727 347.099 20.6133 354.996 20.7501C354.996 20.7515 354.996 20.7528 354.996 20.7542C347.178 20.8897 340.864 27.639 340.738 35.996C340.736 35.996 340.735 35.996 340.734 35.9961C340.606 27.5538 334.164 20.7522 326.236 20.7522C326.157 20.7522 326.079 20.7528 326 20.7542C326 20.7528 326 20.7515 326 20.7501C326.078 20.7515 326.157 20.7521 326.236 20.7521Z" fill="#D7D7D7"/>
<path fill-rule="evenodd" clip-rule="evenodd" d="M387.607 0.233015C387.596 4.06148 384.69 7.16161 381.106 7.16161C381.071 7.16161 381.035 7.16131 381 7.16071C381 7.16131 381 7.16191 381 7.16252C381.035 7.16192 381.07 7.16162 381.106 7.16162C384.66 7.16162 387.548 10.211 387.606 13.996C387.606 13.996 387.607 13.996 387.608 13.996C387.664 10.2492 390.495 7.2233 394 7.16255C394 7.16193 394 7.16131 394 7.16068C390.466 7.09944 387.617 4.02313 387.607 0.233015ZM387.607 0.0993942C387.607 0.0993847 387.606 0.0993745 387.606 0.0993652C387.606 0.130114 387.607 0.160911 387.607 0.191755C387.607 0.16092 387.607 0.130133 387.607 0.0993942Z" fill="#D7D7D7"/>
<defs>
<linearGradient id="paint0_linear_0_1" x1="128.791" y1="44.2969" x2="249.569" y2="44.2969" gradientUnits="userSpaceOnUse">
<stop offset="0.11" stop-color="#158A9C"/>
<stop offset="1" stop-color="#0C4F5C"/>
</linearGradient>
<clipPath id="clip0_0_1">
<rect width="375" height="203" fill="white" transform="translate(0 3)"/>
</clipPath>
</defs>
</svg>
