<svg width="110" height="69" viewBox="0 0 110 69" fill="none" xmlns="http://www.w3.org/2000/svg">
<g clip-path="url(#clip0_364_7138)">
<g filter="url(#filter0_f_364_7138)">
<ellipse cx="55.5" cy="47.5" rx="54.5" ry="18.5" fill="#D9D9D9"/>
</g>
<path d="M82.3768 29.2996C83.0277 31.7121 83.4336 34.2032 83.4336 36.7773C83.4336 42.5651 70.6799 47.3093 54.9987 47.3093C39.3175 47.3093 26.5639 42.6459 26.5639 36.7773C26.5639 30.9086 26.8882 31.6313 27.6206 29.2996C11.2114 32.354 0.163086 38.144 0.163086 44.816C0.163086 54.7041 24.7791 62.745 55.0826 62.745C85.386 62.745 110.002 54.7063 110.002 44.816C110.002 34.9258 98.9537 32.4347 82.5423 29.2996H82.3791H82.3768Z" fill="#1ABDCA"/>
<path d="M82.3768 29.2996C83.0277 31.7121 83.4336 34.2032 83.4336 36.7773C83.4336 42.5651 70.6799 47.3093 54.9987 47.3093C39.3175 47.3093 26.5639 42.6459 26.5639 36.7773C26.5639 30.9086 26.8882 31.6313 27.6206 29.2996C11.2114 32.354 0.163086 38.144 0.163086 44.816C0.163086 54.7041 24.7791 62.745 55.0826 62.745C85.386 62.745 110.002 54.7063 110.002 44.816C110.002 34.9258 98.9537 32.4347 82.5423 29.2996H82.3791H82.3768Z" fill="#1ABDCA"/>
<path d="M82.3768 27.21C83.0277 29.6225 83.4336 32.1136 83.4336 34.6877C83.4336 40.4755 70.6799 45.2197 54.9987 45.2197C39.3175 45.2197 26.5639 40.5563 26.5639 34.6877C26.5639 28.819 26.8882 29.5417 27.6206 27.21C11.2114 30.2644 0.163086 36.0522 0.163086 42.7264C0.163086 52.6145 24.7791 60.6554 55.0826 60.6554C85.386 60.6554 110.002 52.6166 110.002 42.7264C110.002 32.8362 98.9537 30.3451 82.5423 27.21H82.3791H82.3768Z" fill="white"/>
<path d="M82.3768 25.6011C83.0277 28.0136 83.4336 30.5047 83.4336 33.0788C83.4336 38.8666 70.6799 43.6108 54.9987 43.6108C39.3175 43.6108 26.5639 38.9474 26.5639 33.0788C26.5639 27.2101 26.8882 27.9328 27.6206 25.6011C11.2114 28.6555 0.163086 34.4455 0.163086 41.1176C0.163086 51.0056 24.7791 59.0466 55.0826 59.0466C85.386 59.0466 110.002 51.0078 110.002 41.1176C110.002 31.2274 98.9537 28.7362 82.5423 25.6011H82.3791H82.3768Z" fill="#116C7E"/>
<path d="M54.9195 57.9222C85.2507 57.9222 109.839 49.8951 109.839 39.9932C109.839 30.0913 85.2507 22.0642 54.9195 22.0642C24.5883 22.0642 0 30.0913 0 39.9932C0 49.8951 24.5883 57.9222 54.9195 57.9222Z" fill="#1ABDCA"/>
<path d="M54.9197 3.81201C39.1591 3.81201 26.4849 16.4335 26.4849 31.9522C26.4849 47.4708 39.2385 42.4842 54.9197 42.4842C70.6009 42.4842 83.3546 37.8208 83.3546 31.9522C83.3546 16.3549 70.6009 3.81201 54.9197 3.81201Z" fill="url(#paint0_linear_364_7138)"/>
<path d="M54.9197 42.4841C70.6238 42.4841 83.3546 37.7687 83.3546 31.952C83.3546 26.1353 70.6238 21.4199 54.9197 21.4199C39.2156 21.4199 26.4849 26.1353 26.4849 31.952C26.4849 37.7687 39.2156 42.4841 54.9197 42.4841Z" fill="black"/>
<path d="M55.0807 34.203C49.3933 36.2923 44.3567 38.1416 43.7875 38.6241C43.2183 39.1066 43.3 41.6785 43.3 41.6785L43.1367 44.8944L60.6027 45.2961L64.7458 42.8836V35.1658C64.7458 34.2816 60.3578 32.9956 59.5459 32.9956C58.7341 32.9956 55.0785 34.1222 55.0785 34.1222V34.203H55.0807Z" fill="#297984"/>
<path d="M53.8625 39.5914C57.2754 39.5914 60.0374 38.2247 60.0374 36.5371C60.0374 34.8494 57.2754 33.4827 53.8625 33.4827C50.4496 33.4827 47.6875 34.8494 47.6875 36.5371C47.6875 38.2247 50.4496 39.5914 53.8625 39.5914Z" fill="#1ABDCA"/>
<path d="M59.6294 34.3647C59.6294 32.8365 57.0306 31.4697 53.8603 31.4697C50.6901 31.4697 48.0913 32.7557 48.0913 34.3647C48.0913 35.893 50.6901 37.2598 53.8603 37.2598C57.0306 37.2598 59.6294 35.9738 59.6294 34.3647Z" fill="#C22828"/>
<path d="M53.8628 37.2598C57.0308 37.2598 59.6318 35.9738 59.6318 34.3647C59.6318 32.7557 57.033 31.4697 53.8628 31.4697C50.6926 31.4697 48.0938 32.7557 48.0938 34.3647C48.0938 35.9738 50.6926 37.2598 53.8628 37.2598Z" fill="#ED332B"/>
<path d="M53.8628 31.4697C50.6948 31.4697 48.0938 32.7557 48.0938 34.3647C48.0938 35.9738 48.257 35.0874 48.4997 35.3297L59.3053 33.319C58.4935 32.2732 56.38 31.4697 53.8628 31.4697Z" fill="#D7292A"/>
<path d="M55.4069 32.2731C55.4069 31.3081 52.0756 31.3081 52.3205 32.2731V34.1223C52.3205 35.0873 55.5701 35.0873 55.4069 34.1223V32.2731Z" fill="#D9D9D9"/>
<path d="M55.4069 33.1596C55.4069 32.7579 54.6767 32.4369 53.8627 32.4369C53.0486 32.4369 52.3184 32.7579 52.3184 33.1596C52.3184 33.3211 52.4816 33.4805 52.7243 33.5613C52.7243 33.5613 52.7243 33.2404 53.0486 32.9172C53.3729 32.5963 54.0237 32.1946 55.4864 32.1946V33.1596H55.4047H55.4069Z" fill="#D9D9D9"/>
<path d="M56.2188 16.2741V16.4357C56.2188 16.5972 56.2188 16.6758 56.382 16.6758L59.4684 17.0775C59.6316 17.0775 59.7111 17.0775 59.7111 16.8374V16.4357C59.7111 16.2741 59.7111 16.1955 59.5478 16.1955L56.4614 16.0339C56.2982 16.0339 56.2188 16.1955 56.2188 16.2741Z" fill="#ED332B"/>
<path d="M53.457 16.3549L49.3955 16.0339C49.2323 16.0339 49.1528 16.0339 49.1528 16.2741V16.9182C49.1528 17.0797 49.1528 17.1583 49.3161 17.1583H53.3776C53.5408 17.1583 53.6203 16.9968 53.6203 16.9182V16.678C53.6203 16.5164 53.6203 16.4378 53.457 16.4378V16.3571V16.3549Z" fill="#ED332B"/>
<path d="M61.3369 33.0786H48.0956C47.0389 33.0786 46.2271 32.1944 46.2271 31.2294V19.8131C46.2271 18.7673 47.1205 17.9639 48.0956 17.9639H61.3369C62.3936 17.9639 63.2055 18.8481 63.2055 19.8131V31.2294C63.2055 32.2752 62.312 33.0786 61.3369 33.0786Z" fill="#92D5E3"/>
<path d="M60.2803 18.6865H61.1738C61.4981 18.6865 61.7429 18.9267 61.904 19.0882L62.0672 19.2498C62.0672 19.2498 62.0672 19.4114 62.2305 19.4114C62.2305 19.4114 62.2305 19.5729 62.3938 19.5729V20.6187V19.9747C62.3938 19.8131 62.2305 19.6537 62.2305 19.6537L62.0672 19.4921L61.904 19.3306C61.7407 19.169 61.4981 19.0096 61.3348 18.9289H61.0105C61.0105 18.7673 60.8473 18.7673 60.8473 18.7673H60.5229L60.2803 18.6865Z" fill="white"/>
<path d="M47.3636 32.9171L43.4631 32.0329C43.0572 32.0329 42.7329 31.6312 42.7329 31.1487V21.0183C42.7329 20.6974 42.8962 20.3743 43.1388 20.2957L46.9577 18.1255L47.282 32.9193H47.3636V32.9171Z" fill="#116C7E"/>
<path d="M54.7562 33.0786H48.0937C47.037 33.0786 46.2251 32.1944 46.2251 31.2294V19.8131C46.2251 18.7673 47.1186 17.9639 48.0937 17.9639H54.7562V33.1594V33.0786Z" fill="#1ABDCA"/>
<path d="M45.5767 25.6819C45.5767 27.2888 44.9259 28.5769 44.114 28.5769C43.3022 28.5769 42.6514 27.2909 42.6514 25.6819C42.6514 24.0728 43.3022 22.7869 44.114 22.7869C44.9259 22.7869 45.5767 24.0728 45.5767 25.6819Z" fill="#1ABDCA"/>
<path d="M43.8687 23.2693C43.1385 23.2693 42.5693 24.3959 42.5693 25.6818C42.5693 26.9677 43.1385 28.0943 43.8687 28.0943C44.599 28.0943 45.1682 26.9677 45.1682 25.6818C45.1682 24.3959 44.599 23.2693 43.8687 23.2693Z" fill="#C22828"/>
<path d="M44.5197 25.6818C44.5197 27.0485 43.9505 28.0943 43.2203 28.0943C42.4901 28.0943 41.9209 26.9677 41.9209 25.6818C41.9209 24.3959 42.4901 23.2693 43.2203 23.2693C43.9505 23.2693 44.5197 24.3959 44.5197 25.6818Z" fill="#ED332B"/>
<path d="M43.6261 25.6819C43.6261 26.0836 43.4629 26.4046 43.3018 26.4046C43.1408 26.4046 42.9775 26.0836 42.9775 25.6819C42.9775 25.2802 43.1408 24.9592 43.3018 24.9592C43.4629 24.9592 43.6261 25.2802 43.6261 25.6819Z" fill="#C22828"/>
<path d="M43.6261 25.6819C43.6261 26.0836 43.4629 26.4046 43.3018 26.4046C43.1408 26.4046 42.9775 26.0836 42.9775 25.6819C42.9775 25.2802 43.1408 24.9592 43.3018 24.9592C43.4629 24.9592 43.6261 25.2802 43.6261 25.6819Z" fill="#C22828"/>
<path d="M43.6261 25.6819C43.6261 26.0836 43.4629 26.4046 43.3018 26.4046C43.1408 26.4046 42.9775 26.0836 42.9775 25.6819C42.9775 25.2802 43.1408 24.9592 43.3018 24.9592C43.4629 24.9592 43.6261 25.2802 43.6261 25.6819Z" fill="#C22828"/>
<path d="M43.6261 25.6819C43.6261 26.0836 43.4629 26.4046 43.3018 26.4046C43.1408 26.4046 42.9775 26.0836 42.9775 25.6819C42.9775 25.2802 43.1408 24.9592 43.3018 24.9592C43.4629 24.9592 43.6261 25.2802 43.6261 25.6819Z" fill="#C22828"/>
<path d="M43.6261 25.6819C43.6261 26.0836 43.4629 26.4046 43.3018 26.4046C43.1408 26.4046 42.9775 26.0836 42.9775 25.6819C42.9775 25.2802 43.1408 24.9592 43.3018 24.9592C43.4629 24.9592 43.6261 25.2802 43.6261 25.6819Z" fill="#C22828"/>
<path d="M43.6261 25.6819C43.6261 26.0836 43.4629 26.4046 43.3018 26.4046C43.1408 26.4046 42.9775 26.0836 42.9775 25.6819C42.9775 25.2802 43.1408 24.9592 43.3018 24.9592C43.4629 24.9592 43.6261 25.2802 43.6261 25.6819Z" fill="#C22828"/>
<path d="M43.6261 25.6819C43.6261 26.0836 43.4629 26.4046 43.3018 26.4046C43.1408 26.4046 42.9775 26.0836 42.9775 25.6819C42.9775 25.2802 43.1408 24.9592 43.3018 24.9592C43.4629 24.9592 43.6261 25.2802 43.6261 25.6819Z" fill="#C22828"/>
<path d="M43.6261 25.6819C43.6261 26.0836 43.4629 26.4046 43.3018 26.4046C43.1408 26.4046 42.9775 26.0836 42.9775 25.6819C42.9775 25.2802 43.1408 24.9592 43.3018 24.9592C43.4629 24.9592 43.6261 25.2802 43.6261 25.6819Z" fill="#C22828"/>
<path d="M43.6261 25.6819C43.6261 26.0836 43.4629 26.4046 43.3018 26.4046C43.1408 26.4046 42.9775 26.0836 42.9775 25.6819C42.9775 25.2802 43.1408 24.9592 43.3018 24.9592C43.4629 24.9592 43.6261 25.2802 43.6261 25.6819Z" fill="#C22828"/>
<path d="M43.6261 25.6819C43.6261 26.0836 43.4629 26.4046 43.3018 26.4046C43.1408 26.4046 42.9775 26.0836 42.9775 25.6819C42.9775 25.2802 43.1408 24.9592 43.3018 24.9592C43.4629 24.9592 43.6261 25.2802 43.6261 25.6819Z" fill="#C22828"/>
<path d="M43.6261 25.6819C43.6261 26.0836 43.4629 26.4046 43.3018 26.4046C43.1408 26.4046 42.9775 26.0836 42.9775 25.6819C42.9775 25.2802 43.1408 24.9592 43.3018 24.9592C43.4629 24.9592 43.6261 25.2802 43.6261 25.6819Z" fill="#C22828"/>
<path d="M43.6261 25.6819C43.6261 26.0836 43.4629 26.4046 43.3018 26.4046C43.1408 26.4046 42.9775 26.0836 42.9775 25.6819C42.9775 25.2802 43.1408 24.9592 43.3018 24.9592C43.4629 24.9592 43.6261 25.2802 43.6261 25.6819Z" fill="#C22828"/>
<path d="M43.6261 25.6819C43.6261 26.0836 43.4629 26.4046 43.3018 26.4046C43.1408 26.4046 42.9775 26.0836 42.9775 25.6819C42.9775 25.2802 43.1408 24.9592 43.3018 24.9592C43.4629 24.9592 43.6261 25.2802 43.6261 25.6819Z" fill="#C22828"/>
<path d="M43.6261 25.6819C43.6261 26.0836 43.4629 26.4046 43.3018 26.4046C43.1408 26.4046 42.9775 26.0836 42.9775 25.6819C42.9775 25.2802 43.1408 24.9592 43.3018 24.9592C43.4629 24.9592 43.6261 25.2802 43.6261 25.6819Z" fill="#C22828"/>
<path d="M43.6261 25.6819C43.6261 26.0836 43.4629 26.4046 43.3018 26.4046C43.1408 26.4046 42.9775 26.0836 42.9775 25.6819C42.9775 25.2802 43.1408 24.9592 43.3018 24.9592C43.4629 24.9592 43.6261 25.2802 43.6261 25.6819Z" fill="#C22828"/>
<path d="M43.6261 25.6819C43.6261 26.0836 43.4629 26.4046 43.3018 26.4046C43.1408 26.4046 42.9775 26.0836 42.9775 25.6819C42.9775 25.2802 43.1408 24.9592 43.3018 24.9592C43.4629 24.9592 43.6261 25.2802 43.6261 25.6819Z" fill="#C22828"/>
<path d="M43.6261 25.6819C43.6261 26.0836 43.4629 26.4046 43.3018 26.4046C43.1408 26.4046 42.9775 26.0836 42.9775 25.6819C42.9775 25.2802 43.1408 24.9592 43.3018 24.9592C43.4629 24.9592 43.6261 25.2802 43.6261 25.6819Z" fill="#C22828"/>
<path d="M43.6261 25.6819C43.6261 26.0836 43.4629 26.4046 43.3018 26.4046C43.1408 26.4046 42.9775 26.0836 42.9775 25.6819C42.9775 25.2802 43.1408 24.9592 43.3018 24.9592C43.4629 24.9592 43.6261 25.2802 43.6261 25.6819Z" fill="#C22828"/>
<path d="M43.5446 25.6819C43.5446 26.0836 43.3813 26.4046 43.2203 26.4046C43.0593 26.4046 42.896 26.0836 42.896 25.6819C42.896 25.2802 43.0593 24.9592 43.2203 24.9592C43.3813 24.9592 43.5446 25.2802 43.5446 25.6819Z" fill="#C22828"/>
<path d="M43.5446 25.6819C43.5446 26.0836 43.3813 26.4046 43.2203 26.4046C43.0593 26.4046 42.896 26.0836 42.896 25.6819C42.896 25.2802 43.0593 24.9592 43.2203 24.9592C43.3813 24.9592 43.5446 25.2802 43.5446 25.6819Z" fill="#C22828"/>
<path d="M43.5446 25.6819C43.5446 26.0836 43.3813 26.4046 43.2203 26.4046C43.0593 26.4046 42.896 26.0836 42.896 25.6819C42.896 25.2802 43.0593 24.9592 43.2203 24.9592C43.3813 24.9592 43.5446 25.2802 43.5446 25.6819Z" fill="#C22828"/>
<path d="M43.5446 25.6819C43.5446 26.0836 43.3813 26.4046 43.2203 26.4046C43.0593 26.4046 42.896 26.0836 42.896 25.6819C42.896 25.2802 43.0593 24.9592 43.2203 24.9592C43.3813 24.9592 43.5446 25.2802 43.5446 25.6819Z" fill="#C22828"/>
<path d="M43.5446 25.6819C43.5446 26.0836 43.3813 26.4046 43.2203 26.4046C43.0593 26.4046 42.896 26.0836 42.896 25.6819C42.896 25.2802 43.0593 24.9592 43.2203 24.9592C43.3813 24.9592 43.5446 25.2802 43.5446 25.6819Z" fill="#C22828"/>
<path d="M43.5446 25.6819C43.5446 26.0836 43.3813 26.4046 43.2203 26.4046C43.0593 26.4046 42.896 26.0836 42.896 25.6819C42.896 25.2802 43.0593 24.9592 43.2203 24.9592C43.3813 24.9592 43.5446 25.2802 43.5446 25.6819Z" fill="#C22828"/>
<path d="M43.5446 25.6819C43.5446 26.0836 43.3813 26.4046 43.2203 26.4046C43.0593 26.4046 42.896 26.0836 42.896 25.6819C42.896 25.2802 43.0593 24.9592 43.2203 24.9592C43.3813 24.9592 43.5446 25.2802 43.5446 25.6819Z" fill="#C22828"/>
<path d="M43.5446 25.6819C43.5446 26.0836 43.3813 26.4046 43.2203 26.4046C43.0593 26.4046 42.896 26.0836 42.896 25.6819C42.896 25.2802 43.0593 24.9592 43.2203 24.9592C43.3813 24.9592 43.5446 25.2802 43.5446 25.6819Z" fill="#C22828"/>
<path d="M43.5446 25.6819C43.5446 26.0836 43.3813 26.4046 43.2203 26.4046C43.0593 26.4046 42.896 26.0836 42.896 25.6819C42.896 25.2802 43.0593 24.9592 43.2203 24.9592C43.3813 24.9592 43.5446 25.2802 43.5446 25.6819Z" fill="#C22828"/>
<path d="M43.5446 25.6819C43.5446 26.0836 43.3813 26.4046 43.2203 26.4046C43.0593 26.4046 42.896 26.0836 42.896 25.6819C42.896 25.2802 43.0593 24.9592 43.2203 24.9592C43.3813 24.9592 43.5446 25.2802 43.5446 25.6819Z" fill="#C22828"/>
<path d="M43.5446 25.6819C43.5446 26.0836 43.3813 26.4046 43.2203 26.4046C43.0593 26.4046 42.896 26.0836 42.896 25.6819C42.896 25.2802 43.0593 24.9592 43.2203 24.9592C43.3813 24.9592 43.5446 25.2802 43.5446 25.6819Z" fill="#C22828"/>
<path d="M43.5446 25.6819C43.5446 26.0836 43.3813 26.4046 43.2203 26.4046C43.0593 26.4046 42.896 26.0836 42.896 25.6819C42.896 25.2802 43.0593 24.9592 43.2203 24.9592C43.3813 24.9592 43.5446 25.2802 43.5446 25.6819Z" fill="#C22828"/>
<path d="M43.5446 25.6819C43.5446 26.0836 43.3813 26.4046 43.2203 26.4046C43.0593 26.4046 42.896 26.0836 42.896 25.6819C42.896 25.2802 43.0593 24.9592 43.2203 24.9592C43.3813 24.9592 43.5446 25.2802 43.5446 25.6819Z" fill="#C22828"/>
<path d="M43.5446 25.6819C43.5446 26.0836 43.3813 26.4046 43.2203 26.4046C43.0593 26.4046 42.896 26.0836 42.896 25.6819C42.896 25.2802 43.0593 24.9592 43.2203 24.9592C43.3813 24.9592 43.5446 25.2802 43.5446 25.6819Z" fill="#C22828"/>
<path d="M43.5446 25.6819C43.5446 26.0836 43.3813 26.4046 43.2203 26.4046C43.0593 26.4046 42.896 26.0836 42.896 25.6819C42.896 25.2802 43.0593 24.9592 43.2203 24.9592C43.3813 24.9592 43.5446 25.2802 43.5446 25.6819Z" fill="#C22828"/>
<path d="M43.5446 25.6819C43.5446 26.0836 43.3813 26.4046 43.2203 26.4046C43.0593 26.4046 42.896 26.0836 42.896 25.6819C42.896 25.2802 43.0593 24.9592 43.2203 24.9592C43.3813 24.9592 43.5446 25.2802 43.5446 25.6819Z" fill="#C22828"/>
<path d="M43.5446 25.6819C43.5446 26.0836 43.3813 26.4046 43.2203 26.4046C43.0593 26.4046 42.896 26.0836 42.896 25.6819C42.896 25.2802 43.0593 24.9592 43.2203 24.9592C43.3813 24.9592 43.5446 25.2802 43.5446 25.6819Z" fill="#C22828"/>
<path d="M43.5446 25.6819C43.5446 26.0836 43.3813 26.4046 43.2203 26.4046C43.0593 26.4046 42.896 26.0836 42.896 25.6819C42.896 25.2802 43.0593 24.9592 43.2203 24.9592C43.3813 24.9592 43.5446 25.2802 43.5446 25.6819Z" fill="#C22828"/>
<path d="M43.5446 25.6819C43.5446 26.0836 43.3813 26.4046 43.2203 26.4046C43.0593 26.4046 42.896 26.0836 42.896 25.6819C42.896 25.2802 43.0593 24.9592 43.2203 24.9592C43.3813 24.9592 43.5446 25.2802 43.5446 25.6819Z" fill="#C22828"/>
<path d="M43.5446 25.6819C43.5446 26.0836 43.3813 26.4046 43.2203 26.4046C43.0593 26.4046 42.896 26.0836 42.896 25.6819C42.896 25.2802 43.0593 24.9592 43.2203 24.9592C43.3813 24.9592 43.5446 25.2802 43.5446 25.6819Z" fill="#C22828"/>
<path d="M43.5446 25.6819C43.5446 26.0836 43.3813 26.4046 43.2203 26.4046C43.0593 26.4046 42.896 26.0836 42.896 25.6819C42.896 25.2802 43.0593 24.9592 43.2203 24.9592C43.3813 24.9592 43.5446 25.2802 43.5446 25.6819Z" fill="#C22828"/>
<path d="M43.5446 25.6819C43.5446 26.0836 43.3813 26.4046 43.2203 26.4046C43.0593 26.4046 42.896 26.0836 42.896 25.6819C42.896 25.2802 43.0593 24.9592 43.2203 24.9592C43.3813 24.9592 43.5446 25.2802 43.5446 25.6819Z" fill="#C22828"/>
<path d="M43.5446 25.6819C43.5446 26.0836 43.3813 26.4046 43.2203 26.4046C43.0593 26.4046 42.896 26.0836 42.896 25.6819C42.896 25.2802 43.0593 24.9592 43.2203 24.9592C43.3813 24.9592 43.5446 25.2802 43.5446 25.6819Z" fill="#C22828"/>
<path d="M43.5446 25.6819C43.5446 26.0836 43.3813 26.4046 43.2203 26.4046C43.0593 26.4046 42.896 26.0836 42.896 25.6819C42.896 25.2802 43.0593 24.9592 43.2203 24.9592C43.3813 24.9592 43.5446 25.2802 43.5446 25.6819Z" fill="#C22828"/>
<path d="M43.1388 25.0378C42.9755 25.0378 42.8145 25.3588 42.8145 25.7605C42.8145 26.1622 42.9777 26.4832 43.1388 26.4832C43.302 26.4832 43.4631 26.1622 43.4631 25.7605C43.4631 25.3588 43.2998 25.0378 43.1388 25.0378Z" fill="#92D5E3"/>
<path d="M58.4936 28.6555C58.4936 28.4153 58.4936 28.173 58.3303 27.9328C58.3303 27.9328 58.3303 27.7713 58.1671 27.7713C58.1671 27.7713 58.0038 27.6097 57.9244 27.6097C57.6817 27.4481 57.4369 27.4481 57.1942 27.6097C56.7883 27.7713 56.464 28.173 56.0558 28.3324C54.838 29.055 53.2121 28.7341 52.237 27.7691C51.6678 27.2058 50.856 27.6075 50.6927 28.1708C50.5295 28.4917 50.6927 28.8935 50.9354 29.1358C51.6656 29.8585 52.4797 30.341 53.5342 30.5025C54.5093 30.6641 55.5661 30.6641 56.4595 30.2624C56.8655 30.1008 57.5163 29.7799 58.0038 29.3781C58.2465 29.2166 58.4098 28.9764 58.4914 28.7341V28.6533L58.4936 28.6555Z" fill="#116C7E"/>
<path d="M51.6696 21.0183H51.2637C50.0459 21.0183 49.0708 21.9833 49.0708 23.1885C49.0708 24.3936 50.0459 25.3586 51.2637 25.3586H51.6696C52.8874 25.3586 53.8625 24.3936 53.8625 23.1885C53.8625 21.9833 52.8874 21.0183 51.6696 21.0183Z" fill="#C22828"/>
<path d="M53.8628 23.2693C53.8628 24.4745 52.8877 25.4395 51.6699 25.4395C50.4522 25.4395 49.4771 24.4745 49.4771 23.2693C49.4771 22.0641 50.4522 21.0991 51.6699 21.0991C52.8877 21.0991 53.8628 22.0641 53.8628 23.2693Z" fill="#ED332B"/>
<path d="M53.2937 23.1884C53.2937 24.0727 52.5634 24.7167 51.7494 24.7167C50.9353 24.7167 50.2051 23.9941 50.2051 23.1884C50.2051 22.3828 50.9353 21.6602 51.7494 21.6602C52.5634 21.6602 53.2937 22.3828 53.2937 23.1884Z" fill="#92D5E3"/>
<path d="M52.4816 23.1885C52.4816 23.5902 52.0757 23.9919 51.6698 23.9919C51.2638 23.9919 50.8579 23.5902 50.8579 23.1885C50.8579 22.7867 51.2638 22.385 51.6698 22.385C52.0757 22.385 52.4816 22.7867 52.4816 23.1885Z" fill="white"/>
<path d="M58.1691 21.0183H57.7632C56.5454 21.0183 55.5703 21.9833 55.5703 23.1885C55.5703 24.3936 56.5454 25.3586 57.7632 25.3586H58.1691C59.3869 25.3586 60.362 24.3936 60.362 23.1885C60.362 21.9833 59.3869 21.0183 58.1691 21.0183Z" fill="#C22828"/>
<path d="M60.3619 23.2693C60.3619 24.4745 59.3868 25.4395 58.169 25.4395C56.9512 25.4395 55.9761 24.4745 55.9761 23.2693C55.9761 22.0641 56.9512 21.0991 58.169 21.0991C59.3868 21.0991 60.3619 22.0641 60.3619 23.2693Z" fill="#ED332B"/>
<path d="M59.7927 23.1884C59.7927 24.0727 59.0625 24.7167 58.2484 24.7167C57.4343 24.7167 56.7041 23.9941 56.7041 23.1884C56.7041 22.3828 57.4343 21.6602 58.2484 21.6602C59.0625 21.6602 59.7927 22.3828 59.7927 23.1884Z" fill="#92D5E3"/>
<path d="M59.0627 23.1885C59.0627 23.5902 58.6568 23.9919 58.2508 23.9919C57.8449 23.9919 57.439 23.5902 57.439 23.1885C57.439 22.7867 57.8449 22.385 58.2508 22.385C58.6568 22.385 59.0627 22.7867 59.0627 23.1885Z" fill="white"/>
<path d="M58.4932 27.3695C57.6814 26.6468 57.1122 27.5311 56.382 27.9328C55.1642 28.6554 53.5382 28.3345 52.5631 27.3695C51.6697 26.4853 50.3702 27.7712 51.2637 28.6554C52.1572 29.5397 52.808 29.8606 53.8625 30.0222C54.8377 30.1837 55.8944 30.1837 56.7879 29.782C57.6814 29.3803 59.4683 28.4961 58.4932 27.3695Z" fill="#ED332B"/>
<path d="M51.9123 28.3346L51.749 28.173L52.0733 27.8521L52.2366 28.0136L51.9123 28.4153V28.3346Z" fill="white"/>
<path d="M54.6745 29.461H54.187V29.0592H54.6745V29.5417V29.461ZM54.9194 29.461V28.9785H55.3253V29.3802H54.9194V29.461ZM53.9443 29.3802C53.781 29.3802 53.62 29.3802 53.4567 29.2186L53.62 28.8169C53.7832 28.8169 53.9443 28.8169 54.0259 28.9785L53.8626 29.3802H53.9443ZM55.7312 29.3802L55.568 28.9785C55.7312 28.9785 55.8923 28.9785 55.9739 28.8169L56.1372 29.2186C55.9739 29.2186 55.8129 29.3802 55.6496 29.3802H55.7312ZM53.2118 29.1378C53.0486 29.1378 52.8875 28.9763 52.8059 28.9763L53.0486 28.5746C53.2118 28.5746 53.2913 28.7361 53.4545 28.7361L53.2913 29.1378H53.2096H53.2118ZM56.4615 29.1378L56.2982 28.7361C56.4615 28.7361 56.5409 28.5746 56.7041 28.5746L56.9468 28.9763C56.7836 28.9763 56.6225 29.1378 56.5409 29.1378H56.4593H56.4615ZM57.1123 28.8169L56.8696 28.4152C57.0329 28.4152 57.1123 28.2536 57.2755 28.175L57.5998 28.5767C57.4366 28.7383 57.3572 28.7383 57.1939 28.8977L57.1123 28.8169ZM52.4816 28.8169C52.3184 28.8169 52.2389 28.6553 52.0757 28.496L52.4 28.0942C52.5632 28.0942 52.6427 28.2558 52.8059 28.3344L52.5632 28.7361L52.4816 28.8169Z" fill="white"/>
<path d="M57.7608 28.3345L57.4365 27.9328L57.5998 27.7712L57.9241 28.0922L57.7608 28.2537V28.3345Z" fill="white"/>
<path d="M64.6685 35.0088C64.6685 35.0088 50.9397 40.5565 50.8581 41.3599C50.7765 42.1633 50.6948 45.2985 50.6948 45.2985L63.3691 45.5387L64.5868 41.8402V35.0066H64.6685V35.0088Z" fill="#1ABDCA"/>
<g opacity="0.2">
<path d="M41.1883 31.9522C41.1883 21.5817 43.9503 12.4949 48.0118 7.59131C38.5056 10.6457 31.521 19.8111 31.521 30.6663C31.521 41.5215 36.8025 37.2597 44.4379 38.7051C42.4061 36.8558 41.1883 34.5241 41.1883 31.9522Z" fill="white"/>
</g>
<g opacity="0.3">
<path d="M83.4341 31.9521C83.4341 29.3802 83.1098 26.8062 82.3774 24.4744C77.8283 23.5902 72.7917 22.9462 67.5103 22.5444C76.9349 24.2321 83.4341 27.8498 83.4341 31.9521Z" fill="#1ABDCA"/>
<path d="M42.4087 22.5466C37.1272 22.9484 32.0906 23.5924 27.5416 24.4766C26.8908 26.8892 26.4849 29.3803 26.4849 31.9543C26.4849 27.8542 32.9841 24.2365 42.4087 22.5466Z" fill="#1ABDCA"/>
</g>
<path d="M82.3768 24.4744C83.0277 26.8869 83.4336 29.378 83.4336 31.9521C83.4336 37.7399 70.6799 42.4841 54.9987 42.4841C39.3175 42.4841 26.5639 37.8207 26.5639 31.9521C26.5639 26.0834 26.8882 26.8061 27.6206 24.4744C11.2114 27.5309 0.163086 33.3188 0.163086 39.993C0.163086 49.8811 24.7791 57.922 55.0826 57.922C85.386 57.922 110.002 49.8832 110.002 39.993C110.002 30.1028 98.9537 27.6117 82.5423 24.4765H82.3791L82.3768 24.4744Z" fill="#1ABDCA"/>
<path d="M83.1908 28.1729C83.3541 29.378 83.4335 30.6661 83.4335 31.9521C83.4335 37.7399 70.6799 42.4842 54.9987 42.4842C39.3175 42.4842 26.5638 37.8207 26.5638 31.9521C26.5638 26.0835 26.6455 29.3802 26.8065 28.1729C25.6681 29.378 25.0195 30.6661 25.0195 31.9521C25.0195 38.0631 38.424 43.0475 54.9965 43.0475C71.5689 43.0475 84.9734 38.0631 84.9734 31.9521C84.9734 25.8411 84.3226 29.3802 83.1864 28.1729H83.1908Z" fill="black"/>
<g opacity="0.2">
<path d="M6.09326 31.7926C12.3499 30.3451 18.8469 30.0241 25.1851 30.1857C19.0102 30.749 12.2682 31.1507 6.09326 31.7926Z" fill="black"/>
<path d="M0.163086 38.4646C8.28607 35.9713 16.7356 34.1221 25.185 33.3994C16.9804 35.2486 8.44932 37.0979 0.163086 38.4646Z" fill="black"/>
<path d="M5.84814 48.0319C13.3225 43.8509 21.2845 40.4734 29.3258 37.6614C21.6882 41.4406 13.7285 44.8159 5.84814 48.0319Z" fill="black"/>
<path d="M20.4727 53.9005C25.9152 49.1562 31.6842 44.8159 37.9386 41.1174C32.3328 45.6193 26.4844 49.9619 20.4727 53.9005Z" fill="black"/>
<path d="M42.5693 57.4394C44.032 52.3742 45.9822 47.5514 48.4994 42.8879C47.0368 47.9531 45.0865 52.776 42.5693 57.4394Z" fill="black"/>
<path d="M17.9531 26.7275C21.4454 26.2449 25.0216 26.4873 28.5139 27.0484C24.9399 27.21 21.5271 27.0484 17.9531 26.7275Z" fill="black"/>
<path d="M28.353 24.3149C29.5708 24.3149 30.7092 24.7974 31.7659 25.3607C30.6276 25.0398 29.4914 24.6381 28.353 24.3149Z" fill="black"/>
</g>
<g opacity="0.2">
<path d="M103.825 31.7927C97.6503 31.07 90.9084 30.7469 84.7334 30.1858C91.151 30.0242 97.6503 30.3474 103.825 31.7927Z" fill="black"/>
<path d="M109.755 38.4646C101.469 37.0979 92.938 35.1679 84.7334 33.3994C93.2645 34.1221 101.632 36.0521 109.755 38.4646Z" fill="black"/>
<path d="M104.07 48.0319C96.1896 44.8967 88.2277 41.5192 80.5923 37.6614C88.7153 40.4756 96.5956 43.8531 104.07 48.0319Z" fill="black"/>
<path d="M89.4455 53.9005C83.3521 50.0404 77.5036 45.7001 71.9795 41.1174C78.2361 44.7351 84.0845 49.0776 89.4455 53.9005Z" fill="black"/>
<path d="M67.349 57.4394C64.8296 52.776 62.8816 47.9531 61.4189 42.8879C63.9383 47.5514 65.8864 52.3742 67.349 57.4394Z" fill="black"/>
<path d="M91.9651 26.7275C88.4727 27.0485 84.9782 27.2908 81.4043 27.0485C84.8966 26.4044 88.4727 26.245 91.9651 26.7275Z" fill="black"/>
<path d="M81.4837 24.3149C80.3453 24.6359 79.2092 25.1184 78.0708 25.3607C79.1275 24.7974 80.2637 24.3149 81.4837 24.3149Z" fill="black"/>
</g>
<path opacity="0.6" d="M42.8166 66.2906C42.7593 66.2906 36.9968 66.1268 30.6167 64.675L30.9211 63.365C37.1623 64.7841 42.7968 64.9435 42.8541 64.9457L42.8188 66.2906H42.8166Z" fill="#001E24"/>
<path opacity="0.6" d="M45.1465 68.9999C45.0671 68.9999 37.0632 68.7707 28.2012 66.7577L28.5056 65.4478C37.2309 67.4302 45.1046 67.655 45.184 67.6572L45.1487 69.0021L45.1465 68.9999Z" fill="#001E24"/>
<path opacity="0.6" d="M75.1143 8.94696C71.9661 6.06505 68.3437 4.6481 68.3062 4.63501L68.7694 3.45386C68.9261 3.51499 72.6456 4.96468 75.9813 8.01689L75.1121 8.94696H75.1143Z" fill="#001E24"/>
<path opacity="0.6" d="M78.2096 7.23753C73.7753 3.18102 68.6967 1.2008 68.646 1.18115L69.1093 0C69.3255 0.0829642 74.4658 2.08939 79.0766 6.30746L78.2074 7.23753H78.2096Z" fill="#001E24"/>
<path d="M75.8203 31.4304L80.237 36.81L80.7113 36.3384L76.2284 31.1619L75.8203 31.4304Z" fill="#408284"/>
<path d="M75.4146 32.0372C76.1652 32.0372 76.7736 31.4351 76.7736 30.6923C76.7736 29.9495 76.1652 29.3474 75.4146 29.3474C74.6641 29.3474 74.0557 29.9495 74.0557 30.6923C74.0557 31.4351 74.6641 32.0372 75.4146 32.0372Z" fill="#D7292A"/>
<path d="M75.1434 31.0939C75.5186 31.0939 75.8228 30.7929 75.8228 30.4215C75.8228 30.0501 75.5186 29.749 75.1434 29.749C74.7681 29.749 74.4639 30.0501 74.4639 30.4215C74.4639 30.7929 74.7681 31.0939 75.1434 31.0939Z" fill="#ED332B"/>
<path d="M71.9375 33.5591L76.352 38.9365L76.8263 38.4671L72.3434 33.2905L71.9375 33.5591Z" fill="#408284"/>
<path d="M71.5294 34.1637C72.2799 34.1637 72.8884 33.5615 72.8884 32.8188C72.8884 32.076 72.2799 31.4739 71.5294 31.4739C70.7788 31.4739 70.1704 32.076 70.1704 32.8188C70.1704 33.5615 70.7788 34.1637 71.5294 34.1637Z" fill="#D7292A"/>
<path d="M71.2581 33.2226C71.6334 33.2226 71.9376 32.9215 71.9376 32.5501C71.9376 32.1788 71.6334 31.8777 71.2581 31.8777C70.8828 31.8777 70.5786 32.1788 70.5786 32.5501C70.5786 32.9215 70.8828 33.2226 71.2581 33.2226Z" fill="#ED332B"/>
</g>
<defs>
<filter id="filter0_f_364_7138" x="-3" y="25" width="117" height="45" filterUnits="userSpaceOnUse" color-interpolation-filters="sRGB">
<feFlood flood-opacity="0" result="BackgroundImageFix"/>
<feBlend mode="normal" in="SourceGraphic" in2="BackgroundImageFix" result="shape"/>
<feGaussianBlur stdDeviation="2" result="effect1_foregroundBlur_364_7138"/>
</filter>
<linearGradient id="paint0_linear_364_7138" x1="26.4849" y1="23.5313" x2="83.434" y2="23.5313" gradientUnits="userSpaceOnUse">
<stop offset="0.1" stop-color="#158A9C"/>
<stop offset="1" stop-color="#0C4F5C"/>
</linearGradient>
<clipPath id="clip0_364_7138">
<rect width="110" height="69" fill="white"/>
</clipPath>
</defs>
</svg>
