<svg width="58" height="44" viewBox="0 0 58 44" fill="none" xmlns="http://www.w3.org/2000/svg">
<path d="M14.5617 44C18.6034 44 21.8798 42.3603 21.8798 40.3375C21.8798 38.3147 18.6034 36.6749 14.5617 36.6749C10.5201 36.6749 7.24365 38.3147 7.24365 40.3375C7.24365 42.3603 10.5201 44 14.5617 44Z" fill="#1ABDCA"/>
<path d="M21.3913 37.8246C21.3913 37.8168 21.3922 37.8081 21.3922 37.8003C21.3922 35.9118 18.3334 34.3806 14.5607 34.3806C10.788 34.3806 7.72925 35.9118 7.72925 37.8003C7.72925 37.8081 7.73007 37.8168 7.73007 37.8246C7.73007 37.8324 7.72925 37.8411 7.72925 37.8489C7.72925 37.8567 7.73007 37.8653 7.73007 37.8732C7.73007 37.881 7.72925 37.8897 7.72925 37.8974C7.72925 37.9053 7.73007 37.9139 7.73007 37.9218C7.73007 37.9295 7.72925 37.9382 7.72925 37.946C7.72925 37.9538 7.73007 37.9625 7.73007 37.9703C7.73007 37.9781 7.72925 37.9868 7.72925 37.9945C7.72925 38.0024 7.73007 38.0111 7.73007 38.0188C7.73007 38.0266 7.72925 38.0353 7.72925 38.0432C7.72925 38.0509 7.73007 38.0596 7.73007 38.0674C7.73007 38.0752 7.72925 38.0838 7.72925 38.0917C7.72925 38.0995 7.73007 38.1082 7.73007 38.1159C7.73007 38.1238 7.72925 38.1325 7.72925 38.1402C7.72925 38.148 7.73007 38.1567 7.73007 38.1645C7.73007 38.1723 7.72925 38.181 7.72925 38.1888C7.72925 38.1966 7.73007 38.2052 7.73007 38.2131C7.73007 38.2209 7.72925 38.2296 7.72925 38.2373C7.72925 38.2452 7.73007 38.2538 7.73007 38.2617C7.73007 38.2694 7.72925 38.2781 7.72925 38.2859C7.72925 38.2937 7.73007 38.3024 7.73007 38.3102C7.73007 38.318 7.72925 38.3267 7.72925 38.3344C7.72925 38.3423 7.73007 38.351 7.73007 38.3587C7.73007 38.3665 7.72925 38.3752 7.72925 38.3831C7.72925 38.3908 7.73007 38.3995 7.73007 38.4073C7.73007 38.4151 7.72925 38.4237 7.72925 38.4316C7.72925 38.4394 7.73007 38.4481 7.73007 38.4558C7.73007 38.4637 7.72925 38.4724 7.72925 38.4801C7.72925 38.4879 7.73007 38.4966 7.73007 38.5044C7.73007 38.5122 7.72925 38.5209 7.72925 38.5287C7.72925 38.5365 7.73007 38.5452 7.73007 38.553C7.73007 38.5608 7.72925 38.5695 7.72925 38.5772C7.72925 38.585 7.73007 38.5937 7.73007 38.6016C7.73007 38.6093 7.72925 38.618 7.72925 38.6258C7.72925 38.6336 7.73007 38.6423 7.73007 38.6501C7.73007 38.6579 7.72925 38.6666 7.72925 38.6743C7.72925 38.6822 7.73007 38.6909 7.73007 38.6986C7.73007 38.7064 7.72925 38.7151 7.72925 38.723C7.72925 38.7307 7.73007 38.7394 7.73007 38.7472C7.73007 38.755 7.72925 38.7636 7.72925 38.7715C7.72925 38.7793 7.73007 38.788 7.73007 38.7957C7.73007 38.8036 7.72925 38.8123 7.72925 38.82C7.72925 38.8278 7.73007 38.8365 7.73007 38.8443C7.73007 38.8521 7.72925 38.8608 7.72925 38.8686C7.72925 38.8764 7.73007 38.885 7.73007 38.8929C7.73007 38.9007 7.72925 38.9094 7.72925 38.9171C7.72925 38.9249 7.73007 38.9336 7.73007 38.9415C7.73007 38.9492 7.72925 38.9579 7.72925 38.9657C7.72925 38.9735 7.73007 38.9822 7.73007 38.99C7.73007 38.9978 7.72925 39.0065 7.72925 39.0142C7.72925 39.0221 7.73007 39.0308 7.73007 39.0385C7.73007 39.0463 7.72925 39.055 7.72925 39.0629C7.72925 39.0706 7.73007 39.0793 7.73007 39.0871C7.73007 39.0949 7.72925 39.1035 7.72925 39.1114C7.72925 39.1192 7.73007 39.1279 7.73007 39.1356C7.73007 39.1435 7.72925 39.1522 7.72925 39.1599C7.72925 39.1677 7.73007 39.1764 7.73007 39.1842C7.73007 39.192 7.72925 39.2007 7.72925 39.2085C7.72925 39.2163 7.73007 39.2249 7.73007 39.2328C7.73007 39.2406 7.72925 39.2493 7.72925 39.257C7.72925 39.2648 7.73007 39.2735 7.73007 39.2813C7.73007 39.2891 7.72925 39.2978 7.72925 39.3056C7.72925 39.3134 7.73007 39.3221 7.73007 39.3299C7.73007 39.3377 7.72925 39.3464 7.72925 39.3541C7.72925 39.362 7.73007 39.3707 7.73007 39.3784C7.73007 39.3862 7.72925 39.3949 7.72925 39.4028C7.72925 39.4105 7.73007 39.4192 7.73007 39.427C7.73007 39.4348 7.72925 39.4434 7.72925 39.4513C7.72925 39.4591 7.73007 39.4678 7.73007 39.4755C7.73007 39.4834 7.72925 39.4921 7.72925 39.4998C7.72925 39.5076 7.73007 39.5163 7.73007 39.5241C7.73007 39.5319 7.72925 39.5406 7.72925 39.5484C7.72925 39.5562 7.73007 39.5648 7.73007 39.5727C7.73007 39.5805 7.72925 39.5892 7.72925 39.5969C7.72925 39.6047 7.73007 39.6134 7.73007 39.6213C7.73007 39.629 7.72925 39.6377 7.72925 39.6455C7.72925 39.6533 7.73007 39.6619 7.73007 39.6698C7.73007 39.6776 7.72925 39.6863 7.72925 39.694C7.72925 39.7019 7.73007 39.7106 7.73007 39.7183C7.73007 39.7261 7.72925 39.7348 7.72925 39.7427C7.72925 39.7504 7.73007 39.7591 7.73007 39.7669C7.73007 39.7747 7.72925 39.7833 7.72925 39.7912C7.72925 41.6797 10.788 43.211 14.5607 43.211C18.3334 43.211 21.3922 41.6797 21.3922 39.7912C21.3922 39.7833 21.3913 39.7747 21.3913 39.7669C21.3913 39.7591 21.3922 39.7504 21.3922 39.7427C21.3922 39.7348 21.3913 39.7261 21.3913 39.7183C21.3913 39.7106 21.3922 39.7019 21.3922 39.694C21.3922 39.6863 21.3913 39.6776 21.3913 39.6698C21.3913 39.6619 21.3922 39.6533 21.3922 39.6455C21.3922 39.6377 21.3913 39.629 21.3913 39.6213C21.3913 39.6134 21.3922 39.6047 21.3922 39.5969C21.3922 39.5892 21.3913 39.5805 21.3913 39.5727C21.3913 39.5648 21.3922 39.5562 21.3922 39.5484C21.3922 39.5406 21.3913 39.5319 21.3913 39.5241C21.3913 39.5163 21.3922 39.5076 21.3922 39.4998C21.3922 39.4921 21.3913 39.4834 21.3913 39.4755C21.3913 39.4678 21.3922 39.4591 21.3922 39.4513C21.3922 39.4434 21.3913 39.4348 21.3913 39.427C21.3913 39.4192 21.3922 39.4105 21.3922 39.4028C21.3922 39.3949 21.3913 39.3862 21.3913 39.3784C21.3913 39.3707 21.3922 39.362 21.3922 39.3541C21.3922 39.3464 21.3913 39.3377 21.3913 39.3299C21.3913 39.3221 21.3922 39.3134 21.3922 39.3056C21.3922 39.2978 21.3913 39.2891 21.3913 39.2813C21.3913 39.2735 21.3922 39.2648 21.3922 39.257C21.3922 39.2493 21.3913 39.2406 21.3913 39.2328C21.3913 39.2249 21.3922 39.2163 21.3922 39.2085C21.3922 39.2007 21.3913 39.192 21.3913 39.1842C21.3913 39.1764 21.3922 39.1677 21.3922 39.1599C21.3922 39.1522 21.3913 39.1435 21.3913 39.1356C21.3913 39.1279 21.3922 39.1192 21.3922 39.1114C21.3922 39.1035 21.3913 39.0949 21.3913 39.0871C21.3913 39.0793 21.3922 39.0706 21.3922 39.0629C21.3922 39.055 21.3913 39.0463 21.3913 39.0385C21.3913 39.0308 21.3922 39.0221 21.3922 39.0142C21.3922 39.0065 21.3913 38.9978 21.3913 38.99C21.3913 38.9822 21.3922 38.9735 21.3922 38.9657C21.3922 38.9579 21.3913 38.9492 21.3913 38.9415C21.3913 38.9336 21.3922 38.9249 21.3922 38.9171C21.3922 38.9094 21.3913 38.9007 21.3913 38.8929C21.3913 38.885 21.3922 38.8764 21.3922 38.8686C21.3922 38.8608 21.3913 38.8521 21.3913 38.8443C21.3913 38.8365 21.3922 38.8278 21.3922 38.82C21.3922 38.8123 21.3913 38.8036 21.3913 38.7957C21.3913 38.788 21.3922 38.7793 21.3922 38.7715C21.3922 38.7636 21.3913 38.755 21.3913 38.7472C21.3913 38.7394 21.3922 38.7307 21.3922 38.723C21.3922 38.7151 21.3913 38.7064 21.3913 38.6986C21.3913 38.6909 21.3922 38.6822 21.3922 38.6743C21.3922 38.6666 21.3913 38.6579 21.3913 38.6501C21.3913 38.6423 21.3922 38.6336 21.3922 38.6258C21.3922 38.618 21.3913 38.6093 21.3913 38.6016C21.3913 38.5937 21.3922 38.585 21.3922 38.5772C21.3922 38.5695 21.3913 38.5608 21.3913 38.553C21.3913 38.5452 21.3922 38.5365 21.3922 38.5287C21.3922 38.5209 21.3913 38.5122 21.3913 38.5044C21.3913 38.4966 21.3922 38.4879 21.3922 38.4801C21.3922 38.4724 21.3913 38.4637 21.3913 38.4558C21.3913 38.4481 21.3922 38.4394 21.3922 38.4316C21.3922 38.4237 21.3913 38.4151 21.3913 38.4073C21.3913 38.3995 21.3922 38.3908 21.3922 38.3831C21.3922 38.3752 21.3913 38.3665 21.3913 38.3587C21.3913 38.351 21.3922 38.3423 21.3922 38.3344C21.3922 38.3267 21.3913 38.318 21.3913 38.3102C21.3913 38.3024 21.3922 38.2937 21.3922 38.2859C21.3922 38.2781 21.3913 38.2694 21.3913 38.2617C21.3913 38.2538 21.3922 38.2452 21.3922 38.2373C21.3922 38.2296 21.3913 38.2209 21.3913 38.2131C21.3913 38.2052 21.3922 38.1966 21.3922 38.1888C21.3922 38.181 21.3913 38.1723 21.3913 38.1645C21.3913 38.1567 21.3922 38.148 21.3922 38.1402C21.3922 38.1325 21.3913 38.1238 21.3913 38.1159C21.3913 38.1082 21.3922 38.0995 21.3922 38.0917C21.3922 38.0838 21.3913 38.0752 21.3913 38.0674C21.3913 38.0596 21.3922 38.0509 21.3922 38.0432C21.3922 38.0353 21.3913 38.0266 21.3913 38.0188C21.3913 38.0111 21.3922 38.0024 21.3922 37.9945C21.3922 37.9868 21.3913 37.9781 21.3913 37.9703C21.3913 37.9625 21.3922 37.9538 21.3922 37.946C21.3922 37.9382 21.3913 37.9295 21.3913 37.9218C21.3913 37.9139 21.3922 37.9053 21.3922 37.8974C21.3922 37.8897 21.3913 37.881 21.3913 37.8732C21.3913 37.8653 21.3922 37.8567 21.3922 37.8489C21.3922 37.8411 21.3922 37.8333 21.3913 37.8246Z" fill="#C22828"/>
<path d="M14.5617 41.2201C18.3347 41.2201 21.3932 39.689 21.3932 37.8003C21.3932 35.9117 18.3347 34.3806 14.5617 34.3806C10.7888 34.3806 7.73022 35.9117 7.73022 37.8003C7.73022 39.689 10.7888 41.2201 14.5617 41.2201Z" fill="#ED332B"/>
<path d="M14.5617 34.3806C10.789 34.3806 7.73022 35.9118 7.73022 37.8003C7.73022 38.2156 7.87862 38.6137 8.14923 38.9822L20.9776 36.6237C20.0191 35.3153 17.5085 34.3806 14.5617 34.3806Z" fill="#D7292A"/>
<path d="M16.405 35.2441C16.51 34.1117 12.4337 34.0953 12.7165 35.356C12.713 35.5234 12.713 35.6916 12.7165 35.8598C12.7104 36.4095 12.7191 36.9601 12.713 37.5098C12.6948 38.6084 16.6045 38.6258 16.4076 37.398C16.4015 37.2211 16.411 37.0434 16.4042 36.8664C16.4085 36.3254 16.4085 35.7844 16.405 35.2441Z" fill="#D9D9D9"/>
<path d="M16.4086 36.3905C16.4086 36.3809 16.4077 36.3714 16.4069 36.3627C16.4077 36.3531 16.4086 36.3445 16.4086 36.335C16.4086 36.3254 16.4077 36.3159 16.4069 36.3072C16.4077 36.2976 16.4086 36.289 16.4086 36.2795C16.4086 36.2699 16.4077 36.2604 16.4069 36.2517C16.4077 36.2422 16.4086 36.2335 16.4086 36.224C16.4086 36.2145 16.4077 36.2049 16.4069 36.1962C16.4077 36.1867 16.4086 36.178 16.4086 36.1685C16.4086 36.159 16.4077 36.1494 16.4069 36.1407C16.4077 36.1312 16.4086 36.1225 16.4086 36.113C16.4086 36.1035 16.4077 36.0939 16.4069 36.0852C16.4077 36.0757 16.4086 36.067 16.4086 36.0575C16.4086 36.048 16.4077 36.0384 16.4069 36.0298C16.4077 36.0202 16.4086 36.0115 16.4086 36.002C16.4086 35.9924 16.4077 35.9829 16.4069 35.9743C16.4077 35.9647 16.4086 35.956 16.4086 35.9465C16.4086 35.9369 16.4077 35.9274 16.4069 35.9188C16.4077 35.9092 16.4086 35.9005 16.4086 35.891C16.4086 35.8814 16.4077 35.8719 16.4069 35.8633C16.4077 35.8537 16.4086 35.845 16.4086 35.8355C16.4086 35.8259 16.4077 35.8164 16.4069 35.8078C16.4077 35.7983 16.4086 35.7896 16.4086 35.78C16.4086 35.7705 16.4077 35.7609 16.4069 35.7523C16.4077 35.7428 16.4086 35.7341 16.4086 35.7245C16.4086 35.715 16.4077 35.7054 16.4069 35.6968C16.4077 35.6873 16.4086 35.6786 16.4086 35.669C16.4086 35.6595 16.4077 35.6499 16.4069 35.6413C16.4077 35.6318 16.4086 35.6231 16.4086 35.6135C16.4086 35.604 16.4077 35.5944 16.4069 35.5858C16.4077 35.5763 16.4086 35.5676 16.4086 35.5581C16.4086 35.5485 16.4077 35.539 16.4069 35.5303C16.4077 35.5207 16.4086 35.5121 16.4086 35.5026C16.4086 35.493 16.4077 35.4835 16.4069 35.4748C16.4077 35.4652 16.4086 35.4566 16.4086 35.4471C16.4086 35.4375 16.4077 35.428 16.4069 35.4193C16.4077 35.4097 16.4086 35.4011 16.4086 35.3916C16.4086 35.382 16.4077 35.3725 16.4069 35.3638C16.4077 35.3543 16.4086 35.3456 16.4086 35.3361C16.4086 35.3266 16.4077 35.317 16.4069 35.3083C16.4077 35.2988 16.4086 35.2901 16.4086 35.2806C16.4086 35.2711 16.4077 35.2615 16.4069 35.2528C16.4077 35.2433 16.4086 35.2346 16.4086 35.2251C16.4086 34.7638 15.5819 34.39 14.5617 34.39C13.5416 34.39 12.7148 34.7638 12.7148 35.2251C12.7148 35.2346 12.7157 35.2441 12.7166 35.2528C12.7157 35.2624 12.7148 35.2711 12.7148 35.2806C12.7148 35.2901 12.7157 35.2996 12.7166 35.3083C12.7157 35.3179 12.7148 35.3266 12.7148 35.3361C12.7148 35.3456 12.7157 35.3551 12.7166 35.3638C12.7157 35.3734 12.7148 35.382 12.7148 35.3916C12.7148 35.4011 12.7157 35.4106 12.7166 35.4193C12.7157 35.4288 12.7148 35.4375 12.7148 35.4471C12.7148 35.4566 12.7157 35.4661 12.7166 35.4748C12.7157 35.4843 12.7148 35.493 12.7148 35.5026C12.7148 35.5121 12.7157 35.5216 12.7166 35.5303C12.7157 35.5398 12.7148 35.5485 12.7148 35.5581C12.7148 35.5676 12.7157 35.5771 12.7166 35.5858C12.7157 35.5953 12.7148 35.604 12.7148 35.6135C12.7148 35.6231 12.7157 35.6326 12.7166 35.6413C12.7157 35.6508 12.7148 35.6595 12.7148 35.669C12.7148 35.6786 12.7157 35.6881 12.7166 35.6968C12.7157 35.7063 12.7148 35.715 12.7148 35.7245C12.7148 35.7341 12.7157 35.7436 12.7166 35.7523C12.7157 35.7618 12.7148 35.7705 12.7148 35.78C12.7148 35.7896 12.7157 35.7991 12.7166 35.8078C12.7157 35.8173 12.7148 35.8259 12.7148 35.8355C12.7148 35.845 12.7157 35.8546 12.7166 35.8633C12.7157 35.8728 12.7148 35.8814 12.7148 35.891C12.7148 35.9005 12.7157 35.9101 12.7166 35.9188C12.7157 35.9283 12.7148 35.9369 12.7148 35.9465C12.7148 35.956 12.7157 35.9656 12.7166 35.9743C12.7157 35.9838 12.7148 35.9924 12.7148 36.002C12.7148 36.0115 12.7157 36.0211 12.7166 36.0298C12.7157 36.0393 12.7148 36.048 12.7148 36.0575C12.7148 36.067 12.7157 36.0765 12.7166 36.0852C12.7157 36.0948 12.7148 36.1035 12.7148 36.113C12.7148 36.1225 12.7157 36.132 12.7166 36.1407C12.7157 36.1503 12.7148 36.159 12.7148 36.1685C12.7148 36.178 12.7157 36.1875 12.7166 36.1962C12.7157 36.2058 12.7148 36.2145 12.7148 36.224C12.7148 36.2335 12.7157 36.243 12.7166 36.2517C12.7157 36.2613 12.7148 36.2699 12.7148 36.2795C12.7148 36.289 12.7157 36.2985 12.7166 36.3072C12.7157 36.3167 12.7148 36.3254 12.7148 36.335C12.7148 36.3445 12.7157 36.354 12.7166 36.3627C12.7157 36.3722 12.7148 36.3809 12.7148 36.3905C12.7148 36.4 12.7157 36.4095 12.7166 36.4182C12.7157 36.4277 12.7148 36.4364 12.7148 36.446C12.7148 36.4555 12.7157 36.465 12.7166 36.4737C12.7157 36.4832 12.7148 36.4919 12.7148 36.5014C12.7148 36.511 12.7157 36.5205 12.7166 36.5292C12.7157 36.5387 12.7148 36.5474 12.7148 36.5569C12.7148 36.5665 12.7157 36.576 12.7166 36.5847C12.7157 36.5942 12.7148 36.6029 12.7148 36.6124C12.7148 36.622 12.7157 36.6315 12.7166 36.6402C12.7157 36.6497 12.7148 36.6584 12.7148 36.6679C12.7148 36.6775 12.7157 36.687 12.7166 36.6957C12.7157 36.7052 12.7148 36.7138 12.7148 36.7234C12.7148 36.733 12.7157 36.7425 12.7166 36.7512C12.7157 36.7607 12.7148 36.7693 12.7148 36.7789C12.7148 36.7884 12.7157 36.798 12.7166 36.8067C12.7157 36.8162 12.7148 36.8248 12.7148 36.8344C12.7148 36.8439 12.7157 36.8535 12.7166 36.8622C12.7157 36.8717 12.7148 36.8803 12.7148 36.8899C12.7148 36.8994 12.7157 36.909 12.7166 36.9177C12.7157 36.9272 12.7148 36.9359 12.7148 36.9454C12.7148 36.9549 12.7157 36.9644 12.7166 36.9731C12.7157 36.9827 12.7148 36.9914 12.7148 37.0009C12.7148 37.0104 12.7157 37.0199 12.7166 37.0286C12.7157 37.0382 12.7148 37.0469 12.7148 37.0564C12.7148 37.0659 12.7157 37.0754 12.7166 37.0841C12.7157 37.0937 12.7148 37.1024 12.7148 37.1119C12.7148 37.1214 12.7157 37.1309 12.7166 37.1396C12.7157 37.1492 12.7148 37.1578 12.7148 37.1674C12.7148 37.1769 12.7157 37.1864 12.7166 37.1951C12.7157 37.2046 12.7148 37.2133 12.7148 37.2229C12.7148 37.2324 12.7157 37.2419 12.7166 37.2506C12.7157 37.2601 12.7148 37.2688 12.7148 37.2784C12.7148 37.2879 12.7157 37.2974 12.7166 37.3061C12.7157 37.3156 12.7148 37.3243 12.7148 37.3339C12.7148 37.3434 12.7157 37.3529 12.7166 37.3616C12.7157 37.3711 12.7148 37.3798 12.7148 37.3893C12.7148 37.3989 12.7157 37.4085 12.7166 37.4171C12.7157 37.4266 12.7148 37.4353 12.7148 37.4448C12.7148 37.4544 12.7157 37.4639 12.7166 37.4726C12.7157 37.4821 12.7148 37.4908 12.7148 37.5003C12.7148 37.705 12.8779 37.8923 13.1486 38.0371C13.1486 38.0318 13.1564 37.6842 13.4991 37.3069C13.8443 36.9263 14.6181 36.4373 16.4094 36.4373C16.4094 36.4277 16.4086 36.4182 16.4077 36.4095C16.4077 36.4095 16.4086 36.4 16.4086 36.3905Z" fill="#D9D9D9"/>
<path d="M17.3105 16.1552V16.3252C17.3105 16.4674 17.4173 16.5879 17.5586 16.6052L21.242 17.0622C21.4077 17.083 21.5543 16.9564 21.5595 16.7899L21.5725 16.3182C21.5768 16.1639 21.4562 16.0347 21.3019 16.0286L17.6047 15.8743C17.4441 15.8665 17.3105 15.9948 17.3105 16.1552Z" fill="#ED332B"/>
<path d="M14.1547 16.2471L9.38782 15.8509C9.22737 15.8379 9.08855 15.9601 9.08249 16.1205L9.053 16.8402C9.04604 17.0015 9.17528 17.1351 9.33663 17.1342L14.1165 17.1151C14.2657 17.1142 14.3889 16.998 14.3976 16.8489L14.4149 16.5454C14.4227 16.3919 14.3074 16.2593 14.1547 16.2471Z" fill="#ED332B"/>
<path d="M23.4594 36.1971H7.72061C6.47227 36.1971 5.45996 35.1852 5.45996 33.9375V20.2826C5.45996 19.0348 6.47227 18.0229 7.72061 18.0229H23.4594C24.7077 18.0229 25.7201 19.0348 25.7201 20.2826V33.9375C25.7201 35.1852 24.7077 36.1971 23.4594 36.1971Z" fill="#92D5E3"/>
<path d="M22.1765 18.9967C22.5044 18.8996 22.867 18.9117 23.2071 19.0097C23.5489 19.1077 23.8689 19.2932 24.1309 19.5438C24.1934 19.6088 24.255 19.6756 24.3157 19.7424C24.3712 19.8134 24.4241 19.8872 24.4753 19.9618C24.5187 20.0415 24.5664 20.1187 24.6037 20.2002C24.6376 20.2843 24.6722 20.3676 24.6983 20.4525C24.798 20.7968 24.8084 21.1679 24.6783 21.4965H24.608C24.5698 21.4167 24.5386 21.3413 24.5109 21.2667C24.4779 21.193 24.4441 21.1219 24.4164 21.0508C24.3825 20.9815 24.3469 20.9147 24.3174 20.847C24.2819 20.782 24.2446 20.7179 24.2125 20.6537C24.196 20.6216 24.1734 20.5921 24.1553 20.5617L24.1006 20.4698L23.98 20.2938C23.9384 20.2366 23.8924 20.1829 23.8516 20.1248C23.8056 20.071 23.7571 20.019 23.7111 19.9643C23.5159 19.758 23.2895 19.5785 23.0344 19.4293C22.9685 19.3964 22.9052 19.3574 22.8375 19.3236L22.6293 19.2282C22.5573 19.203 22.4845 19.1727 22.4099 19.1441C22.3343 19.1215 22.2572 19.0955 22.1782 19.0669V18.9967H22.1765Z" fill="white"/>
<path d="M6.91825 36.0497L2.30931 35.0152C1.83216 34.9086 1.4939 34.4855 1.4939 33.9964V21.8771C1.4939 21.5043 1.69251 21.1601 2.01521 20.9736L6.57123 18.3376L6.91825 36.0497Z" fill="#116C7E"/>
<path d="M15.5904 36.1971H7.72142C6.47308 36.1971 5.46069 35.1852 5.46069 33.9375V20.2826C5.46069 19.0348 6.47308 18.0229 7.72142 18.0229H15.5904V36.1971Z" fill="#1ABDCA"/>
<path d="M4.78609 27.4247C4.78609 29.3393 4.00099 30.8914 3.03201 30.8914C2.06221 30.8914 1.2771 29.3393 1.2771 27.4247C1.2771 25.5094 2.06221 23.9573 3.03201 23.9573C4.00099 23.9573 4.78609 25.5094 4.78609 27.4247Z" fill="#1ABDCA"/>
<path d="M2.77131 24.4724C2.76525 24.4724 2.76001 24.4732 2.75395 24.4732C2.74789 24.4732 2.74265 24.4724 2.73659 24.4724C2.73053 24.4724 2.72529 24.4732 2.71923 24.4732C2.71316 24.4732 2.708 24.4724 2.70186 24.4724C2.6958 24.4724 2.69064 24.4732 2.68458 24.4732C2.67844 24.4732 2.67328 24.4724 2.66721 24.4724C2.66115 24.4724 2.65591 24.4732 2.64985 24.4732C2.64379 24.4732 2.63855 24.4724 2.63249 24.4724C2.62643 24.4724 2.62119 24.4732 2.61513 24.4732C2.60907 24.4732 2.6039 24.4724 2.59777 24.4724C2.59171 24.4724 2.58654 24.4732 2.58048 24.4732C2.57434 24.4732 2.56918 24.4724 2.56312 24.4724C2.55706 24.4724 2.55182 24.4732 2.54576 24.4732C2.53969 24.4732 2.53445 24.4724 2.52839 24.4724C2.52233 24.4724 2.51709 24.4732 2.51103 24.4732C2.50497 24.4732 2.49981 24.4724 2.49367 24.4724C2.48761 24.4724 2.48244 24.4732 2.47638 24.4732C2.47025 24.4732 2.46508 24.4724 2.45902 24.4724C2.45296 24.4724 2.44772 24.4732 2.44166 24.4732C2.4356 24.4732 2.43036 24.4724 2.4243 24.4724C2.41823 24.4724 2.413 24.4732 2.40693 24.4732C2.40087 24.4732 2.39571 24.4724 2.38957 24.4724C2.38351 24.4724 2.37835 24.4732 2.37229 24.4732C2.36615 24.4732 2.36098 24.4724 2.35492 24.4724C2.34886 24.4724 2.34362 24.4732 2.33756 24.4732C2.3315 24.4732 2.32626 24.4724 2.3202 24.4724C2.31414 24.4724 2.3089 24.4732 2.30284 24.4732C2.29678 24.4732 2.29161 24.4724 2.28547 24.4724C2.27941 24.4724 2.27425 24.4732 2.26819 24.4732C2.26205 24.4732 2.25689 24.4724 2.25083 24.4724C2.24476 24.4724 2.23953 24.4732 2.23346 24.4732C2.2274 24.4732 2.22216 24.4724 2.2161 24.4724C2.21004 24.4724 2.2048 24.4732 2.19874 24.4732C2.19268 24.4732 2.18744 24.4724 2.18138 24.4724C2.17532 24.4724 2.17015 24.4732 2.16409 24.4732C2.15795 24.4732 2.15279 24.4724 2.14673 24.4724C2.14067 24.4724 2.13543 24.4732 2.12937 24.4732C2.12331 24.4732 2.11807 24.4724 2.112 24.4724C2.10594 24.4724 2.1007 24.4732 2.09464 24.4732C2.08858 24.4732 2.08334 24.4724 2.07728 24.4724C2.07122 24.4724 2.06606 24.4732 2.05992 24.4732C2.05386 24.4732 2.04869 24.4724 2.04263 24.4724C1.21674 24.4724 0.548828 25.7938 0.548828 27.4247C0.548828 29.0549 1.21764 30.3763 2.04263 30.3763C2.04869 30.3763 2.05386 30.3754 2.05992 30.3754C2.06606 30.3754 2.07122 30.3763 2.07728 30.3763C2.08334 30.3763 2.08858 30.3754 2.09464 30.3754C2.1007 30.3754 2.10594 30.3763 2.112 30.3763C2.11807 30.3763 2.12331 30.3754 2.12937 30.3754C2.13543 30.3754 2.14067 30.3763 2.14673 30.3763C2.15279 30.3763 2.15795 30.3754 2.16409 30.3754C2.17015 30.3754 2.17532 30.3763 2.18138 30.3763C2.18744 30.3763 2.19268 30.3754 2.19874 30.3754C2.2048 30.3754 2.21004 30.3763 2.2161 30.3763C2.22216 30.3763 2.2274 30.3754 2.23346 30.3754C2.23953 30.3754 2.24476 30.3763 2.25083 30.3763C2.25689 30.3763 2.26205 30.3754 2.26819 30.3754C2.27425 30.3754 2.27941 30.3763 2.28547 30.3763C2.29161 30.3763 2.29678 30.3754 2.30284 30.3754C2.3089 30.3754 2.31414 30.3763 2.3202 30.3763C2.32626 30.3763 2.3315 30.3754 2.33756 30.3754C2.34362 30.3754 2.34886 30.3763 2.35492 30.3763C2.36098 30.3763 2.36615 30.3754 2.37229 30.3754C2.37835 30.3754 2.38351 30.3763 2.38957 30.3763C2.39571 30.3763 2.40087 30.3754 2.40693 30.3754C2.413 30.3754 2.41823 30.3763 2.4243 30.3763C2.43036 30.3763 2.4356 30.3754 2.44166 30.3754C2.44772 30.3754 2.45296 30.3763 2.45902 30.3763C2.46508 30.3763 2.47025 30.3754 2.47638 30.3754C2.48244 30.3754 2.48761 30.3763 2.49367 30.3763C2.49981 30.3763 2.50497 30.3754 2.51103 30.3754C2.51709 30.3754 2.52233 30.3763 2.52839 30.3763C2.53445 30.3763 2.53969 30.3754 2.54576 30.3754C2.55182 30.3754 2.55706 30.3763 2.56312 30.3763C2.56918 30.3763 2.57434 30.3754 2.58048 30.3754C2.58654 30.3754 2.59171 30.3763 2.59777 30.3763C2.6039 30.3763 2.60907 30.3754 2.61513 30.3754C2.62119 30.3754 2.62643 30.3763 2.63249 30.3763C2.63855 30.3763 2.64379 30.3754 2.64985 30.3754C2.65591 30.3754 2.66115 30.3763 2.66721 30.3763C2.67328 30.3763 2.67844 30.3754 2.68458 30.3754C2.69064 30.3754 2.6958 30.3763 2.70186 30.3763C2.708 30.3763 2.71316 30.3754 2.71923 30.3754C2.72529 30.3754 2.73053 30.3763 2.73659 30.3763C2.74265 30.3763 2.74789 30.3754 2.75395 30.3754C2.76001 30.3754 2.76525 30.3763 2.77131 30.3763C3.5963 30.3763 4.26512 29.0549 4.26512 27.4247C4.26512 25.7938 3.5963 24.4724 2.77131 24.4724Z" fill="#C22828"/>
<path d="M3.54017 27.4247C3.54017 29.0549 2.87219 30.3763 2.04629 30.3763C1.22048 30.3763 0.55249 29.0549 0.55249 27.4247C0.55249 25.7947 1.22138 24.4724 2.04629 24.4724C2.87219 24.4724 3.54017 25.7938 3.54017 27.4247Z" fill="#ED332B"/>
<path d="M2.45334 27.4247C2.45334 27.8687 2.27119 28.2276 2.04646 28.2276C1.8218 28.2276 1.63965 27.8678 1.63965 27.4247C1.63965 26.9808 1.8218 26.621 2.04646 26.621C2.27119 26.621 2.45334 26.9808 2.45334 27.4247Z" fill="#C22828"/>
<path d="M2.45066 27.4247C2.45066 27.8687 2.26843 28.2276 2.04377 28.2276C1.81911 28.2276 1.63696 27.8678 1.63696 27.4247C1.63696 26.9808 1.81911 26.621 2.04377 26.621C2.26843 26.621 2.45066 26.9808 2.45066 27.4247Z" fill="#C22828"/>
<path d="M2.44829 27.4247C2.44829 27.8687 2.26606 28.2276 2.04141 28.2276C1.81675 28.2276 1.63452 27.8678 1.63452 27.4247C1.63452 26.9808 1.81675 26.621 2.04141 26.621C2.26606 26.621 2.44829 26.9808 2.44829 27.4247Z" fill="#C22828"/>
<path d="M2.44553 27.4247C2.44553 27.8687 2.26338 28.2276 2.03872 28.2276C1.81399 28.2276 1.63184 27.8678 1.63184 27.4247C1.63184 26.9808 1.81399 26.621 2.03872 26.621C2.26338 26.621 2.44553 26.9808 2.44553 27.4247Z" fill="#C22828"/>
<path d="M2.44309 27.4247C2.44309 27.8687 2.26094 28.2276 2.03628 28.2276C1.81155 28.2276 1.62939 27.8678 1.62939 27.4247C1.62939 26.9808 1.81155 26.621 2.03628 26.621C2.26094 26.621 2.44309 26.9808 2.44309 27.4247Z" fill="#C22828"/>
<path d="M2.44016 27.4247C2.44016 27.8687 2.25801 28.2276 2.03335 28.2276C1.80862 28.2276 1.62646 27.8678 1.62646 27.4247C1.62646 26.9808 1.80862 26.621 2.03335 26.621C2.25801 26.621 2.44016 26.9808 2.44016 27.4247Z" fill="#C22828"/>
<path d="M2.43747 27.4247C2.43747 27.8687 2.25532 28.2276 2.03059 28.2276C1.80593 28.2276 1.62378 27.8678 1.62378 27.4247C1.62378 26.9808 1.80593 26.621 2.03059 26.621C2.25532 26.621 2.43747 26.9808 2.43747 27.4247Z" fill="#C22828"/>
<path d="M2.43503 27.4247C2.43503 27.8687 2.25281 28.2276 2.02815 28.2276C1.80349 28.2276 1.62134 27.8678 1.62134 27.4247C1.62134 26.9808 1.80349 26.621 2.02815 26.621C2.25281 26.621 2.43503 26.9808 2.43503 27.4247Z" fill="#C22828"/>
<path d="M2.43242 27.4247C2.43242 27.8687 2.25019 28.2276 2.02554 28.2276C1.80088 28.2276 1.61865 27.8678 1.61865 27.4247C1.61865 26.9808 1.80088 26.621 2.02554 26.621C2.25019 26.621 2.43242 26.9808 2.43242 27.4247Z" fill="#C22828"/>
<path d="M2.4299 27.4247C2.4299 27.8687 2.24775 28.2276 2.02309 28.2276C1.79844 28.2276 1.61621 27.8678 1.61621 27.4247C1.61621 26.9808 1.79844 26.621 2.02309 26.621C2.24775 26.621 2.4299 26.9808 2.4299 27.4247Z" fill="#C22828"/>
<path d="M2.42632 27.4247C2.42632 27.8687 2.24409 28.2276 2.01943 28.2276C1.79477 28.2276 1.61255 27.8678 1.61255 27.4247C1.61255 26.9808 1.79477 26.621 2.01943 26.621C2.24499 26.621 2.42632 26.9808 2.42632 27.4247Z" fill="#C22828"/>
<path d="M2.42356 27.4247C2.42356 27.8687 2.24141 28.2276 2.01675 28.2276C1.79209 28.2276 1.60986 27.8678 1.60986 27.4247C1.60986 26.9808 1.79209 26.621 2.01675 26.621C2.2423 26.621 2.42356 26.9808 2.42356 27.4247Z" fill="#C22828"/>
<path d="M2.42111 27.4247C2.42111 27.8687 2.23896 28.2276 2.01431 28.2276C1.78957 28.2276 1.60742 27.8678 1.60742 27.4247C1.60742 26.9808 1.78957 26.621 2.01431 26.621C2.23979 26.621 2.42111 26.9808 2.42111 27.4247Z" fill="#C22828"/>
<path d="M2.41819 27.4247C2.41819 27.8687 2.23604 28.2276 2.01138 28.2276C1.78664 28.2276 1.60449 27.8678 1.60449 27.4247C1.60449 26.9808 1.78664 26.621 2.01138 26.621C2.23686 26.621 2.41819 26.9808 2.41819 27.4247Z" fill="#C22828"/>
<path d="M2.41574 27.4247C2.41574 27.8687 2.23359 28.2276 2.00886 28.2276C1.7842 28.2276 1.60205 27.8678 1.60205 27.4247C1.60205 26.9808 1.7842 26.621 2.00886 26.621C2.23442 26.621 2.41574 26.9808 2.41574 27.4247Z" fill="#C22828"/>
<path d="M2.41306 27.4247C2.41306 27.8687 2.23083 28.2276 2.00617 28.2276C1.78152 28.2276 1.59937 27.8678 1.59937 27.4247C1.59937 26.9808 1.78152 26.621 2.00617 26.621C2.23173 26.621 2.41306 26.9808 2.41306 27.4247Z" fill="#C22828"/>
<path d="M2.41045 27.4247C2.41045 27.8687 2.22822 28.2276 2.00356 28.2276C1.77891 28.2276 1.59668 27.8678 1.59668 27.4247C1.59668 26.9808 1.77891 26.621 2.00356 26.621C2.22822 26.621 2.41045 26.9808 2.41045 27.4247Z" fill="#C22828"/>
<path d="M2.40793 27.4247C2.40793 27.8687 2.22578 28.2276 2.00112 28.2276C1.77647 28.2276 1.59424 27.8678 1.59424 27.4247C1.59424 26.9808 1.77647 26.621 2.00112 26.621C2.22578 26.621 2.40793 26.9808 2.40793 27.4247Z" fill="#C22828"/>
<path d="M2.40549 27.4247C2.40549 27.8687 2.22334 28.2276 1.99868 28.2276C1.77395 28.2276 1.5918 27.8678 1.5918 27.4247C1.5918 26.9808 1.77395 26.621 1.99868 26.621C2.22334 26.621 2.40549 26.9808 2.40549 27.4247Z" fill="#C22828"/>
<path d="M2.40281 27.4247C2.40281 27.8687 2.22065 28.2276 1.996 28.2276C1.77126 28.2276 1.58911 27.8678 1.58911 27.4247C1.58911 26.9808 1.77126 26.621 1.996 26.621C2.22065 26.621 2.40281 26.9808 2.40281 27.4247Z" fill="#C22828"/>
<path d="M2.40036 27.4247C2.40036 27.8687 2.21821 28.2276 1.99348 28.2276C1.76882 28.2276 1.58667 27.8678 1.58667 27.4247C1.58667 26.9808 1.76882 26.621 1.99348 26.621C2.21821 26.621 2.40036 26.9808 2.40036 27.4247Z" fill="#C22828"/>
<path d="M2.39743 27.4247C2.39743 27.8687 2.21528 28.2276 1.99055 28.2276C1.76589 28.2276 1.58374 27.8678 1.58374 27.4247C1.58374 26.9808 1.76589 26.621 1.99055 26.621C2.21528 26.621 2.39743 26.9808 2.39743 27.4247Z" fill="#C22828"/>
<path d="M2.39475 27.4247C2.39475 27.8687 2.21252 28.2276 1.98786 28.2276C1.76321 28.2276 1.58105 27.8678 1.58105 27.4247C1.58105 26.9808 1.76321 26.621 1.98786 26.621C2.21252 26.621 2.39475 26.9808 2.39475 27.4247Z" fill="#C22828"/>
<path d="M2.39231 27.4247C2.39231 27.8687 2.21016 28.2276 1.9855 28.2276C1.76084 28.2276 1.57861 27.8678 1.57861 27.4247C1.57861 26.9808 1.76084 26.621 1.9855 26.621C2.21016 26.621 2.39231 26.9808 2.39231 27.4247Z" fill="#C22828"/>
<path d="M2.38962 27.4247C2.38962 27.8687 2.20747 28.2276 1.98281 28.2276C1.75808 28.2276 1.57593 27.8678 1.57593 27.4247C1.57593 26.9808 1.75808 26.621 1.98281 26.621C2.20747 26.621 2.38962 26.9808 2.38962 27.4247Z" fill="#C22828"/>
<path d="M2.38718 27.4247C2.38718 27.8687 2.20503 28.2276 1.98037 28.2276C1.75564 28.2276 1.57349 27.8678 1.57349 27.4247C1.57349 26.9808 1.75564 26.621 1.98037 26.621C2.20503 26.621 2.38718 26.9808 2.38718 27.4247Z" fill="#C22828"/>
<path d="M2.38449 27.4247C2.38449 27.8687 2.20234 28.2276 1.97761 28.2276C1.75295 28.2276 1.5708 27.8678 1.5708 27.4247C1.5708 26.9808 1.75295 26.621 1.97761 26.621C2.20234 26.621 2.38449 26.9808 2.38449 27.4247Z" fill="#C22828"/>
<path d="M2.38205 27.4247C2.38205 27.8687 2.19983 28.2276 1.97517 28.2276C1.75051 28.2276 1.56836 27.8678 1.56836 27.4247C1.56836 26.9808 1.75051 26.621 1.97517 26.621C2.19983 26.621 2.38205 26.9808 2.38205 27.4247Z" fill="#C22828"/>
<path d="M2.37864 27.4247C2.37864 27.8687 2.19648 28.2276 1.97175 28.2276C1.74709 28.2276 1.56494 27.8678 1.56494 27.4247C1.56494 26.9808 1.74709 26.621 1.97175 26.621C2.19731 26.621 2.37864 26.9808 2.37864 27.4247Z" fill="#C22828"/>
<path d="M2.37571 27.4247C2.37571 27.8687 2.19348 28.2276 1.96882 28.2276C1.74416 28.2276 1.56201 27.8678 1.56201 27.4247C1.56201 26.9808 1.74416 26.621 1.96882 26.621C2.19438 26.621 2.37571 26.9808 2.37571 27.4247Z" fill="#C22828"/>
<path d="M2.37334 27.4247C2.37334 27.8687 2.19111 28.2276 1.96646 28.2276C1.7418 28.2276 1.55957 27.8678 1.55957 27.4247C1.55957 26.9808 1.7418 26.621 1.96646 26.621C2.19201 26.621 2.37334 26.9808 2.37334 27.4247Z" fill="#C22828"/>
<path d="M2.37058 27.4247C2.37058 27.8687 2.18843 28.2276 1.96377 28.2276C1.73911 28.2276 1.55688 27.8678 1.55688 27.4247C1.55688 26.9808 1.73911 26.621 1.96377 26.621C2.18932 26.621 2.37058 26.9808 2.37058 27.4247Z" fill="#C22828"/>
<path d="M2.36814 27.4247C2.36814 27.8687 2.18599 28.2276 1.96133 28.2276C1.7366 28.2276 1.55444 27.8678 1.55444 27.4247C1.55444 26.9808 1.7366 26.621 1.96133 26.621C2.18681 26.621 2.36814 26.9808 2.36814 27.4247Z" fill="#C22828"/>
<path d="M2.36545 27.4247C2.36545 27.8687 2.1833 28.2276 1.95857 28.2276C1.73391 28.2276 1.55176 27.8678 1.55176 27.4247C1.55176 26.9808 1.73391 26.621 1.95857 26.621C2.1833 26.621 2.36545 26.9808 2.36545 27.4247Z" fill="#C22828"/>
<path d="M2.36301 27.4247C2.36301 27.8687 2.18086 28.2276 1.95613 28.2276C1.73147 28.2276 1.54932 27.8678 1.54932 27.4247C1.54932 26.9808 1.73147 26.621 1.95613 26.621C2.18086 26.621 2.36301 26.9808 2.36301 27.4247Z" fill="#C22828"/>
<path d="M2.36057 27.4247C2.36057 27.8687 2.17834 28.2276 1.95368 28.2276C1.72903 28.2276 1.54688 27.8678 1.54688 27.4247C1.54688 26.9808 1.72903 26.621 1.95368 26.621C2.17834 26.621 2.36057 26.9808 2.36057 27.4247Z" fill="#C22828"/>
<path d="M2.35788 27.4247C2.35788 27.8687 2.17573 28.2276 1.95107 28.2276C1.72641 28.2276 1.54419 27.8678 1.54419 27.4247C1.54419 26.9808 1.72641 26.621 1.95107 26.621C2.17573 26.621 2.35788 26.9808 2.35788 27.4247Z" fill="#C22828"/>
<path d="M2.35495 27.4247C2.35495 27.8687 2.1728 28.2276 1.94814 28.2276C1.72349 28.2276 1.54126 27.8678 1.54126 27.4247C1.54126 26.9808 1.72349 26.621 1.94814 26.621C2.1728 26.621 2.35495 26.9808 2.35495 27.4247Z" fill="#C22828"/>
<path d="M2.35251 27.4247C2.35251 27.8687 2.17036 28.2276 1.9457 28.2276C1.72097 28.2276 1.53882 27.8678 1.53882 27.4247C1.53882 26.9808 1.72097 26.621 1.9457 26.621C2.17036 26.621 2.35251 26.9808 2.35251 27.4247Z" fill="#C22828"/>
<path d="M2.34861 27.4247C2.34861 27.8687 2.16646 28.2276 1.9418 28.2276C1.71714 28.2276 1.53491 27.8678 1.53491 27.4247C1.53491 26.9808 1.71714 26.621 1.9418 26.621C2.16646 26.621 2.34861 26.9808 2.34861 27.4247Z" fill="#C22828"/>
<path d="M2.3469 27.4247C2.3469 27.8687 2.16475 28.2276 1.94001 28.2276C1.71535 28.2276 1.5332 27.8678 1.5332 27.4247C1.5332 26.9808 1.71535 26.621 1.94001 26.621C2.16475 26.621 2.3469 26.9808 2.3469 27.4247Z" fill="#C22828"/>
<path d="M2.3447 27.4247C2.3447 27.8687 2.16247 28.2276 1.93781 28.2276C1.71316 28.2276 1.53101 27.8678 1.53101 27.4247C1.53101 26.9808 1.71316 26.621 1.93781 26.621C2.16247 26.621 2.3447 26.9808 2.3447 27.4247Z" fill="#C22828"/>
<path d="M1.82952 26.621C1.82346 26.621 1.81822 26.6219 1.81216 26.6227C1.80609 26.6219 1.80086 26.621 1.7948 26.621C1.78873 26.621 1.78349 26.6219 1.77743 26.6227C1.77137 26.6219 1.76613 26.621 1.76007 26.621C1.75401 26.621 1.74885 26.6219 1.74278 26.6227C1.73665 26.6219 1.73148 26.621 1.72542 26.621C1.71936 26.621 1.71412 26.6219 1.70806 26.6227C1.702 26.6219 1.69676 26.621 1.6907 26.621C1.68464 26.621 1.6794 26.6219 1.67334 26.6227C1.66727 26.6219 1.66204 26.621 1.65597 26.621C1.64991 26.621 1.64475 26.6219 1.63861 26.6227C1.63255 26.6219 1.62739 26.621 1.62133 26.621C1.61526 26.621 1.61002 26.6219 1.60396 26.6227C1.5979 26.6219 1.59266 26.621 1.5866 26.621C1.58054 26.621 1.5753 26.6219 1.56924 26.6227C1.56318 26.6219 1.55794 26.621 1.55188 26.621C1.54582 26.621 1.54065 26.6219 1.53451 26.6227C1.52845 26.6219 1.52329 26.621 1.51723 26.621C1.51117 26.621 1.50593 26.6219 1.49987 26.6227C1.4938 26.6219 1.48856 26.621 1.4825 26.621C1.47644 26.621 1.4712 26.6219 1.46514 26.6227C1.45908 26.6219 1.45384 26.621 1.44778 26.621C1.44172 26.621 1.43655 26.6219 1.43042 26.6227C1.42436 26.6219 1.41919 26.621 1.41313 26.621C1.40699 26.621 1.40183 26.6219 1.39577 26.6227C1.38971 26.6219 1.38447 26.621 1.37841 26.621C1.37235 26.621 1.36711 26.6219 1.36104 26.6227C1.35498 26.6219 1.34974 26.621 1.34368 26.621C1.33762 26.621 1.33246 26.6219 1.32632 26.6227C1.32026 26.6219 1.31509 26.621 1.30903 26.621C1.3029 26.621 1.29773 26.6219 1.29167 26.6227C1.28561 26.6219 1.28037 26.621 1.27431 26.621C1.26825 26.621 1.26301 26.6219 1.25695 26.6227C1.25089 26.6219 1.24565 26.621 1.23958 26.621C1.23352 26.621 1.22836 26.6219 1.22222 26.6227C1.21616 26.6219 1.211 26.621 1.20494 26.621C1.1988 26.621 1.19364 26.6219 1.18757 26.6227C1.18151 26.6219 1.17627 26.621 1.17021 26.621C1.16415 26.621 1.15891 26.6219 1.15285 26.6227C1.14679 26.6219 1.14155 26.621 1.13549 26.621C1.12943 26.621 1.12426 26.6219 1.11813 26.6227C1.11206 26.6219 1.1069 26.621 1.10084 26.621C1.0947 26.621 1.08954 26.6219 1.08348 26.6227C1.07742 26.6219 1.07218 26.621 1.06611 26.621C1.06005 26.621 1.05482 26.6219 1.04875 26.6227C1.04269 26.6219 1.03745 26.621 1.03139 26.621C1.02533 26.621 1.02017 26.6219 1.01403 26.6227C1.00797 26.6219 1.0028 26.621 0.996742 26.621C0.990606 26.621 0.985441 26.6219 0.97938 26.6227C0.973318 26.6219 0.96808 26.621 0.962018 26.621C0.955957 26.621 0.950717 26.6219 0.944656 26.6227C0.938594 26.6219 0.933356 26.621 0.927294 26.621C0.921233 26.621 0.916068 26.6219 0.909932 26.6227C0.90387 26.6219 0.898706 26.621 0.892644 26.621C0.886508 26.621 0.881345 26.6219 0.875283 26.6227C0.869221 26.6219 0.863982 26.621 0.85792 26.621C0.851859 26.621 0.846621 26.6219 0.840559 26.6227C0.834497 26.6219 0.82926 26.621 0.823198 26.621C0.817136 26.621 0.811972 26.6219 0.805835 26.6227C0.799773 26.6219 0.79461 26.621 0.788548 26.621C0.782411 26.621 0.777247 26.6219 0.771185 26.6227C0.765124 26.6219 0.759886 26.621 0.753824 26.621C0.747762 26.621 0.742524 26.6219 0.736463 26.6227C0.730401 26.6219 0.725162 26.621 0.7191 26.621C0.713038 26.621 0.707875 26.6219 0.701739 26.6227C0.695677 26.6219 0.690513 26.621 0.684452 26.621C0.678315 26.621 0.673151 26.6219 0.667089 26.6227C0.661027 26.6219 0.655789 26.621 0.649728 26.621C0.643666 26.621 0.638427 26.6219 0.632365 26.6227C0.626303 26.6219 0.621065 26.621 0.615004 26.621C0.608942 26.621 0.603703 26.6219 0.597641 26.6227C0.591579 26.6219 0.586416 26.621 0.580354 26.621C0.574217 26.621 0.569054 26.6219 0.562993 26.6227C0.556931 26.6219 0.551691 26.621 0.54563 26.621C0.539568 26.621 0.53433 26.6219 0.528268 26.6227C0.522207 26.6219 0.516967 26.621 0.510906 26.621C0.504844 26.621 0.499606 26.6219 0.493544 26.6227C0.487483 26.6219 0.482318 26.621 0.476182 26.621C0.47012 26.621 0.464956 26.6219 0.458895 26.6227C0.452833 26.6219 0.447595 26.621 0.441533 26.621C0.435472 26.621 0.430232 26.6219 0.424171 26.6227C0.418109 26.6219 0.412871 26.621 0.406809 26.621C0.182151 26.621 0 26.9808 0 27.4247C0 27.8687 0.182151 28.2276 0.406809 28.2276C0.412871 28.2276 0.418109 28.2268 0.424171 28.2259C0.430232 28.2268 0.435472 28.2276 0.441533 28.2276C0.447595 28.2276 0.452833 28.2268 0.458895 28.2259C0.464956 28.2268 0.47012 28.2276 0.476182 28.2276C0.482318 28.2276 0.487483 28.2268 0.493544 28.2259C0.499606 28.2268 0.504844 28.2276 0.510906 28.2276C0.516967 28.2276 0.522207 28.2268 0.528268 28.2259C0.53433 28.2268 0.539568 28.2276 0.54563 28.2276C0.551691 28.2276 0.556931 28.2268 0.562993 28.2259C0.569054 28.2268 0.574217 28.2276 0.580354 28.2276C0.586416 28.2276 0.591579 28.2268 0.597641 28.2259C0.603703 28.2268 0.608942 28.2276 0.615004 28.2276C0.621065 28.2276 0.626303 28.2268 0.632365 28.2259C0.638427 28.2268 0.643666 28.2276 0.649728 28.2276C0.655789 28.2276 0.661027 28.2268 0.667089 28.2259C0.673151 28.2268 0.678315 28.2276 0.684452 28.2276C0.690513 28.2276 0.695677 28.2268 0.701739 28.2259C0.707875 28.2268 0.713038 28.2276 0.7191 28.2276C0.725162 28.2276 0.730401 28.2268 0.736463 28.2259C0.742524 28.2268 0.747762 28.2276 0.753824 28.2276C0.759886 28.2276 0.765124 28.2268 0.771185 28.2259C0.777247 28.2268 0.782411 28.2276 0.788548 28.2276C0.79461 28.2276 0.799773 28.2268 0.805835 28.2259C0.811972 28.2268 0.817136 28.2276 0.823198 28.2276C0.82926 28.2276 0.834497 28.2268 0.840559 28.2259C0.846621 28.2268 0.851859 28.2276 0.85792 28.2276C0.863982 28.2276 0.869221 28.2268 0.875283 28.2259C0.881345 28.2268 0.886508 28.2276 0.892644 28.2276C0.898706 28.2276 0.90387 28.2268 0.909932 28.2259C0.916068 28.2268 0.921233 28.2276 0.927294 28.2276C0.933356 28.2276 0.938594 28.2268 0.944656 28.2259C0.950717 28.2268 0.955957 28.2276 0.962018 28.2276C0.96808 28.2276 0.973318 28.2268 0.97938 28.2259C0.985441 28.2268 0.990606 28.2276 0.996742 28.2276C1.0028 28.2276 1.00797 28.2268 1.01403 28.2259C1.02017 28.2268 1.02533 28.2276 1.03139 28.2276C1.03745 28.2276 1.04269 28.2268 1.04875 28.2259C1.05482 28.2268 1.06005 28.2276 1.06611 28.2276C1.07218 28.2276 1.07742 28.2268 1.08348 28.2259C1.08954 28.2268 1.0947 28.2276 1.10084 28.2276C1.1069 28.2276 1.11206 28.2268 1.11813 28.2259C1.12426 28.2268 1.12943 28.2276 1.13549 28.2276C1.14155 28.2276 1.14679 28.2268 1.15285 28.2259C1.15891 28.2268 1.16415 28.2276 1.17021 28.2276C1.17627 28.2276 1.18151 28.2268 1.18757 28.2259C1.19364 28.2268 1.1988 28.2276 1.20494 28.2276C1.211 28.2276 1.21616 28.2268 1.22222 28.2259C1.22836 28.2268 1.23352 28.2276 1.23958 28.2276C1.24565 28.2276 1.25089 28.2268 1.25695 28.2259C1.26301 28.2268 1.26825 28.2276 1.27431 28.2276C1.28037 28.2276 1.28561 28.2268 1.29167 28.2259C1.29773 28.2268 1.3029 28.2276 1.30903 28.2276C1.31509 28.2276 1.32026 28.2268 1.32632 28.2259C1.33246 28.2268 1.33762 28.2276 1.34368 28.2276C1.34974 28.2276 1.35498 28.2268 1.36104 28.2259C1.36711 28.2268 1.37235 28.2276 1.37841 28.2276C1.38447 28.2276 1.38971 28.2268 1.39577 28.2259C1.40183 28.2268 1.40699 28.2276 1.41313 28.2276C1.41919 28.2276 1.42436 28.2268 1.43042 28.2259C1.43655 28.2268 1.44172 28.2276 1.44778 28.2276C1.45384 28.2276 1.45908 28.2268 1.46514 28.2259C1.4712 28.2268 1.47644 28.2276 1.4825 28.2276C1.48856 28.2276 1.4938 28.2268 1.49987 28.2259C1.50593 28.2268 1.51117 28.2276 1.51723 28.2276C1.52329 28.2276 1.52845 28.2268 1.53451 28.2259C1.54065 28.2268 1.54582 28.2276 1.55188 28.2276C1.55794 28.2276 1.56318 28.2268 1.56924 28.2259C1.5753 28.2268 1.58054 28.2276 1.5866 28.2276C1.59266 28.2276 1.5979 28.2268 1.60396 28.2259C1.61002 28.2268 1.61526 28.2276 1.62133 28.2276C1.62739 28.2276 1.63255 28.2268 1.63861 28.2259C1.64475 28.2268 1.64991 28.2276 1.65597 28.2276C1.66204 28.2276 1.66727 28.2268 1.67334 28.2259C1.6794 28.2268 1.68464 28.2276 1.6907 28.2276C1.69676 28.2276 1.702 28.2268 1.70806 28.2259C1.71412 28.2268 1.71936 28.2276 1.72542 28.2276C1.73148 28.2276 1.73665 28.2268 1.74278 28.2259C1.74885 28.2268 1.75401 28.2276 1.76007 28.2276C1.76613 28.2276 1.77137 28.2268 1.77743 28.2259C1.78349 28.2268 1.78873 28.2276 1.7948 28.2276C1.80086 28.2276 1.80609 28.2268 1.81216 28.2259C1.81822 28.2268 1.82346 28.2276 1.82952 28.2276C2.05418 28.2276 2.23633 27.8678 2.23633 27.4247C2.23551 26.9808 2.05418 26.621 1.82952 26.621Z" fill="#92D5E3"/>
<path d="M20.1221 31.024C20.1239 31.018 20.1264 31.0119 20.1282 31.0059C20.13 30.9998 20.1326 30.9937 20.1343 30.9876C20.136 30.9815 20.1386 30.9755 20.1404 30.9694C20.1421 30.9634 20.1447 30.9573 20.1464 30.9512C20.1481 30.9451 20.1508 30.9391 20.1525 30.933C20.1542 30.9269 20.1568 30.9209 20.1585 30.9148C20.1603 30.9087 20.1629 30.9026 20.1646 30.8966C20.1664 30.8905 20.1689 30.8844 20.1707 30.8784C20.1725 30.8723 20.1751 30.8662 20.1768 30.8601C20.1785 30.8541 20.1811 30.848 20.1829 30.842C20.1846 30.8359 20.1872 30.8298 20.1889 30.8237C20.1906 30.8177 20.1933 30.8116 20.195 30.8055C20.1967 30.7995 20.1993 30.7934 20.201 30.7874C20.2028 30.7812 20.2054 30.7752 20.2071 30.7691C20.2089 30.763 20.2115 30.757 20.2132 30.7509C20.215 30.7449 20.2176 30.7387 20.2193 30.7327C20.221 30.7266 20.2236 30.7206 20.2254 30.7145C20.2271 30.7084 20.2297 30.7024 20.2314 30.6962C20.2332 30.6902 20.2358 30.6841 20.2375 30.6781C20.2392 30.672 20.2418 30.666 20.2436 30.6599C20.2454 30.6538 20.2479 30.6477 20.2496 30.6416C20.2514 30.6356 20.254 30.6295 20.2558 30.6235C20.2575 30.6174 20.2601 30.6113 20.2618 30.6052C20.2635 30.5992 20.2662 30.5931 20.2679 30.587C20.2696 30.581 20.2722 30.5749 20.2739 30.5688C20.2757 30.5627 20.2783 30.5567 20.28 30.5506C20.2817 30.5445 20.2843 30.5385 20.2861 30.5324C20.2879 30.5263 20.2904 30.5202 20.2921 30.5142C20.398 30.2168 20.372 29.902 20.1421 29.5804C20.1013 29.5153 20.0553 29.4503 19.9998 29.3836C19.9027 29.2933 19.809 29.224 19.717 29.1711C19.4186 28.9829 19.1358 29.0029 18.8608 29.1234C18.4027 29.315 17.9795 29.7849 17.5153 30.0425C16.0884 30.855 14.1824 30.5549 13.046 29.3783C12.3399 28.6812 11.3917 29.1728 11.1627 29.8882C11.161 29.8933 11.1593 29.8986 11.1575 29.9038C11.1549 29.9099 11.1532 29.9159 11.1514 29.922C11.1489 29.928 11.1471 29.9341 11.1454 29.9402C11.1428 29.9463 11.141 29.9523 11.1393 29.9584C11.1367 29.9645 11.135 29.9705 11.1332 29.9766C11.1306 29.9826 11.1289 29.9888 11.1272 29.9948C11.1245 30.0009 11.1228 30.0069 11.1211 30.013C11.1185 30.0191 11.1168 30.0251 11.115 30.0313C11.1124 30.0373 11.1107 30.0434 11.1089 30.0494C11.1064 30.0555 11.1046 30.0616 11.1028 30.0676C11.1003 30.0737 11.0985 30.0798 11.0968 30.0859C11.0942 30.0919 11.0924 30.098 11.0907 30.104C11.0881 30.1101 11.0864 30.1162 11.0847 30.1223C11.082 30.1284 11.0803 30.1344 11.0786 30.1405C11.076 30.1465 11.0743 30.1526 11.0725 30.1587C11.0699 30.1648 11.0682 30.1708 11.0664 30.1769C11.0639 30.183 11.0621 30.189 11.0603 30.1951C11.0578 30.2012 11.056 30.2073 11.0543 30.2133C11.0517 30.2194 11.0499 30.2254 11.0482 30.2315C11.0456 30.2376 11.0439 30.2437 11.0422 30.2498C11.0395 30.2558 11.0378 30.2619 11.0361 30.2679C11.0335 30.274 11.0318 30.2801 11.03 30.2862C11.0274 30.2922 11.0257 30.2983 11.0239 30.3044C11.0213 30.3104 11.0196 30.3165 11.0178 30.3225C11.0153 30.3287 11.0135 30.3347 11.0118 30.3408C11.0092 30.3468 11.0074 30.3529 11.0057 30.359C11.0031 30.365 11.0014 30.3712 10.9996 30.3772C10.9987 30.3798 10.9979 30.3824 10.9962 30.3859C10.8548 30.7492 10.8982 31.1801 11.2625 31.5452C12.0944 32.3698 13.1571 32.9585 14.3056 33.1987C15.4603 33.4398 16.6791 33.3314 17.7738 32.8909C18.2805 32.6637 19.0317 32.2865 19.5513 31.807C19.8185 31.5677 20.0285 31.3033 20.1221 31.024Z" fill="#116C7E"/>
<path d="M12.0027 21.8815C12.0001 21.8815 11.9966 21.8815 11.994 21.8815C11.9914 21.8815 11.9879 21.8815 11.9853 21.8815C11.9827 21.8815 11.9793 21.8815 11.9767 21.8815C11.974 21.8815 11.9706 21.8815 11.968 21.8815C11.9654 21.8815 11.9619 21.8815 11.9593 21.8815C11.9567 21.8815 11.9532 21.8815 11.9506 21.8815C11.948 21.8815 11.9446 21.8815 11.9419 21.8815C11.9393 21.8815 11.9359 21.8815 11.9333 21.8815C11.9306 21.8815 11.9272 21.8815 11.9246 21.8815C11.922 21.8815 11.9185 21.8815 11.9159 21.8815C11.9134 21.8815 11.9098 21.8815 11.9072 21.8815C11.9047 21.8815 11.9012 21.8815 11.8985 21.8815C11.896 21.8815 11.8925 21.8815 11.8899 21.8815C11.8873 21.8815 11.8838 21.8815 11.8812 21.8815C11.8786 21.8815 11.8752 21.8815 11.8726 21.8815C11.8699 21.8815 11.8665 21.8815 11.8639 21.8815C11.8613 21.8815 11.8578 21.8815 11.8552 21.8815C11.8526 21.8815 11.8491 21.8815 11.8465 21.8815C11.8439 21.8815 11.8405 21.8815 11.8378 21.8815C11.8352 21.8815 11.8318 21.8815 11.8292 21.8815C11.8265 21.8815 11.8231 21.8815 11.8205 21.8815C11.8179 21.8815 11.8144 21.8815 11.8118 21.8815C11.8093 21.8815 11.8057 21.8815 11.8031 21.8815C11.8006 21.8815 11.7971 21.8815 11.7944 21.8815C11.7919 21.8815 11.7884 21.8815 11.7858 21.8815C11.7832 21.8815 11.7797 21.8815 11.7771 21.8815C11.7745 21.8815 11.771 21.8815 11.7685 21.8815C11.7658 21.8815 11.7624 21.8815 11.7598 21.8815C11.7572 21.8815 11.7537 21.8815 11.7511 21.8815C11.7485 21.8815 11.745 21.8815 11.7424 21.8815C11.7398 21.8815 11.7364 21.8815 11.7337 21.8815C11.7311 21.8815 11.7277 21.8815 11.7251 21.8815C11.7224 21.8815 11.719 21.8815 11.7164 21.8815C11.7138 21.8815 11.7103 21.8815 11.7077 21.8815C11.7052 21.8815 11.7016 21.8815 11.699 21.8815C11.6965 21.8815 11.693 21.8815 11.6903 21.8815C11.6878 21.8815 11.6843 21.8815 11.6817 21.8815C11.6791 21.8815 11.6756 21.8815 11.6731 21.8815C11.6704 21.8815 11.6669 21.8815 11.6644 21.8815C11.6618 21.8815 11.6583 21.8815 11.6557 21.8815C11.6531 21.8815 11.6496 21.8815 11.647 21.8815C11.6444 21.8815 11.6409 21.8815 11.6383 21.8815C11.6357 21.8815 11.6323 21.8815 11.6296 21.8815C11.627 21.8815 11.6236 21.8815 11.621 21.8815C11.6183 21.8815 11.6149 21.8815 11.6123 21.8815C11.6097 21.8815 11.6062 21.8815 11.6036 21.8815C11.6011 21.8815 11.5975 21.8815 11.5949 21.8815C11.5924 21.8815 11.5889 21.8815 11.5862 21.8815C11.5837 21.8815 11.5802 21.8815 11.5776 21.8815C11.575 21.8815 11.5715 21.8815 11.569 21.8815C11.5663 21.8815 11.5628 21.8815 11.5603 21.8815C11.5577 21.8815 11.5542 21.8815 11.5516 21.8815C11.549 21.8815 11.5455 21.8815 11.5429 21.8815C11.5403 21.8815 11.5368 21.8815 11.5342 21.8815C11.5316 21.8815 11.5282 21.8815 11.5256 21.8815C11.5229 21.8815 11.5195 21.8815 11.5169 21.8815C11.5142 21.8815 11.5108 21.8815 11.5082 21.8815C11.5056 21.8815 11.5021 21.8815 11.4995 21.8815C11.4969 21.8815 11.4934 21.8815 11.4908 21.8815C11.4883 21.8815 11.4848 21.8815 11.4821 21.8815C11.4796 21.8815 11.4761 21.8815 11.4735 21.8815C11.4709 21.8815 11.4674 21.8815 11.4649 21.8815C10.0369 21.8815 8.88062 23.0382 8.88062 24.4636C8.88062 25.8891 10.0378 27.0459 11.4649 27.0459C11.4674 27.0459 11.4709 27.0459 11.4735 27.0459C11.4761 27.0459 11.4796 27.0459 11.4821 27.0459C11.4848 27.0459 11.4883 27.0459 11.4908 27.0459C11.4934 27.0459 11.4969 27.0459 11.4995 27.0459C11.5021 27.0459 11.5056 27.0459 11.5082 27.0459C11.5108 27.0459 11.5142 27.0459 11.5169 27.0459C11.5195 27.0459 11.5229 27.0459 11.5256 27.0459C11.5282 27.0459 11.5316 27.0459 11.5342 27.0459C11.5368 27.0459 11.5403 27.0459 11.5429 27.0459C11.5455 27.0459 11.549 27.0459 11.5516 27.0459C11.5542 27.0459 11.5577 27.0459 11.5603 27.0459C11.5628 27.0459 11.5663 27.0459 11.569 27.0459C11.5715 27.0459 11.575 27.0459 11.5776 27.0459C11.5802 27.0459 11.5837 27.0459 11.5862 27.0459C11.5889 27.0459 11.5924 27.0459 11.5949 27.0459C11.5975 27.0459 11.6011 27.0459 11.6036 27.0459C11.6062 27.0459 11.6097 27.0459 11.6123 27.0459C11.6149 27.0459 11.6183 27.0459 11.621 27.0459C11.6236 27.0459 11.627 27.0459 11.6296 27.0459C11.6323 27.0459 11.6357 27.0459 11.6383 27.0459C11.6409 27.0459 11.6444 27.0459 11.647 27.0459C11.6496 27.0459 11.6531 27.0459 11.6557 27.0459C11.6583 27.0459 11.6618 27.0459 11.6644 27.0459C11.6669 27.0459 11.6704 27.0459 11.6731 27.0459C11.6756 27.0459 11.6791 27.0459 11.6817 27.0459C11.6843 27.0459 11.6878 27.0459 11.6903 27.0459C11.693 27.0459 11.6965 27.0459 11.699 27.0459C11.7016 27.0459 11.7052 27.0459 11.7077 27.0459C11.7103 27.0459 11.7138 27.0459 11.7164 27.0459C11.719 27.0459 11.7224 27.0459 11.7251 27.0459C11.7277 27.0459 11.7311 27.0459 11.7337 27.0459C11.7364 27.0459 11.7398 27.0459 11.7424 27.0459C11.745 27.0459 11.7485 27.0459 11.7511 27.0459C11.7537 27.0459 11.7572 27.0459 11.7598 27.0459C11.7624 27.0459 11.7658 27.0459 11.7685 27.0459C11.771 27.0459 11.7745 27.0459 11.7771 27.0459C11.7797 27.0459 11.7832 27.0459 11.7858 27.0459C11.7884 27.0459 11.7919 27.0459 11.7944 27.0459C11.7971 27.0459 11.8006 27.0459 11.8031 27.0459C11.8057 27.0459 11.8093 27.0459 11.8118 27.0459C11.8144 27.0459 11.8179 27.0459 11.8205 27.0459C11.8231 27.0459 11.8265 27.0459 11.8292 27.0459C11.8318 27.0459 11.8352 27.0459 11.8378 27.0459C11.8405 27.0459 11.8439 27.0459 11.8465 27.0459C11.8491 27.0459 11.8526 27.0459 11.8552 27.0459C11.8578 27.0459 11.8613 27.0459 11.8639 27.0459C11.8665 27.0459 11.8699 27.0459 11.8726 27.0459C11.8752 27.0459 11.8786 27.0459 11.8812 27.0459C11.8838 27.0459 11.8873 27.0459 11.8899 27.0459C11.8925 27.0459 11.896 27.0459 11.8985 27.0459C11.9012 27.0459 11.9047 27.0459 11.9072 27.0459C11.9098 27.0459 11.9134 27.0459 11.9159 27.0459C11.9185 27.0459 11.922 27.0459 11.9246 27.0459C11.9272 27.0459 11.9306 27.0459 11.9333 27.0459C11.9359 27.0459 11.9393 27.0459 11.9419 27.0459C11.9446 27.0459 11.948 27.0459 11.9506 27.0459C11.9532 27.0459 11.9567 27.0459 11.9593 27.0459C11.9619 27.0459 11.9654 27.0459 11.968 27.0459C11.9706 27.0459 11.974 27.0459 11.9767 27.0459C11.9793 27.0459 11.9827 27.0459 11.9853 27.0459C11.9879 27.0459 11.9914 27.0459 11.994 27.0459C11.9966 27.0459 12.0001 27.0459 12.0027 27.0459C13.4297 27.0459 14.586 25.8891 14.586 24.4636C14.586 23.0382 13.4297 21.8815 12.0027 21.8815Z" fill="#C22828"/>
<path d="M14.5868 24.4636C14.5868 25.89 13.4296 27.0459 12.0034 27.0459C10.5756 27.0459 9.41919 25.8891 9.41919 24.4636C9.41919 23.0382 10.5764 21.8815 12.0034 21.8815C13.4296 21.8815 14.5868 23.0373 14.5868 24.4636Z" fill="#ED332B"/>
<path d="M13.9217 24.4151C13.9217 25.4478 13.0846 26.2845 12.0514 26.2845C11.0183 26.2845 10.1812 25.4478 10.1812 24.4151C10.1812 23.3824 11.0183 22.5457 12.0514 22.5457C13.0846 22.5457 13.9217 23.3832 13.9217 24.4151Z" fill="#92D5E3"/>
<path d="M13.0184 24.4316C13.0184 24.9753 12.5777 25.4149 12.0347 25.4149C11.4916 25.4149 11.0518 24.9753 11.0518 24.4316C11.0518 23.8888 11.4916 23.4492 12.0347 23.4492C12.5777 23.4492 13.0184 23.8888 13.0184 24.4316Z" fill="white"/>
<path d="M19.7136 21.8815C19.711 21.8815 19.7075 21.8815 19.705 21.8815C19.7023 21.8815 19.6989 21.8815 19.6963 21.8815C19.6937 21.8815 19.6902 21.8815 19.6876 21.8815C19.685 21.8815 19.6815 21.8815 19.6789 21.8815C19.6763 21.8815 19.6729 21.8815 19.6702 21.8815C19.6676 21.8815 19.6642 21.8815 19.6616 21.8815C19.6589 21.8815 19.6555 21.8815 19.6529 21.8815C19.6503 21.8815 19.6468 21.8815 19.6442 21.8815C19.6416 21.8815 19.6381 21.8815 19.6355 21.8815C19.633 21.8815 19.6295 21.8815 19.6268 21.8815C19.6243 21.8815 19.6208 21.8815 19.6182 21.8815C19.6156 21.8815 19.6121 21.8815 19.6095 21.8815C19.6069 21.8815 19.6034 21.8815 19.6009 21.8815C19.5982 21.8815 19.5948 21.8815 19.5922 21.8815C19.5896 21.8815 19.5861 21.8815 19.5835 21.8815C19.5809 21.8815 19.5774 21.8815 19.5748 21.8815C19.5722 21.8815 19.5688 21.8815 19.5661 21.8815C19.5635 21.8815 19.5601 21.8815 19.5575 21.8815C19.5548 21.8815 19.5514 21.8815 19.5488 21.8815C19.5462 21.8815 19.5427 21.8815 19.5401 21.8815C19.5375 21.8815 19.534 21.8815 19.5314 21.8815C19.5289 21.8815 19.5254 21.8815 19.5227 21.8815C19.5202 21.8815 19.5167 21.8815 19.5141 21.8815C19.5115 21.8815 19.508 21.8815 19.5054 21.8815C19.5028 21.8815 19.4993 21.8815 19.4968 21.8815C19.4941 21.8815 19.4906 21.8815 19.4881 21.8815C19.4855 21.8815 19.482 21.8815 19.4794 21.8815C19.4768 21.8815 19.4733 21.8815 19.4707 21.8815C19.4681 21.8815 19.4647 21.8815 19.462 21.8815C19.4594 21.8815 19.456 21.8815 19.4534 21.8815C19.4507 21.8815 19.4473 21.8815 19.4447 21.8815C19.4421 21.8815 19.4386 21.8815 19.436 21.8815C19.4334 21.8815 19.4299 21.8815 19.4273 21.8815C19.4248 21.8815 19.4213 21.8815 19.4186 21.8815C19.4161 21.8815 19.4126 21.8815 19.41 21.8815C19.4074 21.8815 19.4039 21.8815 19.4014 21.8815C19.3987 21.8815 19.3952 21.8815 19.3927 21.8815C19.3901 21.8815 19.3865 21.8815 19.384 21.8815C19.3814 21.8815 19.3779 21.8815 19.3753 21.8815C19.3727 21.8815 19.3692 21.8815 19.3666 21.8815C19.364 21.8815 19.3606 21.8815 19.3579 21.8815C19.3553 21.8815 19.3519 21.8815 19.3493 21.8815C19.3466 21.8815 19.3432 21.8815 19.3406 21.8815C19.338 21.8815 19.3345 21.8815 19.3319 21.8815C19.3293 21.8815 19.3258 21.8815 19.3232 21.8815C19.3207 21.8815 19.3172 21.8815 19.3145 21.8815C19.312 21.8815 19.3085 21.8815 19.3059 21.8815C19.3033 21.8815 19.2998 21.8815 19.2973 21.8815C19.2946 21.8815 19.2911 21.8815 19.2886 21.8815C19.286 21.8815 19.2824 21.8815 19.2799 21.8815C19.2773 21.8815 19.2738 21.8815 19.2712 21.8815C19.2686 21.8815 19.2651 21.8815 19.2625 21.8815C19.2599 21.8815 19.2565 21.8815 19.2538 21.8815C19.2512 21.8815 19.2478 21.8815 19.2452 21.8815C19.2425 21.8815 19.2391 21.8815 19.2365 21.8815C19.2339 21.8815 19.2304 21.8815 19.2278 21.8815C19.2252 21.8815 19.2217 21.8815 19.2191 21.8815C19.2166 21.8815 19.2131 21.8815 19.2104 21.8815C19.2079 21.8815 19.2044 21.8815 19.2018 21.8815C19.1992 21.8815 19.1957 21.8815 19.1932 21.8815C19.1905 21.8815 19.187 21.8815 19.1845 21.8815C19.1819 21.8815 19.1783 21.8815 19.1758 21.8815C17.7479 21.8815 16.5916 23.0382 16.5916 24.4636C16.5916 25.8891 17.7487 27.0459 19.1758 27.0459C19.1783 27.0459 19.1819 27.0459 19.1845 27.0459C19.187 27.0459 19.1905 27.0459 19.1932 27.0459C19.1957 27.0459 19.1992 27.0459 19.2018 27.0459C19.2044 27.0459 19.2079 27.0459 19.2104 27.0459C19.2131 27.0459 19.2166 27.0459 19.2191 27.0459C19.2217 27.0459 19.2252 27.0459 19.2278 27.0459C19.2304 27.0459 19.2339 27.0459 19.2365 27.0459C19.2391 27.0459 19.2425 27.0459 19.2452 27.0459C19.2478 27.0459 19.2512 27.0459 19.2538 27.0459C19.2565 27.0459 19.2599 27.0459 19.2625 27.0459C19.2651 27.0459 19.2686 27.0459 19.2712 27.0459C19.2738 27.0459 19.2773 27.0459 19.2799 27.0459C19.2824 27.0459 19.286 27.0459 19.2886 27.0459C19.2911 27.0459 19.2946 27.0459 19.2973 27.0459C19.2998 27.0459 19.3033 27.0459 19.3059 27.0459C19.3085 27.0459 19.312 27.0459 19.3145 27.0459C19.3172 27.0459 19.3207 27.0459 19.3232 27.0459C19.3258 27.0459 19.3293 27.0459 19.3319 27.0459C19.3345 27.0459 19.338 27.0459 19.3406 27.0459C19.3432 27.0459 19.3466 27.0459 19.3493 27.0459C19.3519 27.0459 19.3553 27.0459 19.3579 27.0459C19.3606 27.0459 19.364 27.0459 19.3666 27.0459C19.3692 27.0459 19.3727 27.0459 19.3753 27.0459C19.3779 27.0459 19.3814 27.0459 19.384 27.0459C19.3865 27.0459 19.3901 27.0459 19.3927 27.0459C19.3952 27.0459 19.3987 27.0459 19.4014 27.0459C19.4039 27.0459 19.4074 27.0459 19.41 27.0459C19.4126 27.0459 19.4161 27.0459 19.4186 27.0459C19.4213 27.0459 19.4248 27.0459 19.4273 27.0459C19.4299 27.0459 19.4334 27.0459 19.436 27.0459C19.4386 27.0459 19.4421 27.0459 19.4447 27.0459C19.4473 27.0459 19.4507 27.0459 19.4534 27.0459C19.456 27.0459 19.4594 27.0459 19.462 27.0459C19.4647 27.0459 19.4681 27.0459 19.4707 27.0459C19.4733 27.0459 19.4768 27.0459 19.4794 27.0459C19.482 27.0459 19.4855 27.0459 19.4881 27.0459C19.4906 27.0459 19.4941 27.0459 19.4968 27.0459C19.4993 27.0459 19.5028 27.0459 19.5054 27.0459C19.508 27.0459 19.5115 27.0459 19.5141 27.0459C19.5167 27.0459 19.5202 27.0459 19.5227 27.0459C19.5254 27.0459 19.5289 27.0459 19.5314 27.0459C19.534 27.0459 19.5375 27.0459 19.5401 27.0459C19.5427 27.0459 19.5462 27.0459 19.5488 27.0459C19.5514 27.0459 19.5548 27.0459 19.5575 27.0459C19.5601 27.0459 19.5635 27.0459 19.5661 27.0459C19.5688 27.0459 19.5722 27.0459 19.5748 27.0459C19.5774 27.0459 19.5809 27.0459 19.5835 27.0459C19.5861 27.0459 19.5896 27.0459 19.5922 27.0459C19.5948 27.0459 19.5982 27.0459 19.6009 27.0459C19.6034 27.0459 19.6069 27.0459 19.6095 27.0459C19.6121 27.0459 19.6156 27.0459 19.6182 27.0459C19.6208 27.0459 19.6243 27.0459 19.6268 27.0459C19.6295 27.0459 19.633 27.0459 19.6355 27.0459C19.6381 27.0459 19.6416 27.0459 19.6442 27.0459C19.6468 27.0459 19.6503 27.0459 19.6529 27.0459C19.6555 27.0459 19.6589 27.0459 19.6616 27.0459C19.6642 27.0459 19.6676 27.0459 19.6702 27.0459C19.6729 27.0459 19.6763 27.0459 19.6789 27.0459C19.6815 27.0459 19.685 27.0459 19.6876 27.0459C19.6902 27.0459 19.6937 27.0459 19.6963 27.0459C19.6989 27.0459 19.7023 27.0459 19.705 27.0459C19.7075 27.0459 19.711 27.0459 19.7136 27.0459C21.1406 27.0459 22.297 25.8891 22.297 24.4636C22.297 23.0382 21.1406 21.8815 19.7136 21.8815Z" fill="#C22828"/>
<path d="M22.2971 24.4636C22.2971 25.89 21.1398 27.0459 19.7136 27.0459C18.2858 27.0459 17.1294 25.8891 17.1294 24.4636C17.1294 23.0382 18.2867 21.8815 19.7136 21.8815C21.1407 21.8815 22.2971 23.0373 22.2971 24.4636Z" fill="#ED332B"/>
<path d="M21.6326 24.4151C21.6326 25.4478 20.7955 26.2845 19.7624 26.2845C18.7292 26.2845 17.8921 25.4478 17.8921 24.4151C17.8921 23.3824 18.7292 22.5457 19.7624 22.5457C20.7955 22.5457 21.6326 23.3832 21.6326 24.4151Z" fill="#92D5E3"/>
<path d="M20.7293 24.4316C20.7293 24.9753 20.2886 25.4149 19.7456 25.4149C19.2025 25.4149 18.7627 24.9753 18.7627 24.4316C18.7627 23.8888 19.2025 23.4492 19.7456 23.4492C20.2886 23.4492 20.7293 23.8888 20.7293 24.4316Z" fill="white"/>
<path d="M20.0069 29.3835C19.031 28.4765 18.3405 29.5881 17.5224 30.0425C16.0954 30.855 14.1895 30.5549 13.0531 29.3783C12.0026 28.3421 10.4143 29.9341 11.4596 30.9806C12.2914 31.8053 13.3541 32.394 14.5027 32.6342C15.6573 32.8753 16.8761 32.7669 17.9709 32.3264C19.0249 31.8538 21.1459 30.7318 20.0069 29.3835Z" fill="#ED332B"/>
<path d="M12.2688 30.5775C12.196 30.5125 12.1222 30.4431 12.052 30.3737L12.4501 29.9731C12.5134 30.0364 12.5794 30.098 12.6445 30.1561L12.2688 30.5775Z" fill="white"/>
<path d="M15.5737 31.9051C15.3725 31.8989 15.1695 31.8808 14.97 31.8513L15.0532 31.2929C15.2302 31.3189 15.4115 31.3354 15.5902 31.3406L15.5737 31.9051ZM15.8774 31.9051L15.8608 31.3406C16.0395 31.3354 16.2209 31.3189 16.3979 31.2929L16.4812 31.8513C16.2816 31.8808 16.0786 31.8989 15.8774 31.9051ZM14.6715 31.7984C14.4746 31.7567 14.2777 31.703 14.0868 31.6389L14.2673 31.1039C14.4373 31.1611 14.6126 31.2088 14.7878 31.2461L14.6715 31.7984ZM16.7795 31.7975L16.6633 31.2444C16.8385 31.2079 17.0138 31.1594 17.1838 31.1022L17.3642 31.6371C17.1725 31.703 16.9764 31.7567 16.7795 31.7975ZM13.8023 31.5339C13.6158 31.4585 13.4319 31.3718 13.255 31.2747L13.5265 30.7787C13.6844 30.8645 13.8483 30.9426 14.014 31.0093L13.8023 31.5339ZM17.6478 31.5331L17.4362 31.0093C17.6019 30.9426 17.7659 30.8645 17.9238 30.7787L18.1953 31.2747C18.0183 31.3709 17.8344 31.4585 17.6478 31.5331ZM18.4564 31.1212L18.1571 30.6417C18.3089 30.5472 18.4573 30.4423 18.5977 30.3295L18.95 30.7718C18.7921 30.8983 18.6255 31.0154 18.4564 31.1212ZM12.9938 31.1212C12.8238 31.0154 12.6573 30.8975 12.5002 30.7718L12.8524 30.3295C12.9938 30.4414 13.1422 30.5472 13.294 30.6417L12.9938 31.1212Z" fill="white"/>
<path d="M19.1819 30.5775L18.8054 30.1561C18.8714 30.0972 18.9373 30.0356 18.9997 29.9731L19.3979 30.3737C19.3285 30.4431 19.2556 30.5116 19.1819 30.5775Z" fill="white"/>
<path fill-rule="evenodd" clip-rule="evenodd" d="M34.5941 29.4737C36.7361 30.5515 39.1377 31.1338 41.6363 31.1338C47.1699 31.1338 52.2778 28.215 55.0749 23.3503C57.8721 18.5465 57.8721 12.6481 55.0749 7.78344C52.2778 2.9796 47.1699 0 41.6363 0C36.042 0 30.9341 2.9796 28.1369 7.78344C25.3398 12.6481 25.3398 18.5465 28.1369 23.3503C28.5057 23.9916 28.9145 24.599 29.3594 25.1704C29.2066 26.4939 28.7061 27.6568 28.1533 28.5157C28.0616 28.6493 27.9738 28.7792 27.89 28.9031L27.8899 28.9033C27.653 29.2535 27.4481 29.5566 27.2752 29.7666L26.9824 30.0509C26.9601 30.0726 26.9462 30.0943 26.9344 30.1129C26.9153 30.1429 26.9015 30.1646 26.8653 30.1646C26.6312 30.4489 26.5141 30.8469 26.6897 31.1881C26.8068 31.5292 27.1581 31.6998 27.5679 31.6998C29.2072 31.6998 30.905 31.2449 32.3101 30.6195C33.1749 30.2543 33.9672 29.8423 34.5941 29.4737ZM37.7446 21.8909C37.7446 21.1004 38.3527 20.4315 39.204 20.4315H40.6634V16.5398H39.204C38.3527 16.5398 37.7446 15.9317 37.7446 15.0804C37.7446 14.2899 38.3527 13.621 39.204 13.621H42.1228C42.9133 13.621 43.5822 14.2899 43.5822 15.0804V20.4315H44.0687C44.8592 20.4315 45.5281 21.1004 45.5281 21.8909C45.5281 22.7422 44.8592 23.3503 44.0687 23.3503H39.204C38.3527 23.3503 37.7446 22.7422 37.7446 21.8909ZM39.6905 9.7293C39.6905 8.69556 40.5418 7.78344 41.6363 7.78344C42.6701 7.78344 43.5822 8.69556 43.5822 9.7293C43.5822 10.8238 42.6701 11.6752 41.6363 11.6752C40.5418 11.6752 39.6905 10.8238 39.6905 9.7293Z" fill="#116C7E"/>
</svg>
