<svg width="133" height="127" viewBox="0 0 133 127" fill="none" xmlns="http://www.w3.org/2000/svg">
<path d="M0 78.5C0 51.7871 21.5977 30 48.5 30C75.2129 30 97 51.7871 97 78.5C97 105.402 75.2129 127 48.5 127C21.5977 127 0 105.402 0 78.5ZM70.2871 70.1641C72.3711 68.0801 72.3711 64.8594 70.2871 62.7754C68.2031 60.6914 64.9824 60.6914 62.8984 62.7754L42.4375 83.2363L33.9121 74.9004C31.8281 72.8164 28.6074 72.8164 26.5234 74.9004C24.4395 76.9844 24.4395 80.2051 26.5234 82.2891L38.6484 94.4141C40.7324 96.498 43.9531 96.498 46.0371 94.4141L70.2871 70.1641Z" fill="#00C898"/>
<path fill-rule="evenodd" clip-rule="evenodd" d="M87.2358 23.7521C95.2439 23.7521 101.736 16.8125 101.736 8.25209C101.736 8.1679 101.735 8.08387 101.734 8C101.735 8.00002 101.736 8.00004 101.738 8.00007C101.736 8.08392 101.736 8.16794 101.736 8.25212C101.736 16.727 108.099 23.6133 115.996 23.7501C115.996 23.7515 115.996 23.7528 115.996 23.7542C108.178 23.8897 101.864 30.639 101.738 38.996C101.736 38.996 101.735 38.996 101.734 38.9961C101.606 30.5538 95.164 23.7522 87.2359 23.7522C87.1572 23.7522 87.0785 23.7528 87.0001 23.7542C87 23.7528 87 23.7515 87 23.7501C87.0785 23.7515 87.1571 23.7521 87.2358 23.7521Z" fill="#F9CA58"/>
<path fill-rule="evenodd" clip-rule="evenodd" d="M106.16 49.6723C111.585 49.6723 115.984 44.9707 115.984 39.171C115.984 39.1139 115.983 39.0569 115.982 39C115.983 39 115.984 39 115.985 39C115.984 39.0569 115.984 39.1139 115.984 39.171C115.984 44.9127 120.294 49.5782 125.645 49.6709C125.645 49.6719 125.645 49.6728 125.645 49.6738C120.349 49.7657 116.071 54.3382 115.985 59.9999C115.984 60 115.983 60 115.982 60C115.896 54.2804 111.531 49.6724 106.16 49.6724C106.107 49.6724 106.053 49.6728 106 49.6737C106 49.6728 106 49.6719 106 49.671C106.053 49.6719 106.106 49.6723 106.16 49.6723Z" fill="#F9CA58"/>
<path fill-rule="evenodd" clip-rule="evenodd" d="M117.13 8.69213C121.549 8.69213 125.131 4.86287 125.131 0.139237C125.131 0.0927368 125.131 0.0463237 125.13 0C125.131 1.21221e-05 125.132 2.35289e-05 125.132 3.58522e-05C125.132 0.0463568 125.131 0.0927672 125.131 0.139264C125.131 4.81564 128.642 8.61545 133 8.69101C133 8.69179 133 8.69256 133 8.69333C128.686 8.76815 125.202 12.4923 125.132 17.1035C125.132 17.1035 125.131 17.1036 125.13 17.1036C125.06 12.4452 121.505 8.69218 117.13 8.69218C117.087 8.69218 117.043 8.69255 117 8.69329C117 8.69254 117 8.69178 117 8.69102C117.043 8.69176 117.087 8.69213 117.13 8.69213Z" fill="#F9CA58"/>
</svg>
