<svg width="79" height="24" viewBox="0 0 79 24" fill="none" xmlns="http://www.w3.org/2000/svg">
<path d="M73.7969 0.601562L75.0664 3.19922L77.8594 3.60938C78.0938 3.64844 78.2891 3.80469 78.3672 4.03906C78.4453 4.25391 78.3867 4.50781 78.2109 4.66406L76.1797 6.67578L76.668 9.52734C76.707 9.76172 76.6094 9.99609 76.4141 10.1328C76.2188 10.2891 75.9649 10.2891 75.75 10.1914L73.25 8.84375L70.7305 10.1914C70.5352 10.2891 70.2813 10.2891 70.0859 10.1328C69.8906 9.99609 69.793 9.76172 69.832 9.52734L70.3008 6.67578L68.2695 4.66406C68.1133 4.50781 68.0547 4.25391 68.1133 4.03906C68.1914 3.80469 68.3867 3.64844 68.6211 3.60938L71.4336 3.19922L72.6836 0.601562C72.7813 0.386719 72.9961 0.25 73.25 0.25C73.4844 0.25 73.6992 0.386719 73.7969 0.601562Z" fill="#F9CA58"/>
<path d="M62.5469 0.601562L63.8164 3.19922L66.6094 3.60938C66.8438 3.64844 67.0391 3.80469 67.1172 4.03906C67.1953 4.25391 67.1367 4.50781 66.9609 4.66406L64.9297 6.67578L65.418 9.52734C65.457 9.76172 65.3594 9.99609 65.1641 10.1328C64.9688 10.2891 64.7149 10.2891 64.5 10.1914L62 8.84375L59.4805 10.1914C59.2852 10.2891 59.0313 10.2891 58.8359 10.1328C58.6406 9.99609 58.543 9.76172 58.582 9.52734L59.0508 6.67578L57.0195 4.66406C56.8633 4.50781 56.8047 4.25391 56.8633 4.03906C56.9414 3.80469 57.1367 3.64844 57.3711 3.60938L60.1836 3.19922L61.4336 0.601562C61.5313 0.386719 61.7461 0.25 62 0.25C62.2344 0.25 62.4492 0.386719 62.5469 0.601562Z" fill="#F9CA58"/>
<path d="M51.2969 0.601562L52.5664 3.19922L55.3594 3.60938C55.5938 3.64844 55.7891 3.80469 55.8672 4.03906C55.9453 4.25391 55.8867 4.50781 55.7109 4.66406L53.6797 6.67578L54.168 9.52734C54.207 9.76172 54.1094 9.99609 53.9141 10.1328C53.7188 10.2891 53.4649 10.2891 53.25 10.1914L50.75 8.84375L48.2305 10.1914C48.0352 10.2891 47.7813 10.2891 47.5859 10.1328C47.3906 9.99609 47.293 9.76172 47.332 9.52734L47.8008 6.67578L45.7695 4.66406C45.6133 4.50781 45.5547 4.25391 45.6133 4.03906C45.6914 3.80469 45.8867 3.64844 46.1211 3.60938L48.9336 3.19922L50.1836 0.601562C50.2813 0.386719 50.4961 0.25 50.75 0.25C50.9844 0.25 51.1992 0.386719 51.2969 0.601562Z" fill="#F9CA58"/>
<path d="M40.0469 0.601562L41.3164 3.19922L44.1094 3.60938C44.3438 3.64844 44.5391 3.80469 44.6172 4.03906C44.6953 4.25391 44.6367 4.50781 44.4609 4.66406L42.4297 6.67578L42.918 9.52734C42.957 9.76172 42.8594 9.99609 42.6641 10.1328C42.4688 10.2891 42.2149 10.2891 42 10.1914L39.5 8.84375L36.9805 10.1914C36.7852 10.2891 36.5313 10.2891 36.3359 10.1328C36.1406 9.99609 36.043 9.76172 36.082 9.52734L36.5508 6.67578L34.5195 4.66406C34.3633 4.50781 34.3047 4.25391 34.3633 4.03906C34.4414 3.80469 34.6367 3.64844 34.8711 3.60938L37.6836 3.19922L38.9336 0.601562C39.0313 0.386719 39.2461 0.25 39.5 0.25C39.7344 0.25 39.9492 0.386719 40.0469 0.601562Z" fill="#F9CA58"/>
<path d="M28.7969 0.601562L30.0664 3.19922L32.8594 3.60938C33.0938 3.64844 33.2891 3.80469 33.3672 4.03906C33.4453 4.25391 33.3867 4.50781 33.2109 4.66406L31.1797 6.67578L31.668 9.52734C31.707 9.76172 31.6094 9.99609 31.4141 10.1328C31.2188 10.2891 30.9649 10.2891 30.75 10.1914L28.25 8.84375L25.7305 10.1914C25.5352 10.2891 25.2813 10.2891 25.0859 10.1328C24.8906 9.99609 24.793 9.76172 24.832 9.52734L25.3008 6.67578L23.2695 4.66406C23.1133 4.50781 23.0547 4.25391 23.1133 4.03906C23.1914 3.80469 23.3867 3.64844 23.6211 3.60938L26.4336 3.19922L27.6836 0.601562C27.7813 0.386719 27.9961 0.25 28.25 0.25C28.4844 0.25 28.6992 0.386719 28.7969 0.601562Z" fill="#F9CA58"/>
<path d="M17.5469 0.601562L18.8164 3.19922L21.6094 3.60938C21.8438 3.64844 22.0391 3.80469 22.1172 4.03906C22.1953 4.25391 22.1367 4.50781 21.9609 4.66406L19.9297 6.67578L20.418 9.52734C20.457 9.76172 20.3594 9.99609 20.1641 10.1328C19.9688 10.2891 19.7149 10.2891 19.5 10.1914L17 8.84375L14.4805 10.1914C14.2852 10.2891 14.0313 10.2891 13.8359 10.1328C13.6406 9.99609 13.543 9.76172 13.582 9.52734L14.0508 6.67578L12.0195 4.66406C11.8633 4.50781 11.8047 4.25391 11.8633 4.03906C11.9414 3.80469 12.1367 3.64844 12.3711 3.60938L15.1836 3.19922L16.4336 0.601562C16.5313 0.386719 16.7461 0.25 17 0.25C17.2344 0.25 17.4492 0.386719 17.5469 0.601562Z" fill="#F9CA58"/>
<path d="M6.29689 0.601562L7.56642 3.19922L10.3594 3.60938C10.5938 3.64844 10.7891 3.80469 10.8672 4.03906C10.9453 4.25391 10.8867 4.50781 10.7109 4.66406L8.6797 6.67578L9.16798 9.52734C9.20704 9.76172 9.10938 9.99609 8.91407 10.1328C8.71876 10.2891 8.46485 10.2891 8.25001 10.1914L5.75001 8.84375L3.23048 10.1914C3.03517 10.2891 2.78126 10.2891 2.58595 10.1328C2.39064 9.99609 2.29298 9.76172 2.33204 9.52734L2.80079 6.67578L0.769541 4.66406C0.613291 4.50781 0.554697 4.25391 0.613291 4.03906C0.691416 3.80469 0.886729 3.64844 1.1211 3.60938L3.9336 3.19922L5.1836 0.601562C5.28126 0.386719 5.4961 0.25 5.75001 0.25C5.98439 0.25 6.19923 0.386719 6.29689 0.601562Z" fill="#F9CA58"/>
<path d="M47.1387 13.8906V14.7695L44.4824 21H42.7441L45.4053 15.1602H42.0117V13.8906H47.1387Z" fill="#001E24"/>
<path d="M41.7041 13.8906L39.2725 21.6104H38.1006L40.5322 13.8906H41.7041Z" fill="#001E24"/>
<path d="M37.8223 13.8906V14.7695L35.166 21H33.4277L36.0889 15.1602H32.6953V13.8906H37.8223Z" fill="#001E24"/>
</svg>
