<svg width="79" height="22" viewBox="0 0 79 22" fill="none" xmlns="http://www.w3.org/2000/svg">
<path d="M47.0474 13.6406V14.5195L44.3911 20.75H42.6528L45.314 14.9102H41.9204V13.6406H47.0474Z" fill="#001E24"/>
<path d="M41.6128 13.6406L39.1812 21.3604H38.0093L40.4409 13.6406H41.6128Z" fill="#001E24"/>
<path d="M37.731 13.6406V14.5195L35.0747 20.75H33.3364L35.9976 14.9102H32.604V13.6406H37.731Z" fill="#001E24"/>
<path fill-rule="evenodd" clip-rule="evenodd" d="M69.3571 3.99334L71.873 3.61762L72.9911 1.23808C73.0785 1.04127 73.2707 0.916035 73.4978 0.916035C73.7075 0.916035 73.8996 1.04127 73.987 1.23808L75.1226 3.61762L77.621 3.99334C77.8307 4.02912 78.0054 4.17225 78.0752 4.38695C78.1451 4.58375 78.0927 4.81634 77.9355 4.95947L76.1185 6.80228L76.5553 9.41441C76.5902 9.62911 76.5028 9.8438 76.3281 9.96904C76.1534 10.1122 75.9263 10.1122 75.7341 10.0227L73.4978 8.78821L71.244 10.0227C71.0693 10.1122 70.8422 10.1122 70.6675 9.96904C70.4928 9.8438 70.4054 9.62911 70.4403 9.41441L70.8597 6.80228L69.0426 4.95947C68.9029 4.81634 68.8505 4.58375 68.9029 4.38695C68.9728 4.17225 69.1475 4.02912 69.3571 3.99334ZM69.9021 7.12035L68.4101 5.60721C68.1809 5.37253 68.0477 5.07264 68.0044 4.76585C68.0515 4.64582 68.0553 4.50946 68.0118 4.38695C68.0082 4.3757 68.0042 4.36464 68 4.35379C68.0085 4.28319 68.0218 4.21365 68.0399 4.14593L68.0464 4.1214L68.0543 4.09727C68.2343 3.54414 68.6907 3.17841 69.2101 3.08977L69.219 3.08824L71.2732 2.78147L72.1818 0.847955C72.4243 0.313227 72.943 0 73.4978 0C74.0503 0 74.5583 0.326477 74.7949 0.844702L75.7192 2.78148L77.7595 3.08831L77.7681 3.08977C78.2838 3.1778 78.7375 3.53911 78.9201 4.08586C79.1019 4.61254 78.971 5.22523 78.5521 5.62336L77.0787 7.11762L77.4376 9.26381C77.5274 9.81552 77.3072 10.3715 76.8646 10.7023C76.3686 11.093 75.7761 11.0485 75.364 10.8566L75.3363 10.8438L73.4962 9.82796L71.6551 10.8364L71.6441 10.842C71.2167 11.0609 70.6176 11.0854 70.1311 10.7024C69.6885 10.3716 69.4682 9.81556 69.558 9.26381L69.9021 7.12035Z" fill="#F9CA58"/>
<path fill-rule="evenodd" clip-rule="evenodd" d="M58.3588 3.99334L60.8778 3.61762L61.9973 1.23808C62.0848 1.04127 62.2772 0.916035 62.5046 0.916035C62.7145 0.916035 62.907 1.04127 62.9944 1.23808L64.1315 3.61762L66.6329 3.99334C66.8429 4.02912 67.0178 4.17225 67.0878 4.38695C67.1577 4.58375 67.1053 4.81634 66.9478 4.95947L65.1286 6.80228L65.5659 9.41441C65.6009 9.62911 65.5134 9.8438 65.3385 9.96904C65.1635 10.1122 64.9361 10.1122 64.7437 10.0227L62.5046 8.78821L60.248 10.0227C60.0731 10.1122 59.8457 10.1122 59.6708 9.96904C59.4959 9.8438 59.4084 9.62911 59.4434 9.41441L59.8632 6.80228L58.0439 4.95947C57.904 4.81634 57.8515 4.58375 57.904 4.38695C57.974 4.17225 58.1489 4.02912 58.3588 3.99334ZM58.9044 7.12035L57.4106 5.60721C57.1812 5.37253 57.0477 5.07264 57.0044 4.76585C57.0515 4.64582 57.0554 4.50946 57.0119 4.38695C57.0082 4.3757 57.0042 4.36464 57 4.35379C57.0085 4.28319 57.0219 4.21365 57.0399 4.14593L57.0465 4.1214L57.0543 4.09727C57.2346 3.54414 57.6916 3.17841 58.2116 3.08977L58.2206 3.08824L60.2772 2.78147L61.187 0.84775C61.4299 0.313147 61.9492 0 62.5046 0C63.0577 0 63.5663 0.32641 63.8033 0.844542L64.7288 2.78148L66.7716 3.08831L66.7802 3.08977C67.2966 3.1778 67.7509 3.53911 67.9337 4.08586C67.9625 4.16931 67.9835 4.25492 67.9967 4.34149C67.9906 4.35626 67.985 4.37142 67.9799 4.38695C67.9472 4.50974 67.9553 4.64646 68 4.7667C67.9566 5.0855 67.81 5.39098 67.5652 5.62336L66.09 7.11762L66.4493 9.26381C66.5392 9.81552 66.3187 10.3715 65.8756 10.7023C65.379 11.093 64.7858 11.0485 64.3731 10.8566L64.3455 10.8438L62.503 9.82796L60.6596 10.8364L60.6486 10.842C60.2207 11.0609 59.6209 11.0854 59.1338 10.7024C58.6908 10.3718 58.4703 9.81619 58.5598 9.26474C58.5598 9.26443 58.5599 9.26412 58.5599 9.26381L58.9044 7.12035Z" fill="#F9CA58"/>
<path fill-rule="evenodd" clip-rule="evenodd" d="M47.3588 3.99334L49.8778 3.61762L50.9973 1.23808C51.0848 1.04127 51.2772 0.916035 51.5046 0.916035C51.7145 0.916035 51.907 1.04127 51.9944 1.23808L53.1315 3.61762L55.6329 3.99334C55.8429 4.02912 56.0178 4.17225 56.0878 4.38695C56.1577 4.58375 56.1053 4.81634 55.9478 4.95947L54.1286 6.80228L54.5659 9.41441C54.6009 9.62911 54.5134 9.8438 54.3385 9.96904C54.1635 10.1122 53.9361 10.1122 53.7437 10.0227L51.5046 8.78821L49.248 10.0227C49.0731 10.1122 48.8457 10.1122 48.6708 9.96904C48.4959 9.8438 48.4084 9.62911 48.4434 9.41441L48.8632 6.80228L47.0439 4.95947C46.904 4.81634 46.8515 4.58375 46.904 4.38695C46.974 4.17225 47.1489 4.02912 47.3588 3.99334ZM47.9044 7.12035L46.4106 5.60721C46.1812 5.37253 46.0477 5.07264 46.0044 4.76585C46.0515 4.64582 46.0554 4.50946 46.0119 4.38695C46.0082 4.3757 46.0042 4.36464 46 4.35379C46.0085 4.28319 46.0219 4.21365 46.0399 4.14593L46.0465 4.1214L46.0543 4.09727C46.2346 3.54414 46.6916 3.17841 47.2116 3.08977L47.2206 3.08824L49.2773 2.78147L50.187 0.84775C50.4299 0.313147 50.9492 0 51.5046 0C52.0577 0 52.5663 0.32641 52.8033 0.844542L53.7288 2.78148L55.7716 3.08831L55.7802 3.08977C56.2967 3.17781 56.751 3.53924 56.9338 4.08617C56.9626 4.16952 56.9835 4.25503 56.9967 4.34149C56.9906 4.35626 56.985 4.37142 56.9799 4.38695C56.9472 4.50974 56.9553 4.64646 57 4.7667C56.9566 5.08552 56.81 5.39102 56.5651 5.62341L55.09 7.11762L55.4493 9.26381C55.5392 9.81552 55.3187 10.3715 54.8756 10.7023C54.379 11.093 53.7858 11.0485 53.3731 10.8566L53.3455 10.8438L51.503 9.82796L49.6596 10.8364L49.6486 10.842C49.2207 11.0609 48.6209 11.0854 48.1338 10.7024C47.6908 10.3718 47.4703 9.81619 47.5598 9.26474C47.5598 9.26443 47.5599 9.26412 47.5599 9.26381L47.9044 7.12035Z" fill="#F9CA58"/>
<path fill-rule="evenodd" clip-rule="evenodd" d="M35.4823 3.99334L38.2303 3.61762L39.4516 1.23808C39.5471 1.04127 39.757 0.916035 40.005 0.916035C40.234 0.916035 40.444 1.04127 40.5394 1.23808L41.7798 3.61762L44.5087 3.99334C44.7377 4.02912 44.9285 4.17225 45.0048 4.38695C45.0812 4.58375 45.0239 4.81634 44.8522 4.95947L42.8675 6.80228L43.3446 9.41441C43.3828 9.62911 43.2873 9.8438 43.0965 9.96904C42.9057 10.1122 42.6576 10.1122 42.4477 10.0227L40.005 8.78821L37.5433 10.0227C37.3525 10.1122 37.1044 10.1122 36.9136 9.96904C36.7227 9.8438 36.6273 9.62911 36.6655 9.41441L37.1235 6.80228L35.1388 4.95947C34.9862 4.81634 34.9289 4.58375 34.9862 4.38695C35.0625 4.17225 35.2533 4.02912 35.4823 3.99334ZM36.0776 7.12035L34.448 5.60721C34.1976 5.37253 34.0521 5.07264 34.0048 4.76585C34.0562 4.64582 34.0605 4.50946 34.0129 4.38695C34.0089 4.3757 34.0046 4.36464 34 4.35379C34.0093 4.28319 34.0239 4.21365 34.0436 4.14593L34.0507 4.1214L34.0593 4.09727C34.2559 3.54414 34.7545 3.17841 35.3217 3.08977L35.3315 3.08824L37.5752 2.78147L38.5677 0.84775C38.8326 0.313147 39.3992 0 40.005 0C40.6084 0 41.1633 0.32641 41.4217 0.844542L42.4314 2.78148L44.66 3.08831L44.6693 3.08977C45.2327 3.17781 45.7284 3.53924 45.9278 4.08617C45.9592 4.16952 45.982 4.25503 45.9964 4.34149C45.9897 4.35626 45.9836 4.37142 45.9781 4.38695C45.9424 4.50974 45.9512 4.64646 46 4.7667C45.9526 5.08552 45.7927 5.39102 45.5256 5.62341L43.9164 7.11762L44.3084 9.26381C44.4064 9.81552 44.1659 10.3715 43.6825 10.7023C43.1407 11.093 42.4936 11.0485 42.0434 10.8566L42.0132 10.8438L40.0033 9.82796L37.9923 10.8364L37.9803 10.842C37.5134 11.0609 36.8591 11.0854 36.3277 10.7024C35.8445 10.3718 35.6039 9.81619 35.7016 9.26474C35.7016 9.26443 35.7017 9.26412 35.7017 9.26381L36.0776 7.12035Z" fill="#F9CA58"/>
<path fill-rule="evenodd" clip-rule="evenodd" d="M24.3588 3.99334L26.8778 3.61762L27.9973 1.23808C28.0848 1.04127 28.2772 0.916035 28.5046 0.916035C28.7145 0.916035 28.907 1.04127 28.9944 1.23808L30.1315 3.61762L32.6329 3.99334C32.8429 4.02912 33.0178 4.17225 33.0878 4.38695C33.1577 4.58376 33.1053 4.81634 32.9478 4.95947L31.1286 6.80228L31.5659 9.41441C31.6009 9.62911 31.5134 9.8438 31.3385 9.96904C31.1635 10.1122 30.9361 10.1122 30.7437 10.0227L28.5046 8.78821L26.248 10.0227C26.0731 10.1122 25.8457 10.1122 25.6708 9.96904C25.4959 9.8438 25.4084 9.62911 25.4434 9.41441L25.8632 6.80228L24.0439 4.95947C23.904 4.81634 23.8515 4.58376 23.904 4.38695C23.974 4.17225 24.1489 4.02912 24.3588 3.99334ZM24.9044 7.12035L23.4106 5.60722C23.1812 5.37253 23.0477 5.07264 23.0044 4.76585C23.0515 4.64582 23.0554 4.50946 23.0119 4.38695C23.0082 4.3757 23.0042 4.36464 23 4.35379C23.0085 4.28319 23.0219 4.21366 23.0399 4.14593L23.0465 4.1214L23.0543 4.09727C23.2346 3.54414 23.6916 3.17841 24.2116 3.08977L24.2206 3.08824L26.2772 2.78147L27.187 0.847748C27.4299 0.313146 27.9492 0 28.5046 0C29.0577 0 29.5664 0.326445 29.8033 0.844624L30.7288 2.78148L32.7716 3.08831L32.7802 3.08977C33.2967 3.17781 33.751 3.53924 33.9338 4.08617C33.9626 4.16952 33.9835 4.25503 33.9967 4.34149C33.9906 4.35626 33.985 4.37142 33.9799 4.38695C33.9472 4.50974 33.9553 4.64646 34 4.7667C33.9566 5.08553 33.81 5.39102 33.5651 5.62341L32.09 7.11763L32.4493 9.26381C32.5392 9.81551 32.3187 10.3715 31.8756 10.7023C31.379 11.093 30.7858 11.0485 30.3731 10.8566L30.3455 10.8438L28.503 9.82796L26.6596 10.8364L26.6486 10.842C26.2207 11.0609 25.6209 11.0854 25.1337 10.7023C24.6911 10.372 24.4705 9.8169 24.5596 9.26582M24.9044 7.12035L24.5599 9.26381Z" fill="#F9CA58"/>
<path fill-rule="evenodd" clip-rule="evenodd" d="M13.3588 3.99334L15.8778 3.61762L16.9973 1.23808C17.0848 1.04127 17.2772 0.916035 17.5046 0.916035C17.7145 0.916035 17.907 1.04127 17.9944 1.23808L19.1315 3.61762L21.6329 3.99334C21.8429 4.02912 22.0178 4.17225 22.0878 4.38695C22.1577 4.58375 22.1053 4.81634 21.9478 4.95947L20.1286 6.80228L20.5659 9.41441C20.6009 9.62911 20.5134 9.8438 20.3385 9.96904C20.1635 10.1122 19.9361 10.1122 19.7437 10.0227L17.5046 8.78821L15.248 10.0227C15.0731 10.1122 14.8457 10.1122 14.6708 9.96904C14.4959 9.8438 14.4084 9.62911 14.4434 9.41441L14.8632 6.80228L13.0439 4.95947C12.904 4.81634 12.8515 4.58375 12.904 4.38695C12.974 4.17225 13.1489 4.02912 13.3588 3.99334ZM13.9044 7.12035L12.4106 5.60721C12.1812 5.37253 12.0477 5.07265 12.0044 4.76586C12.0515 4.64583 12.0554 4.50946 12.0119 4.38695C12.0082 4.3757 12.0042 4.36464 12 4.35379C12.0085 4.28319 12.0219 4.21366 12.0399 4.14593L12.0465 4.1214L12.0543 4.09727C12.2346 3.54414 12.6916 3.17841 13.2116 3.08977L13.2206 3.08824L15.2773 2.78147L16.187 0.847748C16.4299 0.313146 16.9492 0 17.5046 0C18.0577 0 18.5664 0.326445 18.8033 0.844624L19.7288 2.78148L21.7716 3.08831L21.7802 3.08977C22.2966 3.17781 22.7509 3.53918 22.9337 4.08601C22.9625 4.16941 22.9835 4.25497 22.9967 4.34149C22.9906 4.35626 22.985 4.37142 22.9799 4.38695C22.9472 4.50974 22.9553 4.64646 23 4.76669C22.9566 5.08552 22.81 5.39102 22.5651 5.62341L21.09 7.11762L21.4493 9.26381C21.5392 9.81551 21.3187 10.3715 20.8756 10.7023C20.379 11.093 19.7858 11.0485 19.3731 10.8566L19.3455 10.8438L17.503 9.82796L15.6596 10.8364L15.6486 10.842C15.2207 11.0609 14.6209 11.0854 14.1337 10.7024C13.691 10.3719 13.4704 9.81659 13.5597 9.26536M13.9044 7.12035L13.5599 9.26381Z" fill="#F9CA58"/>
<path fill-rule="evenodd" clip-rule="evenodd" d="M1.49314 3.99334L4.23829 3.61762L5.45836 1.23808C5.55368 1.04127 5.76338 0.916035 6.0112 0.916035C6.23997 0.916035 6.44966 1.04127 6.54498 1.23808L7.78411 3.61762L10.5102 3.99334C10.739 4.02912 10.9296 4.17225 11.0059 4.38695C11.0821 4.58375 11.0249 4.81634 10.8533 4.95947L8.87074 6.80228L9.34732 9.41441C9.38545 9.62911 9.29013 9.8438 9.0995 9.96904C8.90886 10.1122 8.66104 10.1122 8.45134 10.0227L6.0112 8.78821L3.552 10.0227C3.36137 10.1122 3.11354 10.1122 2.92291 9.96904C2.73227 9.8438 2.63695 9.62911 2.67508 9.41441L3.13261 6.80228L1.15 4.95947C0.997487 4.81634 0.940296 4.58375 0.997487 4.38695C1.07374 4.17225 1.26438 4.02912 1.49314 3.99334ZM2.08774 7.12035L0.459813 5.60721C0.0388941 5.21218 -0.0855415 4.6324 0.0558253 4.14593L0.0629536 4.1214L0.0715208 4.09727C0.26798 3.54414 0.766002 3.17841 1.33268 3.08977L1.34247 3.08824L3.58383 2.78147L4.57529 0.8478C4.83994 0.313166 5.40594 0 6.0112 0C6.61399 0 7.16831 0.326444 7.42648 0.844623L8.43508 2.78148L10.6614 3.08831L10.6707 3.08977C11.2335 3.17781 11.7286 3.53918 11.9278 4.08601C11.9592 4.16941 11.982 4.25497 11.9964 4.34149C11.9897 4.35626 11.9836 4.37142 11.9781 4.38695C11.9424 4.50974 11.9513 4.64646 12 4.76669C11.9527 5.08552 11.7929 5.39101 11.5261 5.6234L9.91853 7.11762L10.3101 9.26381C10.4081 9.81551 10.1678 10.3715 9.68486 10.7023C9.14364 11.093 8.49717 11.0485 8.04744 10.8566L8.01732 10.8438L6.00941 9.82796L4.00052 10.8364L3.98851 10.842C3.52215 11.0609 2.8685 11.0854 2.33763 10.7024C1.85502 10.3718 1.61468 9.81637 1.71209 9.26503C1.71216 9.26462 1.71223 9.26422 1.71231 9.26381L2.08774 7.12035Z" fill="#F9CA58"/>
</svg>
