<svg width="79" height="24" viewBox="0 0 79 24" fill="none" xmlns="http://www.w3.org/2000/svg">
<path d="M73.3417 0.808464L73.3415 0.808545L73.3477 0.821107L74.6172 3.41876L74.7329 3.65561L74.9938 3.69391L77.7805 4.10316C77.8398 4.11406 77.8766 4.14844 77.8929 4.19718L77.8927 4.19723L77.8973 4.20993C77.9012 4.22068 77.903 4.23689 77.8986 4.25481C77.8943 4.27217 77.8862 4.28373 77.8788 4.29036L77.8687 4.29932L77.8591 4.30881L75.8279 6.32052L75.6429 6.50366L75.6869 6.76017L76.1748 9.60954C76.1748 9.60979 76.1749 9.61004 76.1749 9.61029C76.1821 9.65516 76.164 9.69755 76.1273 9.7232L76.1142 9.73238L76.1017 9.74238C76.0902 9.75163 76.0777 9.75705 76.0575 9.75834C76.0363 9.7597 76.0052 9.75597 75.9687 9.74128L73.4873 8.40362L73.2509 8.27623L73.0142 8.40286L70.503 9.74607C70.4821 9.75567 70.4595 9.75961 70.4408 9.75838C70.4236 9.75727 70.4107 9.75227 70.3983 9.74238L70.3858 9.73238L70.3727 9.7232C70.3358 9.69741 70.3177 9.65469 70.3252 9.60954L70.3254 9.60845L70.7942 6.75688L70.836 6.50217L70.6526 6.32052L68.6231 4.31051C68.623 4.31039 68.6229 4.31027 68.6227 4.31015C68.6055 4.29243 68.5839 4.23656 68.5928 4.18372C68.611 4.14218 68.6462 4.11309 68.6998 4.10319L71.5058 3.69399L71.7689 3.65562L71.8842 3.41602L73.1342 0.818368L73.1343 0.81842L73.1388 0.808464C73.1464 0.791744 73.1578 0.778863 73.1732 0.769214C73.1888 0.759492 73.2136 0.75 73.25 0.75C73.2899 0.75 73.3259 0.77359 73.3417 0.808464Z" fill="white" stroke="#F9CA58"/>
<path d="M62.0917 0.808464L62.0915 0.808545L62.0977 0.821107L63.3672 3.41876L63.4829 3.65561L63.7438 3.69391L66.5305 4.10316C66.5898 4.11406 66.6266 4.14844 66.6429 4.19718L66.6427 4.19723L66.6473 4.20993C66.6512 4.22068 66.653 4.23689 66.6486 4.25481C66.6443 4.27217 66.6362 4.28373 66.6288 4.29036L66.6187 4.29932L66.6091 4.30881L64.5779 6.32052L64.3929 6.50366L64.4369 6.76017L64.9248 9.60954C64.9248 9.60979 64.9249 9.61004 64.9249 9.61029C64.9321 9.65516 64.914 9.69755 64.8773 9.7232L64.8642 9.73238L64.8517 9.74238C64.8402 9.75163 64.8277 9.75705 64.8075 9.75834C64.7863 9.7597 64.7552 9.75597 64.7187 9.74128L62.2373 8.40362L62.0009 8.27623L61.7642 8.40286L59.253 9.74607C59.2321 9.75567 59.2095 9.75961 59.1908 9.75838C59.1736 9.75727 59.1607 9.75227 59.1483 9.74238L59.1358 9.73238L59.1227 9.7232C59.0858 9.69741 59.0677 9.65469 59.0752 9.60954L59.0754 9.60845L59.5442 6.75688L59.586 6.50217L59.4026 6.32052L57.3731 4.31051C57.373 4.31039 57.3729 4.31027 57.3727 4.31015C57.3555 4.29243 57.3339 4.23656 57.3428 4.18372C57.361 4.14218 57.3962 4.11309 57.4498 4.10319L60.2558 3.69399L60.5189 3.65562L60.6342 3.41602L61.8842 0.818368L61.8843 0.81842L61.8888 0.808464C61.8964 0.791744 61.9078 0.778863 61.9232 0.769214C61.9388 0.759492 61.9636 0.75 62 0.75C62.0399 0.75 62.0759 0.77359 62.0917 0.808464Z" fill="white" stroke="#F9CA58"/>
<path d="M50.8417 0.808464L50.8415 0.808545L50.8477 0.821107L52.1172 3.41876L52.2329 3.65561L52.4938 3.69391L55.2805 4.10316C55.3398 4.11406 55.3766 4.14844 55.3929 4.19718L55.3927 4.19723L55.3973 4.20993C55.4012 4.22068 55.403 4.23689 55.3986 4.25481C55.3943 4.27217 55.3862 4.28373 55.3788 4.29036L55.3687 4.29932L55.3591 4.30881L53.3279 6.32052L53.1429 6.50366L53.1869 6.76017L53.6748 9.60954C53.6748 9.60979 53.6749 9.61004 53.6749 9.61029C53.6821 9.65516 53.664 9.69755 53.6273 9.7232L53.6142 9.73238L53.6017 9.74238C53.5902 9.75163 53.5777 9.75705 53.5575 9.75834C53.5363 9.7597 53.5052 9.75597 53.4687 9.74128L50.9873 8.40362L50.7509 8.27623L50.5142 8.40286L48.003 9.74607C47.9821 9.75567 47.9595 9.75961 47.9408 9.75838C47.9236 9.75727 47.9107 9.75227 47.8983 9.74238L47.8858 9.73238L47.8727 9.7232C47.8358 9.69741 47.8177 9.65469 47.8252 9.60954L47.8254 9.60845L48.2942 6.75688L48.336 6.50217L48.1526 6.32052L46.1231 4.31051C46.123 4.31039 46.1229 4.31027 46.1227 4.31015C46.1055 4.29243 46.0839 4.23656 46.0928 4.18372C46.111 4.14218 46.1462 4.11309 46.1998 4.10319L49.0058 3.69399L49.2689 3.65562L49.3842 3.41602L50.6342 0.818368L50.6343 0.81842L50.6388 0.808464C50.6464 0.791744 50.6578 0.778863 50.6732 0.769214C50.6888 0.759492 50.7136 0.75 50.75 0.75C50.7899 0.75 50.8259 0.77359 50.8417 0.808464Z" fill="white" stroke="#F9CA58"/>
<path d="M39.5917 0.808464L39.5915 0.808545L39.5977 0.821107L40.8672 3.41876L40.9829 3.65561L41.2438 3.69391L44.0305 4.10316C44.0898 4.11406 44.1266 4.14844 44.1429 4.19718L44.1427 4.19723L44.1473 4.20993C44.1512 4.22068 44.153 4.23689 44.1486 4.25481C44.1443 4.27217 44.1362 4.28373 44.1288 4.29036L44.1187 4.29932L44.1091 4.30881L42.0779 6.32052L41.8929 6.50366L41.9369 6.76017L42.4248 9.60954C42.4248 9.60979 42.4249 9.61004 42.4249 9.61029C42.4321 9.65516 42.414 9.69755 42.3773 9.7232L42.3642 9.73238L42.3517 9.74238C42.3402 9.75163 42.3277 9.75705 42.3075 9.75834C42.2863 9.7597 42.2552 9.75597 42.2187 9.74128L39.7373 8.40362L39.5009 8.27623L39.2642 8.40286L36.753 9.74607C36.7321 9.75567 36.7095 9.75961 36.6908 9.75838C36.6736 9.75727 36.6607 9.75227 36.6483 9.74238L36.6358 9.73238L36.6227 9.7232C36.5858 9.69741 36.5677 9.65469 36.5752 9.60954L36.5754 9.60845L37.0442 6.75688L37.086 6.50217L36.9026 6.32052L34.8731 4.31051C34.873 4.31039 34.8729 4.31027 34.8727 4.31015C34.8555 4.29243 34.8339 4.23656 34.8428 4.18372C34.861 4.14218 34.8962 4.11309 34.9498 4.10319L37.7558 3.69399L38.0189 3.65562L38.1342 3.41602L39.3842 0.818368L39.3843 0.81842L39.3888 0.808464C39.3964 0.791744 39.4078 0.778863 39.4232 0.769214C39.4388 0.759492 39.4636 0.75 39.5 0.75C39.5399 0.75 39.5759 0.77359 39.5917 0.808464Z" fill="white" stroke="#F9CA58"/>
<path d="M28.3417 0.808464L28.3415 0.808545L28.3477 0.821107L29.6172 3.41876L29.7329 3.65561L29.9938 3.69391L32.7805 4.10316C32.8398 4.11406 32.8766 4.14844 32.8929 4.19718L32.8927 4.19723L32.8973 4.20993C32.9012 4.22068 32.903 4.23689 32.8986 4.25481C32.8943 4.27217 32.8862 4.28373 32.8788 4.29036L32.8687 4.29932L32.8591 4.30881L30.8279 6.32052L30.6429 6.50366L30.6869 6.76017L31.1748 9.60954C31.1748 9.60979 31.1749 9.61004 31.1749 9.61029C31.1821 9.65516 31.164 9.69755 31.1273 9.7232L31.1142 9.73238L31.1017 9.74238C31.0902 9.75163 31.0777 9.75705 31.0575 9.75834C31.0363 9.7597 31.0052 9.75597 30.9687 9.74128L28.4873 8.40362L28.2509 8.27623L28.0142 8.40286L25.503 9.74607C25.4821 9.75567 25.4595 9.75961 25.4408 9.75838C25.4236 9.75727 25.4107 9.75227 25.3983 9.74238L25.3858 9.73238L25.3727 9.7232C25.3358 9.69741 25.3177 9.65469 25.3252 9.60954L25.3254 9.60845L25.7942 6.75688L25.836 6.50217L25.6526 6.32052L23.6231 4.31051C23.623 4.31039 23.6229 4.31027 23.6227 4.31015C23.6055 4.29243 23.5839 4.23656 23.5928 4.18372C23.611 4.14218 23.6462 4.11309 23.6998 4.10319L26.5058 3.69399L26.7689 3.65562L26.8842 3.41602L28.1342 0.818368L28.1343 0.81842L28.1388 0.808464C28.1464 0.791744 28.1578 0.778863 28.1732 0.769214C28.1888 0.759492 28.2136 0.75 28.25 0.75C28.2899 0.75 28.3259 0.77359 28.3417 0.808464Z" fill="white" stroke="#F9CA58"/>
<path d="M17.0917 0.808464L17.0915 0.808545L17.0977 0.821107L18.3672 3.41876L18.4829 3.65561L18.7438 3.69391L21.5305 4.10316C21.5898 4.11406 21.6266 4.14844 21.6429 4.19718L21.6427 4.19723L21.6473 4.20993C21.6512 4.22068 21.653 4.23689 21.6486 4.25481C21.6443 4.27217 21.6362 4.28373 21.6288 4.29036L21.6187 4.29932L21.6091 4.30881L19.5779 6.32052L19.3929 6.50366L19.4369 6.76017L19.9248 9.60954C19.9248 9.60979 19.9249 9.61004 19.9249 9.61029C19.9321 9.65516 19.914 9.69755 19.8773 9.7232L19.8642 9.73238L19.8517 9.74238C19.8402 9.75163 19.8277 9.75705 19.8075 9.75834C19.7863 9.7597 19.7552 9.75597 19.7187 9.74128L17.2373 8.40362L17.0009 8.27623L16.7642 8.40286L14.253 9.74607C14.2321 9.75567 14.2095 9.75961 14.1908 9.75838C14.1736 9.75727 14.1607 9.75227 14.1483 9.74238L14.1358 9.73238L14.1227 9.7232C14.0858 9.69741 14.0677 9.65469 14.0752 9.60954L14.0754 9.60845L14.5442 6.75688L14.586 6.50217L14.4026 6.32052L12.3731 4.31051C12.373 4.31039 12.3729 4.31027 12.3727 4.31015C12.3555 4.29243 12.3339 4.23656 12.3428 4.18372C12.361 4.14218 12.3962 4.11309 12.4498 4.10319L15.2558 3.69399L15.5189 3.65562L15.6342 3.41602L16.8842 0.818368L16.8843 0.81842L16.8888 0.808464C16.8964 0.791744 16.9078 0.778863 16.9232 0.769214C16.9388 0.759492 16.9636 0.75 17 0.75C17.0399 0.75 17.0759 0.77359 17.0917 0.808464Z" fill="white" stroke="#F9CA58"/>
<path d="M5.8417 0.808464L5.84152 0.808545L5.84766 0.821107L7.11719 3.41876L7.23295 3.65561L7.49377 3.69391L10.2805 4.10316C10.3398 4.11406 10.3766 4.14844 10.3929 4.19718L10.3927 4.19723L10.3973 4.20993C10.4012 4.22068 10.403 4.23689 10.3986 4.25481C10.3943 4.27217 10.3862 4.28373 10.3788 4.29036L10.3687 4.29932L10.3591 4.30881L8.32786 6.32052L8.14295 6.50366L8.18687 6.76017L8.67478 9.60954C8.67482 9.60979 8.67486 9.61004 8.6749 9.61029C8.68211 9.65516 8.66397 9.69755 8.62734 9.7232L8.61423 9.73238L8.60172 9.74238C8.59015 9.75163 8.5777 9.75705 8.55752 9.75834C8.53627 9.7597 8.5052 9.75597 8.46872 9.74128L5.98727 8.40362L5.75093 8.27623L5.51418 8.40286L3.00297 9.74607C2.98211 9.75567 2.95954 9.75961 2.94075 9.75838C2.92359 9.75727 2.91066 9.75227 2.89829 9.74238L2.88579 9.73238L2.87268 9.7232C2.83584 9.69741 2.81771 9.65469 2.82524 9.60954L2.82542 9.60845L3.29417 6.75688L3.33604 6.50217L3.15263 6.32052L1.12309 4.31051C1.12298 4.31039 1.12286 4.31027 1.12274 4.31015C1.10548 4.29243 1.08391 4.23656 1.0928 4.18372C1.11103 4.14218 1.1462 4.11309 1.1998 4.10319L4.00576 3.69399L4.26886 3.65562L4.38415 3.41602L5.63415 0.818368L5.63426 0.81842L5.63879 0.808464C5.64639 0.791744 5.65777 0.778863 5.67321 0.769214C5.68877 0.759492 5.71361 0.75 5.75001 0.75C5.78994 0.75 5.82585 0.77359 5.8417 0.808464Z" fill="white" stroke="#F9CA58"/>
<path d="M47.1387 13.8906V14.7695L44.4824 21H42.7441L45.4053 15.1602H42.0117V13.8906H47.1387Z" fill="#001E24"/>
<path d="M41.7041 13.8906L39.2725 21.6104H38.1006L40.5322 13.8906H41.7041Z" fill="#001E24"/>
<path d="M37.8223 13.8906V14.7695L35.166 21H33.4277L36.0889 15.1602H32.6953V13.8906H37.8223Z" fill="#001E24"/>
</svg>
