<svg width="32" height="32" viewBox="0 0 32 32" fill="none" xmlns="http://www.w3.org/2000/svg">
<rect width="32" height="32" rx="3" fill="#F4FBFC"/>
<path d="M6.375 8.875C6.375 8.14453 6.97656 7.5 7.75 7.5H24.25C24.9805 7.5 25.625 8.14453 25.625 8.875C25.625 9.64844 24.9805 10.25 24.25 10.25H7.75C6.97656 10.25 6.375 9.64844 6.375 8.875ZM6.375 15.75C6.375 15.0195 6.97656 14.375 7.75 14.375H24.25C24.9805 14.375 25.625 15.0195 25.625 15.75C25.625 16.5234 24.9805 17.125 24.25 17.125H7.75C6.97656 17.125 6.375 16.5234 6.375 15.75ZM25.625 22.625C25.625 23.3984 24.9805 24 24.25 24H7.75C6.97656 24 6.375 23.3984 6.375 22.625C6.375 21.8945 6.97656 21.25 7.75 21.25H24.25C24.9805 21.25 25.625 21.8945 25.625 22.625Z" fill="#1ABDCA"/>
</svg>
