<svg width="12" height="13" viewBox="0 0 12 13" fill="none" xmlns="http://www.w3.org/2000/svg">
<path d="M6.01172 13C3.85547 13 1.88672 11.875 0.808594 10C-0.269531 8.14844 -0.269531 5.875 0.808594 4C1.88672 2.14844 3.85547 1 6.01172 1C8.14453 1 10.1133 2.14844 11.1914 4C12.2695 5.875 12.2695 8.14844 11.1914 10C10.1133 11.875 8.14453 13 6.01172 13ZM6.01172 4C5.68359 4 5.44922 4.25781 5.44922 4.5625V7.1875C5.44922 7.51562 5.68359 7.75 6.01172 7.75C6.31641 7.75 6.57422 7.51562 6.57422 7.1875V4.5625C6.57422 4.25781 6.31641 4 6.01172 4ZM5.26172 9.25C5.26172 9.67188 5.58984 10 6.01172 10C6.41016 10 6.76172 9.67188 6.76172 9.25C6.76172 8.85156 6.41016 8.5 6.01172 8.5C5.58984 8.5 5.26172 8.85156 5.26172 9.25Z" fill="#ED332B"/>
</svg>
