<svg width="14" height="7" viewBox="0 0 14 7" fill="none" xmlns="http://www.w3.org/2000/svg">
<path d="M10.5156 6.28906C10.2344 6.59375 9.74219 6.59375 9.46094 6.28906C9.15625 6.00781 9.15625 5.51562 9.46094 5.23438L10.4219 4.25H3.55469L4.51562 5.23438C4.82031 5.51562 4.82031 6.00781 4.51562 6.28906C4.23438 6.59375 3.74219 6.59375 3.46094 6.28906L1.21094 4.03906C0.90625 3.75781 0.90625 3.26562 1.21094 2.98438L3.46094 0.734375C3.74219 0.429688 4.23438 0.429688 4.51562 0.734375C4.82031 1.01562 4.82031 1.50781 4.51562 1.78906L3.55469 2.75H10.4219L9.46094 1.78906C9.15625 1.50781 9.15625 1.01562 9.46094 0.734375C9.74219 0.429688 10.2344 0.429688 10.5156 0.734375L12.7656 2.98438C13.0703 3.26562 13.0703 3.75781 12.7656 4.03906L10.5156 6.28906Z" fill="#116C7E"/>
</svg>
