<svg width="11" height="10" viewBox="0 0 11 10" fill="none" xmlns="http://www.w3.org/2000/svg">
<path d="M10.5156 6.03906L6.76562 9.78906C6.625 9.92969 6.4375 10 6.25 10C6.03906 10 5.85156 9.92969 5.71094 9.78906C5.40625 9.50781 5.40625 9.01562 5.71094 8.73438L8.17188 6.25H1C0.578125 6.25 0.25 5.92188 0.25 5.5C0.25 5.10156 0.578125 4.75 1 4.75H8.17188L5.71094 2.28906C5.40625 2.00781 5.40625 1.51562 5.71094 1.23438C5.99219 0.929688 6.48438 0.929688 6.76562 1.23438L10.5156 4.98438C10.8203 5.26562 10.8203 5.75781 10.5156 6.03906Z" fill="white"/>
</svg>
