<svg width="7" height="13" viewBox="0 0 7 13" fill="none" xmlns="http://www.w3.org/2000/svg">
<path d="M4.26562 0.734375L6.51562 2.98438C6.82031 3.26562 6.82031 3.75781 6.51562 4.03906C6.23438 4.34375 5.74219 4.34375 5.46094 4.03906L4.5 3.07812V9.94531L5.46094 8.98438C5.74219 8.67969 6.23438 8.67969 6.51562 8.98438C6.82031 9.26562 6.82031 9.75781 6.51562 10.0391L4.26562 12.2891C3.98438 12.5938 3.49219 12.5938 3.21094 12.2891L0.960938 10.0391C0.65625 9.75781 0.65625 9.26562 0.960938 8.98438C1.24219 8.67969 1.73438 8.67969 2.01562 8.98438L3 9.94531V3.07812L2.01562 4.03906C1.73438 4.34375 1.24219 4.34375 0.960938 4.03906C0.65625 3.75781 0.65625 3.26562 0.960938 2.98438L3.21094 0.734375C3.49219 0.429688 3.98438 0.429688 4.26562 0.734375Z" fill="#116C7E"/>
</svg>
