<svg width="35" height="30" viewBox="0 0 35 30" fill="none" xmlns="http://www.w3.org/2000/svg">
<path d="M2.1875 26.7857V8.57143H32.8125V26.7857C32.8125 28.5938 31.3086 30 29.5312 30H5.46875C3.62305 30 2.1875 28.5938 2.1875 26.7857ZM10.9375 13.6607V14.1964C10.9375 14.6652 11.2793 15 11.7578 15H23.2422C23.6523 15 24.0625 14.6652 24.0625 14.1964V13.6607C24.0625 13.2589 23.6523 12.8571 23.2422 12.8571H11.7578C11.2793 12.8571 10.9375 13.2589 10.9375 13.6607ZM32.8125 0C33.9746 0 35 1.00446 35 2.14286V5.35714C35 5.95982 34.4531 6.42857 33.9062 6.42857H1.09375C0.478516 6.42857 0 5.95982 0 5.35714V2.14286C0 1.00446 0.957031 0 2.1875 0H32.8125Z" fill="#00C898"/>
</svg>
