<svg width="46" height="46" viewBox="0 0 46 46" fill="none" xmlns="http://www.w3.org/2000/svg">
<path d="M7.1875 34.7857V16.5714H37.8125V34.7857C37.8125 36.5938 36.3086 38 34.5312 38H10.4688C8.62305 38 7.1875 36.5938 7.1875 34.7857ZM15.9375 21.6607V22.1964C15.9375 22.6652 16.2793 23 16.7578 23H28.2422C28.6523 23 29.0625 22.6652 29.0625 22.1964V21.6607C29.0625 21.2589 28.6523 20.8571 28.2422 20.8571H16.7578C16.2793 20.8571 15.9375 21.2589 15.9375 21.6607ZM37.8125 8C38.9746 8 40 9.00446 40 10.1429V13.3571C40 13.9598 39.4531 14.4286 38.9062 14.4286H6.09375C5.47852 14.4286 5 13.9598 5 13.3571V10.1429C5 9.00446 5.95703 8 7.1875 8H37.8125Z" fill="#00C898"/>
</svg>
