<svg width="46" height="46" viewBox="0 0 46 46" fill="none" xmlns="http://www.w3.org/2000/svg">
<path d="M21.3125 5.3695C22.3672 4.87683 23.5625 4.87683 24.6172 5.3695L40.0156 12.478C40.5781 12.7595 41 13.3226 41 13.956C41 14.6598 40.5781 15.2229 40.0156 15.5044L24.6172 22.6129C23.5625 23.1056 22.3672 23.1056 21.3125 22.6129L5.91406 15.5044C5.35156 15.2229 5 14.6598 5 13.956C5 13.3226 5.35156 12.7595 5.91406 12.478L21.3125 5.3695ZM40.0156 21.4868C40.5781 21.7683 41 22.3314 41 22.9648C41 23.6686 40.5781 24.2317 40.0156 24.5132L24.6172 31.6217C23.5625 32.1144 22.3672 32.1144 21.3125 31.6217L5.91406 24.5132C5.35156 24.2317 5 23.6686 5 22.9648C5 22.3314 5.35156 21.7683 5.91406 21.4868L9.71094 19.7273L20.3984 24.654C22.0156 25.4282 23.9141 25.4282 25.5312 24.654L36.2188 19.7273L40.0156 21.4868ZM25.5312 33.6628L36.2188 28.7361L40.0156 30.4956C40.5781 30.7771 41 31.3402 41 31.9736C41 32.6774 40.5781 33.2405 40.0156 33.522L24.6172 40.6305C23.5625 41.1232 22.3672 41.1232 21.3125 40.6305L5.91406 33.522C5.35156 33.2405 5 32.6774 5 31.9736C5 31.3402 5.35156 30.7771 5.91406 30.4956L9.71094 28.7361L20.3984 33.6628C22.0156 34.437 23.9141 34.437 25.5312 33.6628Z" fill="#00C898"/>
</svg>
