<svg width="36" height="36" viewBox="0 0 36 36" fill="none" xmlns="http://www.w3.org/2000/svg">
<path d="M16.3125 0.369501C17.3672 -0.123167 18.5625 -0.123167 19.6172 0.369501L35.0156 7.47801C35.5781 7.75953 36 8.32258 36 8.95601C36 9.65982 35.5781 10.2229 35.0156 10.5044L19.6172 17.6129C18.5625 18.1056 17.3672 18.1056 16.3125 17.6129L0.914062 10.5044C0.351562 10.2229 0 9.65982 0 8.95601C0 8.32258 0.351562 7.75953 0.914062 7.47801L16.3125 0.369501ZM35.0156 16.4868C35.5781 16.7683 36 17.3314 36 17.9648C36 18.6686 35.5781 19.2317 35.0156 19.5132L19.6172 26.6217C18.5625 27.1144 17.3672 27.1144 16.3125 26.6217L0.914062 19.5132C0.351562 19.2317 0 18.6686 0 17.9648C0 17.3314 0.351562 16.7683 0.914062 16.4868L4.71094 14.7273L15.3984 19.654C17.0156 20.4282 18.9141 20.4282 20.5312 19.654L31.2188 14.7273L35.0156 16.4868ZM20.5312 28.6628L31.2188 23.7361L35.0156 25.4956C35.5781 25.7771 36 26.3402 36 26.9736C36 27.6774 35.5781 28.2405 35.0156 28.522L19.6172 35.6305C18.5625 36.1232 17.3672 36.1232 16.3125 35.6305L0.914062 28.522C0.351562 28.2405 0 27.6774 0 26.9736C0 26.3402 0.351562 25.7771 0.914062 25.4956L4.71094 23.7361L15.3984 28.6628C17.0156 29.437 18.9141 29.437 20.5312 28.6628Z" fill="#00C898"/>
</svg>
