<svg width="14" height="13" viewBox="0 0 14 13" fill="none" xmlns="http://www.w3.org/2000/svg">
    <path d="M0.25 1.0625C0.25 0.757812 0.484375 0.5 0.8125 0.5H1.86719C2.38281 0.5 2.85156 0.804688 3.0625 1.25H12.6953C13.3047 1.25 13.75 1.83594 13.5859 2.44531L12.625 6.00781C12.4375 6.75781 11.7578 7.25 11.0078 7.25H4.23438L4.375 7.92969C4.42188 8.1875 4.65625 8.375 4.91406 8.375H11.6875C11.9922 8.375 12.25 8.63281 12.25 8.9375C12.25 9.26562 11.9922 9.5 11.6875 9.5H4.91406C4.11719 9.5 3.41406 8.9375 3.27344 8.14062L2.05469 1.78906C2.03125 1.69531 1.96094 1.625 1.86719 1.625H0.8125C0.484375 1.625 0.25 1.39062 0.25 1.0625ZM3.25 11.375C3.25 10.9766 3.46094 10.625 3.8125 10.4141C4.14062 10.2031 4.58594 10.2031 4.9375 10.4141C5.26562 10.625 5.5 10.9766 5.5 11.375C5.5 11.7969 5.26562 12.1484 4.9375 12.3594C4.58594 12.5703 4.14062 12.5703 3.8125 12.3594C3.46094 12.1484 3.25 11.7969 3.25 11.375ZM11.125 10.25C11.5234 10.25 11.875 10.4844 12.0859 10.8125C12.2969 11.1641 12.2969 11.6094 12.0859 11.9375C11.875 12.2891 11.5234 12.5 11.125 12.5C10.7031 12.5 10.3516 12.2891 10.1406 11.9375C9.92969 11.6094 9.92969 11.1641 10.1406 10.8125C10.3516 10.4844 10.7031 10.25 11.125 10.25Z" fill="white"/>
</svg>
