<svg width="16" height="16" viewBox="0 0 16 16" fill="none" xmlns="http://www.w3.org/2000/svg">
<g clip-path="url(#clip0_88_1940)">
<path fill-rule="evenodd" clip-rule="evenodd" d="M8 4H7C7 2.35 5.65 1 4 1V0C6.21 0 8 1.79 8 4ZM3.5 8C5.43375 8 7 6.6875 7 4.5L3.5 4.5V1C1.3125 1 0 2.8725 0 4.5C0 6.43375 1.56625 8 3.5 8ZM11 3H13V9H11V3ZM14 4H16V9H14V4ZM10 6H8V9H10V6ZM13.5404 11.164C13.5527 10.516 14.0938 10 14.7579 10H14.7702C15.4466 10 16 10.54 16 11.2C16 11.86 15.4466 12.4 14.7702 12.4C14.5365 12.4 14.3274 12.316 14.143 12.208L11.0561 13.684C11.0069 14.308 10.4904 14.8 9.83859 14.8C9.18678 14.8 8.67025 14.308 8.62106 13.684L5.5711 12.196C5.38663 12.316 5.16526 12.4 4.91929 12.4C4.8455 12.4 4.77171 12.3797 4.69792 12.3595L4.69783 12.3595C4.67326 12.3527 4.6487 12.346 4.62414 12.34L2.39816 14.512C2.40467 14.5374 2.41206 14.562 2.41939 14.5865C2.43972 14.6542 2.45965 14.7206 2.45965 14.8C2.45965 15.46 1.90623 16 1.22982 16C0.55342 16 0 15.46 0 14.8C0 14.14 0.55342 13.6 1.22982 13.6C1.30361 13.6 1.3774 13.6203 1.45119 13.6405C1.47579 13.6473 1.50038 13.654 1.52498 13.66L3.75096 11.488C3.74444 11.4626 3.73706 11.438 3.72973 11.4135C3.7094 11.3458 3.68947 11.2794 3.68947 11.2C3.68947 10.54 4.26749 10 4.91929 10C5.5711 10 6.08762 10.492 6.13682 11.116L9.18678 12.604C9.37125 12.484 9.59262 12.4 9.83859 12.4C10.0846 12.4 10.3059 12.496 10.5027 12.616L13.5404 11.164Z" fill="#116C7E"/>
</g>
<defs>
<clipPath id="clip0_88_1940">
<rect width="16" height="16" fill="white"/>
</clipPath>
</defs>
</svg>
