<svg width="16" height="16" viewBox="0 0 16 16" fill="none" xmlns="http://www.w3.org/2000/svg">
<path d="M8 1.125C9.24219 1.125 10.25 2.13281 10.25 3.375V3.46875C10.25 3.84375 9.94531 4.125 9.57031 4.125H6.40625C6.03125 4.125 5.75 3.84375 5.75 3.46875V3.375C5.75 2.13281 6.75781 1.125 8 1.125ZM2.96094 3.60938C3.24219 3.30469 3.73438 3.30469 4.01562 3.60938L5.51562 5.10938C5.53906 5.13281 5.5625 5.13281 5.5625 5.15625C5.89062 4.99219 6.28906 4.89844 6.6875 4.89844H9.3125C9.71094 4.89844 10.0859 4.99219 10.4141 5.15625C10.4375 5.13281 10.4375 5.13281 10.4609 5.10938L11.9609 3.60938C12.2656 3.30469 12.7344 3.30469 13.0156 3.60938C13.3203 3.89062 13.3203 4.38281 13.0156 4.66406L11.5156 6.16406C11.5156 6.1875 11.4922 6.1875 11.4688 6.21094C11.6094 6.49219 11.7031 6.79688 11.7266 7.14844H13.25C13.6484 7.14844 14 7.47656 14 7.89844C14 8.29688 13.6484 8.64844 13.25 8.64844H11.75C11.75 9.21094 11.6094 9.75 11.375 10.2422C11.4219 10.2656 11.4688 10.3125 11.5156 10.3594L13.0156 11.8594C13.3203 12.1406 13.3203 12.6328 13.0156 12.9141C12.7344 13.2188 12.2422 13.2188 11.9609 12.9141L10.4844 11.4375C9.89844 11.9531 9.17188 12.2812 8.375 12.375V6.75C8.375 6.5625 8.1875 6.375 8 6.375C7.78906 6.375 7.625 6.5625 7.625 6.75V12.375C6.80469 12.2812 6.07812 11.9531 5.49219 11.4375L4.01562 12.9141C3.73438 13.2188 3.24219 13.2188 2.96094 12.9141C2.65625 12.6328 2.65625 12.1406 2.96094 11.8594L4.46094 10.3594C4.50781 10.3125 4.55469 10.2656 4.60156 10.2422C4.36719 9.75 4.25 9.21094 4.25 8.625H2.75C2.32812 8.625 2 8.29688 2 7.875C2 7.47656 2.32812 7.125 2.75 7.125H4.25C4.27344 6.79688 4.36719 6.49219 4.50781 6.21094C4.48438 6.1875 4.48438 6.1875 4.46094 6.16406L2.96094 4.66406C2.65625 4.38281 2.65625 3.89062 2.96094 3.60938Z" fill="#116C7E"/>
</svg>
