<svg width="16" height="16" viewBox="0 0 16 16" fill="none" xmlns="http://www.w3.org/2000/svg">
<path d="M5.65625 10.6484L4.92969 9.92185C4.74219 9.73435 4.67188 9.4531 4.76562 9.17185C4.83594 8.96091 4.92969 8.7031 5.02344 8.37498H2.5625C2.35156 8.37498 2.16406 8.28123 2.07031 8.09373C1.95312 7.92966 1.95312 7.71873 2.07031 7.53123L3.28906 5.46873C3.59375 4.9531 4.15625 4.62498 4.74219 4.62498H6.6875C6.73438 4.53123 6.78125 4.46091 6.85156 4.36716C8.77344 1.53123 11.6328 1.43748 13.3203 1.7656C13.6016 1.81248 13.8125 2.02341 13.8594 2.30466C14.1875 3.99216 14.0938 6.85154 11.2578 8.77341C11.1641 8.84373 11.0938 8.8906 11 8.93748V10.8828C11 11.4687 10.6719 12.0312 10.1562 12.3359L8.09375 13.5547C7.90625 13.6719 7.69531 13.6719 7.53125 13.5547C7.34375 13.4609 7.25 13.2734 7.25 13.0625V10.5547C6.89844 10.6719 6.61719 10.7656 6.40625 10.8359C6.14844 10.9297 5.84375 10.8594 5.65625 10.6484ZM11 5.56248C11.3281 5.56248 11.6328 5.39841 11.7969 5.09373C11.9609 4.81248 11.9609 4.46091 11.7969 4.15623C11.6328 3.87498 11.3281 3.68748 11 3.68748C10.6484 3.68748 10.3438 3.87498 10.1797 4.15623C10.0156 4.46091 10.0156 4.81248 10.1797 5.09373C10.3438 5.39841 10.6484 5.56248 11 5.56248Z" fill="#116C7E"/>
</svg>
