<svg width="24" height="25" viewBox="0 0 24 25" fill="none" xmlns="http://www.w3.org/2000/svg">
<rect y="0.5" width="24" height="24" rx="3" fill="#1ABDCA"/>
<path d="M15.6094 12.4141L15.0703 12.9531L10.4062 17.6172C10.1719 17.875 9.86719 18.0391 9.53906 18.1562L6.70312 18.9766C6.51562 19.0234 6.30469 18.9766 6.16406 18.8359C6 18.6953 5.95312 18.4844 6.02344 18.2734L6.84375 15.4609C6.9375 15.1328 7.125 14.8281 7.35938 14.5703L12.0234 9.90625L12.5625 9.39062L12.8203 9.10938L13.6172 9.90625L15.0703 11.3594L15.8672 12.1562L15.6094 12.4141ZM9.75 16.375H9C8.78906 16.375 8.625 16.2109 8.625 16V15.25L8.08594 15.4609C8.01562 15.5547 7.94531 15.6484 7.92188 15.7656L7.38281 17.5938L9.21094 17.0547C9.32812 17.0312 9.42188 16.9844 9.51562 16.9141L9.75 16.375ZM14.4844 7.44531C15.0703 6.85938 16.0312 6.85938 16.6172 7.44531L17.5312 8.38281C18.1172 8.96875 18.1172 9.90625 17.5312 10.4922L17.2031 10.8438L16.6641 11.3594L16.4062 11.6172L15.6094 10.8438L14.1562 9.36719L13.3594 8.59375L13.6172 8.3125L14.1562 7.79688L14.4844 7.44531ZM13.3828 11.3828C13.5234 11.2422 13.5234 11.0078 13.3828 10.8672C13.2422 10.7031 12.9844 10.7031 12.8438 10.8672L9.46875 14.2422C9.32812 14.3828 9.32812 14.6172 9.46875 14.7578C9.60938 14.8984 9.86719 14.8984 10.0078 14.7578L13.3828 11.3828Z" fill="white"/>
</svg>
