<svg width="32" height="24" viewBox="0 0 32 24" fill="none" xmlns="http://www.w3.org/2000/svg">
<path d="M31.375 7.9375C31.625 7.75 32 7.9375 32 8.25V21C32 22.6875 30.625 24 29 24H3C1.3125 24 0 22.6875 0 21V8.25C0 7.9375 0.3125 7.75 0.5625 7.9375C2 9.0625 3.8125 10.4375 10.1875 15.0625C11.5 16 13.75 18.0625 16 18.0625C18.1875 18.0625 20.5 16 21.75 15.0625C28.125 10.4375 29.9375 9.0625 31.375 7.9375ZM16 16C14.5 16.0625 12.4375 14.1875 11.375 13.4375C3.0625 7.4375 2.4375 6.875 0.5625 5.375C0.1875 5.125 0 4.6875 0 4.1875V3C0 1.375 1.3125 0 3 0H29C30.625 0 32 1.375 32 3V4.1875C32 4.6875 31.75 5.125 31.375 5.375C29.5 6.875 28.875 7.4375 20.5625 13.4375C19.5 14.1875 17.4375 16.0625 16 16Z" fill="#116C7E"/>
</svg>
