<svg width="46" height="46" viewBox="0 0 46 46" fill="none" xmlns="http://www.w3.org/2000/svg">
<path d="M38.375 18.9375C38.625 18.75 39 18.9375 39 19.25V32C39 33.6875 37.625 35 36 35H10C8.3125 35 7 33.6875 7 32V19.25C7 18.9375 7.3125 18.75 7.5625 18.9375C9 20.0625 10.8125 21.4375 17.1875 26.0625C18.5 27 20.75 29.0625 23 29.0625C25.1875 29.0625 27.5 27 28.75 26.0625C35.125 21.4375 36.9375 20.0625 38.375 18.9375ZM23 27C21.5 27.0625 19.4375 25.1875 18.375 24.4375C10.0625 18.4375 9.4375 17.875 7.5625 16.375C7.1875 16.125 7 15.6875 7 15.1875V14C7 12.375 8.3125 11 10 11H36C37.625 11 39 12.375 39 14V15.1875C39 15.6875 38.75 16.125 38.375 16.375C36.5 17.875 35.875 18.4375 27.5625 24.4375C26.5 25.1875 24.4375 27.0625 23 27Z" fill="#116C7E"/>
</svg>
