<svg width="16" height="16" viewBox="0 0 16 16" fill="none" xmlns="http://www.w3.org/2000/svg">
<path fill-rule="evenodd" clip-rule="evenodd" d="M3.09091 3.09091H9.63636V4.18182H10.7273V3.09091C10.7273 2.48842 10.2389 2 9.63636 2H3.09091C2.48842 2 2 2.48842 2 3.09091V9.63636C2 10.2389 2.48842 10.7273 3.09091 10.7273H4.18182V9.63636H3.09091V3.09091ZM9.63636 10.7273H8.54545V9.63636L9.63636 9.63636L9.63636 8.54545H10.7273V9.63636C10.7273 10.2389 10.2389 10.7273 9.63636 10.7273ZM6.36364 5.27273H7.45454V6.36363H8.54545V6.36364H6.36364V7.45454H5.27273V6.36364C5.27273 5.76114 5.76114 5.27273 6.36364 5.27273ZM12.9091 6.36364H11.8182V5.27273H12.9091C13.5116 5.27273 14 5.76114 14 6.36364V12.9091C14 13.5116 13.5116 14 12.9091 14H6.36364C5.76114 14 5.27273 13.5116 5.27273 12.9091V11.8182H6.36364V12.9091H12.9091V6.36364ZM6.36364 8.54545H5.27273V10.7273H6.36363V10.7273H7.45454V9.63638H6.36364V8.54545ZM10.7273 7.45455H9.63636V6.36362H8.54546V5.27271L9.63637 5.27271V5.27273H10.7273V7.45455Z" fill="#116C7E"/>
</svg>
