<svg width="11" height="11" viewBox="0 0 11 11" fill="none" xmlns="http://www.w3.org/2000/svg">
<path d="M6.25 1C6.25 0.601562 6.57812 0.25 7 0.25H9.97656C10.0938 0.25 10.1875 0.273438 10.2812 0.320312C10.3516 0.34375 10.4453 0.414062 10.5156 0.484375C10.6562 0.625 10.7266 0.8125 10.75 1V4C10.75 4.42188 10.3984 4.75 10 4.75C9.57812 4.75 9.25 4.42188 9.25 4V2.82812L5.26562 6.78906C4.98438 7.09375 4.49219 7.09375 4.21094 6.78906C3.90625 6.50781 3.90625 6.01562 4.21094 5.73438L8.17188 1.75H7C6.57812 1.75 6.25 1.42188 6.25 1ZM0.25 2.5C0.25 1.67969 0.90625 1 1.75 1H4C4.39844 1 4.75 1.35156 4.75 1.75C4.75 2.17188 4.39844 2.5 4 2.5H1.75V9.25H8.5V7C8.5 6.60156 8.82812 6.25 9.25 6.25C9.64844 6.25 10 6.60156 10 7V9.25C10 10.0938 9.32031 10.75 8.5 10.75H1.75C0.90625 10.75 0.25 10.0938 0.25 9.25V2.5Z" fill="white"/>
</svg>
