<svg width="16" height="16" viewBox="0 0 16 16" fill="none" xmlns="http://www.w3.org/2000/svg">
<path d="M7.75 4.875V4.89844C9.20312 4.89844 10.375 6.07031 10.375 7.5C10.375 8.95312 9.20312 10.125 7.75 10.125C6.29688 10.125 5.125 8.95312 5.125 7.5C5.125 7.24219 5.17188 7.00781 5.24219 6.77344C5.40625 6.89062 5.64062 6.9375 5.875 6.9375C6.57812 6.9375 7.1875 6.35156 7.1875 5.625C7.16406 5.41406 7.11719 5.17969 7 4.99219C7.23438 4.92188 7.49219 4.89844 7.75 4.875ZM14.4062 7.17188C14.4531 7.26562 14.4766 7.38281 14.4766 7.52344C14.4766 7.64062 14.4531 7.75781 14.4062 7.85156C13.1406 10.3359 10.6094 12 7.75 12C4.86719 12 2.33594 10.3359 1.07031 7.85156C1.02344 7.75781 1 7.64062 1 7.5C1 7.38281 1.02344 7.26562 1.07031 7.17188C2.33594 4.6875 4.86719 3 7.75 3C10.6094 3 13.1406 4.6875 14.4062 7.17188ZM7.75 10.875C10.0469 10.875 12.1797 9.58594 13.3047 7.5C12.1797 5.41406 10.0469 4.125 7.75 4.125C5.42969 4.125 3.29688 5.41406 2.17188 7.5C3.29688 9.58594 5.42969 10.875 7.75 10.875Z" fill="#116C7E"/>
</svg>
