<svg width="12" height="13" viewBox="0 0 12 13" fill="none" xmlns="http://www.w3.org/2000/svg">
    <path d="M8.25 8C7.78125 8 7.35938 7.92969 6.96094 7.78906L2.69531 12.0547C2.41406 12.3359 1.99219 12.5 1.57031 12.5C0.703125 12.5 0 11.7969 0 10.9297C0 10.5078 0.164062 10.0859 0.445312 9.80469L4.71094 5.53906C4.57031 5.14062 4.5 4.71875 4.5 4.25C4.5 2.1875 6.16406 0.5 8.25 0.5C8.60156 0.5 8.95312 0.570312 9.28125 0.664062C9.51562 0.734375 9.58594 1.03906 9.39844 1.22656L7.59375 3.03125C7.52344 3.10156 7.5 3.19531 7.5 3.28906V4.625C7.5 4.83594 7.66406 5 7.875 5H9.21094C9.30469 5 9.39844 4.97656 9.46875 4.90625L11.2734 3.10156C11.4609 2.91406 11.7656 2.96094 11.8359 3.21875C11.9297 3.54688 12 3.89844 12 4.25C12 6.33594 10.3125 8 8.25 8ZM1.875 10.0625C1.54688 10.0625 1.3125 10.3203 1.3125 10.625C1.3125 10.9531 1.54688 11.1875 1.875 11.1875C2.17969 11.1875 2.4375 10.9531 2.4375 10.625C2.4375 10.3203 2.17969 10.0625 1.875 10.0625Z" fill="white"/>
</svg>