<svg width="12" height="11" viewBox="0 0 12 11" fill="none" xmlns="http://www.w3.org/2000/svg">
<path d="M0 3.60938V3.49219C0 1.85156 1.17188 0.445312 2.78906 0.1875C3.84375 0 4.94531 0.351562 5.71875 1.125L6 1.38281L6.25781 1.125C7.03125 0.351562 8.13281 0 9.1875 0.1875C10.8047 0.445312 12 1.85156 12 3.49219V3.60938C12 4.59375 11.5781 5.53125 10.875 6.1875L6.63281 10.1484C6.46875 10.3125 6.23438 10.3828 6 10.3828C5.74219 10.3828 5.50781 10.3125 5.34375 10.1484L1.10156 6.1875C0.398438 5.53125 0 4.59375 0 3.60938Z" fill="#ED332B"/>
</svg>
