<svg width="46" height="46" viewBox="0 0 46 46" fill="none" xmlns="http://www.w3.org/2000/svg">
<path d="M40.7014 7.00349C41.9535 6.93425 43.0665 7.90368 42.9969 9.08086V32.4858C42.9969 33.5937 42.0926 34.5632 40.9101 34.6324C37.5017 34.7709 30.5457 35.4634 25.7461 37.887C24.9809 38.2332 24.0766 37.7485 24.0766 36.9175V11.7122C24.0766 11.366 24.2853 11.0197 24.6331 10.812C29.2936 7.97293 36.8756 7.21123 40.7014 7.00349ZM21.3638 10.812C21.7116 11.0197 21.9203 11.366 21.9203 11.7122V36.9175C21.9203 37.7485 21.016 38.2332 20.2508 37.887C15.4512 35.4634 8.49523 34.7709 5.0868 34.6324C3.90428 34.5632 3 33.5937 3 32.4858V9.08086C3 7.90368 4.0434 6.93425 5.29547 7.00349C9.12127 7.21123 16.7033 7.97293 21.3638 10.812Z" fill="#116C7E"/>
</svg>
