<svg width="16" height="16" viewBox="0 0 16 16" fill="none" xmlns="http://www.w3.org/2000/svg">
<path fill-rule="evenodd" clip-rule="evenodd" d="M9.2 3.35122V4.60485C10.2229 4.96639 11.0336 5.7771 11.3952 6.8H12.6488C12.2146 5.11327 10.8867 3.78536 9.2 3.35122ZM6.8 4.60485V3.35122C5.11327 3.78535 3.78535 5.11327 3.35122 6.8H4.60485C4.96639 5.7771 5.7771 4.96639 6.8 4.60485ZM8 5.6C9.32476 5.6 10.3988 6.67335 10.4 7.99784L10.4 8L10.4 8.00216C10.3988 9.32593 9.32593 10.3988 8.00216 10.4L8 10.4L7.99784 10.4C6.67335 10.3988 5.6 9.32476 5.6 8C5.6 6.67452 6.67452 5.6 8 5.6ZM4.60485 9.2C4.96639 10.2229 5.7771 11.0336 6.8 11.3952V12.6488C5.11327 12.2146 3.78536 10.8867 3.35122 9.2H4.60485ZM12.6488 9.2C12.2146 10.8867 10.8867 12.2146 9.2 12.6488V11.3952C10.2229 11.0336 11.0336 10.2229 11.3952 9.2H12.6488ZM14 8C14 11.3137 11.3137 14 8 14C4.68629 14 2 11.3137 2 8C2 4.68629 4.68629 2 8 2C11.3137 2 14 4.68629 14 8Z" fill="#116C7E" />
</svg>
