<svg width="12" height="12" viewBox="0 0 12 12" fill="none" xmlns="http://www.w3.org/2000/svg">
<path d="M6 0C9.30469 0 12 2.69531 12 6C12 9.32812 9.30469 12 6 12C4.71094 12 3.53906 11.6016 2.55469 10.9453C2.22656 10.6875 2.13281 10.2188 2.36719 9.89062C2.60156 9.53906 3.07031 9.46875 3.42188 9.70312C4.14844 10.2188 5.03906 10.5 6 10.5C8.48438 10.5 10.5 8.48438 10.5 6C10.5 3.51562 8.48438 1.5 6 1.5C4.73438 1.5 3.63281 2.01562 2.8125 2.83594L3.53906 3.53906C3.89062 3.91406 3.63281 4.5 3.14062 4.5H0.5625C0.234375 4.5 0 4.26562 0 3.9375V1.35938C0 0.867188 0.585938 0.609375 0.9375 0.960938L1.73438 1.75781C2.83594 0.679688 4.33594 0 5.97656 0H6ZM6 3C6.30469 3 6.5625 3.25781 6.5625 3.5625V5.78906L8.0625 7.28906C8.29688 7.52344 8.29688 7.875 8.0625 8.08594C7.85156 8.32031 7.5 8.32031 7.28906 8.08594L5.60156 6.39844C5.48438 6.30469 5.4375 6.16406 5.4375 6V3.5625C5.4375 3.25781 5.67188 3 6 3Z" fill="white"/>
</svg>
