<svg fill="none" height="16" viewBox="0 0 16 16" width="16" xmlns="http://www.w3.org/2000/svg" xmlns:xlink="http://www.w3.org/1999/xlink"><clipPath id="a"><path d="m0 0h16v16h-16z"/></clipPath><g clip-path="url(#a)"><path d="m10.2531 1.76777c.3131.31304.3131.86547 0 1.17851l-1.76775 1.76777-1.17851-1.17852 1.76777-1.76776c.31304-.31305.84705-.33146 1.17849 0zm3.5356 3.53553c.313.31304.313.86547 0 1.17851l-1.7678 1.76777-1.1785-1.17851 1.7677-1.76777c.3131-.31304.8471-.33146 1.1786 0zm-7.66037-1.76777 5.89257 5.89256c.313.31304.313.86551 0 1.17851-.3315.3315-.8655.313-1.1785 0l-.5893.5893c-1.43629 1.4363-3.62759 1.602-5.24804.534l-1.23375 1.2337c-.33146.3315-.86547.3131-1.17851 0-.33146-.3314-.33146-.847 0-1.1785l1.23375-1.2337c-1.06803-1.62049-.9023-3.81179.53401-5.2481l.58926-.58926c-.33146-.33145-.33146-.84705 0-1.17851.31304-.31304.84705-.33145 1.17851 0z" fill="#116c7e"/></g></svg>