<svg width="17" height="17" viewBox="0 0 17 17" fill="none" xmlns="http://www.w3.org/2000/svg">
<path d="M9.36328 11.4219L8.23438 12.5176C8.10156 12.6836 7.90234 12.75 7.70312 12.75H6.375V14.0781C6.375 14.543 6.00977 14.875 5.57812 14.875H4.25V16.2031C4.25 16.668 3.88477 17 3.45312 17H0.796875C0.332031 17 0 16.668 0 16.2031V13.5469C0 13.3477 0.0664062 13.1484 0.232422 12.9824L5.57812 7.63672C5.37891 7.07227 5.3125 6.47461 5.3125 5.84375C5.3125 2.62305 7.90234 0 11.1562 0C14.377 0 17 2.62305 17 5.84375C17 9.09766 14.377 11.6875 11.1562 11.6875C10.5254 11.6875 9.92773 11.6211 9.36328 11.4219ZM12.4844 5.84375C13.2148 5.84375 13.8125 5.2793 13.8125 4.51562C13.8125 3.78516 13.2148 3.1875 12.4844 3.1875C11.7207 3.1875 11.1562 3.78516 11.1562 4.51562C11.1562 5.2793 11.7207 5.84375 12.4844 5.84375Z" fill="#92D5E3"/>
</svg>
