<svg width="26" height="39" viewBox="0 0 26 39" fill="none" xmlns="http://www.w3.org/2000/svg">
<path d="M7.09091 34.5906V31.6257H18.8352V34.5906C18.8352 35.0468 18.6875 35.5029 18.4659 35.9591L17.2102 37.8596C16.767 38.5439 16.0284 39 15.2159 39H10.7102C9.89773 39 9.15909 38.5439 8.71591 37.8596L7.46023 35.9591C7.16477 35.5029 7.09091 35.0468 7.09091 34.5906ZM0 13.3801C0 6.30994 5.39205 0.0760234 12.9261 0C20.0909 0 26 6.00585 26 13.3801C26 16.8012 24.7443 19.8421 22.75 22.1988C21.4943 23.6433 19.6477 26.6842 18.9091 29.193C18.9091 29.193 18.9091 29.193 18.9091 29.269H7.01705C7.01705 29.193 7.01705 29.193 7.01705 29.193C6.27841 26.6842 4.43182 23.6433 3.17614 22.1988C1.18182 19.8421 0 16.8012 0 13.3801ZM13 7.29825C13.5909 7.29825 14.1818 6.76608 14.1818 6.08187C14.1818 5.47368 13.5909 4.8655 13 4.8655C8.42045 4.8655 4.72727 8.74269 4.72727 13.3801C4.72727 14.0643 5.24432 14.5965 5.90909 14.5965C6.5 14.5965 7.09091 14.0643 7.09091 13.3801C7.09091 10.0351 9.67614 7.29825 13 7.29825Z" fill="#F9CA58"/>
</svg>
