<svg width="46" height="46" viewBox="0 0 46 46" fill="none" xmlns="http://www.w3.org/2000/svg">
<path d="M17.0909 37.5906V34.6257H28.8352V37.5906C28.8352 38.0468 28.6875 38.5029 28.4659 38.9591L27.2102 40.8596C26.767 41.5439 26.0284 42 25.2159 42H20.7102C19.8977 42 19.1591 41.5439 18.7159 40.8596L17.4602 38.9591C17.1648 38.5029 17.0909 38.0468 17.0909 37.5906ZM10 16.3801C10 9.30994 15.392 3.07602 22.9261 3C30.0909 3 36 9.00585 36 16.3801C36 19.8012 34.7443 22.8421 32.75 25.1988C31.4943 26.6433 29.6477 29.6842 28.9091 32.193C28.9091 32.193 28.9091 32.193 28.9091 32.269H17.017C17.017 32.193 17.017 32.193 17.017 32.193C16.2784 29.6842 14.4318 26.6433 13.1761 25.1988C11.1818 22.8421 10 19.8012 10 16.3801ZM23 10.2982C23.5909 10.2982 24.1818 9.76608 24.1818 9.08187C24.1818 8.47368 23.5909 7.8655 23 7.8655C18.4205 7.8655 14.7273 11.7427 14.7273 16.3801C14.7273 17.0643 15.2443 17.5965 15.9091 17.5965C16.5 17.5965 17.0909 17.0643 17.0909 16.3801C17.0909 13.0351 19.6761 10.2982 23 10.2982Z" fill="#F9CA58"/>
</svg>
