<svg width="72" height="72" viewBox="0 0 72 72" fill="none" xmlns="http://www.w3.org/2000/svg">
<circle cx="36" cy="36" r="36" fill="#1ABDCA"/>
<path d="M43.25 42.5C41.7656 42.5 40.3594 42.3438 39.0312 41.875L36.4531 44.4531C36.0625 44.8438 35.5938 45 35.125 45H32V48.125C32 49.2188 31.1406 50 30.125 50H27V53.125C27 54.2188 26.1406 55 25.125 55H18.875C17.7812 55 17 54.2188 17 53.125V46.875C17 46.4062 17.1562 45.9375 17.5469 45.5469L30.125 32.9688C29.6562 31.6406 29.5 30.2344 29.5 28.75C29.5 21.1719 35.5938 15 43.25 15C50.8281 15 57 21.1719 57 28.75C57 36.4062 50.8281 42.5 43.25 42.5ZM46.375 22.5C45.2031 22.5 44.1875 23.125 43.6406 24.0625C43.0938 25.0781 43.0938 26.25 43.6406 27.1875C44.1875 28.2031 45.2031 28.75 46.375 28.75C47.4688 28.75 48.4844 28.2031 49.0312 27.1875C49.5781 26.25 49.5781 25.0781 49.0312 24.0625C48.4844 23.125 47.4688 22.5 46.375 22.5Z" fill="white"/>
</svg>
