<svg width="72" height="72" viewBox="0 0 72 72" fill="none" xmlns="http://www.w3.org/2000/svg">
<circle cx="36" cy="36" r="36" fill="#1ABDCA"/>
<path d="M19.5 25C19.5 21.4844 21.375 18.2031 24.5 16.4062C27.5469 14.6094 31.375 14.6094 34.5 16.4062C37.5469 18.2031 39.5 21.4844 39.5 25C39.5 28.5938 37.5469 31.875 34.5 33.6719C31.375 35.4688 27.5469 35.4688 24.5 33.6719C21.375 31.875 19.5 28.5938 19.5 25ZM12 52.7344C12 45 18.1719 38.75 25.9062 38.75H33.0156C40.75 38.75 47 45 47 52.7344C47 53.9844 45.9062 55 44.6562 55H14.2656C13.0156 55 12 53.9844 12 52.7344ZM51.375 39.375V34.375H46.375C45.2812 34.375 44.5 33.5938 44.5 32.5C44.5 31.4844 45.2812 30.625 46.375 30.625H51.375V25.625C51.375 24.6094 52.1562 23.75 53.25 23.75C54.2656 23.75 55.125 24.6094 55.125 25.625V30.625H60.125C61.1406 30.625 62 31.4844 62 32.5C62 33.5938 61.1406 34.375 60.125 34.375H55.125V39.375C55.125 40.4688 54.2656 41.25 53.25 41.25C52.1562 41.25 51.375 40.4688 51.375 39.375Z" fill="white"/>
</svg>
