<?xml version="1.0" encoding="UTF-8"?>
<svg id="Layer_1" xmlns="http://www.w3.org/2000/svg" version="1.1" viewBox="0 0 142.3 66.5">
  <!-- Generator: Adobe Illustrator 29.0.1, SVG Export Plug-In . SVG Version: 2.1.0 Build 192)  -->
  <defs>
    <style>
      .st0 {
        fill: #c22828;
      }

      .st1 {
        fill: #d7292a;
      }

      .st2 {
        fill: #fff;
      }

      .st3 {
        fill: #ffe000;
      }

      .st4 {
        fill: #92d5e3;
      }

      .st5 {
        fill: #116c7e;
      }

      .st6 {
        fill: #ed332b;
      }

      .st7 {
        fill: #1abdca;
      }

      .st8 {
        fill: #d9d9d9;
      }
    </style>
  </defs>
  <path class="st6" d="M75.8,66.5c0,0-.2,0-.2,0-1,0-1.8-.7-2.1-1.6l-2.8-7.7-6.3,7.8c-.5.6-1.2.9-2,.9s-.5,0-.8-.1c-1-.3-1.7-1.2-1.7-2.3l-.7-11.9-16.8,1.9c0,0-.2,0-.3,0-.9,0-1.8-.5-2.3-1.4-.5-.9-.3-2.1.4-2.9l10.8-11.4-12.1-7.8c-.9-.6-1.3-1.7-1.1-2.7.3-1,1.1-1.8,2.2-1.9l13.5-1.3-3.1-9c-.3-.9,0-1.9.6-2.6.5-.5,1.1-.7,1.8-.7s.5,0,.8.1l11.2,3.8,1.5-8.7c.1-.8.7-1.5,1.5-1.9.3-.1.7-.2,1-.2s.9.1,1.3.4l8.4,5.3,3.5-7.5c.4-.8,1.1-1.3,1.9-1.4.1,0,.3,0,.4,0,.7,0,1.4.3,1.8.8l5.7,6.2,6.2-7.5C98.5.3,99.2,0,99.9,0s.2,0,.3,0c.8,0,1.6.6,2,1.4l3,6,8.7-5.8c.4-.3.9-.4,1.4-.4s.8,0,1.2.3c.8.4,1.3,1.3,1.4,2.2v6.5c3.3-.3,8.6-.7,11.3-.7s3,0,3.8,1.6c.4.9.3,2-.3,2.7-.4.5-3.8,4.6-6.3,7.5l9.2,3c.9.3,1.6,1.1,1.7,2,.1.9-.2,1.9-1,2.4l-7.3,5.4,12.3,8.4c.9.6,1.3,1.9,1,2.9-.4,1-1.3,1.7-2.4,1.7s-.1,0-.2,0l-17.1-1.5,2.9,7.1c.4,1,.2,2.1-.6,2.8-.5.5-1.1.7-1.7.7s-.7,0-1.1-.2l-10-4.7-2.3,8.8c-.2.8-.8,1.5-1.7,1.8-.3,0-.5.1-.8.1-.6,0-1.1-.2-1.6-.6l-7.2-5.9-4.4,8.9c-.4.8-1.1,1.3-2,1.4,0,0-.2,0-.3,0-.7,0-1.5-.3-1.9-.9l-6.8-8.2-5.1,8.5c-.5.8-1.3,1.2-2.2,1.2Z"/>
  <path class="st3" d="M56.8,26.2l-4.1-12,14,4.7,2-11.6,10.8,6.8,4.7-10.1,7.7,8.3,8-9.7,4.3,8.5,11.1-7.4v9.2c.1,0,15.9-1.4,15.3-.7s-8.6,10.3-8.6,10.3l12.7,4.2-10.2,7.5,15.3,10.5-21.2-1.9,4.5,10.9-12.8-5.9-3,11.8-9.7-7.9-5.8,11.8-9-10.9-7,11.5-4.3-11.9-9.1,11.3-.8-14.5-19.5,2.2,12.8-13.7-14.7-9.5,16.6-1.6Z"/>
  <g>
    <path d="M77.9,41.3l-4.8.8-6.5-8.8h0c.4,1.5.6,2.6.7,3.4l1,6.1-3.3.5-2.2-13.6,4.8-.8,6.5,8.6h0c-.3-1.4-.5-2.5-.7-3.3l-1-6.1,3.3-.5,2.2,13.6Z"/>
    <path d="M88.9,39.5l-8.1,1.3-2.2-13.6,8.1-1.3.5,2.9-4.4.7.4,2.1,4.1-.7.5,2.9-4.1.7.4,2.6,4.4-.7.5,3Z"/>
    <path d="M106,36.7l-4.3.7-2.3-5.7c-.1-.2-.3-.7-.5-1.4-.3-.7-.5-1.3-.6-1.8,0,.4,0,.9,0,1.5,0,.6,0,1.2,0,1.7,0,.5-.1,2.6-.3,6.3l-4.3.7-5.6-13,3.5-.6,2.6,6.6c.6,1.5,1,2.6,1.3,3.5,0-.6,0-1.5,0-2.6,0-1.1,0-2,.1-2.8l.4-5.3,3.4-.6,2,4.9c.3.8.7,1.7,1.1,2.8.4,1,.7,1.8.8,2.3,0-.7,0-1.9,0-3.7l.4-7.1,3.5-.6-1.1,14.1Z"/>
    <path d="M113.1,30.6l-3.1.5-1.9-8.7,4-.7,1,8.9ZM110.2,34.5c0-.6,0-1,.3-1.4.3-.4.7-.6,1.4-.7.6-.1,1.1,0,1.5.2.4.3.6.7.7,1.2,0,.6,0,1-.3,1.4-.3.4-.7.6-1.3.7-.6.1-1.1,0-1.5-.2-.4-.3-.6-.7-.7-1.2Z"/>
  </g>
  <g>
    <path class="st7" d="M33,63.8c9.2,0,16.6-3.7,16.6-8.3s-7.4-8.3-16.6-8.3-16.6,3.7-16.6,8.3,7.4,8.3,16.6,8.3Z"/>
    <path class="st0" d="M48.4,49.8s0,0,0,0c0-4.3-6.9-7.7-15.5-7.7s-15.5,3.5-15.5,7.7,0,0,0,0,0,0,0,0,0,0,0,0,0,0,0,0,0,0,0,0,0,0,0,0,0,0,0,0,0,0,0,0,0,0,0,0,0,0,0,0,0,0,0,0,0,0,0,0,0,0,0,0,0,0,0,0,0,0,0,0,0,0,0,0,0,0,0,0,0,0,0,0,0,0,0,0,0,0,0,0,0,0,0,0,0,0,0,0,0,0,0,0,0,0,0,0,0,0,0,0,0,0,0,0,0,0,0,0,0,0,0,0,0,0,0,0,0,0,0,0,0,0,0,0,0,0,0,0,0,0,0,0,0,0,0,0,0,0,0,0,0,0,0,0,0,0,0,0,0,0,0,0,0,0,0,0,0,0,0,0,0,0,0,0,0,0,0,0,0,0,0,0,0,0,0,0,0,0,0,0,0,0,0,0,0,0,0,0,0,0,0,0,0,0,0,0,0,0,0,0,0,0,0,0,0,0,0,0,0,0,0,0,0,0,0,0,0,0,0,0,0,0,0,0,0,0,0,0,0,0,0,0,0,0,0,0,0,0,0,0,0,0,0,0,0,0,0,0,0,0,0,0,0,0,0,0,0,0,0,0,0,0,0,0,0,0,0,0,0,0,0,0,0,0,0,0,0,0,0,0,0,0,0,0,0,0,0,0,0,0,0,0,0,0,0,0,0,0,0,0,0,0,0,0,0,0,0,0,0,0,0,0,0,0,0,0,0,0,0,0,0,0,0,0,0,0,0,0c0,4.3,6.9,7.7,15.5,7.7s15.5-3.5,15.5-7.7,0,0,0,0,0,0,0,0,0,0,0,0,0,0,0,0,0,0,0,0,0,0,0,0,0,0,0,0,0,0,0,0,0,0,0,0,0,0,0,0,0,0,0,0,0,0,0,0,0,0,0,0,0,0,0,0,0,0,0,0,0,0,0,0,0,0,0,0,0,0,0,0,0,0,0,0,0,0,0,0,0,0,0,0,0,0,0,0,0,0,0,0,0,0,0,0,0,0,0,0,0,0,0,0,0,0,0,0,0,0,0,0,0,0,0,0,0,0,0,0,0,0,0,0,0,0,0,0,0,0,0,0,0,0,0,0,0,0,0,0,0,0,0,0,0,0,0,0,0,0,0,0,0,0,0,0,0,0,0,0,0,0,0,0,0,0,0,0,0,0,0,0,0,0,0,0,0,0,0,0,0,0,0,0,0,0,0,0,0,0,0,0,0,0,0,0,0,0,0,0,0,0,0,0,0,0,0,0,0,0,0,0,0,0,0,0,0,0,0,0,0,0,0,0,0,0,0,0,0,0,0,0,0,0,0,0,0,0,0,0,0,0,0,0,0,0,0,0,0,0,0,0,0,0,0,0,0,0,0,0,0,0,0,0,0,0,0,0,0,0,0,0,0,0,0,0,0,0,0,0,0,0,0,0,0,0,0,0,0,0,0,0,0,0,0,0,0,0,0,0,0,0,0,0,0,0,0,0,0,0,0,0,0,0,0,0,0,0,0,0,0,0,0,0Z"/>
    <path class="st6" d="M33,57.5c8.5,0,15.5-3.5,15.5-7.7s-6.9-7.7-15.5-7.7-15.5,3.5-15.5,7.7,6.9,7.7,15.5,7.7Z"/>
    <path class="st1" d="M33,42c-8.5,0-15.5,3.5-15.5,7.7s.3,1.8.9,2.7l29-5.3c-2.2-3-7.9-5.1-14.5-5.1Z"/>
    <path class="st8" d="M37.1,43.9c.2-2.6-9-2.6-8.4.3,0,.4,0,.8,0,1.1,0,1.2,0,2.5,0,3.7,0,2.5,8.8,2.5,8.4-.3,0-.4,0-.8,0-1.2,0-1.2,0-2.5,0-3.7Z"/>
    <path class="st8" d="M37.2,46.5s0,0,0,0c0,0,0,0,0,0s0,0,0,0c0,0,0,0,0,0s0,0,0,0c0,0,0,0,0,0s0,0,0,0c0,0,0,0,0,0s0,0,0,0c0,0,0,0,0,0s0,0,0,0c0,0,0,0,0,0s0,0,0,0c0,0,0,0,0,0s0,0,0,0c0,0,0,0,0,0s0,0,0,0c0,0,0,0,0,0s0,0,0,0c0,0,0,0,0,0s0,0,0,0c0,0,0,0,0,0s0,0,0,0c0,0,0,0,0,0s0,0,0,0c0,0,0,0,0,0s0,0,0,0c0,0,0,0,0,0s0,0,0,0c0,0,0,0,0,0s0,0,0,0c0,0,0,0,0,0s0,0,0,0c0,0,0,0,0,0s0,0,0,0c0,0,0,0,0,0s0,0,0,0c0,0,0,0,0,0s0,0,0,0c0,0,0,0,0,0s0,0,0,0c0,0,0,0,0,0,0-1-1.9-1.9-4.2-1.9s-4.2.8-4.2,1.9,0,0,0,0c0,0,0,0,0,0s0,0,0,0c0,0,0,0,0,0s0,0,0,0c0,0,0,0,0,0s0,0,0,0c0,0,0,0,0,0s0,0,0,0c0,0,0,0,0,0s0,0,0,0c0,0,0,0,0,0s0,0,0,0c0,0,0,0,0,0s0,0,0,0c0,0,0,0,0,0s0,0,0,0c0,0,0,0,0,0s0,0,0,0c0,0,0,0,0,0s0,0,0,0c0,0,0,0,0,0s0,0,0,0c0,0,0,0,0,0s0,0,0,0c0,0,0,0,0,0s0,0,0,0c0,0,0,0,0,0s0,0,0,0c0,0,0,0,0,0s0,0,0,0c0,0,0,0,0,0s0,0,0,0c0,0,0,0,0,0s0,0,0,0c0,0,0,0,0,0s0,0,0,0c0,0,0,0,0,0s0,0,0,0c0,0,0,0,0,0s0,0,0,0c0,0,0,0,0,0s0,0,0,0c0,0,0,0,0,0s0,0,0,0c0,0,0,0,0,0s0,0,0,0c0,0,0,0,0,0s0,0,0,0c0,0,0,0,0,0s0,0,0,0c0,0,0,0,0,0s0,0,0,0c0,0,0,0,0,0s0,0,0,0c0,0,0,0,0,0s0,0,0,0c0,0,0,0,0,0s0,0,0,0c0,0,0,0,0,0s0,0,0,0c0,0,0,0,0,0s0,0,0,0c0,0,0,0,0,0s0,0,0,0c0,0,0,0,0,0s0,0,0,0c0,0,0,0,0,0s0,0,0,0c0,0,0,0,0,0s0,0,0,0c0,0,0,0,0,0s0,0,0,0c0,0,0,0,0,0s0,0,0,0c0,0,0,0,0,0s0,0,0,0c0,0,0,0,0,0s0,0,0,0c0,0,0,0,0,0s0,0,0,0c0,0,0,0,0,0,0,.5.4.9,1,1.2,0,0,0-.8.8-1.7.8-.9,2.5-2,6.6-2,0,0,0,0,0,0,0,0,0,0,0,0Z"/>
    <path class="st6" d="M39.2.7v.4c0,.3.2.6.6.6l8.3,1c.4,0,.7-.2.7-.6v-1.1c0-.3-.2-.6-.6-.7L39.9,0c-.4,0-.7.3-.7.6Z"/>
    <path class="st6" d="M32.1.9L21.3,0c-.4,0-.7.2-.7.6v1.6c0,.4.2.7.6.7h10.8c.3,0,.6-.3.6-.6v-.7c0-.3-.2-.6-.6-.7Z"/>
    <path class="st4" d="M53.1,46.1H17.5c-2.8,0-5.1-2.3-5.1-5.1V10c0-2.8,2.3-5.1,5.1-5.1h35.6c2.8,0,5.1,2.3,5.1,5.1v30.9c0,2.8-2.3,5.1-5.1,5.1Z"/>
    <path class="st2" d="M50.2,7.1c.7-.2,1.6-.2,2.3,0,.8.2,1.5.6,2.1,1.2.1.1.3.3.4.4.1.2.2.3.4.5,0,.2.2.4.3.5,0,.2.2.4.2.6.2.8.2,1.6,0,2.4h-.2c0-.2-.2-.4-.2-.5,0-.2-.2-.3-.2-.5,0-.2-.2-.3-.2-.5,0-.1-.2-.3-.2-.4,0,0,0-.1-.1-.2v-.2c-.1,0-.4-.4-.4-.4,0-.1-.2-.3-.3-.4-.1-.1-.2-.2-.3-.4-.4-.5-1-.9-1.5-1.2-.1,0-.3-.2-.4-.2l-.5-.2c-.2,0-.3-.1-.5-.2-.2,0-.3-.1-.5-.2v-.2h0Z"/>
    <path class="st5" d="M15.7,45.8l-10.4-2.3c-1.1-.2-1.8-1.2-1.8-2.3V13.7c0-.8.4-1.6,1.2-2l10.3-6,.8,40.1Z"/>
    <path class="st7" d="M35.3,46.1h-17.8c-2.8,0-5.1-2.3-5.1-5.1V10c0-2.8,2.3-5.1,5.1-5.1h17.8v41.2Z"/>
    <path class="st7" d="M10.8,26.2c0,4.3-1.8,7.9-4,7.9s-4-3.5-4-7.9,1.8-7.9,4-7.9,4,3.5,4,7.9Z"/>
    <path class="st0" d="M6.3,19.5s0,0,0,0,0,0,0,0,0,0,0,0,0,0,0,0,0,0,0,0,0,0,0,0,0,0,0,0,0,0,0,0,0,0,0,0,0,0,0,0,0,0,0,0,0,0,0,0,0,0,0,0,0,0,0,0,0,0,0,0,0,0,0,0,0,0,0,0,0,0,0,0,0,0,0,0,0,0,0,0,0,0,0,0,0,0,0,0,0,0,0,0,0,0,0,0,0,0,0,0,0,0,0,0,0,0,0,0,0,0,0,0,0,0,0,0,0,0,0,0,0,0,0,0,0,0,0,0,0,0,0,0,0,0,0,0,0,0,0,0,0,0,0,0,0,0,0,0,0,0,0,0,0,0,0,0,0,0,0,0,0,0,0,0,0,0,0,0c-1.9,0-3.4,3-3.4,6.7s1.5,6.7,3.4,6.7,0,0,0,0,0,0,0,0,0,0,0,0,0,0,0,0,0,0,0,0,0,0,0,0,0,0,0,0,0,0,0,0,0,0,0,0,0,0,0,0,0,0,0,0,0,0,0,0,0,0,0,0,0,0,0,0,0,0,0,0,0,0,0,0,0,0,0,0,0,0,0,0,0,0,0,0,0,0,0,0,0,0,0,0,0,0,0,0,0,0,0,0,0,0,0,0,0,0,0,0,0,0,0,0,0,0,0,0,0,0,0,0,0,0,0,0,0,0,0,0,0,0,0,0,0,0,0,0,0,0,0,0,0,0,0,0,0,0,0,0,0,0,0,0,0,0,0,0,0,0,0,0,0,0,0,0,0,0,0,0,0,0,0,0,0,0,0,0c1.9,0,3.4-3,3.4-6.7s-1.5-6.7-3.4-6.7Z"/>
    <path class="st6" d="M8,26.2c0,3.7-1.5,6.7-3.4,6.7s-3.4-3-3.4-6.7,1.5-6.7,3.4-6.7,3.4,3,3.4,6.7Z"/>
    <path class="st0" d="M5.6,26.2c0,1-.4,1.8-.9,1.8s-.9-.8-.9-1.8.4-1.8.9-1.8.9.8.9,1.8Z"/>
    <path class="st0" d="M5.5,26.2c0,1-.4,1.8-.9,1.8s-.9-.8-.9-1.8.4-1.8.9-1.8.9.8.9,1.8Z"/>
    <path class="st0" d="M5.5,26.2c0,1-.4,1.8-.9,1.8s-.9-.8-.9-1.8.4-1.8.9-1.8.9.8.9,1.8Z"/>
    <path class="st0" d="M5.5,26.2c0,1-.4,1.8-.9,1.8s-.9-.8-.9-1.8.4-1.8.9-1.8.9.8.9,1.8Z"/>
    <path class="st0" d="M5.5,26.2c0,1-.4,1.8-.9,1.8s-.9-.8-.9-1.8.4-1.8.9-1.8.9.8.9,1.8Z"/>
    <path class="st0" d="M5.5,26.2c0,1-.4,1.8-.9,1.8s-.9-.8-.9-1.8.4-1.8.9-1.8.9.8.9,1.8Z"/>
    <path class="st0" d="M5.5,26.2c0,1-.4,1.8-.9,1.8s-.9-.8-.9-1.8.4-1.8.9-1.8.9.8.9,1.8Z"/>
    <path class="st0" d="M5.5,26.2c0,1-.4,1.8-.9,1.8s-.9-.8-.9-1.8.4-1.8.9-1.8.9.8.9,1.8Z"/>
    <path class="st0" d="M5.5,26.2c0,1-.4,1.8-.9,1.8s-.9-.8-.9-1.8.4-1.8.9-1.8.9.8.9,1.8Z"/>
    <path class="st0" d="M5.5,26.2c0,1-.4,1.8-.9,1.8s-.9-.8-.9-1.8.4-1.8.9-1.8.9.8.9,1.8Z"/>
    <path class="st0" d="M5.5,26.2c0,1-.4,1.8-.9,1.8s-.9-.8-.9-1.8.4-1.8.9-1.8.9.8.9,1.8Z"/>
    <path class="st0" d="M5.5,26.2c0,1-.4,1.8-.9,1.8s-.9-.8-.9-1.8.4-1.8.9-1.8.9.8.9,1.8Z"/>
    <path class="st0" d="M5.5,26.2c0,1-.4,1.8-.9,1.8s-.9-.8-.9-1.8.4-1.8.9-1.8.9.8.9,1.8Z"/>
    <path class="st0" d="M5.5,26.2c0,1-.4,1.8-.9,1.8s-.9-.8-.9-1.8.4-1.8.9-1.8.9.8.9,1.8Z"/>
    <path class="st0" d="M5.5,26.2c0,1-.4,1.8-.9,1.8s-.9-.8-.9-1.8.4-1.8.9-1.8.9.8.9,1.8Z"/>
    <path class="st0" d="M5.5,26.2c0,1-.4,1.8-.9,1.8s-.9-.8-.9-1.8.4-1.8.9-1.8.9.8.9,1.8Z"/>
    <path class="st0" d="M5.5,26.2c0,1-.4,1.8-.9,1.8s-.9-.8-.9-1.8.4-1.8.9-1.8.9.8.9,1.8Z"/>
    <path class="st0" d="M5.5,26.2c0,1-.4,1.8-.9,1.8s-.9-.8-.9-1.8.4-1.8.9-1.8.9.8.9,1.8Z"/>
    <path class="st0" d="M5.4,26.2c0,1-.4,1.8-.9,1.8s-.9-.8-.9-1.8.4-1.8.9-1.8.9.8.9,1.8Z"/>
    <path class="st0" d="M5.4,26.2c0,1-.4,1.8-.9,1.8s-.9-.8-.9-1.8.4-1.8.9-1.8.9.8.9,1.8Z"/>
    <path class="st0" d="M5.4,26.2c0,1-.4,1.8-.9,1.8s-.9-.8-.9-1.8.4-1.8.9-1.8.9.8.9,1.8Z"/>
    <path class="st0" d="M5.4,26.2c0,1-.4,1.8-.9,1.8s-.9-.8-.9-1.8.4-1.8.9-1.8.9.8.9,1.8Z"/>
    <path class="st0" d="M5.4,26.2c0,1-.4,1.8-.9,1.8s-.9-.8-.9-1.8.4-1.8.9-1.8.9.8.9,1.8Z"/>
    <path class="st0" d="M5.4,26.2c0,1-.4,1.8-.9,1.8s-.9-.8-.9-1.8.4-1.8.9-1.8.9.8.9,1.8Z"/>
    <path class="st0" d="M5.4,26.2c0,1-.4,1.8-.9,1.8s-.9-.8-.9-1.8.4-1.8.9-1.8.9.8.9,1.8Z"/>
    <path class="st0" d="M5.4,26.2c0,1-.4,1.8-.9,1.8s-.9-.8-.9-1.8.4-1.8.9-1.8.9.8.9,1.8Z"/>
    <path class="st0" d="M5.4,26.2c0,1-.4,1.8-.9,1.8s-.9-.8-.9-1.8.4-1.8.9-1.8.9.8.9,1.8Z"/>
    <path class="st0" d="M5.4,26.2c0,1-.4,1.8-.9,1.8s-.9-.8-.9-1.8.4-1.8.9-1.8.9.8.9,1.8Z"/>
    <path class="st0" d="M5.4,26.2c0,1-.4,1.8-.9,1.8s-.9-.8-.9-1.8.4-1.8.9-1.8.9.8.9,1.8Z"/>
    <path class="st0" d="M5.4,26.2c0,1-.4,1.8-.9,1.8s-.9-.8-.9-1.8.4-1.8.9-1.8.9.8.9,1.8Z"/>
    <path class="st0" d="M5.4,26.2c0,1-.4,1.8-.9,1.8s-.9-.8-.9-1.8.4-1.8.9-1.8.9.8.9,1.8Z"/>
    <path class="st0" d="M5.4,26.2c0,1-.4,1.8-.9,1.8s-.9-.8-.9-1.8.4-1.8.9-1.8.9.8.9,1.8Z"/>
    <path class="st0" d="M5.4,26.2c0,1-.4,1.8-.9,1.8s-.9-.8-.9-1.8.4-1.8.9-1.8.9.8.9,1.8Z"/>
    <path class="st0" d="M5.4,26.2c0,1-.4,1.8-.9,1.8s-.9-.8-.9-1.8.4-1.8.9-1.8.9.8.9,1.8Z"/>
    <path class="st0" d="M5.4,26.2c0,1-.4,1.8-.9,1.8s-.9-.8-.9-1.8.4-1.8.9-1.8.9.8.9,1.8Z"/>
    <path class="st0" d="M5.3,26.2c0,1-.4,1.8-.9,1.8s-.9-.8-.9-1.8.4-1.8.9-1.8.9.8.9,1.8Z"/>
    <path class="st0" d="M5.3,26.2c0,1-.4,1.8-.9,1.8s-.9-.8-.9-1.8.4-1.8.9-1.8.9.8.9,1.8Z"/>
    <path class="st0" d="M5.3,26.2c0,1-.4,1.8-.9,1.8s-.9-.8-.9-1.8.4-1.8.9-1.8.9.8.9,1.8Z"/>
    <path class="st0" d="M5.3,26.2c0,1-.4,1.8-.9,1.8s-.9-.8-.9-1.8.4-1.8.9-1.8.9.8.9,1.8Z"/>
    <path class="st0" d="M5.3,26.2c0,1-.4,1.8-.9,1.8s-.9-.8-.9-1.8.4-1.8.9-1.8.9.8.9,1.8Z"/>
    <path class="st0" d="M5.3,26.2c0,1-.4,1.8-.9,1.8s-.9-.8-.9-1.8.4-1.8.9-1.8.9.8.9,1.8Z"/>
    <path class="st0" d="M5.3,26.2c0,1-.4,1.8-.9,1.8s-.9-.8-.9-1.8.4-1.8.9-1.8.9.8.9,1.8Z"/>
    <path class="st4" d="M4.1,24.4s0,0,0,0c0,0,0,0,0,0s0,0,0,0c0,0,0,0,0,0s0,0,0,0c0,0,0,0,0,0s0,0,0,0c0,0,0,0,0,0s0,0,0,0c0,0,0,0,0,0s0,0,0,0c0,0,0,0,0,0s0,0,0,0c0,0,0,0,0,0s0,0,0,0c0,0,0,0,0,0s0,0,0,0c0,0,0,0,0,0s0,0,0,0c0,0,0,0,0,0s0,0,0,0c0,0,0,0,0,0s0,0,0,0c0,0,0,0,0,0s0,0,0,0c0,0,0,0,0,0s0,0,0,0c0,0,0,0,0,0s0,0,0,0c0,0,0,0,0,0s0,0,0,0c0,0,0,0,0,0s0,0,0,0c0,0,0,0,0,0s0,0,0,0c0,0,0,0,0,0s0,0,0,0c0,0,0,0,0,0s0,0,0,0c0,0,0,0,0,0s0,0,0,0c0,0,0,0,0,0s0,0,0,0c0,0,0,0,0,0s0,0,0,0c0,0,0,0,0,0s0,0,0,0c0,0,0,0,0,0s0,0,0,0c0,0,0,0,0,0s0,0,0,0c0,0,0,0,0,0s0,0,0,0c0,0,0,0,0,0s0,0,0,0c0,0,0,0,0,0s0,0,0,0c0,0,0,0,0,0s0,0,0,0c0,0,0,0,0,0s0,0,0,0c0,0,0,0,0,0s0,0,0,0c0,0,0,0,0,0s0,0,0,0c0,0,0,0,0,0s0,0,0,0c0,0,0,0,0,0s0,0,0,0c0,0,0,0,0,0s0,0,0,0c0,0,0,0,0,0s0,0,0,0c0,0,0,0,0,0s0,0,0,0c0,0,0,0,0,0s0,0,0,0c0,0,0,0,0,0s0,0,0,0c0,0,0,0,0,0s0,0,0,0c0,0,0,0,0,0-.5,0-.9.8-.9,1.8s.4,1.8.9,1.8,0,0,0,0c0,0,0,0,0,0s0,0,0,0c0,0,0,0,0,0s0,0,0,0c0,0,0,0,0,0s0,0,0,0c0,0,0,0,0,0s0,0,0,0c0,0,0,0,0,0s0,0,0,0c0,0,0,0,0,0s0,0,0,0c0,0,0,0,0,0s0,0,0,0c0,0,0,0,0,0s0,0,0,0c0,0,0,0,0,0s0,0,0,0c0,0,0,0,0,0s0,0,0,0c0,0,0,0,0,0s0,0,0,0c0,0,0,0,0,0s0,0,0,0c0,0,0,0,0,0s0,0,0,0c0,0,0,0,0,0s0,0,0,0c0,0,0,0,0,0s0,0,0,0c0,0,0,0,0,0s0,0,0,0c0,0,0,0,0,0s0,0,0,0c0,0,0,0,0,0s0,0,0,0c0,0,0,0,0,0s0,0,0,0c0,0,0,0,0,0s0,0,0,0c0,0,0,0,0,0s0,0,0,0c0,0,0,0,0,0s0,0,0,0c0,0,0,0,0,0s0,0,0,0c0,0,0,0,0,0s0,0,0,0c0,0,0,0,0,0s0,0,0,0c0,0,0,0,0,0s0,0,0,0c0,0,0,0,0,0s0,0,0,0c0,0,0,0,0,0s0,0,0,0c0,0,0,0,0,0s0,0,0,0c0,0,0,0,0,0s0,0,0,0c0,0,0,0,0,0s0,0,0,0c0,0,0,0,0,0s0,0,0,0c0,0,0,0,0,0s0,0,0,0c0,0,0,0,0,0s0,0,0,0c0,0,0,0,0,0s0,0,0,0c0,0,0,0,0,0s0,0,0,0c0,0,0,0,0,0s0,0,0,0c0,0,0,0,0,0s0,0,0,0c0,0,0,0,0,0s0,0,0,0c0,0,0,0,0,0s0,0,0,0c0,0,0,0,0,0,.5,0,.9-.8.9-1.8,0-1-.4-1.8-.9-1.8Z"/>
    <path class="st5" d="M45.6,34.4s0,0,0,0c0,0,0,0,0,0s0,0,0,0c0,0,0,0,0,0,0,0,0,0,0,0s0,0,0,0c0,0,0,0,0,0,0,0,0,0,0,0,0,0,0,0,0,0,0,0,0,0,0,0s0,0,0,0c0,0,0,0,0,0,0,0,0,0,0,0,0,0,0,0,0,0,0,0,0,0,0,0,0,0,0,0,0,0,0,0,0,0,0,0,0,0,0,0,0,0,0,0,0,0,0,0,0,0,0,0,0,0,0,0,0,0,0,0,0,0,0,0,0,0,0,0,0,0,0,0,0,0,0,0,0,0s0,0,0,0c0,0,0,0,0,0,0,0,0,0,0,0,0,0,0,0,0,0,.2-.7.2-1.4-.3-2.1,0-.1-.2-.3-.3-.4-.2-.2-.4-.4-.6-.5-.7-.4-1.3-.4-1.9-.1-1,.4-2,1.5-3,2.1-3.2,1.8-7.5,1.2-10.1-1.5-1.6-1.6-3.7-.5-4.3,1.2,0,0,0,0,0,0,0,0,0,0,0,0,0,0,0,0,0,0,0,0,0,0,0,0,0,0,0,0,0,0,0,0,0,0,0,0,0,0,0,0,0,0,0,0,0,0,0,0,0,0,0,0,0,0,0,0,0,0,0,0,0,0,0,0,0,0,0,0,0,0,0,0,0,0,0,0,0,0,0,0,0,0,0,0,0,0,0,0,0,0,0,0,0,0,0,0,0,0,0,0,0,0,0,0,0,0,0,0,0,0,0,0,0,0,0,0,0,0,0,0,0,0,0,0,0,0,0,0,0,0,0,0,0,0,0,0,0,0,0,0,0,0,0,0,0,0,0,0,0,0,0,0,0,0,0,0,0,0,0,0,0,0,0,0,0,0,0,0-.3.8-.2,1.8.6,2.6,1.9,1.9,4.3,3.2,6.9,3.7,2.6.5,5.4.3,7.9-.7,1.1-.5,2.8-1.4,4-2.5.6-.5,1.1-1.1,1.3-1.8Z"/>
    <path class="st0" d="M27.2,13.7h-1.2c-3.2,0-5.9,2.6-5.9,5.8s2.6,5.8,5.9,5.8h1.2c3.2,0,5.8-2.6,5.8-5.8s-2.6-5.8-5.8-5.8Z"/>
    <path class="st6" d="M33,19.5c0,3.2-2.6,5.8-5.8,5.8s-5.9-2.6-5.9-5.8,2.6-5.8,5.9-5.8,5.8,2.6,5.8,5.8Z"/>
    <path class="st4" d="M31.5,19.4c0,2.3-1.9,4.2-4.2,4.2s-4.2-1.9-4.2-4.2,1.9-4.2,4.2-4.2,4.2,1.9,4.2,4.2Z"/>
    <path class="st2" d="M29.5,19.4c0,1.2-1,2.2-2.2,2.2s-2.2-1-2.2-2.2,1-2.2,2.2-2.2,2.2,1,2.2,2.2Z"/>
    <path class="st0" d="M44.6,13.7h-1.2c-3.2,0-5.9,2.6-5.9,5.8s2.6,5.8,5.9,5.8h1.2c3.2,0,5.8-2.6,5.8-5.8s-2.6-5.8-5.8-5.8Z"/>
    <path class="st6" d="M50.5,19.5c0,3.2-2.6,5.8-5.8,5.8s-5.9-2.6-5.9-5.8,2.6-5.8,5.9-5.8,5.8,2.6,5.8,5.8Z"/>
    <path class="st4" d="M49,19.4c0,2.3-1.9,4.2-4.2,4.2s-4.2-1.9-4.2-4.2,1.9-4.2,4.2-4.2,4.2,1.9,4.2,4.2Z"/>
    <path class="st2" d="M46.9,19.4c0,1.2-1,2.2-2.2,2.2s-2.2-1-2.2-2.2,1-2.2,2.2-2.2,2.2,1,2.2,2.2Z"/>
    <path class="st6" d="M45.3,30.7c-2.2-2.1-3.8.5-5.6,1.5-3.2,1.8-7.5,1.2-10.1-1.5-2.4-2.3-6,1.3-3.6,3.6,1.9,1.9,4.3,3.2,6.9,3.7,2.6.5,5.4.3,7.9-.7,2.4-1.1,7.2-3.6,4.6-6.7Z"/>
    <path class="st2" d="M27.8,33.4c-.2-.1-.3-.3-.5-.5l.9-.9c.1.1.3.3.4.4l-.9,1Z"/>
    <path class="st2" d="M35.3,36.4c-.5,0-.9,0-1.4-.1l.2-1.3c.4,0,.8,0,1.2.1v1.3ZM36,36.4v-1.3c.4,0,.8,0,1.2-.1l.2,1.3c-.5,0-.9.1-1.4.1ZM33.2,36.1c-.4,0-.9-.2-1.3-.4l.4-1.2c.4.1.8.2,1.2.3l-.3,1.3ZM38,36.1l-.3-1.3c.4,0,.8-.2,1.2-.3l.4,1.2c-.4.1-.9.3-1.3.4ZM31.3,35.5c-.4-.2-.8-.4-1.2-.6l.6-1.1c.4.2.7.4,1.1.5l-.5,1.2ZM40,35.5l-.5-1.2c.4-.2.7-.3,1.1-.5l.6,1.1c-.4.2-.8.4-1.2.6ZM41.8,34.6l-.7-1.1c.3-.2.7-.5,1-.7l.8,1c-.4.3-.7.6-1.1.8ZM29.4,34.6c-.4-.2-.8-.5-1.1-.8l.8-1c.3.3.7.5,1,.7l-.7,1.1Z"/>
    <path class="st2" d="M43.4,33.4l-.9-1c.1-.1.3-.3.4-.4l.9.9c-.2.2-.3.3-.5.5Z"/>
  </g>
</svg>