<svg width="12" height="13" viewBox="0 0 12 13" fill="none" xmlns="http://www.w3.org/2000/svg">
<path d="M6.01172 12.8694C3.85547 12.8694 1.88672 11.7444 0.808594 9.86938C-0.269531 8.01782 -0.269531 5.74438 0.808594 3.86938C1.88672 2.01782 3.85547 0.869385 6.01172 0.869385C8.14453 0.869385 10.1133 2.01782 11.1914 3.86938C12.2695 5.74438 12.2695 8.01782 11.1914 9.86938C10.1133 11.7444 8.14453 12.8694 6.01172 12.8694ZM8.66016 5.76782H8.63672C8.87109 5.55688 8.87109 5.20532 8.63672 4.97095C8.42578 4.76001 8.07422 4.76001 7.86328 4.97095L5.26172 7.59595L4.16016 6.49438C3.92578 6.26001 3.57422 6.26001 3.36328 6.49438C3.12891 6.70532 3.12891 7.05688 3.36328 7.26782L4.86328 8.76782C5.07422 9.0022 5.42578 9.0022 5.66016 8.76782L8.66016 5.76782Z" fill="#00C898"/>
</svg>
