<svg width="67" height="67" viewBox="0 0 67 67" fill="none" xmlns="http://www.w3.org/2000/svg">
<path d="M0 33.5C0 15.0488 14.918 0 33.5 0C51.9512 0 67 15.0488 67 33.5C67 52.082 51.9512 67 33.5 67C14.918 67 0 52.082 0 33.5ZM48.5488 27.7422C49.9883 26.3027 49.9883 24.0781 48.5488 22.6387C47.1094 21.1992 44.8848 21.1992 43.4453 22.6387L29.3125 36.7715L23.4238 31.0137C21.9844 29.5742 19.7598 29.5742 18.3203 31.0137C16.8809 32.4531 16.8809 34.6777 18.3203 36.1172L26.6953 44.4922C28.1348 45.9316 30.3594 45.9316 31.7988 44.4922L48.5488 27.7422Z" fill="#00C898"/>
</svg>
