<svg width="44" height="35" viewBox="0 0 44 35" fill="none" xmlns="http://www.w3.org/2000/svg">
<path d="M24.2366 29.5312V26.25H35.2533V31.7188C35.2533 33.5645 33.7385 35 31.9483 35H3.30499C1.44594 35 0 33.5645 0 31.7188V12.0312C0 10.2539 1.44594 8.75 3.30499 8.75H11.0166V29.5312C11.0166 30.1465 11.4986 30.625 12.1183 30.625H23.135C23.6858 30.625 24.2366 30.1465 24.2366 29.5312ZM7.16082 30.0098V27.959C7.16082 27.6855 6.81655 27.3438 6.54114 27.3438H4.47551C4.13124 27.3438 3.85583 27.6855 3.85583 27.959V30.0098C3.85583 30.3516 4.13124 30.625 4.47551 30.625H6.54114C6.81655 30.625 7.16082 30.3516 7.16082 30.0098ZM7.16082 22.9004V20.8496C7.16082 20.5762 6.81655 20.2344 6.54114 20.2344H4.47551C4.13124 20.2344 3.85583 20.5762 3.85583 20.8496V22.9004C3.85583 23.2422 4.13124 23.5156 4.47551 23.5156H6.54114C6.81655 23.5156 7.16082 23.2422 7.16082 22.9004ZM7.16082 15.791V13.7402C7.16082 13.4668 6.81655 13.125 6.54114 13.125H4.47551C4.13124 13.125 3.85583 13.3984 3.85583 13.7402V15.791C3.85583 16.1328 4.13124 16.4062 4.47551 16.4062H6.54114C6.81655 16.4062 7.16082 16.1328 7.16082 15.791ZM28.0925 27.959V30.0098C28.0925 30.3516 28.3679 30.625 28.7121 30.625H30.7778C31.0532 30.625 31.3974 30.3516 31.3974 30.0098V27.959C31.3974 27.6855 31.0532 27.3438 30.7778 27.3438H28.7121C28.3679 27.3438 28.0925 27.6855 28.0925 27.959ZM40.6927 0C42.5518 0 44.0666 1.50391 43.9977 3.28125V20.7812C43.9977 22.627 42.483 24.0625 40.6927 24.0625H16.4561C14.5971 24.0625 13.1511 22.627 13.1511 20.7812V3.28125C13.1511 1.50391 14.6659 0 16.4561 0H40.6927ZM20.8628 4.375C19.6923 4.375 18.6594 5.40039 18.6594 6.5625C18.6594 7.79297 19.6923 8.75 20.8628 8.75C22.0333 8.75 23.0661 7.79297 23.0661 6.5625C23.0661 5.40039 22.0333 4.375 20.8628 4.375ZM39.5222 19.1406C39.6599 18.7988 39.6599 18.3203 39.4534 18.0469L32.086 7.10938C31.8794 6.76758 31.5352 6.5625 31.1909 6.5625C30.7778 6.5625 30.4335 6.76758 30.2269 7.10938L25.8891 13.5352L24.3743 11.416C24.1678 11.1426 23.8235 10.9375 23.4792 10.9375C23.135 10.9375 22.8595 11.1426 22.653 11.416L17.8332 17.9785C17.5578 18.3203 17.5578 18.7305 17.6955 19.1406C17.9021 19.4824 18.2463 19.6875 18.6594 19.6875H38.5583C38.9025 19.6875 39.3157 19.4824 39.5222 19.1406Z" fill="#ED332B"/>
</svg>
