<svg width="46" height="46" viewBox="0 0 46 46" fill="none" xmlns="http://www.w3.org/2000/svg">
<path d="M25.2366 34.5312V31.25H36.2533V36.7188C36.2533 38.5645 34.7385 40 32.9483 40H4.30499C2.44594 40 1 38.5645 1 36.7188V17.0312C1 15.2539 2.44594 13.75 4.30499 13.75H12.0166V34.5312C12.0166 35.1465 12.4986 35.625 13.1183 35.625H24.135C24.6858 35.625 25.2366 35.1465 25.2366 34.5312ZM8.16082 35.0098V32.959C8.16082 32.6855 7.81655 32.3438 7.54114 32.3438H5.47551C5.13124 32.3438 4.85583 32.6855 4.85583 32.959V35.0098C4.85583 35.3516 5.13124 35.625 5.47551 35.625H7.54114C7.81655 35.625 8.16082 35.3516 8.16082 35.0098ZM8.16082 27.9004V25.8496C8.16082 25.5762 7.81655 25.2344 7.54114 25.2344H5.47551C5.13124 25.2344 4.85583 25.5762 4.85583 25.8496V27.9004C4.85583 28.2422 5.13124 28.5156 5.47551 28.5156H7.54114C7.81655 28.5156 8.16082 28.2422 8.16082 27.9004ZM8.16082 20.791V18.7402C8.16082 18.4668 7.81655 18.125 7.54114 18.125H5.47551C5.13124 18.125 4.85583 18.3984 4.85583 18.7402V20.791C4.85583 21.1328 5.13124 21.4062 5.47551 21.4062H7.54114C7.81655 21.4062 8.16082 21.1328 8.16082 20.791ZM29.0925 32.959V35.0098C29.0925 35.3516 29.3679 35.625 29.7121 35.625H31.7778C32.0532 35.625 32.3974 35.3516 32.3974 35.0098V32.959C32.3974 32.6855 32.0532 32.3438 31.7778 32.3438H29.7121C29.3679 32.3438 29.0925 32.6855 29.0925 32.959ZM41.6927 5C43.5518 5 45.0666 6.50391 44.9977 8.28125V25.7812C44.9977 27.627 43.483 29.0625 41.6927 29.0625H17.4561C15.5971 29.0625 14.1511 27.627 14.1511 25.7812V8.28125C14.1511 6.50391 15.6659 5 17.4561 5H41.6927ZM21.8628 9.375C20.6923 9.375 19.6594 10.4004 19.6594 11.5625C19.6594 12.793 20.6923 13.75 21.8628 13.75C23.0333 13.75 24.0661 12.793 24.0661 11.5625C24.0661 10.4004 23.0333 9.375 21.8628 9.375ZM40.5222 24.1406C40.6599 23.7988 40.6599 23.3203 40.4534 23.0469L33.086 12.1094C32.8794 11.7676 32.5352 11.5625 32.1909 11.5625C31.7778 11.5625 31.4335 11.7676 31.2269 12.1094L26.8891 18.5352L25.3743 16.416C25.1678 16.1426 24.8235 15.9375 24.4792 15.9375C24.135 15.9375 23.8595 16.1426 23.653 16.416L18.8332 22.9785C18.5578 23.3203 18.5578 23.7305 18.6955 24.1406C18.9021 24.4824 19.2463 24.6875 19.6594 24.6875H39.5583C39.9025 24.6875 40.3157 24.4824 40.5222 24.1406Z" fill="#00C898"/>
</svg>
