<svg width="16" height="16" viewBox="0 0 16 16" fill="none" xmlns="http://www.w3.org/2000/svg">
<path d="M13.6016 5.91406C13.6953 6.125 13.625 6.33594 13.4609 6.5L12.4531 7.41406C12.4766 7.60156 12.4766 7.8125 12.4766 8C12.4766 8.21094 12.4766 8.42188 12.4531 8.60938L13.4609 9.52344C13.625 9.66406 13.6953 9.89844 13.6016 10.1094C13.5078 10.3906 13.3906 10.6484 13.25 10.9062L13.1328 11.0938C12.9687 11.3516 12.8047 11.6094 12.6172 11.8203C12.4766 12.0078 12.2422 12.0547 12.0312 11.9844L10.7422 11.5859C10.4141 11.8203 10.0625 12.0078 9.71094 12.1719L9.40625 13.5078C9.35937 13.7188 9.19531 13.8828 8.98437 13.9297C8.65625 13.9766 8.32812 14 7.97656 14C7.64844 14 7.32031 13.9766 6.99219 13.9297C6.78125 13.8828 6.61719 13.7188 6.57031 13.5078L6.26562 12.1719C5.89062 12.0078 5.5625 11.8203 5.23437 11.5859L3.94531 11.9844C3.73437 12.0547 3.5 12.0078 3.35937 11.8438C3.17187 11.6094 3.00781 11.3516 2.84375 11.0938L2.72656 10.9062C2.58594 10.6484 2.46875 10.3906 2.375 10.1094C2.28125 9.89844 2.35156 9.6875 2.51562 9.52344L3.52344 8.60938C3.5 8.42188 3.5 8.21094 3.5 8C3.5 7.8125 3.5 7.60156 3.52344 7.41406L2.51562 6.5C2.35156 6.33594 2.28125 6.125 2.375 5.91406C2.46875 5.63281 2.58594 5.375 2.72656 5.11719L2.84375 4.92969C3.00781 4.67188 3.17187 4.41406 3.35937 4.17969C3.5 4.01562 3.73437 3.96875 3.94531 4.03906L5.23437 4.4375C5.5625 4.20312 5.91406 3.99219 6.26562 3.85156L6.57031 2.51562C6.61719 2.30469 6.78125 2.14062 6.99219 2.09375C7.32031 2.04688 7.64844 2 8 2C8.32812 2 8.65625 2.04688 8.98437 2.09375C9.19531 2.11719 9.35937 2.30469 9.40625 2.51562L9.71094 3.85156C10.0859 3.99219 10.4141 4.20312 10.7422 4.4375L12.0312 4.03906C12.2422 3.96875 12.4766 4.01562 12.6172 4.17969C12.8047 4.41406 12.9687 4.67188 13.1328 4.92969L13.25 5.11719C13.3906 5.375 13.5078 5.63281 13.625 5.91406H13.6016ZM8 9.875C8.65625 9.875 9.26562 9.52344 9.61719 8.9375C9.94531 8.375 9.94531 7.64844 9.61719 7.0625C9.26562 6.5 8.65625 6.125 8 6.125C7.32031 6.125 6.71094 6.5 6.35937 7.0625C6.03125 7.64844 6.03125 8.375 6.35937 8.9375C6.71094 9.52344 7.32031 9.875 8 9.875Z" fill="#116C7E"/>
</svg>
