<svg width="16" height="16" viewBox="0 0 16 16" fill="none" xmlns="http://www.w3.org/2000/svg">
<path d="M2.46094 5.25781C2.32031 5.65625 1.875 5.86719 1.5 5.72656C1.10156 5.58594 0.890625 5.16406 1.03125 4.76562C1.28906 4.03906 1.71094 3.35938 2.27344 2.79688C4.33594 0.757812 7.64062 0.757812 9.70312 2.79688L10.1016 3.21875V2.375C10.1016 1.97656 10.4531 1.625 10.8516 1.625C11.2734 1.625 11.6016 1.97656 11.6016 2.375V5C11.6016 5.42188 11.2734 5.75 10.8516 5.75H8.25C7.82812 5.75 7.5 5.42188 7.5 5C7.5 4.60156 7.82812 4.25 8.25 4.25H9.04688L8.64844 3.85156C7.17188 2.39844 4.80469 2.39844 3.32812 3.85156C2.92969 4.27344 2.625 4.74219 2.46094 5.25781ZM0.914062 7.29688C0.9375 7.27344 0.984375 7.27344 1.00781 7.27344C1.05469 7.27344 1.07812 7.25 1.125 7.25H3.75C4.14844 7.25 4.5 7.60156 4.5 8C4.5 8.42188 4.14844 8.75 3.75 8.75H2.92969L3.32812 9.14844V9.17188C4.80469 10.625 7.17188 10.625 8.64844 9.17188C9.04688 8.75 9.35156 8.28125 9.51562 7.76562C9.65625 7.36719 10.1016 7.15625 10.4766 7.29688C10.875 7.4375 11.0859 7.85938 10.9453 8.25781C10.6875 8.98438 10.2656 9.64062 9.70312 10.2266C7.64062 12.2656 4.33594 12.2656 2.27344 10.2266L1.875 9.80469V10.625C1.875 11.0469 1.52344 11.375 1.125 11.375C0.703125 11.375 0.375 11.0469 0.375 10.625V8.02344C0.375 7.97656 0.375 7.92969 0.375 7.90625C0.375 7.85938 0.375 7.83594 0.398438 7.8125C0.421875 7.69531 0.492188 7.57812 0.585938 7.48438C0.679688 7.39062 0.796875 7.32031 0.914062 7.29688Z" fill="white"/>
</svg>

