<svg width="16" height="13" viewBox="0 0 16 13" fill="none" xmlns="http://www.w3.org/2000/svg">
<path d="M0.475098 5.98438C0.615723 5.84375 0.803223 5.75 1.01416 5.75H1.76416V10.25H1.01416C0.803223 10.25 0.615723 10.1797 0.475098 10.0391C0.334473 9.89844 0.26416 9.71094 0.26416 9.5V6.5C0.26416 6.3125 0.334473 6.125 0.475098 5.98438ZM11.1392 2.75C12.1704 2.75 13.0142 3.59375 13.0142 4.625V11C13.0142 11.8438 12.3345 12.5 11.5142 12.5H4.01416C3.17041 12.5 2.51416 11.8438 2.51416 11V4.625C2.51416 3.59375 3.33447 2.75 4.38916 2.75H7.01416V1.25C7.01416 0.851562 7.34229 0.5 7.76416 0.5C8.1626 0.5 8.51416 0.851562 8.51416 1.25V2.75H11.1392ZM6.26416 10.25V9.5H4.76416V10.25H6.26416ZM5.51416 7.4375C6.02979 7.4375 6.45166 7.03906 6.45166 6.5C6.45166 5.98438 6.02979 5.5625 5.51416 5.5625C4.9751 5.5625 4.57666 5.98438 4.57666 6.5C4.57666 7.03906 4.9751 7.4375 5.51416 7.4375ZM8.51416 10.25V9.5H7.01416V10.25H8.51416ZM10.7642 10.25V9.5H9.26416V10.25H10.7642ZM10.0142 7.4375C10.5298 7.4375 10.9517 7.03906 10.9517 6.5C10.9517 5.98438 10.5298 5.5625 10.0142 5.5625C9.4751 5.5625 9.07666 5.98438 9.07666 6.5C9.07666 7.03906 9.4751 7.4375 10.0142 7.4375ZM15.0298 5.98438C15.1704 6.125 15.2642 6.3125 15.2642 6.5V9.5C15.2642 9.71094 15.1704 9.89844 15.0298 10.0391C14.8892 10.1797 14.7017 10.25 14.5142 10.25H13.7642V5.75H14.5142C14.7017 5.75 14.8892 5.84375 15.0298 5.98438Z" fill="white"/>
</svg>
