<svg width="13" height="13" viewBox="0 0 13 13" fill="none" xmlns="http://www.w3.org/2000/svg">
<path d="M4.15625 9.52344L3.42969 8.79688C3.24219 8.60938 3.17188 8.32812 3.24219 8.04688C3.3125 7.83594 3.40625 7.57812 3.52344 7.25H1.0625C0.851562 7.25 0.664062 7.15625 0.570312 6.96875C0.453125 6.80469 0.453125 6.59375 0.570312 6.40625L1.78906 4.34375C2.09375 3.82812 2.65625 3.5 3.24219 3.5H5.1875C5.23438 3.40625 5.28125 3.33594 5.35156 3.24219C7.27344 0.40625 10.1328 0.3125 11.8203 0.640625C12.1016 0.6875 12.3125 0.898438 12.3594 1.17969C12.6875 2.86719 12.5938 5.72656 9.75781 7.64844C9.66406 7.71875 9.57031 7.76562 9.5 7.8125V9.75781C9.5 10.3438 9.17188 10.9062 8.65625 11.2109L6.59375 12.4297C6.40625 12.5234 6.19531 12.5469 6.03125 12.4297C5.84375 12.3359 5.75 12.1484 5.75 11.9375V9.42969C5.39844 9.54688 5.11719 9.64062 4.90625 9.71094C4.64844 9.80469 4.34375 9.73438 4.15625 9.52344ZM9.5 4.4375C10.0156 4.4375 10.4375 4.03906 10.4375 3.5C10.4375 2.98438 10.0156 2.5625 9.5 2.5625C8.96094 2.5625 8.5625 2.98438 8.5625 3.5C8.5625 4.03906 8.96094 4.4375 9.5 4.4375Z" fill="white"/>
</svg>
