<svg width="12" height="11" viewBox="0 0 12 11" fill="none" xmlns="http://www.w3.org/2000/svg">
<path d="M10.8984 2.54688C11.0859 2.73438 11.25 3.08594 11.25 3.34375V9.25C11.25 10.0938 10.5703 10.75 9.75 10.75H2.25C1.40625 10.75 0.75 10.0938 0.75 9.25V1.75C0.75 0.929688 1.40625 0.25 2.25 0.25H8.15625C8.41406 0.25 8.76562 0.414062 8.92969 0.578125L10.8984 2.54688ZM6 9.25C6.82031 9.25 7.5 8.59375 7.5 7.75C7.5 6.92969 6.82031 6.25 6 6.25C5.15625 6.25 4.5 6.92969 4.5 7.75C4.5 8.59375 5.15625 9.25 6 9.25ZM8.25 4.375V2.125C8.25 1.9375 8.0625 1.75 7.875 1.75H2.625C2.41406 1.75 2.25 1.9375 2.25 2.125V4.375C2.25 4.58594 2.41406 4.75 2.625 4.75H7.875C8.0625 4.75 8.25 4.58594 8.25 4.375Z" fill="#ffffff"/>
</svg>
