<svg width="25" height="22" viewBox="0 0 25 22" fill="none" xmlns="http://www.w3.org/2000/svg">
<path d="M6.875 2.0625C6.875 0.945312 7.77734 0 8.9375 0H11V3.4375C11 3.82422 11.3008 4.125 11.6875 4.125H13.0625C13.4062 4.125 13.75 3.82422 13.75 3.4375V0H15.8125C16.9297 0 17.875 0.945312 17.875 2.0625V7.5625C17.875 8.72266 16.9297 9.625 15.8125 9.625H8.9375C7.77734 9.625 6.875 8.72266 6.875 7.5625V2.0625ZM4.125 12.375V15.8125C4.125 16.1992 4.42578 16.5 4.8125 16.5H6.1875C6.53125 16.5 6.875 16.1992 6.875 15.8125V12.375H8.9375C10.0547 12.375 11 13.3203 11 14.4375V19.9375C11 21.0977 10.0547 22 8.9375 22H2.0625C0.902344 22 0 21.0977 0 19.9375V14.4375C0 13.3203 0.902344 12.375 2.0625 12.375H4.125ZM17.875 12.375V15.8125C17.875 16.1992 18.1758 16.5 18.5625 16.5H19.9375C20.2812 16.5 20.625 16.1992 20.625 15.8125V12.375H22.6875C23.8047 12.375 24.75 13.3203 24.75 14.4375V19.9375C24.75 21.0977 23.8047 22 22.6875 22H15.8125C14.6523 22 13.75 21.0977 13.75 19.9375V14.4375C13.75 13.3203 14.6523 12.375 15.8125 12.375H17.875Z" fill="white"/>
</svg>
