<svg width="14" height="9" viewBox="0 0 14 9" fill="none" xmlns="http://www.w3.org/2000/svg">
<path d="M4.75 6.75C3.48438 6.75 2.5 5.74219 2.5 4.5C2.5 3.25781 3.48438 2.25 4.75 2.25C5.99219 2.25 7 3.25781 7 4.5C7 5.74219 5.99219 6.75 4.75 6.75ZM9.25 9H4.75C2.24219 9 0.25 6.98438 0.25 4.5C0.25 2.01562 2.24219 0 4.75 0H9.25C11.7344 0 13.75 2.01562 13.75 4.5C13.75 6.98438 11.7344 9 9.25 9ZM9.25 1.5H4.75C3.08594 1.5 1.75 2.85938 1.75 4.5C1.75 6.16406 3.08594 7.5 4.75 7.5H9.25C10.8906 7.5 12.25 6.16406 12.25 4.5C12.25 2.85938 10.8906 1.5 9.25 1.5Z" fill="white"/>
</svg>
