<svg width="16" height="16" viewBox="0 0 16 16" fill="none" xmlns="http://www.w3.org/2000/svg">
<path d="M10.25 9.125C9.78125 9.125 9.35938 9.05469 8.96094 8.91406L4.69531 13.1797C4.41406 13.4609 3.99219 13.625 3.57031 13.625C2.70312 13.625 2 12.9219 2 12.0547C2 11.6328 2.16406 11.2109 2.44531 10.9297L6.71094 6.66406C6.57031 6.26562 6.5 5.84375 6.5 5.375C6.5 3.3125 8.16406 1.625 10.25 1.625C10.6016 1.625 10.9531 1.69531 11.2812 1.78906C11.5156 1.85938 11.5859 2.16406 11.3984 2.35156L9.59375 4.15625C9.52344 4.22656 9.5 4.32031 9.5 4.41406V5.75C9.5 5.96094 9.66406 6.125 9.875 6.125H11.2109C11.3047 6.125 11.3984 6.10156 11.4688 6.03125L13.2734 4.22656C13.4609 4.03906 13.7656 4.08594 13.8359 4.34375C13.9297 4.67188 14 5.02344 14 5.375C14 7.46094 12.3125 9.125 10.25 9.125ZM3.875 11.1875C3.54688 11.1875 3.3125 11.4453 3.3125 11.75C3.3125 12.0781 3.54688 12.3125 3.875 12.3125C4.17969 12.3125 4.4375 12.0781 4.4375 11.75C4.4375 11.4453 4.17969 11.1875 3.875 11.1875Z" fill="#116C7E"/>
</svg>
