<svg width="24" height="25" viewBox="0 0 24 25" fill="none" xmlns="http://www.w3.org/2000/svg">
<rect y="0.5" width="24" height="24" rx="3" fill="#ED332B"/>
<path d="M9.91406 7.42188C10.0312 7.16406 10.2891 7 10.5703 7H13.4062C13.6875 7 13.9453 7.16406 14.0625 7.42188L14.25 7.75H16.5C16.8984 7.75 17.25 8.10156 17.25 8.5C17.25 8.92188 16.8984 9.25 16.5 9.25H7.5C7.07812 9.25 6.75 8.92188 6.75 8.5C6.75 8.10156 7.07812 7.75 7.5 7.75H9.75L9.91406 7.42188ZM16.5 10L15.9844 17.9453C15.9609 18.5547 15.4688 19 14.8594 19H9.11719C8.50781 19 8.01562 18.5547 7.99219 17.9453L7.5 10H16.5Z" fill="white"/>
</svg>
