<svg width="16" height="16" viewBox="0 0 16 16" fill="none" xmlns="http://www.w3.org/2000/svg">
<path d="M8.25 8.5C7.17188 8.5 6.1875 7.9375 5.64844 7C5.10938 6.08594 5.10938 4.9375 5.64844 4C6.1875 3.08594 7.17188 2.5 8.25 2.5C9.30469 2.5 10.2891 3.08594 10.8281 4C11.3672 4.9375 11.3672 6.08594 10.8281 7C10.2891 7.9375 9.30469 8.5 8.25 8.5ZM7.17188 9.625H9.30469C11.625 9.625 13.5 11.5 13.5 13.8203C13.5 14.1953 13.1719 14.5 12.7969 14.5H3.67969C3.30469 14.5 3 14.1953 3 13.8203C3 11.5 4.85156 9.625 7.17188 9.625Z" fill="#116C7E"/>
</svg>
