<svg width="12" height="13" viewBox="0 0 12 13" fill="none" xmlns="http://www.w3.org/2000/svg">
<path d="M6 0.5C9.30469 0.5 12 3.19531 12 6.5C12 9.82812 9.30469 12.5 6 12.5C2.67188 12.5 0 9.82812 0 6.5C0 3.19531 2.67188 0.5 6 0.5ZM5.4375 4.0625V7.0625C5.4375 7.39062 5.67188 7.625 6 7.625C6.30469 7.625 6.5625 7.39062 6.5625 7.0625V4.0625C6.5625 3.75781 6.30469 3.5 6 3.5C5.67188 3.5 5.4375 3.75781 5.4375 4.0625ZM6 9.875C6.39844 9.875 6.72656 9.54688 6.72656 9.14844C6.72656 8.75 6.39844 8.42188 6 8.42188C5.57812 8.42188 5.25 8.75 5.25 9.14844C5.25 9.54688 5.57812 9.875 6 9.875Z" fill="#ED332B"/>
</svg>
