<svg width="12" height="13" viewBox="0 0 12 13" fill="none" xmlns="http://www.w3.org/2000/svg">
<path d="M6.01172 12.3694C3.85547 12.3694 1.88672 11.2444 0.808594 9.36938C-0.269531 7.51782 -0.269531 5.24438 0.808594 3.36938C1.88672 1.51782 3.85547 0.369385 6.01172 0.369385C8.14453 0.369385 10.1133 1.51782 11.1914 3.36938C12.2695 5.24438 12.2695 7.51782 11.1914 9.36938C10.1133 11.2444 8.14453 12.3694 6.01172 12.3694ZM6.01172 3.36938C5.68359 3.36938 5.44922 3.6272 5.44922 3.93188V6.55688C5.44922 6.88501 5.68359 7.11938 6.01172 7.11938C6.31641 7.11938 6.57422 6.88501 6.57422 6.55688V3.93188C6.57422 3.6272 6.31641 3.36938 6.01172 3.36938ZM5.26172 8.61938C5.26172 9.04126 5.58984 9.36938 6.01172 9.36938C6.41016 9.36938 6.76172 9.04126 6.76172 8.61938C6.76172 8.22095 6.41016 7.86938 6.01172 7.86938C5.58984 7.86938 5.26172 8.22095 5.26172 8.61938Z" fill="#F9CA58"/>
</svg>
